G04 #@! TF.GenerationSoftware,KiCad,Pcbnew,(6.0.0)*
G04 #@! TF.CreationDate,2022-04-22T22:08:31+02:00*
G04 #@! TF.ProjectId,keyboard_v1.0,6b657962-6f61-4726-945f-76312e302e6b,rev?*
G04 #@! TF.SameCoordinates,Original*
G04 #@! TF.FileFunction,Soldermask,Top*
G04 #@! TF.FilePolarity,Negative*
%FSLAX46Y46*%
G04 Gerber Fmt 4.6, Leading zero omitted, Abs format (unit mm)*
G04 Created by KiCad (PCBNEW (6.0.0)) date 2022-04-22 22:08:31*
%MOMM*%
%LPD*%
G01*
G04 APERTURE LIST*
G04 Aperture macros list*
%AMRoundRect*
0 Rectangle with rounded corners*
0 $1 Rounding radius*
0 $2 $3 $4 $5 $6 $7 $8 $9 X,Y pos of 4 corners*
0 Add a 4 corners polygon primitive as box body*
4,1,4,$2,$3,$4,$5,$6,$7,$8,$9,$2,$3,0*
0 Add four circle primitives for the rounded corners*
1,1,$1+$1,$2,$3*
1,1,$1+$1,$4,$5*
1,1,$1+$1,$6,$7*
1,1,$1+$1,$8,$9*
0 Add four rect primitives between the rounded corners*
20,1,$1+$1,$2,$3,$4,$5,0*
20,1,$1+$1,$4,$5,$6,$7,0*
20,1,$1+$1,$6,$7,$8,$9,0*
20,1,$1+$1,$8,$9,$2,$3,0*%
G04 Aperture macros list end*
%ADD10RoundRect,0.250000X0.475000X-0.337500X0.475000X0.337500X-0.475000X0.337500X-0.475000X-0.337500X0*%
%ADD11R,1.500000X1.000000*%
%ADD12R,1.700000X1.700000*%
%ADD13O,1.700000X1.700000*%
%ADD14C,4.000000*%
%ADD15C,1.750000*%
%ADD16RoundRect,0.250000X0.350000X0.450000X-0.350000X0.450000X-0.350000X-0.450000X0.350000X-0.450000X0*%
%ADD17RoundRect,0.250000X-0.475000X0.337500X-0.475000X-0.337500X0.475000X-0.337500X0.475000X0.337500X0*%
%ADD18RoundRect,0.250000X-0.337500X-0.475000X0.337500X-0.475000X0.337500X0.475000X-0.337500X0.475000X0*%
%ADD19RoundRect,0.250000X0.337500X0.475000X-0.337500X0.475000X-0.337500X-0.475000X0.337500X-0.475000X0*%
%ADD20C,0.650000*%
%ADD21R,0.600000X1.450000*%
%ADD22R,0.300000X1.450000*%
%ADD23O,1.000000X2.100000*%
%ADD24O,1.000000X1.600000*%
%ADD25R,2.150000X5.500000*%
%ADD26R,1.800000X2.500000*%
%ADD27RoundRect,0.250000X-0.350000X-0.450000X0.350000X-0.450000X0.350000X0.450000X-0.350000X0.450000X0*%
%ADD28RoundRect,0.150000X0.150000X-0.587500X0.150000X0.587500X-0.150000X0.587500X-0.150000X-0.587500X0*%
%ADD29RoundRect,0.250000X0.450000X-0.350000X0.450000X0.350000X-0.450000X0.350000X-0.450000X-0.350000X0*%
%ADD30R,0.900000X1.500000*%
%ADD31R,1.500000X0.900000*%
%ADD32C,0.600000*%
%ADD33R,0.900000X0.900000*%
%ADD34C,1.600000*%
%ADD35R,1.200000X1.200000*%
%ADD36C,1.200000*%
%ADD37RoundRect,0.250000X-0.450000X0.350000X-0.450000X-0.350000X0.450000X-0.350000X0.450000X0.350000X0*%
%ADD38C,3.200000*%
%ADD39RoundRect,0.237500X-0.237500X0.287500X-0.237500X-0.287500X0.237500X-0.287500X0.237500X0.287500X0*%
%ADD40R,2.200000X2.200000*%
%ADD41O,2.200000X2.200000*%
%ADD42C,2.800000*%
%ADD43R,1.460500X0.533400*%
%ADD44RoundRect,0.249999X-0.450001X-1.425001X0.450001X-1.425001X0.450001X1.425001X-0.450001X1.425001X0*%
%ADD45R,1.460500X0.355600*%
%ADD46R,5.500000X2.150000*%
%ADD47O,1.600000X1.600000*%
%ADD48R,1.600000X1.600000*%
%ADD49RoundRect,0.150000X-0.587500X-0.150000X0.587500X-0.150000X0.587500X0.150000X-0.587500X0.150000X0*%
%ADD50R,1.780000X3.150000*%
G04 APERTURE END LIST*
D10*
X97467000Y-41472500D03*
X97467000Y-39397500D03*
D11*
X102450000Y-123400000D03*
X102450000Y-120200000D03*
X97550000Y-120200000D03*
X97550000Y-123400000D03*
D12*
X48185000Y-78384000D03*
D13*
X48185000Y-75844000D03*
D14*
X60000000Y-115000000D03*
D15*
X54920000Y-115000000D03*
X65080000Y-115000000D03*
D10*
X95063000Y-41472500D03*
X95063000Y-39397500D03*
D16*
X68979000Y-49961000D03*
X66979000Y-49961000D03*
D17*
X67981000Y-39479500D03*
X67981000Y-41554500D03*
D10*
X136473000Y-61148500D03*
X136473000Y-59073500D03*
D12*
X65796000Y-44319000D03*
D13*
X65796000Y-46859000D03*
D18*
X92747500Y-47599000D03*
X94822500Y-47599000D03*
D19*
X120965500Y-52102000D03*
X118890500Y-52102000D03*
D20*
X58390000Y-35100000D03*
X52610000Y-35100000D03*
D21*
X58750000Y-36545000D03*
X57950000Y-36545000D03*
D22*
X56750000Y-36545000D03*
X55750000Y-36545000D03*
X55250000Y-36545000D03*
X54250000Y-36545000D03*
D21*
X53050000Y-36545000D03*
X52250000Y-36545000D03*
X52250000Y-36545000D03*
X53050000Y-36545000D03*
D22*
X53750000Y-36545000D03*
X54750000Y-36545000D03*
X56250000Y-36545000D03*
X57250000Y-36545000D03*
D21*
X57950000Y-36545000D03*
X58750000Y-36545000D03*
D23*
X51180000Y-35630000D03*
D24*
X51180000Y-31450000D03*
X59820000Y-31450000D03*
D23*
X59820000Y-35630000D03*
D25*
X138026000Y-68100000D03*
X134176000Y-68100000D03*
D11*
X82450000Y-123400000D03*
X82450000Y-120200000D03*
X77550000Y-120200000D03*
X77550000Y-123400000D03*
D26*
X74604000Y-40000000D03*
X74604000Y-36000000D03*
D11*
X122450000Y-123400000D03*
X122450000Y-120200000D03*
X117550000Y-120200000D03*
X117550000Y-123400000D03*
D27*
X133469000Y-53889000D03*
X135469000Y-53889000D03*
D28*
X96853000Y-49484500D03*
X98753000Y-49484500D03*
X97803000Y-47609500D03*
D10*
X131334000Y-47144350D03*
X131334000Y-45069350D03*
D29*
X87081000Y-37118000D03*
X87081000Y-35118000D03*
D19*
X47037500Y-66000000D03*
X44962500Y-66000000D03*
D11*
X102450000Y-83400000D03*
X102450000Y-80200000D03*
X97550000Y-80200000D03*
X97550000Y-83400000D03*
D14*
X60000000Y-75000000D03*
D15*
X54920000Y-75000000D03*
X65080000Y-75000000D03*
D11*
X117550000Y-100200000D03*
X117550000Y-103400000D03*
X122450000Y-103400000D03*
X122450000Y-100200000D03*
D12*
X48139000Y-82024000D03*
D13*
X50679000Y-82024000D03*
D14*
X100000000Y-95000000D03*
D15*
X94920000Y-95000000D03*
X105080000Y-95000000D03*
D10*
X99725000Y-41472500D03*
X99725000Y-39397500D03*
D17*
X68969000Y-51821500D03*
X68969000Y-53896500D03*
D15*
X85080000Y-115000000D03*
X74920000Y-115000000D03*
D14*
X80000000Y-115000000D03*
D17*
X71344000Y-51821500D03*
X71344000Y-53896500D03*
D30*
X41240000Y-59750000D03*
X42510000Y-59750000D03*
X43780000Y-59750000D03*
X45050000Y-59750000D03*
X46320000Y-59750000D03*
X47590000Y-59750000D03*
X48860000Y-59750000D03*
X50130000Y-59750000D03*
X51400000Y-59750000D03*
X52670000Y-59750000D03*
X53940000Y-59750000D03*
X55210000Y-59750000D03*
X56480000Y-59750000D03*
X57750000Y-59750000D03*
D31*
X59000000Y-57985000D03*
X59000000Y-56715000D03*
X59000000Y-55450000D03*
X59000000Y-54175000D03*
X59000000Y-52905000D03*
X59000000Y-51635000D03*
X59000000Y-50365000D03*
X59000000Y-49095000D03*
X59000000Y-47825000D03*
X59000000Y-46555000D03*
X59000000Y-45285000D03*
X59000000Y-44015000D03*
D30*
X57750000Y-42250000D03*
X56480000Y-42250000D03*
X55210000Y-42250000D03*
X53940000Y-42250000D03*
X52670000Y-42250000D03*
X51400000Y-42250000D03*
X50130000Y-42250000D03*
X48860000Y-42250000D03*
X47590000Y-42250000D03*
X46320000Y-42250000D03*
X45050000Y-42250000D03*
X43780000Y-42250000D03*
X42510000Y-42250000D03*
X41240000Y-42250000D03*
D32*
X47560000Y-52500000D03*
D33*
X48960000Y-51100000D03*
X48960000Y-53900000D03*
D32*
X47560000Y-51100000D03*
D33*
X50365000Y-53900000D03*
D32*
X48960000Y-51100000D03*
X50360000Y-52500000D03*
X50360000Y-53900000D03*
D33*
X48960000Y-52500000D03*
X47560000Y-53900000D03*
X50360000Y-52500000D03*
D32*
X50360000Y-51100000D03*
D33*
X47560000Y-51100000D03*
X50360000Y-51100000D03*
D32*
X48960000Y-52500000D03*
D33*
X47560000Y-52500000D03*
D32*
X47560000Y-53900000D03*
X48960000Y-53900000D03*
D15*
X125080000Y-115000000D03*
D14*
X120000000Y-115000000D03*
D15*
X114920000Y-115000000D03*
D27*
X68804250Y-45634000D03*
X70804250Y-45634000D03*
D12*
X94420000Y-31543000D03*
D13*
X94420000Y-34083000D03*
D34*
X76735000Y-57485000D03*
X81735000Y-57485000D03*
D17*
X124029000Y-60363500D03*
X124029000Y-62438500D03*
D35*
X137510000Y-49035401D03*
D36*
X137510000Y-50535401D03*
D28*
X126747000Y-40589350D03*
X128647000Y-40589350D03*
X127697000Y-38714350D03*
D14*
X100000000Y-75000000D03*
D15*
X94920000Y-75000000D03*
X105080000Y-75000000D03*
D37*
X63268000Y-31622000D03*
X63268000Y-33622000D03*
D38*
X135000000Y-125000000D03*
D17*
X64798000Y-51821500D03*
X64798000Y-53896500D03*
D15*
X85080000Y-95000000D03*
X74920000Y-95000000D03*
D14*
X80000000Y-95000000D03*
D16*
X120928000Y-55424000D03*
X118928000Y-55424000D03*
D11*
X122450000Y-83400000D03*
X122450000Y-80200000D03*
X117550000Y-80200000D03*
X117550000Y-83400000D03*
X97550000Y-100200000D03*
X97550000Y-103400000D03*
X102450000Y-103400000D03*
X102450000Y-100200000D03*
D37*
X126231000Y-60431000D03*
X126231000Y-62431000D03*
D39*
X87081000Y-31152000D03*
X87081000Y-32902000D03*
D11*
X82450000Y-83400000D03*
X82450000Y-80200000D03*
X77550000Y-80200000D03*
X77550000Y-83400000D03*
D39*
X83581000Y-31152000D03*
X83581000Y-32902000D03*
D40*
X115251000Y-61440000D03*
D41*
X115251000Y-51280000D03*
D14*
X100000000Y-115000000D03*
D15*
X94920000Y-115000000D03*
X105080000Y-115000000D03*
D40*
X118570000Y-49571850D03*
D41*
X118570000Y-39411850D03*
D42*
X63841000Y-37276000D03*
D28*
X125324000Y-54203500D03*
X127224000Y-54203500D03*
X126274000Y-52328500D03*
D15*
X54920000Y-95000000D03*
D14*
X60000000Y-95000000D03*
D15*
X65080000Y-95000000D03*
X85080000Y-75000000D03*
D14*
X80000000Y-75000000D03*
D15*
X74920000Y-75000000D03*
D11*
X57550000Y-100200000D03*
X57550000Y-103400000D03*
X62450000Y-103400000D03*
X62450000Y-100200000D03*
D39*
X90581000Y-31152000D03*
X90581000Y-32902000D03*
D43*
X128918850Y-57376000D03*
X128918850Y-58646000D03*
X128918850Y-59916000D03*
X128918850Y-61186000D03*
X134367150Y-61186000D03*
X134367150Y-59916000D03*
X134367150Y-58646000D03*
X134367150Y-57376000D03*
D17*
X62587000Y-51821500D03*
X62587000Y-53896500D03*
D44*
X84643000Y-41439000D03*
X90743000Y-41439000D03*
D28*
X129290000Y-54269500D03*
X131190000Y-54269500D03*
X130240000Y-52394500D03*
D45*
X75794661Y-43058311D03*
X75794661Y-43693311D03*
X75794661Y-44328311D03*
X75794661Y-44963311D03*
X75794661Y-45598311D03*
X75794661Y-46233311D03*
X75794661Y-46868311D03*
X75794661Y-47503311D03*
X75794661Y-48138311D03*
X75794661Y-48773311D03*
X75794661Y-49408311D03*
X75794661Y-50043311D03*
X75794661Y-50678311D03*
X75794661Y-51313311D03*
X81242961Y-51313311D03*
X81242961Y-50678311D03*
X81242961Y-50043311D03*
X81242961Y-49408311D03*
X81242961Y-48773311D03*
X81242961Y-48138311D03*
X81242961Y-47503311D03*
X81242961Y-46868311D03*
X81242961Y-46233311D03*
X81242961Y-45598311D03*
X81242961Y-44963311D03*
X81242961Y-44328311D03*
X81242961Y-43693311D03*
X81242961Y-43058311D03*
D17*
X73675000Y-51821500D03*
X73675000Y-53896500D03*
D37*
X130754000Y-39622850D03*
X130754000Y-41622850D03*
D17*
X72909250Y-43700500D03*
X72909250Y-45775500D03*
D46*
X105002000Y-48006000D03*
X105002000Y-51856000D03*
D16*
X105513000Y-55186000D03*
X103513000Y-55186000D03*
D26*
X80000000Y-40000000D03*
X80000000Y-36000000D03*
X89123000Y-47601000D03*
X89123000Y-51601000D03*
D28*
X121869000Y-40793350D03*
X123769000Y-40793350D03*
X122819000Y-38918350D03*
D46*
X136330000Y-42082000D03*
X136330000Y-45932000D03*
D19*
X43037500Y-63000000D03*
X40962500Y-63000000D03*
D43*
X123677850Y-43317850D03*
X123677850Y-44587850D03*
X123677850Y-45857850D03*
X123677850Y-47127850D03*
X129126150Y-47127850D03*
X129126150Y-45857850D03*
X129126150Y-44587850D03*
X129126150Y-43317850D03*
D29*
X90581000Y-37118000D03*
X90581000Y-35118000D03*
D12*
X62110000Y-44288000D03*
D13*
X62110000Y-46828000D03*
D34*
X112560000Y-57105000D03*
D47*
X112560000Y-31705000D03*
D11*
X77550000Y-100200000D03*
X77550000Y-103400000D03*
X82450000Y-103400000D03*
X82450000Y-100200000D03*
D38*
X45000000Y-125000000D03*
D27*
X45000000Y-63000000D03*
X47000000Y-63000000D03*
D10*
X61922000Y-62227500D03*
X61922000Y-60152500D03*
D17*
X43000000Y-65962500D03*
X43000000Y-68037500D03*
D11*
X62450000Y-83400000D03*
X62450000Y-80200000D03*
X57550000Y-80200000D03*
X57550000Y-83400000D03*
D17*
X70108000Y-39479500D03*
X70108000Y-41554500D03*
D46*
X106949000Y-40983000D03*
X106949000Y-44833000D03*
D29*
X83581000Y-37118000D03*
X83581000Y-35118000D03*
D38*
X135000000Y-35000000D03*
D17*
X115363000Y-31725500D03*
X115363000Y-33800500D03*
D15*
X114920000Y-75000000D03*
X125080000Y-75000000D03*
D14*
X120000000Y-75000000D03*
D48*
X121605000Y-32745000D03*
D34*
X121605000Y-35245000D03*
D49*
X94822500Y-43694000D03*
X94822500Y-45594000D03*
X96697500Y-44644000D03*
D17*
X66972000Y-51821500D03*
X66972000Y-53896500D03*
D50*
X69385000Y-32500000D03*
X74615000Y-32500000D03*
D40*
X64960000Y-59353000D03*
D41*
X75120000Y-59353000D03*
D15*
X125080000Y-95000000D03*
X114920000Y-95000000D03*
D14*
X120000000Y-95000000D03*
D17*
X99969000Y-51891500D03*
X99969000Y-53966500D03*
D18*
X93299500Y-51580000D03*
X95374500Y-51580000D03*
D19*
X67665500Y-64244000D03*
X65590500Y-64244000D03*
D16*
X67684000Y-62210000D03*
X65684000Y-62210000D03*
D18*
X93056500Y-37123000D03*
X95131500Y-37123000D03*
D35*
X96245000Y-60801000D03*
D36*
X94745000Y-60801000D03*
D18*
X121367500Y-49605850D03*
X123442500Y-49605850D03*
D16*
X70804250Y-43698000D03*
X68804250Y-43698000D03*
D11*
X62450000Y-123400000D03*
X62450000Y-120200000D03*
X57550000Y-120200000D03*
X57550000Y-123400000D03*
D46*
X89388000Y-60811000D03*
X89388000Y-56961000D03*
D38*
X45000000Y-35000000D03*
D18*
X118105500Y-62437000D03*
X120180500Y-62437000D03*
D10*
X71783000Y-37420500D03*
X71783000Y-35345500D03*
D40*
X100784000Y-63402000D03*
D41*
X110944000Y-63402000D03*
M02*
