M48
; DRILL file {KiCad (6.0.0)} date Fri Apr 22 22:09:09 2022
; FORMAT={-:-/ absolute / metric / decimal}
; #@! TF.CreationDate,2022-04-22T22:09:09+02:00
; #@! TF.GenerationSoftware,Kicad,Pcbnew,(6.0.0)
; #@! TF.FileFunction,Plated,1,2,PTH
FMAT,2
METRIC
; #@! TA.AperFunction,Plated,PTH,ViaDrill
T1C0.300
; #@! TA.AperFunction,Plated,PTH,ViaDrill
T2C0.400
; #@! TA.AperFunction,Plated,PTH,ComponentDrill
T3C0.400
; #@! TA.AperFunction,Plated,PTH,ViaDrill
T4C0.500
; #@! TA.AperFunction,Plated,PTH,ViaDrill
T5C0.600
; #@! TA.AperFunction,Plated,PTH,ComponentDrill
T6C0.600
; #@! TA.AperFunction,Plated,PTH,ComponentDrill
T7C0.800
; #@! TA.AperFunction,Plated,PTH,ComponentDrill
T8C1.000
; #@! TA.AperFunction,Plated,PTH,ComponentDrill
T9C1.100
; #@! TA.AperFunction,Plated,PTH,ComponentDrill
T10C1.500
; #@! TA.AperFunction,Plated,PTH,ComponentDrill
T11C1.600
%
G90
G05
T1
X51.57Y-68.198
X51.57Y-75.287
X53.893Y-57.903
X72.355Y-49.051
X74.298Y-49.373
X74.387Y-44.832
X77.217Y-46.891
X78.167Y-47.794
X79.739Y-47.792
X79.812Y-48.823
X82.924Y-50.643
X83.992Y-50.008
X85.08Y-51.367
X86.213Y-46.833
T2
X41.0Y-32.0
X41.0Y-36.0
X41.0Y-113.0
X41.0Y-116.0
X41.0Y-119.0
X41.0Y-123.0
X41.0Y-126.0
X42.0Y-129.0
X43.0Y-93.0
X43.0Y-99.0
X43.0Y-105.0
X44.0Y-31.0
X44.52Y-117.102
X45.0Y-51.0
X45.0Y-129.0
X46.0Y-40.0
X46.0Y-45.0
X46.0Y-54.0
X47.0Y-31.0
X47.0Y-47.0
X47.0Y-56.0
X47.0Y-70.0
X47.033Y-68.607
X48.0Y-38.0
X48.0Y-85.0
X48.0Y-88.0
X48.0Y-98.0
X48.0Y-105.0
X48.0Y-119.0
X48.0Y-129.0
X49.0Y-31.0
X49.0Y-33.0
X49.0Y-45.0
X49.0Y-49.0
X49.0Y-125.0
X50.0Y-40.0
X50.0Y-47.0
X50.0Y-108.0
X50.179Y-92.356
X51.0Y-40.0
X51.0Y-45.0
X51.0Y-55.0
X51.0Y-100.0
X51.0Y-106.0
X51.0Y-117.0
X51.0Y-129.0
X52.0Y-33.0
X52.0Y-47.0
X52.0Y-86.0
X52.0Y-88.0
X52.0Y-123.0
X53.0Y-45.0
X53.0Y-50.0
X54.0Y-32.0
X54.0Y-46.0
X54.0Y-48.0
X54.0Y-83.0
X54.0Y-127.0
X54.0Y-129.0
X54.412Y-76.967
X55.0Y-32.0
X55.0Y-55.0
X55.0Y-88.0
X55.0Y-98.0
X55.0Y-108.0
X55.779Y-35.117
X56.0Y-106.0
X57.0Y-87.0
X57.0Y-118.0
X57.0Y-129.0
X58.0Y-78.0
X58.0Y-108.0
X58.773Y-38.047
X59.0Y-112.0
X59.0Y-127.0
X60.0Y-79.0
X60.0Y-118.0
X60.0Y-122.0
X60.0Y-129.0
X61.582Y-32.247
X62.179Y-125.818
X63.0Y-77.0
X63.0Y-129.0
X65.0Y-31.0
X65.0Y-67.0
X65.0Y-107.0
X66.0Y-78.0
X66.0Y-121.0
X66.0Y-129.0
X66.571Y-106.739
X67.0Y-31.0
X67.0Y-116.0
X69.0Y-59.0
X69.0Y-129.0
X70.0Y-108.0
X70.0Y-116.0
X70.0Y-120.0
X70.445Y-76.527
X70.861Y-96.178
X71.0Y-59.0
X71.0Y-68.0
X71.655Y-87.508
X72.0Y-32.0
X72.0Y-62.0
X72.0Y-75.0
X72.0Y-78.0
X72.0Y-116.0
X72.0Y-129.0
X74.0Y-106.0
X74.19Y-123.357
X75.0Y-78.0
X75.0Y-129.0
X76.0Y-108.0
X76.006Y-88.608
X77.0Y-31.0
X77.0Y-98.0
X78.0Y-31.0
X78.0Y-34.0
X78.0Y-78.0
X78.0Y-129.0
X79.0Y-62.0
X79.526Y-91.248
X80.0Y-31.0
X81.0Y-127.0
X81.0Y-129.0
X82.0Y-53.0
X82.0Y-78.0
X84.0Y-62.0
X84.0Y-97.0
X84.0Y-129.0
X84.86Y-92.175
X86.0Y-78.0
X86.0Y-113.0
X86.0Y-127.0
X86.223Y-107.23
X87.0Y-129.0
X88.0Y-40.0
X88.0Y-67.0
X88.0Y-115.0
X88.0Y-121.0
X89.739Y-75.854
X90.0Y-79.0
X90.0Y-83.0
X90.0Y-129.0
X90.073Y-99.64
X90.882Y-122.529
X91.0Y-68.0
X91.0Y-97.0
X91.0Y-116.0
X91.25Y-86.317
X92.0Y-95.0
X92.0Y-108.0
X92.0Y-127.0
X93.0Y-75.0
X93.0Y-84.0
X93.0Y-123.0
X93.0Y-129.0
X94.0Y-58.0
X94.0Y-79.0
X94.003Y-90.708
X95.0Y-56.0
X95.0Y-98.0
X96.0Y-129.0
X97.0Y-57.0
X97.0Y-67.0
X97.0Y-77.0
X97.0Y-108.0
X97.0Y-127.0
X98.0Y-35.0
X99.0Y-72.0
X99.0Y-91.0
X99.0Y-129.0
X100.0Y-31.0
X100.0Y-46.0
X100.0Y-79.0
X100.059Y-118.843
X102.0Y-129.0
X103.0Y-31.0
X103.0Y-43.0
X104.0Y-36.0
X104.0Y-126.0
X105.0Y-72.0
X105.0Y-78.0
X105.0Y-129.0
X106.0Y-57.0
X106.0Y-63.0
X106.0Y-112.0
X106.505Y-107.45
X107.0Y-66.0
X108.0Y-37.0
X108.0Y-57.0
X108.0Y-117.0
X108.0Y-129.0
X109.0Y-61.0
X109.541Y-77.064
X109.807Y-75.344
X109.86Y-98.099
X110.0Y-36.0
X110.476Y-82.785
X110.705Y-86.69
X111.0Y-67.0
X111.0Y-129.0
X112.0Y-36.0
X112.0Y-88.0
X112.0Y-95.0
X112.0Y-107.0
X112.0Y-117.0
X113.0Y-53.0
X113.0Y-78.0
X113.0Y-83.0
X114.0Y-46.0
X114.0Y-129.0
X115.0Y-88.0
X115.0Y-118.0
X116.0Y-38.0
X116.0Y-56.0
X116.0Y-98.0
X116.0Y-108.0
X117.0Y-78.0
X117.0Y-129.0
X118.0Y-68.0
X118.0Y-118.0
X120.0Y-43.0
X120.0Y-91.0
X120.0Y-112.0
X120.0Y-121.0
X120.0Y-129.0
X120.647Y-58.398
X123.0Y-129.0
X123.949Y-55.373
X124.0Y-107.0
X124.034Y-64.379
X125.0Y-121.0
X126.0Y-31.0
X126.0Y-69.0
X126.0Y-78.0
X126.0Y-117.0
X126.0Y-129.0
X127.792Y-55.821
X128.0Y-34.0
X128.0Y-88.0
X129.0Y-75.0
X129.0Y-99.0
X129.0Y-114.0
X129.0Y-129.0
X129.388Y-64.893
X130.0Y-35.0
X130.0Y-79.0
X130.724Y-59.365
X131.0Y-31.0
X131.0Y-66.0
X131.0Y-118.0
X131.245Y-55.843
X132.0Y-129.0
X133.0Y-108.0
X133.0Y-114.0
X134.0Y-78.0
X134.0Y-84.0
X134.0Y-102.0
X135.0Y-31.0
X135.0Y-89.0
X135.0Y-96.0
X135.0Y-112.0
X135.0Y-129.0
X136.0Y-76.0
X137.0Y-53.0
X138.0Y-129.0
X139.0Y-32.0
X139.0Y-38.0
X139.0Y-76.0
X139.0Y-79.0
X139.0Y-82.0
X139.0Y-85.0
X139.0Y-88.0
X139.0Y-91.0
X139.0Y-94.0
X139.0Y-97.0
X139.0Y-100.0
X139.0Y-103.0
X139.0Y-106.0
X139.0Y-109.0
X139.0Y-112.0
X139.0Y-115.0
X139.0Y-118.0
X139.0Y-121.0
X139.0Y-124.0
X139.0Y-127.0
T3
X47.56Y-51.1
X47.56Y-52.5
X47.56Y-53.9
X48.96Y-51.1
X48.96Y-52.5
X48.96Y-53.9
X50.36Y-51.1
X50.36Y-52.5
X50.36Y-53.9
T4
X45.084Y-92.431
X45.084Y-111.807
X45.093Y-97.408
X55.086Y-78.314
X55.1Y-38.453
X56.425Y-61.984
X56.592Y-38.371
X56.595Y-63.184
X57.352Y-69.426
X57.717Y-62.056
X58.456Y-33.595
X59.071Y-67.016
X59.816Y-59.56
X62.509Y-67.016
X63.771Y-85.991
X66.423Y-72.503
X66.521Y-89.879
X66.533Y-81.322
X66.781Y-105.16
X76.401Y-109.773
X78.776Y-106.424
X81.745Y-42.181
X84.365Y-106.069
X84.39Y-103.409
X84.414Y-83.547
X85.172Y-31.132
X86.511Y-91.71
X86.915Y-86.871
X89.521Y-125.484
X90.748Y-38.765
X92.209Y-31.146
X97.784Y-51.847
X104.477Y-103.641
X104.518Y-104.925
X105.781Y-125.14
X106.496Y-109.874
X106.794Y-83.48
X106.885Y-71.204
X107.05Y-89.94
X112.245Y-67.973
X113.01Y-120.176
X121.981Y-64.343
X124.079Y-83.514
X124.098Y-123.462
X124.209Y-103.409
X125.098Y-40.115
X125.462Y-91.224
X126.013Y-101.886
X126.067Y-81.754
X127.537Y-121.084
X132.186Y-39.668
T5
X42.563Y-43.978
X43.787Y-40.363
X45.092Y-57.324
X45.098Y-75.327
X48.168Y-61.893
X49.205Y-63.073
X49.205Y-65.499
X50.271Y-61.938
X51.675Y-65.528
X52.85Y-52.799
X52.861Y-67.904
X54.968Y-66.857
X55.034Y-56.498
X58.9Y-39.275
X59.641Y-105.502
X59.69Y-100.784
X62.587Y-50.533
X64.827Y-50.498
X67.056Y-32.5
X71.694Y-103.45
X72.574Y-99.994
X77.375Y-116.746
X79.729Y-99.71
X80.437Y-67.112
X80.634Y-121.7
X86.213Y-52.213
X88.859Y-31.163
X102.595Y-86.439
X102.892Y-116.55
X104.047Y-123.406
X107.722Y-55.191
X113.262Y-42.182
X114.078Y-63.965
X120.227Y-60.319
X123.155Y-52.288
X126.04Y-44.105
X126.834Y-36.248
X132.428Y-42.473
X132.612Y-44.092
X134.218Y-50.626
T6
X94.745Y-60.801
X96.245Y-60.801
X137.51Y-49.035
X137.51Y-50.535
T7
X76.735Y-57.485
X81.735Y-57.485
X112.56Y-31.705
X112.56Y-57.105
X121.605Y-32.745
X121.605Y-35.245
T8
X48.139Y-82.024
X48.185Y-75.844
X48.185Y-78.384
X50.679Y-82.024
X62.11Y-44.288
X62.11Y-46.828
X65.796Y-44.319
X65.796Y-46.859
X94.42Y-31.543
X94.42Y-34.083
T9
X64.96Y-59.353
X75.12Y-59.353
X100.676Y-33.79
X100.784Y-63.402
X103.216Y-33.79
X105.756Y-33.79
X110.944Y-63.402
X115.251Y-51.28
X115.251Y-61.44
X118.57Y-39.412
X118.57Y-49.572
T10
X56.19Y-72.46
X56.19Y-92.46
X56.19Y-112.46
X62.54Y-69.92
X62.54Y-89.92
X62.54Y-109.92
X76.19Y-72.46
X76.19Y-92.46
X76.19Y-112.46
X82.54Y-69.92
X82.54Y-89.92
X82.54Y-109.92
X96.19Y-72.46
X96.19Y-92.46
X96.19Y-112.46
X102.54Y-69.92
X102.54Y-89.92
X102.54Y-109.92
X116.19Y-72.46
X116.19Y-92.46
X116.19Y-112.46
X122.54Y-69.92
X122.54Y-89.92
X122.54Y-109.92
T11
X63.841Y-37.276
T6
X51.18Y-31.75G85X51.18Y-31.15
G05
X51.18Y-36.18G85X51.18Y-35.08
G05
X59.82Y-31.75G85X59.82Y-31.15
G05
X59.82Y-36.18G85X59.82Y-35.08
G05
T0
M30
