%FSLAX45Y45*%
G04 Gerber Fmt 4.5, Leading zero omitted, Abs format (unit mm)*
G04 Created by KiCad (PCBNEW (6.0.0)) date 2022-04-22 22:09:42*
%MOMM*%
%LPD*%
G01*
G04 APERTURE LIST*
%TA.AperFunction,Profile*%
%ADD10C,0.200000*%
%TD*%
%ADD11C,0.200000*%
%ADD12C,0.065000*%
%ADD13C,0.175000*%
%ADD14C,0.320000*%
%ADD15C,0.400000*%
G04 APERTURE END LIST*
D10*
X4000000Y-3000000D02*
X14000000Y-3000000D01*
X14000000Y-3000000D02*
X14000000Y-13000000D01*
X14000000Y-13000000D02*
X4000000Y-13000000D01*
X4000000Y-13000000D02*
X4000000Y-3000000D01*
D11*
D12*
X5228500Y-3477500D02*
X5293500Y-3542500D01*
X5293500Y-3477500D02*
X5228500Y-3542500D01*
X5806500Y-3477500D02*
X5871500Y-3542500D01*
X5871500Y-3477500D02*
X5806500Y-3542500D01*
D13*
X5579500Y-7500000D02*
G75*
G03*
X5579500Y-7500000I-87500J0D01*
G01*
X5579500Y-9500000D02*
G75*
G03*
X5579500Y-9500000I-87500J0D01*
G01*
X5579500Y-11500000D02*
G75*
G03*
X5579500Y-11500000I-87500J0D01*
G01*
X6595500Y-7500000D02*
G75*
G03*
X6595500Y-7500000I-87500J0D01*
G01*
X6595500Y-9500000D02*
G75*
G03*
X6595500Y-9500000I-87500J0D01*
G01*
X6595500Y-11500000D02*
G75*
G03*
X6595500Y-11500000I-87500J0D01*
G01*
X7579500Y-7500000D02*
G75*
G03*
X7579500Y-7500000I-87500J0D01*
G01*
X7579500Y-9500000D02*
G75*
G03*
X7579500Y-9500000I-87500J0D01*
G01*
X7579500Y-11500000D02*
G75*
G03*
X7579500Y-11500000I-87500J0D01*
G01*
X8595500Y-7500000D02*
G75*
G03*
X8595500Y-7500000I-87500J0D01*
G01*
X8595500Y-9500000D02*
G75*
G03*
X8595500Y-9500000I-87500J0D01*
G01*
X8595500Y-11500000D02*
G75*
G03*
X8595500Y-11500000I-87500J0D01*
G01*
X9579500Y-7500000D02*
G75*
G03*
X9579500Y-7500000I-87500J0D01*
G01*
X9579500Y-9500000D02*
G75*
G03*
X9579500Y-9500000I-87500J0D01*
G01*
X9579500Y-11500000D02*
G75*
G03*
X9579500Y-11500000I-87500J0D01*
G01*
X10595500Y-7500000D02*
G75*
G03*
X10595500Y-7500000I-87500J0D01*
G01*
X10595500Y-9500000D02*
G75*
G03*
X10595500Y-9500000I-87500J0D01*
G01*
X10595500Y-11500000D02*
G75*
G03*
X10595500Y-11500000I-87500J0D01*
G01*
X11579500Y-7500000D02*
G75*
G03*
X11579500Y-7500000I-87500J0D01*
G01*
X11579500Y-9500000D02*
G75*
G03*
X11579500Y-9500000I-87500J0D01*
G01*
X11579500Y-11500000D02*
G75*
G03*
X11579500Y-11500000I-87500J0D01*
G01*
X12595500Y-7500000D02*
G75*
G03*
X12595500Y-7500000I-87500J0D01*
G01*
X12595500Y-9500000D02*
G75*
G03*
X12595500Y-9500000I-87500J0D01*
G01*
X12595500Y-11500000D02*
G75*
G03*
X12595500Y-11500000I-87500J0D01*
G01*
D14*
X4500000Y-3340000D02*
X4500000Y-3660000D01*
X4340000Y-3500000D02*
X4660000Y-3500000D01*
X4500000Y-12340000D02*
X4500000Y-12660000D01*
X4340000Y-12500000D02*
X4660000Y-12500000D01*
X13500000Y-3340000D02*
X13500000Y-3660000D01*
X13340000Y-3500000D02*
X13660000Y-3500000D01*
X13500000Y-12340000D02*
X13500000Y-12660000D01*
X13340000Y-12500000D02*
X13660000Y-12500000D01*
D15*
X6141423Y-7641423D02*
X6141423Y-7358577D01*
X5858577Y-7358577D01*
X5858577Y-7641423D01*
X6141423Y-7641423D01*
X6141423Y-9641423D02*
X6141423Y-9358577D01*
X5858577Y-9358577D01*
X5858577Y-9641423D01*
X6141423Y-9641423D01*
X6141423Y-11641423D02*
X6141423Y-11358577D01*
X5858577Y-11358577D01*
X5858577Y-11641423D01*
X6141423Y-11641423D01*
X8141423Y-7641423D02*
X8141423Y-7358577D01*
X7858577Y-7358577D01*
X7858577Y-7641423D01*
X8141423Y-7641423D01*
X8141423Y-9641423D02*
X8141423Y-9358577D01*
X7858577Y-9358577D01*
X7858577Y-9641423D01*
X8141423Y-9641423D01*
X8141423Y-11641423D02*
X8141423Y-11358577D01*
X7858577Y-11358577D01*
X7858577Y-11641423D01*
X8141423Y-11641423D01*
X10141423Y-7641423D02*
X10141423Y-7358577D01*
X9858577Y-7358577D01*
X9858577Y-7641423D01*
X10141423Y-7641423D01*
X10141423Y-9641423D02*
X10141423Y-9358577D01*
X9858577Y-9358577D01*
X9858577Y-9641423D01*
X10141423Y-9641423D01*
X10141423Y-11641423D02*
X10141423Y-11358577D01*
X9858577Y-11358577D01*
X9858577Y-11641423D01*
X10141423Y-11641423D01*
X12141423Y-7641423D02*
X12141423Y-7358577D01*
X11858577Y-7358577D01*
X11858577Y-7641423D01*
X12141423Y-7641423D01*
X12141423Y-9641423D02*
X12141423Y-9358577D01*
X11858577Y-9358577D01*
X11858577Y-9641423D01*
X12141423Y-9641423D01*
X12141423Y-11641423D02*
X12141423Y-11358577D01*
X11858577Y-11358577D01*
X11858577Y-11641423D01*
X12141423Y-11641423D01*
D11*
X4247619Y-13320476D02*
X4247619Y-13120476D01*
X4295238Y-13120476D01*
X4323810Y-13130000D01*
X4342857Y-13149048D01*
X4352381Y-13168095D01*
X4361905Y-13206190D01*
X4361905Y-13234762D01*
X4352381Y-13272857D01*
X4342857Y-13291905D01*
X4323810Y-13310952D01*
X4295238Y-13320476D01*
X4247619Y-13320476D01*
X4447619Y-13320476D02*
X4447619Y-13187143D01*
X4447619Y-13225238D02*
X4457143Y-13206190D01*
X4466667Y-13196667D01*
X4485714Y-13187143D01*
X4504762Y-13187143D01*
X4571429Y-13320476D02*
X4571429Y-13187143D01*
X4571429Y-13120476D02*
X4561905Y-13130000D01*
X4571429Y-13139524D01*
X4580952Y-13130000D01*
X4571429Y-13120476D01*
X4571429Y-13139524D01*
X4695238Y-13320476D02*
X4676190Y-13310952D01*
X4666667Y-13291905D01*
X4666667Y-13120476D01*
X4800000Y-13320476D02*
X4780952Y-13310952D01*
X4771429Y-13291905D01*
X4771429Y-13120476D01*
X5028571Y-13320476D02*
X5028571Y-13120476D01*
X5095238Y-13263333D01*
X5161905Y-13120476D01*
X5161905Y-13320476D01*
X5342857Y-13320476D02*
X5342857Y-13215714D01*
X5333333Y-13196667D01*
X5314286Y-13187143D01*
X5276190Y-13187143D01*
X5257143Y-13196667D01*
X5342857Y-13310952D02*
X5323810Y-13320476D01*
X5276190Y-13320476D01*
X5257143Y-13310952D01*
X5247619Y-13291905D01*
X5247619Y-13272857D01*
X5257143Y-13253809D01*
X5276190Y-13244286D01*
X5323810Y-13244286D01*
X5342857Y-13234762D01*
X5438095Y-13187143D02*
X5438095Y-13387143D01*
X5438095Y-13196667D02*
X5457143Y-13187143D01*
X5495238Y-13187143D01*
X5514286Y-13196667D01*
X5523810Y-13206190D01*
X5533333Y-13225238D01*
X5533333Y-13282381D01*
X5523810Y-13301428D01*
X5514286Y-13310952D01*
X5495238Y-13320476D01*
X5457143Y-13320476D01*
X5438095Y-13310952D01*
X5619048Y-13301428D02*
X5628571Y-13310952D01*
X5619048Y-13320476D01*
X5609524Y-13310952D01*
X5619048Y-13301428D01*
X5619048Y-13320476D01*
X5619048Y-13196667D02*
X5628571Y-13206190D01*
X5619048Y-13215714D01*
X5609524Y-13206190D01*
X5619048Y-13196667D01*
X5619048Y-13215714D01*
D12*
X3925000Y-13617500D02*
X3990000Y-13682500D01*
X3990000Y-13617500D02*
X3925000Y-13682500D01*
D11*
X4285714Y-13540476D02*
X4304762Y-13540476D01*
X4323810Y-13550000D01*
X4333333Y-13559524D01*
X4342857Y-13578571D01*
X4352381Y-13616667D01*
X4352381Y-13664286D01*
X4342857Y-13702381D01*
X4333333Y-13721428D01*
X4323810Y-13730952D01*
X4304762Y-13740476D01*
X4285714Y-13740476D01*
X4266667Y-13730952D01*
X4257143Y-13721428D01*
X4247619Y-13702381D01*
X4238095Y-13664286D01*
X4238095Y-13616667D01*
X4247619Y-13578571D01*
X4257143Y-13559524D01*
X4266667Y-13550000D01*
X4285714Y-13540476D01*
X4438095Y-13721428D02*
X4447619Y-13730952D01*
X4438095Y-13740476D01*
X4428571Y-13730952D01*
X4438095Y-13721428D01*
X4438095Y-13740476D01*
X4619048Y-13540476D02*
X4580952Y-13540476D01*
X4561905Y-13550000D01*
X4552381Y-13559524D01*
X4533333Y-13588095D01*
X4523810Y-13626190D01*
X4523810Y-13702381D01*
X4533333Y-13721428D01*
X4542857Y-13730952D01*
X4561905Y-13740476D01*
X4600000Y-13740476D01*
X4619048Y-13730952D01*
X4628571Y-13721428D01*
X4638095Y-13702381D01*
X4638095Y-13654762D01*
X4628571Y-13635714D01*
X4619048Y-13626190D01*
X4600000Y-13616667D01*
X4561905Y-13616667D01*
X4542857Y-13626190D01*
X4533333Y-13635714D01*
X4523810Y-13654762D01*
X4819048Y-13540476D02*
X4723810Y-13540476D01*
X4714286Y-13635714D01*
X4723810Y-13626190D01*
X4742857Y-13616667D01*
X4790476Y-13616667D01*
X4809524Y-13626190D01*
X4819048Y-13635714D01*
X4828571Y-13654762D01*
X4828571Y-13702381D01*
X4819048Y-13721428D01*
X4809524Y-13730952D01*
X4790476Y-13740476D01*
X4742857Y-13740476D01*
X4723810Y-13730952D01*
X4714286Y-13721428D01*
X4952381Y-13540476D02*
X4971429Y-13540476D01*
X4990476Y-13550000D01*
X5000000Y-13559524D01*
X5009524Y-13578571D01*
X5019048Y-13616667D01*
X5019048Y-13664286D01*
X5009524Y-13702381D01*
X5000000Y-13721428D01*
X4990476Y-13730952D01*
X4971429Y-13740476D01*
X4952381Y-13740476D01*
X4933333Y-13730952D01*
X4923810Y-13721428D01*
X4914286Y-13702381D01*
X4904762Y-13664286D01*
X4904762Y-13616667D01*
X4914286Y-13578571D01*
X4923810Y-13559524D01*
X4933333Y-13550000D01*
X4952381Y-13540476D01*
X5104762Y-13740476D02*
X5104762Y-13607143D01*
X5104762Y-13626190D02*
X5114286Y-13616667D01*
X5133333Y-13607143D01*
X5161905Y-13607143D01*
X5180952Y-13616667D01*
X5190476Y-13635714D01*
X5190476Y-13740476D01*
X5190476Y-13635714D02*
X5200000Y-13616667D01*
X5219048Y-13607143D01*
X5247619Y-13607143D01*
X5266667Y-13616667D01*
X5276190Y-13635714D01*
X5276190Y-13740476D01*
X5371429Y-13740476D02*
X5371429Y-13607143D01*
X5371429Y-13626190D02*
X5380952Y-13616667D01*
X5400000Y-13607143D01*
X5428571Y-13607143D01*
X5447619Y-13616667D01*
X5457143Y-13635714D01*
X5457143Y-13740476D01*
X5457143Y-13635714D02*
X5466667Y-13616667D01*
X5485714Y-13607143D01*
X5514286Y-13607143D01*
X5533333Y-13616667D01*
X5542857Y-13635714D01*
X5542857Y-13740476D01*
X5933333Y-13530952D02*
X5761905Y-13788095D01*
X6190476Y-13540476D02*
X6209524Y-13540476D01*
X6228571Y-13550000D01*
X6238095Y-13559524D01*
X6247619Y-13578571D01*
X6257143Y-13616667D01*
X6257143Y-13664286D01*
X6247619Y-13702381D01*
X6238095Y-13721428D01*
X6228571Y-13730952D01*
X6209524Y-13740476D01*
X6190476Y-13740476D01*
X6171428Y-13730952D01*
X6161905Y-13721428D01*
X6152381Y-13702381D01*
X6142857Y-13664286D01*
X6142857Y-13616667D01*
X6152381Y-13578571D01*
X6161905Y-13559524D01*
X6171428Y-13550000D01*
X6190476Y-13540476D01*
X6342857Y-13721428D02*
X6352381Y-13730952D01*
X6342857Y-13740476D01*
X6333333Y-13730952D01*
X6342857Y-13721428D01*
X6342857Y-13740476D01*
X6476190Y-13540476D02*
X6495238Y-13540476D01*
X6514286Y-13550000D01*
X6523809Y-13559524D01*
X6533333Y-13578571D01*
X6542857Y-13616667D01*
X6542857Y-13664286D01*
X6533333Y-13702381D01*
X6523809Y-13721428D01*
X6514286Y-13730952D01*
X6495238Y-13740476D01*
X6476190Y-13740476D01*
X6457143Y-13730952D01*
X6447619Y-13721428D01*
X6438095Y-13702381D01*
X6428571Y-13664286D01*
X6428571Y-13616667D01*
X6438095Y-13578571D01*
X6447619Y-13559524D01*
X6457143Y-13550000D01*
X6476190Y-13540476D01*
X6619048Y-13559524D02*
X6628571Y-13550000D01*
X6647619Y-13540476D01*
X6695238Y-13540476D01*
X6714286Y-13550000D01*
X6723809Y-13559524D01*
X6733333Y-13578571D01*
X6733333Y-13597619D01*
X6723809Y-13626190D01*
X6609524Y-13740476D01*
X6733333Y-13740476D01*
X6914286Y-13540476D02*
X6819048Y-13540476D01*
X6809524Y-13635714D01*
X6819048Y-13626190D01*
X6838095Y-13616667D01*
X6885714Y-13616667D01*
X6904762Y-13626190D01*
X6914286Y-13635714D01*
X6923809Y-13654762D01*
X6923809Y-13702381D01*
X6914286Y-13721428D01*
X6904762Y-13730952D01*
X6885714Y-13740476D01*
X6838095Y-13740476D01*
X6819048Y-13730952D01*
X6809524Y-13721428D01*
X7095238Y-13540476D02*
X7057143Y-13540476D01*
X7038095Y-13550000D01*
X7028571Y-13559524D01*
X7009524Y-13588095D01*
X7000000Y-13626190D01*
X7000000Y-13702381D01*
X7009524Y-13721428D01*
X7019048Y-13730952D01*
X7038095Y-13740476D01*
X7076190Y-13740476D01*
X7095238Y-13730952D01*
X7104762Y-13721428D01*
X7114286Y-13702381D01*
X7114286Y-13654762D01*
X7104762Y-13635714D01*
X7095238Y-13626190D01*
X7076190Y-13616667D01*
X7038095Y-13616667D01*
X7019048Y-13626190D01*
X7009524Y-13635714D01*
X7000000Y-13654762D01*
X7190476Y-13540476D02*
X7190476Y-13578571D01*
X7266667Y-13540476D02*
X7266667Y-13578571D01*
X7561905Y-13816667D02*
X7552381Y-13807143D01*
X7533333Y-13778571D01*
X7523809Y-13759524D01*
X7514286Y-13730952D01*
X7504762Y-13683333D01*
X7504762Y-13645238D01*
X7514286Y-13597619D01*
X7523809Y-13569048D01*
X7533333Y-13550000D01*
X7552381Y-13521428D01*
X7561905Y-13511905D01*
X7628571Y-13559524D02*
X7638095Y-13550000D01*
X7657143Y-13540476D01*
X7704762Y-13540476D01*
X7723809Y-13550000D01*
X7733333Y-13559524D01*
X7742857Y-13578571D01*
X7742857Y-13597619D01*
X7733333Y-13626190D01*
X7619048Y-13740476D01*
X7742857Y-13740476D01*
X7980952Y-13740476D02*
X7980952Y-13540476D01*
X8066667Y-13740476D02*
X8066667Y-13635714D01*
X8057143Y-13616667D01*
X8038095Y-13607143D01*
X8009524Y-13607143D01*
X7990476Y-13616667D01*
X7980952Y-13626190D01*
X8190476Y-13740476D02*
X8171428Y-13730952D01*
X8161905Y-13721428D01*
X8152381Y-13702381D01*
X8152381Y-13645238D01*
X8161905Y-13626190D01*
X8171428Y-13616667D01*
X8190476Y-13607143D01*
X8219048Y-13607143D01*
X8238095Y-13616667D01*
X8247619Y-13626190D01*
X8257143Y-13645238D01*
X8257143Y-13702381D01*
X8247619Y-13721428D01*
X8238095Y-13730952D01*
X8219048Y-13740476D01*
X8190476Y-13740476D01*
X8371428Y-13740476D02*
X8352381Y-13730952D01*
X8342857Y-13711905D01*
X8342857Y-13540476D01*
X8523810Y-13730952D02*
X8504762Y-13740476D01*
X8466667Y-13740476D01*
X8447619Y-13730952D01*
X8438095Y-13711905D01*
X8438095Y-13635714D01*
X8447619Y-13616667D01*
X8466667Y-13607143D01*
X8504762Y-13607143D01*
X8523810Y-13616667D01*
X8533333Y-13635714D01*
X8533333Y-13654762D01*
X8438095Y-13673809D01*
X8609524Y-13730952D02*
X8628571Y-13740476D01*
X8666667Y-13740476D01*
X8685714Y-13730952D01*
X8695238Y-13711905D01*
X8695238Y-13702381D01*
X8685714Y-13683333D01*
X8666667Y-13673809D01*
X8638095Y-13673809D01*
X8619048Y-13664286D01*
X8609524Y-13645238D01*
X8609524Y-13635714D01*
X8619048Y-13616667D01*
X8638095Y-13607143D01*
X8666667Y-13607143D01*
X8685714Y-13616667D01*
X8761905Y-13816667D02*
X8771429Y-13807143D01*
X8790476Y-13778571D01*
X8800000Y-13759524D01*
X8809524Y-13730952D01*
X8819048Y-13683333D01*
X8819048Y-13645238D01*
X8809524Y-13597619D01*
X8800000Y-13569048D01*
X8790476Y-13550000D01*
X8771429Y-13521428D01*
X8761905Y-13511905D01*
X9123810Y-13816667D02*
X9114286Y-13807143D01*
X9095238Y-13778571D01*
X9085714Y-13759524D01*
X9076190Y-13730952D01*
X9066667Y-13683333D01*
X9066667Y-13645238D01*
X9076190Y-13597619D01*
X9085714Y-13569048D01*
X9095238Y-13550000D01*
X9114286Y-13521428D01*
X9123810Y-13511905D01*
X9200000Y-13607143D02*
X9200000Y-13740476D01*
X9200000Y-13626190D02*
X9209524Y-13616667D01*
X9228571Y-13607143D01*
X9257143Y-13607143D01*
X9276190Y-13616667D01*
X9285714Y-13635714D01*
X9285714Y-13740476D01*
X9409524Y-13740476D02*
X9390476Y-13730952D01*
X9380952Y-13721428D01*
X9371429Y-13702381D01*
X9371429Y-13645238D01*
X9380952Y-13626190D01*
X9390476Y-13616667D01*
X9409524Y-13607143D01*
X9438095Y-13607143D01*
X9457143Y-13616667D01*
X9466667Y-13626190D01*
X9476190Y-13645238D01*
X9476190Y-13702381D01*
X9466667Y-13721428D01*
X9457143Y-13730952D01*
X9438095Y-13740476D01*
X9409524Y-13740476D01*
X9533333Y-13607143D02*
X9609524Y-13607143D01*
X9561905Y-13540476D02*
X9561905Y-13711905D01*
X9571429Y-13730952D01*
X9590476Y-13740476D01*
X9609524Y-13740476D01*
X9828571Y-13607143D02*
X9828571Y-13807143D01*
X9828571Y-13616667D02*
X9847619Y-13607143D01*
X9885714Y-13607143D01*
X9904762Y-13616667D01*
X9914286Y-13626190D01*
X9923810Y-13645238D01*
X9923810Y-13702381D01*
X9914286Y-13721428D01*
X9904762Y-13730952D01*
X9885714Y-13740476D01*
X9847619Y-13740476D01*
X9828571Y-13730952D01*
X10038095Y-13740476D02*
X10019048Y-13730952D01*
X10009524Y-13711905D01*
X10009524Y-13540476D01*
X10200000Y-13740476D02*
X10200000Y-13635714D01*
X10190476Y-13616667D01*
X10171429Y-13607143D01*
X10133333Y-13607143D01*
X10114286Y-13616667D01*
X10200000Y-13730952D02*
X10180952Y-13740476D01*
X10133333Y-13740476D01*
X10114286Y-13730952D01*
X10104762Y-13711905D01*
X10104762Y-13692857D01*
X10114286Y-13673809D01*
X10133333Y-13664286D01*
X10180952Y-13664286D01*
X10200000Y-13654762D01*
X10266667Y-13607143D02*
X10342857Y-13607143D01*
X10295238Y-13540476D02*
X10295238Y-13711905D01*
X10304762Y-13730952D01*
X10323810Y-13740476D01*
X10342857Y-13740476D01*
X10485714Y-13730952D02*
X10466667Y-13740476D01*
X10428571Y-13740476D01*
X10409524Y-13730952D01*
X10400000Y-13711905D01*
X10400000Y-13635714D01*
X10409524Y-13616667D01*
X10428571Y-13607143D01*
X10466667Y-13607143D01*
X10485714Y-13616667D01*
X10495238Y-13635714D01*
X10495238Y-13654762D01*
X10400000Y-13673809D01*
X10666667Y-13740476D02*
X10666667Y-13540476D01*
X10666667Y-13730952D02*
X10647619Y-13740476D01*
X10609524Y-13740476D01*
X10590476Y-13730952D01*
X10580952Y-13721428D01*
X10571429Y-13702381D01*
X10571429Y-13645238D01*
X10580952Y-13626190D01*
X10590476Y-13616667D01*
X10609524Y-13607143D01*
X10647619Y-13607143D01*
X10666667Y-13616667D01*
X10742857Y-13816667D02*
X10752381Y-13807143D01*
X10771429Y-13778571D01*
X10780952Y-13759524D01*
X10790476Y-13730952D01*
X10800000Y-13683333D01*
X10800000Y-13645238D01*
X10790476Y-13597619D01*
X10780952Y-13569048D01*
X10771429Y-13550000D01*
X10752381Y-13521428D01*
X10742857Y-13511905D01*
D13*
X3990000Y-13914000D02*
G75*
G03*
X3990000Y-13914000I-87500J0D01*
G01*
D11*
X4352381Y-14004476D02*
X4238095Y-14004476D01*
X4295238Y-14004476D02*
X4295238Y-13804476D01*
X4276190Y-13833048D01*
X4257143Y-13852095D01*
X4238095Y-13861619D01*
X4438095Y-13985428D02*
X4447619Y-13994952D01*
X4438095Y-14004476D01*
X4428571Y-13994952D01*
X4438095Y-13985428D01*
X4438095Y-14004476D01*
X4514286Y-13804476D02*
X4647619Y-13804476D01*
X4561905Y-14004476D01*
X4819048Y-13804476D02*
X4723810Y-13804476D01*
X4714286Y-13899714D01*
X4723810Y-13890190D01*
X4742857Y-13880667D01*
X4790476Y-13880667D01*
X4809524Y-13890190D01*
X4819048Y-13899714D01*
X4828571Y-13918762D01*
X4828571Y-13966381D01*
X4819048Y-13985428D01*
X4809524Y-13994952D01*
X4790476Y-14004476D01*
X4742857Y-14004476D01*
X4723810Y-13994952D01*
X4714286Y-13985428D01*
X4952381Y-13804476D02*
X4971429Y-13804476D01*
X4990476Y-13814000D01*
X5000000Y-13823524D01*
X5009524Y-13842571D01*
X5019048Y-13880667D01*
X5019048Y-13928286D01*
X5009524Y-13966381D01*
X5000000Y-13985428D01*
X4990476Y-13994952D01*
X4971429Y-14004476D01*
X4952381Y-14004476D01*
X4933333Y-13994952D01*
X4923810Y-13985428D01*
X4914286Y-13966381D01*
X4904762Y-13928286D01*
X4904762Y-13880667D01*
X4914286Y-13842571D01*
X4923810Y-13823524D01*
X4933333Y-13814000D01*
X4952381Y-13804476D01*
X5104762Y-14004476D02*
X5104762Y-13871143D01*
X5104762Y-13890190D02*
X5114286Y-13880667D01*
X5133333Y-13871143D01*
X5161905Y-13871143D01*
X5180952Y-13880667D01*
X5190476Y-13899714D01*
X5190476Y-14004476D01*
X5190476Y-13899714D02*
X5200000Y-13880667D01*
X5219048Y-13871143D01*
X5247619Y-13871143D01*
X5266667Y-13880667D01*
X5276190Y-13899714D01*
X5276190Y-14004476D01*
X5371429Y-14004476D02*
X5371429Y-13871143D01*
X5371429Y-13890190D02*
X5380952Y-13880667D01*
X5400000Y-13871143D01*
X5428571Y-13871143D01*
X5447619Y-13880667D01*
X5457143Y-13899714D01*
X5457143Y-14004476D01*
X5457143Y-13899714D02*
X5466667Y-13880667D01*
X5485714Y-13871143D01*
X5514286Y-13871143D01*
X5533333Y-13880667D01*
X5542857Y-13899714D01*
X5542857Y-14004476D01*
X5933333Y-13794952D02*
X5761905Y-14052095D01*
X6190476Y-13804476D02*
X6209524Y-13804476D01*
X6228571Y-13814000D01*
X6238095Y-13823524D01*
X6247619Y-13842571D01*
X6257143Y-13880667D01*
X6257143Y-13928286D01*
X6247619Y-13966381D01*
X6238095Y-13985428D01*
X6228571Y-13994952D01*
X6209524Y-14004476D01*
X6190476Y-14004476D01*
X6171428Y-13994952D01*
X6161905Y-13985428D01*
X6152381Y-13966381D01*
X6142857Y-13928286D01*
X6142857Y-13880667D01*
X6152381Y-13842571D01*
X6161905Y-13823524D01*
X6171428Y-13814000D01*
X6190476Y-13804476D01*
X6342857Y-13985428D02*
X6352381Y-13994952D01*
X6342857Y-14004476D01*
X6333333Y-13994952D01*
X6342857Y-13985428D01*
X6342857Y-14004476D01*
X6476190Y-13804476D02*
X6495238Y-13804476D01*
X6514286Y-13814000D01*
X6523809Y-13823524D01*
X6533333Y-13842571D01*
X6542857Y-13880667D01*
X6542857Y-13928286D01*
X6533333Y-13966381D01*
X6523809Y-13985428D01*
X6514286Y-13994952D01*
X6495238Y-14004476D01*
X6476190Y-14004476D01*
X6457143Y-13994952D01*
X6447619Y-13985428D01*
X6438095Y-13966381D01*
X6428571Y-13928286D01*
X6428571Y-13880667D01*
X6438095Y-13842571D01*
X6447619Y-13823524D01*
X6457143Y-13814000D01*
X6476190Y-13804476D01*
X6714286Y-13804476D02*
X6676190Y-13804476D01*
X6657143Y-13814000D01*
X6647619Y-13823524D01*
X6628571Y-13852095D01*
X6619048Y-13890190D01*
X6619048Y-13966381D01*
X6628571Y-13985428D01*
X6638095Y-13994952D01*
X6657143Y-14004476D01*
X6695238Y-14004476D01*
X6714286Y-13994952D01*
X6723809Y-13985428D01*
X6733333Y-13966381D01*
X6733333Y-13918762D01*
X6723809Y-13899714D01*
X6714286Y-13890190D01*
X6695238Y-13880667D01*
X6657143Y-13880667D01*
X6638095Y-13890190D01*
X6628571Y-13899714D01*
X6619048Y-13918762D01*
X6847619Y-13890190D02*
X6828571Y-13880667D01*
X6819048Y-13871143D01*
X6809524Y-13852095D01*
X6809524Y-13842571D01*
X6819048Y-13823524D01*
X6828571Y-13814000D01*
X6847619Y-13804476D01*
X6885714Y-13804476D01*
X6904762Y-13814000D01*
X6914286Y-13823524D01*
X6923809Y-13842571D01*
X6923809Y-13852095D01*
X6914286Y-13871143D01*
X6904762Y-13880667D01*
X6885714Y-13890190D01*
X6847619Y-13890190D01*
X6828571Y-13899714D01*
X6819048Y-13909238D01*
X6809524Y-13928286D01*
X6809524Y-13966381D01*
X6819048Y-13985428D01*
X6828571Y-13994952D01*
X6847619Y-14004476D01*
X6885714Y-14004476D01*
X6904762Y-13994952D01*
X6914286Y-13985428D01*
X6923809Y-13966381D01*
X6923809Y-13928286D01*
X6914286Y-13909238D01*
X6904762Y-13899714D01*
X6885714Y-13890190D01*
X7019048Y-14004476D02*
X7057143Y-14004476D01*
X7076190Y-13994952D01*
X7085714Y-13985428D01*
X7104762Y-13956857D01*
X7114286Y-13918762D01*
X7114286Y-13842571D01*
X7104762Y-13823524D01*
X7095238Y-13814000D01*
X7076190Y-13804476D01*
X7038095Y-13804476D01*
X7019048Y-13814000D01*
X7009524Y-13823524D01*
X7000000Y-13842571D01*
X7000000Y-13890190D01*
X7009524Y-13909238D01*
X7019048Y-13918762D01*
X7038095Y-13928286D01*
X7076190Y-13928286D01*
X7095238Y-13918762D01*
X7104762Y-13909238D01*
X7114286Y-13890190D01*
X7190476Y-13804476D02*
X7190476Y-13842571D01*
X7266667Y-13804476D02*
X7266667Y-13842571D01*
X7561905Y-14080667D02*
X7552381Y-14071143D01*
X7533333Y-14042571D01*
X7523809Y-14023524D01*
X7514286Y-13994952D01*
X7504762Y-13947333D01*
X7504762Y-13909238D01*
X7514286Y-13861619D01*
X7523809Y-13833048D01*
X7533333Y-13814000D01*
X7552381Y-13785428D01*
X7561905Y-13775905D01*
X7628571Y-13823524D02*
X7638095Y-13814000D01*
X7657143Y-13804476D01*
X7704762Y-13804476D01*
X7723809Y-13814000D01*
X7733333Y-13823524D01*
X7742857Y-13842571D01*
X7742857Y-13861619D01*
X7733333Y-13890190D01*
X7619048Y-14004476D01*
X7742857Y-14004476D01*
X7914286Y-13871143D02*
X7914286Y-14004476D01*
X7866667Y-13794952D02*
X7819048Y-13937809D01*
X7942857Y-13937809D01*
X8171428Y-14004476D02*
X8171428Y-13804476D01*
X8257143Y-14004476D02*
X8257143Y-13899714D01*
X8247619Y-13880667D01*
X8228571Y-13871143D01*
X8200000Y-13871143D01*
X8180952Y-13880667D01*
X8171428Y-13890190D01*
X8380952Y-14004476D02*
X8361905Y-13994952D01*
X8352381Y-13985428D01*
X8342857Y-13966381D01*
X8342857Y-13909238D01*
X8352381Y-13890190D01*
X8361905Y-13880667D01*
X8380952Y-13871143D01*
X8409524Y-13871143D01*
X8428571Y-13880667D01*
X8438095Y-13890190D01*
X8447619Y-13909238D01*
X8447619Y-13966381D01*
X8438095Y-13985428D01*
X8428571Y-13994952D01*
X8409524Y-14004476D01*
X8380952Y-14004476D01*
X8561905Y-14004476D02*
X8542857Y-13994952D01*
X8533333Y-13975905D01*
X8533333Y-13804476D01*
X8714286Y-13994952D02*
X8695238Y-14004476D01*
X8657143Y-14004476D01*
X8638095Y-13994952D01*
X8628571Y-13975905D01*
X8628571Y-13899714D01*
X8638095Y-13880667D01*
X8657143Y-13871143D01*
X8695238Y-13871143D01*
X8714286Y-13880667D01*
X8723810Y-13899714D01*
X8723810Y-13918762D01*
X8628571Y-13937809D01*
X8800000Y-13994952D02*
X8819048Y-14004476D01*
X8857143Y-14004476D01*
X8876190Y-13994952D01*
X8885714Y-13975905D01*
X8885714Y-13966381D01*
X8876190Y-13947333D01*
X8857143Y-13937809D01*
X8828571Y-13937809D01*
X8809524Y-13928286D01*
X8800000Y-13909238D01*
X8800000Y-13899714D01*
X8809524Y-13880667D01*
X8828571Y-13871143D01*
X8857143Y-13871143D01*
X8876190Y-13880667D01*
X8952381Y-14080667D02*
X8961905Y-14071143D01*
X8980952Y-14042571D01*
X8990476Y-14023524D01*
X9000000Y-13994952D01*
X9009524Y-13947333D01*
X9009524Y-13909238D01*
X9000000Y-13861619D01*
X8990476Y-13833048D01*
X8980952Y-13814000D01*
X8961905Y-13785428D01*
X8952381Y-13775905D01*
X9314286Y-14080667D02*
X9304762Y-14071143D01*
X9285714Y-14042571D01*
X9276190Y-14023524D01*
X9266667Y-13994952D01*
X9257143Y-13947333D01*
X9257143Y-13909238D01*
X9266667Y-13861619D01*
X9276190Y-13833048D01*
X9285714Y-13814000D01*
X9304762Y-13785428D01*
X9314286Y-13775905D01*
X9390476Y-13871143D02*
X9390476Y-14004476D01*
X9390476Y-13890190D02*
X9400000Y-13880667D01*
X9419048Y-13871143D01*
X9447619Y-13871143D01*
X9466667Y-13880667D01*
X9476190Y-13899714D01*
X9476190Y-14004476D01*
X9600000Y-14004476D02*
X9580952Y-13994952D01*
X9571429Y-13985428D01*
X9561905Y-13966381D01*
X9561905Y-13909238D01*
X9571429Y-13890190D01*
X9580952Y-13880667D01*
X9600000Y-13871143D01*
X9628571Y-13871143D01*
X9647619Y-13880667D01*
X9657143Y-13890190D01*
X9666667Y-13909238D01*
X9666667Y-13966381D01*
X9657143Y-13985428D01*
X9647619Y-13994952D01*
X9628571Y-14004476D01*
X9600000Y-14004476D01*
X9723810Y-13871143D02*
X9800000Y-13871143D01*
X9752381Y-13804476D02*
X9752381Y-13975905D01*
X9761905Y-13994952D01*
X9780952Y-14004476D01*
X9800000Y-14004476D01*
X10019048Y-13871143D02*
X10019048Y-14071143D01*
X10019048Y-13880667D02*
X10038095Y-13871143D01*
X10076190Y-13871143D01*
X10095238Y-13880667D01*
X10104762Y-13890190D01*
X10114286Y-13909238D01*
X10114286Y-13966381D01*
X10104762Y-13985428D01*
X10095238Y-13994952D01*
X10076190Y-14004476D01*
X10038095Y-14004476D01*
X10019048Y-13994952D01*
X10228571Y-14004476D02*
X10209524Y-13994952D01*
X10200000Y-13975905D01*
X10200000Y-13804476D01*
X10390476Y-14004476D02*
X10390476Y-13899714D01*
X10380952Y-13880667D01*
X10361905Y-13871143D01*
X10323810Y-13871143D01*
X10304762Y-13880667D01*
X10390476Y-13994952D02*
X10371429Y-14004476D01*
X10323810Y-14004476D01*
X10304762Y-13994952D01*
X10295238Y-13975905D01*
X10295238Y-13956857D01*
X10304762Y-13937809D01*
X10323810Y-13928286D01*
X10371429Y-13928286D01*
X10390476Y-13918762D01*
X10457143Y-13871143D02*
X10533333Y-13871143D01*
X10485714Y-13804476D02*
X10485714Y-13975905D01*
X10495238Y-13994952D01*
X10514286Y-14004476D01*
X10533333Y-14004476D01*
X10676190Y-13994952D02*
X10657143Y-14004476D01*
X10619048Y-14004476D01*
X10600000Y-13994952D01*
X10590476Y-13975905D01*
X10590476Y-13899714D01*
X10600000Y-13880667D01*
X10619048Y-13871143D01*
X10657143Y-13871143D01*
X10676190Y-13880667D01*
X10685714Y-13899714D01*
X10685714Y-13918762D01*
X10590476Y-13937809D01*
X10857143Y-14004476D02*
X10857143Y-13804476D01*
X10857143Y-13994952D02*
X10838095Y-14004476D01*
X10800000Y-14004476D01*
X10780952Y-13994952D01*
X10771429Y-13985428D01*
X10761905Y-13966381D01*
X10761905Y-13909238D01*
X10771429Y-13890190D01*
X10780952Y-13880667D01*
X10800000Y-13871143D01*
X10838095Y-13871143D01*
X10857143Y-13880667D01*
X10933333Y-14080667D02*
X10942857Y-14071143D01*
X10961905Y-14042571D01*
X10971429Y-14023524D01*
X10980952Y-13994952D01*
X10990476Y-13947333D01*
X10990476Y-13909238D01*
X10980952Y-13861619D01*
X10971429Y-13833048D01*
X10961905Y-13814000D01*
X10942857Y-13785428D01*
X10933333Y-13775905D01*
X3890000Y-14109000D02*
X3890000Y-14309000D01*
X3790000Y-14209000D02*
X3990000Y-14209000D01*
X4228571Y-14099476D02*
X4352381Y-14099476D01*
X4285714Y-14175667D01*
X4314286Y-14175667D01*
X4333333Y-14185190D01*
X4342857Y-14194714D01*
X4352381Y-14213762D01*
X4352381Y-14261381D01*
X4342857Y-14280428D01*
X4333333Y-14289952D01*
X4314286Y-14299476D01*
X4257143Y-14299476D01*
X4238095Y-14289952D01*
X4228571Y-14280428D01*
X4438095Y-14280428D02*
X4447619Y-14289952D01*
X4438095Y-14299476D01*
X4428571Y-14289952D01*
X4438095Y-14280428D01*
X4438095Y-14299476D01*
X4523810Y-14118524D02*
X4533333Y-14109000D01*
X4552381Y-14099476D01*
X4600000Y-14099476D01*
X4619048Y-14109000D01*
X4628571Y-14118524D01*
X4638095Y-14137571D01*
X4638095Y-14156619D01*
X4628571Y-14185190D01*
X4514286Y-14299476D01*
X4638095Y-14299476D01*
X4761905Y-14099476D02*
X4780952Y-14099476D01*
X4800000Y-14109000D01*
X4809524Y-14118524D01*
X4819048Y-14137571D01*
X4828571Y-14175667D01*
X4828571Y-14223286D01*
X4819048Y-14261381D01*
X4809524Y-14280428D01*
X4800000Y-14289952D01*
X4780952Y-14299476D01*
X4761905Y-14299476D01*
X4742857Y-14289952D01*
X4733333Y-14280428D01*
X4723810Y-14261381D01*
X4714286Y-14223286D01*
X4714286Y-14175667D01*
X4723810Y-14137571D01*
X4733333Y-14118524D01*
X4742857Y-14109000D01*
X4761905Y-14099476D01*
X4952381Y-14099476D02*
X4971429Y-14099476D01*
X4990476Y-14109000D01*
X5000000Y-14118524D01*
X5009524Y-14137571D01*
X5019048Y-14175667D01*
X5019048Y-14223286D01*
X5009524Y-14261381D01*
X5000000Y-14280428D01*
X4990476Y-14289952D01*
X4971429Y-14299476D01*
X4952381Y-14299476D01*
X4933333Y-14289952D01*
X4923810Y-14280428D01*
X4914286Y-14261381D01*
X4904762Y-14223286D01*
X4904762Y-14175667D01*
X4914286Y-14137571D01*
X4923810Y-14118524D01*
X4933333Y-14109000D01*
X4952381Y-14099476D01*
X5104762Y-14299476D02*
X5104762Y-14166143D01*
X5104762Y-14185190D02*
X5114286Y-14175667D01*
X5133333Y-14166143D01*
X5161905Y-14166143D01*
X5180952Y-14175667D01*
X5190476Y-14194714D01*
X5190476Y-14299476D01*
X5190476Y-14194714D02*
X5200000Y-14175667D01*
X5219048Y-14166143D01*
X5247619Y-14166143D01*
X5266667Y-14175667D01*
X5276190Y-14194714D01*
X5276190Y-14299476D01*
X5371429Y-14299476D02*
X5371429Y-14166143D01*
X5371429Y-14185190D02*
X5380952Y-14175667D01*
X5400000Y-14166143D01*
X5428571Y-14166143D01*
X5447619Y-14175667D01*
X5457143Y-14194714D01*
X5457143Y-14299476D01*
X5457143Y-14194714D02*
X5466667Y-14175667D01*
X5485714Y-14166143D01*
X5514286Y-14166143D01*
X5533333Y-14175667D01*
X5542857Y-14194714D01*
X5542857Y-14299476D01*
X5933333Y-14089952D02*
X5761905Y-14347095D01*
X6190476Y-14099476D02*
X6209524Y-14099476D01*
X6228571Y-14109000D01*
X6238095Y-14118524D01*
X6247619Y-14137571D01*
X6257143Y-14175667D01*
X6257143Y-14223286D01*
X6247619Y-14261381D01*
X6238095Y-14280428D01*
X6228571Y-14289952D01*
X6209524Y-14299476D01*
X6190476Y-14299476D01*
X6171428Y-14289952D01*
X6161905Y-14280428D01*
X6152381Y-14261381D01*
X6142857Y-14223286D01*
X6142857Y-14175667D01*
X6152381Y-14137571D01*
X6161905Y-14118524D01*
X6171428Y-14109000D01*
X6190476Y-14099476D01*
X6342857Y-14280428D02*
X6352381Y-14289952D01*
X6342857Y-14299476D01*
X6333333Y-14289952D01*
X6342857Y-14280428D01*
X6342857Y-14299476D01*
X6542857Y-14299476D02*
X6428571Y-14299476D01*
X6485714Y-14299476D02*
X6485714Y-14099476D01*
X6466667Y-14128048D01*
X6447619Y-14147095D01*
X6428571Y-14156619D01*
X6619048Y-14118524D02*
X6628571Y-14109000D01*
X6647619Y-14099476D01*
X6695238Y-14099476D01*
X6714286Y-14109000D01*
X6723809Y-14118524D01*
X6733333Y-14137571D01*
X6733333Y-14156619D01*
X6723809Y-14185190D01*
X6609524Y-14299476D01*
X6733333Y-14299476D01*
X6904762Y-14099476D02*
X6866667Y-14099476D01*
X6847619Y-14109000D01*
X6838095Y-14118524D01*
X6819048Y-14147095D01*
X6809524Y-14185190D01*
X6809524Y-14261381D01*
X6819048Y-14280428D01*
X6828571Y-14289952D01*
X6847619Y-14299476D01*
X6885714Y-14299476D01*
X6904762Y-14289952D01*
X6914286Y-14280428D01*
X6923809Y-14261381D01*
X6923809Y-14213762D01*
X6914286Y-14194714D01*
X6904762Y-14185190D01*
X6885714Y-14175667D01*
X6847619Y-14175667D01*
X6828571Y-14185190D01*
X6819048Y-14194714D01*
X6809524Y-14213762D01*
X7047619Y-14099476D02*
X7066667Y-14099476D01*
X7085714Y-14109000D01*
X7095238Y-14118524D01*
X7104762Y-14137571D01*
X7114286Y-14175667D01*
X7114286Y-14223286D01*
X7104762Y-14261381D01*
X7095238Y-14280428D01*
X7085714Y-14289952D01*
X7066667Y-14299476D01*
X7047619Y-14299476D01*
X7028571Y-14289952D01*
X7019048Y-14280428D01*
X7009524Y-14261381D01*
X7000000Y-14223286D01*
X7000000Y-14175667D01*
X7009524Y-14137571D01*
X7019048Y-14118524D01*
X7028571Y-14109000D01*
X7047619Y-14099476D01*
X7190476Y-14099476D02*
X7190476Y-14137571D01*
X7266667Y-14099476D02*
X7266667Y-14137571D01*
X7561905Y-14375667D02*
X7552381Y-14366143D01*
X7533333Y-14337571D01*
X7523809Y-14318524D01*
X7514286Y-14289952D01*
X7504762Y-14242333D01*
X7504762Y-14204238D01*
X7514286Y-14156619D01*
X7523809Y-14128048D01*
X7533333Y-14109000D01*
X7552381Y-14080428D01*
X7561905Y-14070905D01*
X7723809Y-14166143D02*
X7723809Y-14299476D01*
X7676190Y-14089952D02*
X7628571Y-14232809D01*
X7752381Y-14232809D01*
X7980952Y-14299476D02*
X7980952Y-14099476D01*
X8066667Y-14299476D02*
X8066667Y-14194714D01*
X8057143Y-14175667D01*
X8038095Y-14166143D01*
X8009524Y-14166143D01*
X7990476Y-14175667D01*
X7980952Y-14185190D01*
X8190476Y-14299476D02*
X8171428Y-14289952D01*
X8161905Y-14280428D01*
X8152381Y-14261381D01*
X8152381Y-14204238D01*
X8161905Y-14185190D01*
X8171428Y-14175667D01*
X8190476Y-14166143D01*
X8219048Y-14166143D01*
X8238095Y-14175667D01*
X8247619Y-14185190D01*
X8257143Y-14204238D01*
X8257143Y-14261381D01*
X8247619Y-14280428D01*
X8238095Y-14289952D01*
X8219048Y-14299476D01*
X8190476Y-14299476D01*
X8371428Y-14299476D02*
X8352381Y-14289952D01*
X8342857Y-14270905D01*
X8342857Y-14099476D01*
X8523810Y-14289952D02*
X8504762Y-14299476D01*
X8466667Y-14299476D01*
X8447619Y-14289952D01*
X8438095Y-14270905D01*
X8438095Y-14194714D01*
X8447619Y-14175667D01*
X8466667Y-14166143D01*
X8504762Y-14166143D01*
X8523810Y-14175667D01*
X8533333Y-14194714D01*
X8533333Y-14213762D01*
X8438095Y-14232809D01*
X8609524Y-14289952D02*
X8628571Y-14299476D01*
X8666667Y-14299476D01*
X8685714Y-14289952D01*
X8695238Y-14270905D01*
X8695238Y-14261381D01*
X8685714Y-14242333D01*
X8666667Y-14232809D01*
X8638095Y-14232809D01*
X8619048Y-14223286D01*
X8609524Y-14204238D01*
X8609524Y-14194714D01*
X8619048Y-14175667D01*
X8638095Y-14166143D01*
X8666667Y-14166143D01*
X8685714Y-14175667D01*
X8761905Y-14375667D02*
X8771429Y-14366143D01*
X8790476Y-14337571D01*
X8800000Y-14318524D01*
X8809524Y-14289952D01*
X8819048Y-14242333D01*
X8819048Y-14204238D01*
X8809524Y-14156619D01*
X8800000Y-14128048D01*
X8790476Y-14109000D01*
X8771429Y-14080428D01*
X8761905Y-14070905D01*
X9123810Y-14375667D02*
X9114286Y-14366143D01*
X9095238Y-14337571D01*
X9085714Y-14318524D01*
X9076190Y-14289952D01*
X9066667Y-14242333D01*
X9066667Y-14204238D01*
X9076190Y-14156619D01*
X9085714Y-14128048D01*
X9095238Y-14109000D01*
X9114286Y-14080428D01*
X9123810Y-14070905D01*
X9200000Y-14166143D02*
X9200000Y-14299476D01*
X9200000Y-14185190D02*
X9209524Y-14175667D01*
X9228571Y-14166143D01*
X9257143Y-14166143D01*
X9276190Y-14175667D01*
X9285714Y-14194714D01*
X9285714Y-14299476D01*
X9409524Y-14299476D02*
X9390476Y-14289952D01*
X9380952Y-14280428D01*
X9371429Y-14261381D01*
X9371429Y-14204238D01*
X9380952Y-14185190D01*
X9390476Y-14175667D01*
X9409524Y-14166143D01*
X9438095Y-14166143D01*
X9457143Y-14175667D01*
X9466667Y-14185190D01*
X9476190Y-14204238D01*
X9476190Y-14261381D01*
X9466667Y-14280428D01*
X9457143Y-14289952D01*
X9438095Y-14299476D01*
X9409524Y-14299476D01*
X9533333Y-14166143D02*
X9609524Y-14166143D01*
X9561905Y-14099476D02*
X9561905Y-14270905D01*
X9571429Y-14289952D01*
X9590476Y-14299476D01*
X9609524Y-14299476D01*
X9828571Y-14166143D02*
X9828571Y-14366143D01*
X9828571Y-14175667D02*
X9847619Y-14166143D01*
X9885714Y-14166143D01*
X9904762Y-14175667D01*
X9914286Y-14185190D01*
X9923810Y-14204238D01*
X9923810Y-14261381D01*
X9914286Y-14280428D01*
X9904762Y-14289952D01*
X9885714Y-14299476D01*
X9847619Y-14299476D01*
X9828571Y-14289952D01*
X10038095Y-14299476D02*
X10019048Y-14289952D01*
X10009524Y-14270905D01*
X10009524Y-14099476D01*
X10200000Y-14299476D02*
X10200000Y-14194714D01*
X10190476Y-14175667D01*
X10171429Y-14166143D01*
X10133333Y-14166143D01*
X10114286Y-14175667D01*
X10200000Y-14289952D02*
X10180952Y-14299476D01*
X10133333Y-14299476D01*
X10114286Y-14289952D01*
X10104762Y-14270905D01*
X10104762Y-14251857D01*
X10114286Y-14232809D01*
X10133333Y-14223286D01*
X10180952Y-14223286D01*
X10200000Y-14213762D01*
X10266667Y-14166143D02*
X10342857Y-14166143D01*
X10295238Y-14099476D02*
X10295238Y-14270905D01*
X10304762Y-14289952D01*
X10323810Y-14299476D01*
X10342857Y-14299476D01*
X10485714Y-14289952D02*
X10466667Y-14299476D01*
X10428571Y-14299476D01*
X10409524Y-14289952D01*
X10400000Y-14270905D01*
X10400000Y-14194714D01*
X10409524Y-14175667D01*
X10428571Y-14166143D01*
X10466667Y-14166143D01*
X10485714Y-14175667D01*
X10495238Y-14194714D01*
X10495238Y-14213762D01*
X10400000Y-14232809D01*
X10666667Y-14299476D02*
X10666667Y-14099476D01*
X10666667Y-14289952D02*
X10647619Y-14299476D01*
X10609524Y-14299476D01*
X10590476Y-14289952D01*
X10580952Y-14280428D01*
X10571429Y-14261381D01*
X10571429Y-14204238D01*
X10580952Y-14185190D01*
X10590476Y-14175667D01*
X10609524Y-14166143D01*
X10647619Y-14166143D01*
X10666667Y-14175667D01*
X10742857Y-14375667D02*
X10752381Y-14366143D01*
X10771429Y-14337571D01*
X10780952Y-14318524D01*
X10790476Y-14289952D01*
X10800000Y-14242333D01*
X10800000Y-14204238D01*
X10790476Y-14156619D01*
X10780952Y-14128048D01*
X10771429Y-14109000D01*
X10752381Y-14080428D01*
X10742857Y-14070905D01*
X3960711Y-14599711D02*
X3960711Y-14458289D01*
X3819289Y-14458289D01*
X3819289Y-14599711D01*
X3960711Y-14599711D01*
X4333333Y-14486143D02*
X4333333Y-14619476D01*
X4285714Y-14409952D02*
X4238095Y-14552809D01*
X4361905Y-14552809D01*
X4438095Y-14600428D02*
X4447619Y-14609952D01*
X4438095Y-14619476D01*
X4428571Y-14609952D01*
X4438095Y-14600428D01*
X4438095Y-14619476D01*
X4571429Y-14419476D02*
X4590476Y-14419476D01*
X4609524Y-14429000D01*
X4619048Y-14438524D01*
X4628571Y-14457571D01*
X4638095Y-14495667D01*
X4638095Y-14543286D01*
X4628571Y-14581381D01*
X4619048Y-14600428D01*
X4609524Y-14609952D01*
X4590476Y-14619476D01*
X4571429Y-14619476D01*
X4552381Y-14609952D01*
X4542857Y-14600428D01*
X4533333Y-14581381D01*
X4523810Y-14543286D01*
X4523810Y-14495667D01*
X4533333Y-14457571D01*
X4542857Y-14438524D01*
X4552381Y-14429000D01*
X4571429Y-14419476D01*
X4761905Y-14419476D02*
X4780952Y-14419476D01*
X4800000Y-14429000D01*
X4809524Y-14438524D01*
X4819048Y-14457571D01*
X4828571Y-14495667D01*
X4828571Y-14543286D01*
X4819048Y-14581381D01*
X4809524Y-14600428D01*
X4800000Y-14609952D01*
X4780952Y-14619476D01*
X4761905Y-14619476D01*
X4742857Y-14609952D01*
X4733333Y-14600428D01*
X4723810Y-14581381D01*
X4714286Y-14543286D01*
X4714286Y-14495667D01*
X4723810Y-14457571D01*
X4733333Y-14438524D01*
X4742857Y-14429000D01*
X4761905Y-14419476D01*
X4952381Y-14419476D02*
X4971429Y-14419476D01*
X4990476Y-14429000D01*
X5000000Y-14438524D01*
X5009524Y-14457571D01*
X5019048Y-14495667D01*
X5019048Y-14543286D01*
X5009524Y-14581381D01*
X5000000Y-14600428D01*
X4990476Y-14609952D01*
X4971429Y-14619476D01*
X4952381Y-14619476D01*
X4933333Y-14609952D01*
X4923810Y-14600428D01*
X4914286Y-14581381D01*
X4904762Y-14543286D01*
X4904762Y-14495667D01*
X4914286Y-14457571D01*
X4923810Y-14438524D01*
X4933333Y-14429000D01*
X4952381Y-14419476D01*
X5104762Y-14619476D02*
X5104762Y-14486143D01*
X5104762Y-14505190D02*
X5114286Y-14495667D01*
X5133333Y-14486143D01*
X5161905Y-14486143D01*
X5180952Y-14495667D01*
X5190476Y-14514714D01*
X5190476Y-14619476D01*
X5190476Y-14514714D02*
X5200000Y-14495667D01*
X5219048Y-14486143D01*
X5247619Y-14486143D01*
X5266667Y-14495667D01*
X5276190Y-14514714D01*
X5276190Y-14619476D01*
X5371429Y-14619476D02*
X5371429Y-14486143D01*
X5371429Y-14505190D02*
X5380952Y-14495667D01*
X5400000Y-14486143D01*
X5428571Y-14486143D01*
X5447619Y-14495667D01*
X5457143Y-14514714D01*
X5457143Y-14619476D01*
X5457143Y-14514714D02*
X5466667Y-14495667D01*
X5485714Y-14486143D01*
X5514286Y-14486143D01*
X5533333Y-14495667D01*
X5542857Y-14514714D01*
X5542857Y-14619476D01*
X5933333Y-14409952D02*
X5761905Y-14667095D01*
X6190476Y-14419476D02*
X6209524Y-14419476D01*
X6228571Y-14429000D01*
X6238095Y-14438524D01*
X6247619Y-14457571D01*
X6257143Y-14495667D01*
X6257143Y-14543286D01*
X6247619Y-14581381D01*
X6238095Y-14600428D01*
X6228571Y-14609952D01*
X6209524Y-14619476D01*
X6190476Y-14619476D01*
X6171428Y-14609952D01*
X6161905Y-14600428D01*
X6152381Y-14581381D01*
X6142857Y-14543286D01*
X6142857Y-14495667D01*
X6152381Y-14457571D01*
X6161905Y-14438524D01*
X6171428Y-14429000D01*
X6190476Y-14419476D01*
X6342857Y-14600428D02*
X6352381Y-14609952D01*
X6342857Y-14619476D01*
X6333333Y-14609952D01*
X6342857Y-14600428D01*
X6342857Y-14619476D01*
X6542857Y-14619476D02*
X6428571Y-14619476D01*
X6485714Y-14619476D02*
X6485714Y-14419476D01*
X6466667Y-14448048D01*
X6447619Y-14467095D01*
X6428571Y-14476619D01*
X6723809Y-14419476D02*
X6628571Y-14419476D01*
X6619048Y-14514714D01*
X6628571Y-14505190D01*
X6647619Y-14495667D01*
X6695238Y-14495667D01*
X6714286Y-14505190D01*
X6723809Y-14514714D01*
X6733333Y-14533762D01*
X6733333Y-14581381D01*
X6723809Y-14600428D01*
X6714286Y-14609952D01*
X6695238Y-14619476D01*
X6647619Y-14619476D01*
X6628571Y-14609952D01*
X6619048Y-14600428D01*
X6800000Y-14419476D02*
X6933333Y-14419476D01*
X6847619Y-14619476D01*
X7104762Y-14419476D02*
X7009524Y-14419476D01*
X7000000Y-14514714D01*
X7009524Y-14505190D01*
X7028571Y-14495667D01*
X7076190Y-14495667D01*
X7095238Y-14505190D01*
X7104762Y-14514714D01*
X7114286Y-14533762D01*
X7114286Y-14581381D01*
X7104762Y-14600428D01*
X7095238Y-14609952D01*
X7076190Y-14619476D01*
X7028571Y-14619476D01*
X7009524Y-14609952D01*
X7000000Y-14600428D01*
X7190476Y-14419476D02*
X7190476Y-14457571D01*
X7266667Y-14419476D02*
X7266667Y-14457571D01*
X7561905Y-14695667D02*
X7552381Y-14686143D01*
X7533333Y-14657571D01*
X7523809Y-14638524D01*
X7514286Y-14609952D01*
X7504762Y-14562333D01*
X7504762Y-14524238D01*
X7514286Y-14476619D01*
X7523809Y-14448048D01*
X7533333Y-14429000D01*
X7552381Y-14400428D01*
X7561905Y-14390905D01*
X7742857Y-14619476D02*
X7628571Y-14619476D01*
X7685714Y-14619476D02*
X7685714Y-14419476D01*
X7666667Y-14448048D01*
X7647619Y-14467095D01*
X7628571Y-14476619D01*
X7819048Y-14438524D02*
X7828571Y-14429000D01*
X7847619Y-14419476D01*
X7895238Y-14419476D01*
X7914286Y-14429000D01*
X7923809Y-14438524D01*
X7933333Y-14457571D01*
X7933333Y-14476619D01*
X7923809Y-14505190D01*
X7809524Y-14619476D01*
X7933333Y-14619476D01*
X8171428Y-14619476D02*
X8171428Y-14419476D01*
X8257143Y-14619476D02*
X8257143Y-14514714D01*
X8247619Y-14495667D01*
X8228571Y-14486143D01*
X8200000Y-14486143D01*
X8180952Y-14495667D01*
X8171428Y-14505190D01*
X8380952Y-14619476D02*
X8361905Y-14609952D01*
X8352381Y-14600428D01*
X8342857Y-14581381D01*
X8342857Y-14524238D01*
X8352381Y-14505190D01*
X8361905Y-14495667D01*
X8380952Y-14486143D01*
X8409524Y-14486143D01*
X8428571Y-14495667D01*
X8438095Y-14505190D01*
X8447619Y-14524238D01*
X8447619Y-14581381D01*
X8438095Y-14600428D01*
X8428571Y-14609952D01*
X8409524Y-14619476D01*
X8380952Y-14619476D01*
X8561905Y-14619476D02*
X8542857Y-14609952D01*
X8533333Y-14590905D01*
X8533333Y-14419476D01*
X8714286Y-14609952D02*
X8695238Y-14619476D01*
X8657143Y-14619476D01*
X8638095Y-14609952D01*
X8628571Y-14590905D01*
X8628571Y-14514714D01*
X8638095Y-14495667D01*
X8657143Y-14486143D01*
X8695238Y-14486143D01*
X8714286Y-14495667D01*
X8723810Y-14514714D01*
X8723810Y-14533762D01*
X8628571Y-14552809D01*
X8800000Y-14609952D02*
X8819048Y-14619476D01*
X8857143Y-14619476D01*
X8876190Y-14609952D01*
X8885714Y-14590905D01*
X8885714Y-14581381D01*
X8876190Y-14562333D01*
X8857143Y-14552809D01*
X8828571Y-14552809D01*
X8809524Y-14543286D01*
X8800000Y-14524238D01*
X8800000Y-14514714D01*
X8809524Y-14495667D01*
X8828571Y-14486143D01*
X8857143Y-14486143D01*
X8876190Y-14495667D01*
X8952381Y-14695667D02*
X8961905Y-14686143D01*
X8980952Y-14657571D01*
X8990476Y-14638524D01*
X9000000Y-14609952D01*
X9009524Y-14562333D01*
X9009524Y-14524238D01*
X9000000Y-14476619D01*
X8990476Y-14448048D01*
X8980952Y-14429000D01*
X8961905Y-14400428D01*
X8952381Y-14390905D01*
X9314286Y-14695667D02*
X9304762Y-14686143D01*
X9285714Y-14657571D01*
X9276190Y-14638524D01*
X9266667Y-14609952D01*
X9257143Y-14562333D01*
X9257143Y-14524238D01*
X9266667Y-14476619D01*
X9276190Y-14448048D01*
X9285714Y-14429000D01*
X9304762Y-14400428D01*
X9314286Y-14390905D01*
X9390476Y-14486143D02*
X9390476Y-14619476D01*
X9390476Y-14505190D02*
X9400000Y-14495667D01*
X9419048Y-14486143D01*
X9447619Y-14486143D01*
X9466667Y-14495667D01*
X9476190Y-14514714D01*
X9476190Y-14619476D01*
X9600000Y-14619476D02*
X9580952Y-14609952D01*
X9571429Y-14600428D01*
X9561905Y-14581381D01*
X9561905Y-14524238D01*
X9571429Y-14505190D01*
X9580952Y-14495667D01*
X9600000Y-14486143D01*
X9628571Y-14486143D01*
X9647619Y-14495667D01*
X9657143Y-14505190D01*
X9666667Y-14524238D01*
X9666667Y-14581381D01*
X9657143Y-14600428D01*
X9647619Y-14609952D01*
X9628571Y-14619476D01*
X9600000Y-14619476D01*
X9723810Y-14486143D02*
X9800000Y-14486143D01*
X9752381Y-14419476D02*
X9752381Y-14590905D01*
X9761905Y-14609952D01*
X9780952Y-14619476D01*
X9800000Y-14619476D01*
X10019048Y-14486143D02*
X10019048Y-14686143D01*
X10019048Y-14495667D02*
X10038095Y-14486143D01*
X10076190Y-14486143D01*
X10095238Y-14495667D01*
X10104762Y-14505190D01*
X10114286Y-14524238D01*
X10114286Y-14581381D01*
X10104762Y-14600428D01*
X10095238Y-14609952D01*
X10076190Y-14619476D01*
X10038095Y-14619476D01*
X10019048Y-14609952D01*
X10228571Y-14619476D02*
X10209524Y-14609952D01*
X10200000Y-14590905D01*
X10200000Y-14419476D01*
X10390476Y-14619476D02*
X10390476Y-14514714D01*
X10380952Y-14495667D01*
X10361905Y-14486143D01*
X10323810Y-14486143D01*
X10304762Y-14495667D01*
X10390476Y-14609952D02*
X10371429Y-14619476D01*
X10323810Y-14619476D01*
X10304762Y-14609952D01*
X10295238Y-14590905D01*
X10295238Y-14571857D01*
X10304762Y-14552809D01*
X10323810Y-14543286D01*
X10371429Y-14543286D01*
X10390476Y-14533762D01*
X10457143Y-14486143D02*
X10533333Y-14486143D01*
X10485714Y-14419476D02*
X10485714Y-14590905D01*
X10495238Y-14609952D01*
X10514286Y-14619476D01*
X10533333Y-14619476D01*
X10676190Y-14609952D02*
X10657143Y-14619476D01*
X10619048Y-14619476D01*
X10600000Y-14609952D01*
X10590476Y-14590905D01*
X10590476Y-14514714D01*
X10600000Y-14495667D01*
X10619048Y-14486143D01*
X10657143Y-14486143D01*
X10676190Y-14495667D01*
X10685714Y-14514714D01*
X10685714Y-14533762D01*
X10590476Y-14552809D01*
X10857143Y-14619476D02*
X10857143Y-14419476D01*
X10857143Y-14609952D02*
X10838095Y-14619476D01*
X10800000Y-14619476D01*
X10780952Y-14609952D01*
X10771429Y-14600428D01*
X10761905Y-14581381D01*
X10761905Y-14524238D01*
X10771429Y-14505190D01*
X10780952Y-14495667D01*
X10800000Y-14486143D01*
X10838095Y-14486143D01*
X10857143Y-14495667D01*
X10933333Y-14695667D02*
X10942857Y-14686143D01*
X10961905Y-14657571D01*
X10971429Y-14638524D01*
X10980952Y-14609952D01*
X10990476Y-14562333D01*
X10990476Y-14524238D01*
X10980952Y-14476619D01*
X10971429Y-14448048D01*
X10961905Y-14429000D01*
X10942857Y-14400428D01*
X10933333Y-14390905D01*
M02*
