G04 #@! TF.GenerationSoftware,KiCad,Pcbnew,(6.0.0)*
G04 #@! TF.CreationDate,2022-04-22T22:08:31+02:00*
G04 #@! TF.ProjectId,keyboard_v1.0,6b657962-6f61-4726-945f-76312e302e6b,rev?*
G04 #@! TF.SameCoordinates,Original*
G04 #@! TF.FileFunction,Legend,Top*
G04 #@! TF.FilePolarity,Positive*
%FSLAX46Y46*%
G04 Gerber Fmt 4.6, Leading zero omitted, Abs format (unit mm)*
G04 Created by KiCad (PCBNEW (6.0.0)) date 2022-04-22 22:08:31*
%MOMM*%
%LPD*%
G01*
G04 APERTURE LIST*
G04 Aperture macros list*
%AMRoundRect*
0 Rectangle with rounded corners*
0 $1 Rounding radius*
0 $2 $3 $4 $5 $6 $7 $8 $9 X,Y pos of 4 corners*
0 Add a 4 corners polygon primitive as box body*
4,1,4,$2,$3,$4,$5,$6,$7,$8,$9,$2,$3,0*
0 Add four circle primitives for the rounded corners*
1,1,$1+$1,$2,$3*
1,1,$1+$1,$4,$5*
1,1,$1+$1,$6,$7*
1,1,$1+$1,$8,$9*
0 Add four rect primitives between the rounded corners*
20,1,$1+$1,$2,$3,$4,$5,0*
20,1,$1+$1,$4,$5,$6,$7,0*
20,1,$1+$1,$6,$7,$8,$9,0*
20,1,$1+$1,$8,$9,$2,$3,0*%
G04 Aperture macros list end*
%ADD10C,0.150000*%
%ADD11C,0.120000*%
%ADD12C,0.100000*%
%ADD13C,0.127000*%
%ADD14RoundRect,0.250000X0.475000X-0.337500X0.475000X0.337500X-0.475000X0.337500X-0.475000X-0.337500X0*%
%ADD15R,1.500000X1.000000*%
%ADD16R,1.700000X1.700000*%
%ADD17O,1.700000X1.700000*%
%ADD18C,4.000000*%
%ADD19C,1.750000*%
%ADD20RoundRect,0.250000X0.350000X0.450000X-0.350000X0.450000X-0.350000X-0.450000X0.350000X-0.450000X0*%
%ADD21RoundRect,0.250000X-0.475000X0.337500X-0.475000X-0.337500X0.475000X-0.337500X0.475000X0.337500X0*%
%ADD22RoundRect,0.250000X-0.337500X-0.475000X0.337500X-0.475000X0.337500X0.475000X-0.337500X0.475000X0*%
%ADD23RoundRect,0.250000X0.337500X0.475000X-0.337500X0.475000X-0.337500X-0.475000X0.337500X-0.475000X0*%
%ADD24C,0.650000*%
%ADD25R,0.600000X1.450000*%
%ADD26R,0.300000X1.450000*%
%ADD27O,1.000000X2.100000*%
%ADD28O,1.000000X1.600000*%
%ADD29R,2.150000X5.500000*%
%ADD30R,1.800000X2.500000*%
%ADD31RoundRect,0.250000X-0.350000X-0.450000X0.350000X-0.450000X0.350000X0.450000X-0.350000X0.450000X0*%
%ADD32RoundRect,0.150000X0.150000X-0.587500X0.150000X0.587500X-0.150000X0.587500X-0.150000X-0.587500X0*%
%ADD33RoundRect,0.250000X0.450000X-0.350000X0.450000X0.350000X-0.450000X0.350000X-0.450000X-0.350000X0*%
%ADD34R,0.900000X1.500000*%
%ADD35R,1.500000X0.900000*%
%ADD36C,0.600000*%
%ADD37R,0.900000X0.900000*%
%ADD38C,1.600000*%
%ADD39R,1.200000X1.200000*%
%ADD40C,1.200000*%
%ADD41RoundRect,0.250000X-0.450000X0.350000X-0.450000X-0.350000X0.450000X-0.350000X0.450000X0.350000X0*%
%ADD42C,3.200000*%
%ADD43RoundRect,0.237500X-0.237500X0.287500X-0.237500X-0.287500X0.237500X-0.287500X0.237500X0.287500X0*%
%ADD44R,2.200000X2.200000*%
%ADD45O,2.200000X2.200000*%
%ADD46C,2.800000*%
%ADD47R,1.460500X0.533400*%
%ADD48RoundRect,0.249999X-0.450001X-1.425001X0.450001X-1.425001X0.450001X1.425001X-0.450001X1.425001X0*%
%ADD49R,1.460500X0.355600*%
%ADD50R,5.500000X2.150000*%
%ADD51O,1.600000X1.600000*%
%ADD52R,1.600000X1.600000*%
%ADD53RoundRect,0.150000X-0.587500X-0.150000X0.587500X-0.150000X0.587500X0.150000X-0.587500X0.150000X0*%
%ADD54R,1.780000X3.150000*%
G04 APERTURE END LIST*
D10*
X101537142Y-127975142D02*
X101489523Y-128022761D01*
X101346666Y-128070380D01*
X101251428Y-128070380D01*
X101108571Y-128022761D01*
X101013333Y-127927523D01*
X100965714Y-127832285D01*
X100918095Y-127641809D01*
X100918095Y-127498952D01*
X100965714Y-127308476D01*
X101013333Y-127213238D01*
X101108571Y-127118000D01*
X101251428Y-127070380D01*
X101346666Y-127070380D01*
X101489523Y-127118000D01*
X101537142Y-127165619D01*
X102394285Y-127403714D02*
X102394285Y-128070380D01*
X101965714Y-127403714D02*
X101965714Y-127927523D01*
X102013333Y-128022761D01*
X102108571Y-128070380D01*
X102251428Y-128070380D01*
X102346666Y-128022761D01*
X102394285Y-127975142D01*
X102822857Y-128022761D02*
X102918095Y-128070380D01*
X103108571Y-128070380D01*
X103203809Y-128022761D01*
X103251428Y-127927523D01*
X103251428Y-127879904D01*
X103203809Y-127784666D01*
X103108571Y-127737047D01*
X102965714Y-127737047D01*
X102870476Y-127689428D01*
X102822857Y-127594190D01*
X102822857Y-127546571D01*
X102870476Y-127451333D01*
X102965714Y-127403714D01*
X103108571Y-127403714D01*
X103203809Y-127451333D01*
X103537142Y-127403714D02*
X103918095Y-127403714D01*
X103680000Y-127070380D02*
X103680000Y-127927523D01*
X103727619Y-128022761D01*
X103822857Y-128070380D01*
X103918095Y-128070380D01*
X104394285Y-128070380D02*
X104299047Y-128022761D01*
X104251428Y-127975142D01*
X104203809Y-127879904D01*
X104203809Y-127594190D01*
X104251428Y-127498952D01*
X104299047Y-127451333D01*
X104394285Y-127403714D01*
X104537142Y-127403714D01*
X104632380Y-127451333D01*
X104680000Y-127498952D01*
X104727619Y-127594190D01*
X104727619Y-127879904D01*
X104680000Y-127975142D01*
X104632380Y-128022761D01*
X104537142Y-128070380D01*
X104394285Y-128070380D01*
X105156190Y-128070380D02*
X105156190Y-127403714D01*
X105156190Y-127498952D02*
X105203809Y-127451333D01*
X105299047Y-127403714D01*
X105441904Y-127403714D01*
X105537142Y-127451333D01*
X105584761Y-127546571D01*
X105584761Y-128070380D01*
X105584761Y-127546571D02*
X105632380Y-127451333D01*
X105727619Y-127403714D01*
X105870476Y-127403714D01*
X105965714Y-127451333D01*
X106013333Y-127546571D01*
X106013333Y-128070380D01*
X107251428Y-128070380D02*
X107251428Y-127070380D01*
X107584761Y-127784666D01*
X107918095Y-127070380D01*
X107918095Y-128070380D01*
X108394285Y-128070380D02*
X108394285Y-127403714D01*
X108394285Y-127070380D02*
X108346666Y-127118000D01*
X108394285Y-127165619D01*
X108441904Y-127118000D01*
X108394285Y-127070380D01*
X108394285Y-127165619D01*
X108870476Y-127403714D02*
X108870476Y-128070380D01*
X108870476Y-127498952D02*
X108918095Y-127451333D01*
X109013333Y-127403714D01*
X109156190Y-127403714D01*
X109251428Y-127451333D01*
X109299047Y-127546571D01*
X109299047Y-128070380D01*
X109775238Y-128070380D02*
X109775238Y-127403714D01*
X109775238Y-127070380D02*
X109727619Y-127118000D01*
X109775238Y-127165619D01*
X109822857Y-127118000D01*
X109775238Y-127070380D01*
X109775238Y-127165619D01*
X111013333Y-128070380D02*
X111013333Y-127070380D01*
X111584761Y-128070380D02*
X111156190Y-127498952D01*
X111584761Y-127070380D02*
X111013333Y-127641809D01*
X112394285Y-128022761D02*
X112299047Y-128070380D01*
X112108571Y-128070380D01*
X112013333Y-128022761D01*
X111965714Y-127927523D01*
X111965714Y-127546571D01*
X112013333Y-127451333D01*
X112108571Y-127403714D01*
X112299047Y-127403714D01*
X112394285Y-127451333D01*
X112441904Y-127546571D01*
X112441904Y-127641809D01*
X111965714Y-127737047D01*
X112775238Y-127403714D02*
X113013333Y-128070380D01*
X113251428Y-127403714D02*
X113013333Y-128070380D01*
X112918095Y-128308476D01*
X112870476Y-128356095D01*
X112775238Y-128403714D01*
X113632380Y-128070380D02*
X113632380Y-127070380D01*
X113632380Y-127451333D02*
X113727619Y-127403714D01*
X113918095Y-127403714D01*
X114013333Y-127451333D01*
X114060952Y-127498952D01*
X114108571Y-127594190D01*
X114108571Y-127879904D01*
X114060952Y-127975142D01*
X114013333Y-128022761D01*
X113918095Y-128070380D01*
X113727619Y-128070380D01*
X113632380Y-128022761D01*
X114680000Y-128070380D02*
X114584761Y-128022761D01*
X114537142Y-127975142D01*
X114489523Y-127879904D01*
X114489523Y-127594190D01*
X114537142Y-127498952D01*
X114584761Y-127451333D01*
X114680000Y-127403714D01*
X114822857Y-127403714D01*
X114918095Y-127451333D01*
X114965714Y-127498952D01*
X115013333Y-127594190D01*
X115013333Y-127879904D01*
X114965714Y-127975142D01*
X114918095Y-128022761D01*
X114822857Y-128070380D01*
X114680000Y-128070380D01*
X115870476Y-128070380D02*
X115870476Y-127546571D01*
X115822857Y-127451333D01*
X115727619Y-127403714D01*
X115537142Y-127403714D01*
X115441904Y-127451333D01*
X115870476Y-128022761D02*
X115775238Y-128070380D01*
X115537142Y-128070380D01*
X115441904Y-128022761D01*
X115394285Y-127927523D01*
X115394285Y-127832285D01*
X115441904Y-127737047D01*
X115537142Y-127689428D01*
X115775238Y-127689428D01*
X115870476Y-127641809D01*
X116346666Y-128070380D02*
X116346666Y-127403714D01*
X116346666Y-127594190D02*
X116394285Y-127498952D01*
X116441904Y-127451333D01*
X116537142Y-127403714D01*
X116632380Y-127403714D01*
X117394285Y-128070380D02*
X117394285Y-127070380D01*
X117394285Y-128022761D02*
X117299047Y-128070380D01*
X117108571Y-128070380D01*
X117013333Y-128022761D01*
X116965714Y-127975142D01*
X116918095Y-127879904D01*
X116918095Y-127594190D01*
X116965714Y-127498952D01*
X117013333Y-127451333D01*
X117108571Y-127403714D01*
X117299047Y-127403714D01*
X117394285Y-127451333D01*
X118632380Y-127689428D02*
X119394285Y-127689428D01*
X120489523Y-127070380D02*
X121060952Y-127070380D01*
X120775238Y-128070380D02*
X120775238Y-127070380D01*
X121537142Y-128070380D02*
X121441904Y-128022761D01*
X121394285Y-127975142D01*
X121346666Y-127879904D01*
X121346666Y-127594190D01*
X121394285Y-127498952D01*
X121441904Y-127451333D01*
X121537142Y-127403714D01*
X121679999Y-127403714D01*
X121775238Y-127451333D01*
X121822857Y-127498952D01*
X121870476Y-127594190D01*
X121870476Y-127879904D01*
X121822857Y-127975142D01*
X121775238Y-128022761D01*
X121679999Y-128070380D01*
X121537142Y-128070380D01*
X121441904Y-127070380D02*
X121489523Y-127118000D01*
X121441904Y-127165619D01*
X121394285Y-127118000D01*
X121441904Y-127070380D01*
X121441904Y-127165619D01*
X121822857Y-127070380D02*
X121870476Y-127118000D01*
X121822857Y-127165619D01*
X121775238Y-127118000D01*
X121822857Y-127070380D01*
X121822857Y-127165619D01*
X122299047Y-128070380D02*
X122299047Y-127403714D01*
X122299047Y-127594190D02*
X122346666Y-127498952D01*
X122394285Y-127451333D01*
X122489523Y-127403714D01*
X122584761Y-127403714D01*
X123060952Y-128070380D02*
X122965714Y-128022761D01*
X122918095Y-127975142D01*
X122870476Y-127879904D01*
X122870476Y-127594190D01*
X122918095Y-127498952D01*
X122965714Y-127451333D01*
X123060952Y-127403714D01*
X123203809Y-127403714D01*
X123299047Y-127451333D01*
X123346666Y-127498952D01*
X123394285Y-127594190D01*
X123394285Y-127879904D01*
X123346666Y-127975142D01*
X123299047Y-128022761D01*
X123203809Y-128070380D01*
X123060952Y-128070380D01*
X122965714Y-127070380D02*
X123013333Y-127118000D01*
X122965714Y-127165619D01*
X122918095Y-127118000D01*
X122965714Y-127070380D01*
X122965714Y-127165619D01*
X123346666Y-127070380D02*
X123394285Y-127118000D01*
X123346666Y-127165619D01*
X123299047Y-127118000D01*
X123346666Y-127070380D01*
X123346666Y-127165619D01*
X123822857Y-128070380D02*
X123822857Y-127070380D01*
X123918095Y-127689428D02*
X124203809Y-128070380D01*
X124203809Y-127403714D02*
X123822857Y-127784666D01*
X125346666Y-128022761D02*
X125489523Y-128070380D01*
X125727619Y-128070380D01*
X125822857Y-128022761D01*
X125870476Y-127975142D01*
X125918095Y-127879904D01*
X125918095Y-127784666D01*
X125870476Y-127689428D01*
X125822857Y-127641809D01*
X125727619Y-127594190D01*
X125537142Y-127546571D01*
X125441904Y-127498952D01*
X125394285Y-127451333D01*
X125346666Y-127356095D01*
X125346666Y-127260857D01*
X125394285Y-127165619D01*
X125441904Y-127118000D01*
X125537142Y-127070380D01*
X125775238Y-127070380D01*
X125918095Y-127118000D01*
X126775238Y-128070380D02*
X126775238Y-127546571D01*
X126727619Y-127451333D01*
X126632380Y-127403714D01*
X126441904Y-127403714D01*
X126346666Y-127451333D01*
X126775238Y-128022761D02*
X126679999Y-128070380D01*
X126441904Y-128070380D01*
X126346666Y-128022761D01*
X126299047Y-127927523D01*
X126299047Y-127832285D01*
X126346666Y-127737047D01*
X126441904Y-127689428D01*
X126679999Y-127689428D01*
X126775238Y-127641809D01*
X126632380Y-127022761D02*
X126489523Y-127165619D01*
X127251428Y-128070380D02*
X127251428Y-127403714D01*
X127251428Y-127498952D02*
X127299047Y-127451333D01*
X127394285Y-127403714D01*
X127537142Y-127403714D01*
X127632380Y-127451333D01*
X127679999Y-127546571D01*
X127679999Y-128070380D01*
X127679999Y-127546571D02*
X127727619Y-127451333D01*
X127822857Y-127403714D01*
X127965714Y-127403714D01*
X128060952Y-127451333D01*
X128108571Y-127546571D01*
X128108571Y-128070380D01*
X129013333Y-127403714D02*
X129013333Y-128070380D01*
X128584761Y-127403714D02*
X128584761Y-127927523D01*
X128632380Y-128022761D01*
X128727619Y-128070380D01*
X128870476Y-128070380D01*
X128965714Y-128022761D01*
X129013333Y-127975142D01*
X129870476Y-128022761D02*
X129775238Y-128070380D01*
X129584761Y-128070380D01*
X129489523Y-128022761D01*
X129441904Y-127927523D01*
X129441904Y-127546571D01*
X129489523Y-127451333D01*
X129584761Y-127403714D01*
X129775238Y-127403714D01*
X129870476Y-127451333D01*
X129918095Y-127546571D01*
X129918095Y-127641809D01*
X129441904Y-127737047D01*
X130489523Y-128070380D02*
X130394285Y-128022761D01*
X130346666Y-127927523D01*
X130346666Y-127070380D01*
X98760142Y-44353857D02*
X98807761Y-44401476D01*
X98855380Y-44544333D01*
X98855380Y-44639571D01*
X98807761Y-44782428D01*
X98712523Y-44877666D01*
X98617285Y-44925285D01*
X98426809Y-44972904D01*
X98283952Y-44972904D01*
X98093476Y-44925285D01*
X97998238Y-44877666D01*
X97903000Y-44782428D01*
X97855380Y-44639571D01*
X97855380Y-44544333D01*
X97903000Y-44401476D01*
X97950619Y-44353857D01*
X97855380Y-44020523D02*
X97855380Y-43401476D01*
X98236333Y-43734809D01*
X98236333Y-43591952D01*
X98283952Y-43496714D01*
X98331571Y-43449095D01*
X98426809Y-43401476D01*
X98664904Y-43401476D01*
X98760142Y-43449095D01*
X98807761Y-43496714D01*
X98855380Y-43591952D01*
X98855380Y-43877666D01*
X98807761Y-43972904D01*
X98760142Y-44020523D01*
X98283952Y-42830047D02*
X98236333Y-42925285D01*
X98188714Y-42972904D01*
X98093476Y-43020523D01*
X98045857Y-43020523D01*
X97950619Y-42972904D01*
X97903000Y-42925285D01*
X97855380Y-42830047D01*
X97855380Y-42639571D01*
X97903000Y-42544333D01*
X97950619Y-42496714D01*
X98045857Y-42449095D01*
X98093476Y-42449095D01*
X98188714Y-42496714D01*
X98236333Y-42544333D01*
X98283952Y-42639571D01*
X98283952Y-42830047D01*
X98331571Y-42925285D01*
X98379190Y-42972904D01*
X98474428Y-43020523D01*
X98664904Y-43020523D01*
X98760142Y-42972904D01*
X98807761Y-42925285D01*
X98855380Y-42830047D01*
X98855380Y-42639571D01*
X98807761Y-42544333D01*
X98760142Y-42496714D01*
X98664904Y-42449095D01*
X98474428Y-42449095D01*
X98379190Y-42496714D01*
X98331571Y-42544333D01*
X98283952Y-42639571D01*
X98783714Y-125930380D02*
X98783714Y-124930380D01*
X99021809Y-124930380D01*
X99164666Y-124978000D01*
X99259904Y-125073238D01*
X99307523Y-125168476D01*
X99355142Y-125358952D01*
X99355142Y-125501809D01*
X99307523Y-125692285D01*
X99259904Y-125787523D01*
X99164666Y-125882761D01*
X99021809Y-125930380D01*
X98783714Y-125930380D01*
X99736095Y-125025619D02*
X99783714Y-124978000D01*
X99878952Y-124930380D01*
X100117047Y-124930380D01*
X100212285Y-124978000D01*
X100259904Y-125025619D01*
X100307523Y-125120857D01*
X100307523Y-125216095D01*
X100259904Y-125358952D01*
X99688476Y-125930380D01*
X100307523Y-125930380D01*
X101164666Y-125263714D02*
X101164666Y-125930380D01*
X100926571Y-124882761D02*
X100688476Y-125597047D01*
X101307523Y-125597047D01*
X104435714Y-123852380D02*
X103864285Y-123852380D01*
X104150000Y-123852380D02*
X104150000Y-122852380D01*
X104054761Y-122995238D01*
X103959523Y-123090476D01*
X103864285Y-123138095D01*
X42465476Y-78785761D02*
X42608333Y-78833380D01*
X42846428Y-78833380D01*
X42941666Y-78785761D01*
X42989285Y-78738142D01*
X43036904Y-78642904D01*
X43036904Y-78547666D01*
X42989285Y-78452428D01*
X42941666Y-78404809D01*
X42846428Y-78357190D01*
X42655952Y-78309571D01*
X42560714Y-78261952D01*
X42513095Y-78214333D01*
X42465476Y-78119095D01*
X42465476Y-78023857D01*
X42513095Y-77928619D01*
X42560714Y-77881000D01*
X42655952Y-77833380D01*
X42894047Y-77833380D01*
X43036904Y-77881000D01*
X43370238Y-77833380D02*
X43608333Y-78833380D01*
X43798809Y-78119095D01*
X43989285Y-78833380D01*
X44227380Y-77833380D01*
X45132142Y-78833380D02*
X44560714Y-78833380D01*
X44846428Y-78833380D02*
X44846428Y-77833380D01*
X44751190Y-77976238D01*
X44655952Y-78071476D01*
X44560714Y-78119095D01*
X46036904Y-77833380D02*
X45560714Y-77833380D01*
X45513095Y-78309571D01*
X45560714Y-78261952D01*
X45655952Y-78214333D01*
X45894047Y-78214333D01*
X45989285Y-78261952D01*
X46036904Y-78309571D01*
X46084523Y-78404809D01*
X46084523Y-78642904D01*
X46036904Y-78738142D01*
X45989285Y-78785761D01*
X45894047Y-78833380D01*
X45655952Y-78833380D01*
X45560714Y-78785761D01*
X45513095Y-78738142D01*
X58666666Y-107404761D02*
X58809523Y-107452380D01*
X59047619Y-107452380D01*
X59142857Y-107404761D01*
X59190476Y-107357142D01*
X59238095Y-107261904D01*
X59238095Y-107166666D01*
X59190476Y-107071428D01*
X59142857Y-107023809D01*
X59047619Y-106976190D01*
X58857142Y-106928571D01*
X58761904Y-106880952D01*
X58714285Y-106833333D01*
X58666666Y-106738095D01*
X58666666Y-106642857D01*
X58714285Y-106547619D01*
X58761904Y-106500000D01*
X58857142Y-106452380D01*
X59095238Y-106452380D01*
X59238095Y-106500000D01*
X59571428Y-106452380D02*
X59809523Y-107452380D01*
X60000000Y-106738095D01*
X60190476Y-107452380D01*
X60428571Y-106452380D01*
X60714285Y-106452380D02*
X61333333Y-106452380D01*
X61000000Y-106833333D01*
X61142857Y-106833333D01*
X61238095Y-106880952D01*
X61285714Y-106928571D01*
X61333333Y-107023809D01*
X61333333Y-107261904D01*
X61285714Y-107357142D01*
X61238095Y-107404761D01*
X61142857Y-107452380D01*
X60857142Y-107452380D01*
X60761904Y-107404761D01*
X60714285Y-107357142D01*
X93883142Y-41963857D02*
X93930761Y-42011476D01*
X93978380Y-42154333D01*
X93978380Y-42249571D01*
X93930761Y-42392428D01*
X93835523Y-42487666D01*
X93740285Y-42535285D01*
X93549809Y-42582904D01*
X93406952Y-42582904D01*
X93216476Y-42535285D01*
X93121238Y-42487666D01*
X93026000Y-42392428D01*
X92978380Y-42249571D01*
X92978380Y-42154333D01*
X93026000Y-42011476D01*
X93073619Y-41963857D01*
X92978380Y-41630523D02*
X92978380Y-41011476D01*
X93359333Y-41344809D01*
X93359333Y-41201952D01*
X93406952Y-41106714D01*
X93454571Y-41059095D01*
X93549809Y-41011476D01*
X93787904Y-41011476D01*
X93883142Y-41059095D01*
X93930761Y-41106714D01*
X93978380Y-41201952D01*
X93978380Y-41487666D01*
X93930761Y-41582904D01*
X93883142Y-41630523D01*
X92978380Y-40678142D02*
X92978380Y-40011476D01*
X93978380Y-40440047D01*
X70677333Y-50831380D02*
X70344000Y-50355190D01*
X70105904Y-50831380D02*
X70105904Y-49831380D01*
X70486857Y-49831380D01*
X70582095Y-49879000D01*
X70629714Y-49926619D01*
X70677333Y-50021857D01*
X70677333Y-50164714D01*
X70629714Y-50259952D01*
X70582095Y-50307571D01*
X70486857Y-50355190D01*
X70105904Y-50355190D01*
X71534476Y-49831380D02*
X71344000Y-49831380D01*
X71248761Y-49879000D01*
X71201142Y-49926619D01*
X71105904Y-50069476D01*
X71058285Y-50259952D01*
X71058285Y-50640904D01*
X71105904Y-50736142D01*
X71153523Y-50783761D01*
X71248761Y-50831380D01*
X71439238Y-50831380D01*
X71534476Y-50783761D01*
X71582095Y-50736142D01*
X71629714Y-50640904D01*
X71629714Y-50402809D01*
X71582095Y-50307571D01*
X71534476Y-50259952D01*
X71439238Y-50212333D01*
X71248761Y-50212333D01*
X71153523Y-50259952D01*
X71105904Y-50307571D01*
X71058285Y-50402809D01*
X66631142Y-41326857D02*
X66678761Y-41374476D01*
X66726380Y-41517333D01*
X66726380Y-41612571D01*
X66678761Y-41755428D01*
X66583523Y-41850666D01*
X66488285Y-41898285D01*
X66297809Y-41945904D01*
X66154952Y-41945904D01*
X65964476Y-41898285D01*
X65869238Y-41850666D01*
X65774000Y-41755428D01*
X65726380Y-41612571D01*
X65726380Y-41517333D01*
X65774000Y-41374476D01*
X65821619Y-41326857D01*
X65821619Y-40945904D02*
X65774000Y-40898285D01*
X65726380Y-40803047D01*
X65726380Y-40564952D01*
X65774000Y-40469714D01*
X65821619Y-40422095D01*
X65916857Y-40374476D01*
X66012095Y-40374476D01*
X66154952Y-40422095D01*
X66726380Y-40993523D01*
X66726380Y-40374476D01*
X65821619Y-39993523D02*
X65774000Y-39945904D01*
X65726380Y-39850666D01*
X65726380Y-39612571D01*
X65774000Y-39517333D01*
X65821619Y-39469714D01*
X65916857Y-39422095D01*
X66012095Y-39422095D01*
X66154952Y-39469714D01*
X66726380Y-40041142D01*
X66726380Y-39422095D01*
X106358976Y-38744761D02*
X106501833Y-38792380D01*
X106739928Y-38792380D01*
X106835166Y-38744761D01*
X106882785Y-38697142D01*
X106930404Y-38601904D01*
X106930404Y-38506666D01*
X106882785Y-38411428D01*
X106835166Y-38363809D01*
X106739928Y-38316190D01*
X106549452Y-38268571D01*
X106454214Y-38220952D01*
X106406595Y-38173333D01*
X106358976Y-38078095D01*
X106358976Y-37982857D01*
X106406595Y-37887619D01*
X106454214Y-37840000D01*
X106549452Y-37792380D01*
X106787547Y-37792380D01*
X106930404Y-37840000D01*
X107263738Y-37792380D02*
X107501833Y-38792380D01*
X107692309Y-38078095D01*
X107882785Y-38792380D01*
X108120880Y-37792380D01*
X109025642Y-38792380D02*
X108454214Y-38792380D01*
X108739928Y-38792380D02*
X108739928Y-37792380D01*
X108644690Y-37935238D01*
X108549452Y-38030476D01*
X108454214Y-38078095D01*
X109358976Y-37792380D02*
X109978023Y-37792380D01*
X109644690Y-38173333D01*
X109787547Y-38173333D01*
X109882785Y-38220952D01*
X109930404Y-38268571D01*
X109978023Y-38363809D01*
X109978023Y-38601904D01*
X109930404Y-38697142D01*
X109882785Y-38744761D01*
X109787547Y-38792380D01*
X109501833Y-38792380D01*
X109406595Y-38744761D01*
X109358976Y-38697142D01*
X135371142Y-63058142D02*
X135323523Y-63105761D01*
X135180666Y-63153380D01*
X135085428Y-63153380D01*
X134942571Y-63105761D01*
X134847333Y-63010523D01*
X134799714Y-62915285D01*
X134752095Y-62724809D01*
X134752095Y-62581952D01*
X134799714Y-62391476D01*
X134847333Y-62296238D01*
X134942571Y-62201000D01*
X135085428Y-62153380D01*
X135180666Y-62153380D01*
X135323523Y-62201000D01*
X135371142Y-62248619D01*
X136228285Y-62486714D02*
X136228285Y-63153380D01*
X135990190Y-62105761D02*
X135752095Y-62820047D01*
X136371142Y-62820047D01*
X137275904Y-63153380D02*
X136704476Y-63153380D01*
X136990190Y-63153380D02*
X136990190Y-62153380D01*
X136894952Y-62296238D01*
X136799714Y-62391476D01*
X136704476Y-62439095D01*
X62348476Y-49733761D02*
X62491333Y-49781380D01*
X62729428Y-49781380D01*
X62824666Y-49733761D01*
X62872285Y-49686142D01*
X62919904Y-49590904D01*
X62919904Y-49495666D01*
X62872285Y-49400428D01*
X62824666Y-49352809D01*
X62729428Y-49305190D01*
X62538952Y-49257571D01*
X62443714Y-49209952D01*
X62396095Y-49162333D01*
X62348476Y-49067095D01*
X62348476Y-48971857D01*
X62396095Y-48876619D01*
X62443714Y-48829000D01*
X62538952Y-48781380D01*
X62777047Y-48781380D01*
X62919904Y-48829000D01*
X63253238Y-48781380D02*
X63491333Y-49781380D01*
X63681809Y-49067095D01*
X63872285Y-49781380D01*
X64110380Y-48781380D01*
X65015142Y-49781380D02*
X64443714Y-49781380D01*
X64729428Y-49781380D02*
X64729428Y-48781380D01*
X64634190Y-48924238D01*
X64538952Y-49019476D01*
X64443714Y-49067095D01*
X65348476Y-48781380D02*
X66015142Y-48781380D01*
X65586571Y-49781380D01*
X93370142Y-49809142D02*
X93322523Y-49856761D01*
X93179666Y-49904380D01*
X93084428Y-49904380D01*
X92941571Y-49856761D01*
X92846333Y-49761523D01*
X92798714Y-49666285D01*
X92751095Y-49475809D01*
X92751095Y-49332952D01*
X92798714Y-49142476D01*
X92846333Y-49047238D01*
X92941571Y-48952000D01*
X93084428Y-48904380D01*
X93179666Y-48904380D01*
X93322523Y-48952000D01*
X93370142Y-48999619D01*
X93703476Y-48904380D02*
X94322523Y-48904380D01*
X93989190Y-49285333D01*
X94132047Y-49285333D01*
X94227285Y-49332952D01*
X94274904Y-49380571D01*
X94322523Y-49475809D01*
X94322523Y-49713904D01*
X94274904Y-49809142D01*
X94227285Y-49856761D01*
X94132047Y-49904380D01*
X93846333Y-49904380D01*
X93751095Y-49856761D01*
X93703476Y-49809142D01*
X94655857Y-48904380D02*
X95274904Y-48904380D01*
X94941571Y-49285333D01*
X95084428Y-49285333D01*
X95179666Y-49332952D01*
X95227285Y-49380571D01*
X95274904Y-49475809D01*
X95274904Y-49713904D01*
X95227285Y-49809142D01*
X95179666Y-49856761D01*
X95084428Y-49904380D01*
X94798714Y-49904380D01*
X94703476Y-49856761D01*
X94655857Y-49809142D01*
X119157142Y-54127142D02*
X119109523Y-54174761D01*
X118966666Y-54222380D01*
X118871428Y-54222380D01*
X118728571Y-54174761D01*
X118633333Y-54079523D01*
X118585714Y-53984285D01*
X118538095Y-53793809D01*
X118538095Y-53650952D01*
X118585714Y-53460476D01*
X118633333Y-53365238D01*
X118728571Y-53270000D01*
X118871428Y-53222380D01*
X118966666Y-53222380D01*
X119109523Y-53270000D01*
X119157142Y-53317619D01*
X120014285Y-53555714D02*
X120014285Y-54222380D01*
X119776190Y-53174761D02*
X119538095Y-53889047D01*
X120157142Y-53889047D01*
X120442857Y-53222380D02*
X121061904Y-53222380D01*
X120728571Y-53603333D01*
X120871428Y-53603333D01*
X120966666Y-53650952D01*
X121014285Y-53698571D01*
X121061904Y-53793809D01*
X121061904Y-54031904D01*
X121014285Y-54127142D01*
X120966666Y-54174761D01*
X120871428Y-54222380D01*
X120585714Y-54222380D01*
X120490476Y-54174761D01*
X120442857Y-54127142D01*
X52665904Y-38984380D02*
X52665904Y-37984380D01*
X53046857Y-37984380D01*
X53142095Y-38032000D01*
X53189714Y-38079619D01*
X53237333Y-38174857D01*
X53237333Y-38317714D01*
X53189714Y-38412952D01*
X53142095Y-38460571D01*
X53046857Y-38508190D01*
X52665904Y-38508190D01*
X54189714Y-38984380D02*
X53618285Y-38984380D01*
X53904000Y-38984380D02*
X53904000Y-37984380D01*
X53808761Y-38127238D01*
X53713523Y-38222476D01*
X53618285Y-38270095D01*
X135843333Y-73644380D02*
X135367142Y-73644380D01*
X135367142Y-72644380D01*
X136081428Y-72644380D02*
X136700476Y-72644380D01*
X136367142Y-73025333D01*
X136510000Y-73025333D01*
X136605238Y-73072952D01*
X136652857Y-73120571D01*
X136700476Y-73215809D01*
X136700476Y-73453904D01*
X136652857Y-73549142D01*
X136605238Y-73596761D01*
X136510000Y-73644380D01*
X136224285Y-73644380D01*
X136129047Y-73596761D01*
X136081428Y-73549142D01*
X78704714Y-125910380D02*
X78704714Y-124910380D01*
X78942809Y-124910380D01*
X79085666Y-124958000D01*
X79180904Y-125053238D01*
X79228523Y-125148476D01*
X79276142Y-125338952D01*
X79276142Y-125481809D01*
X79228523Y-125672285D01*
X79180904Y-125767523D01*
X79085666Y-125862761D01*
X78942809Y-125910380D01*
X78704714Y-125910380D01*
X79657095Y-125005619D02*
X79704714Y-124958000D01*
X79799952Y-124910380D01*
X80038047Y-124910380D01*
X80133285Y-124958000D01*
X80180904Y-125005619D01*
X80228523Y-125100857D01*
X80228523Y-125196095D01*
X80180904Y-125338952D01*
X79609476Y-125910380D01*
X80228523Y-125910380D01*
X81180904Y-125910380D02*
X80609476Y-125910380D01*
X80895190Y-125910380D02*
X80895190Y-124910380D01*
X80799952Y-125053238D01*
X80704714Y-125148476D01*
X80609476Y-125196095D01*
X84435714Y-123852380D02*
X83864285Y-123852380D01*
X84150000Y-123852380D02*
X84150000Y-122852380D01*
X84054761Y-122995238D01*
X83959523Y-123090476D01*
X83864285Y-123138095D01*
X72598380Y-40927285D02*
X71598380Y-40927285D01*
X71598380Y-40689190D01*
X71646000Y-40546333D01*
X71741238Y-40451095D01*
X71836476Y-40403476D01*
X72026952Y-40355857D01*
X72169809Y-40355857D01*
X72360285Y-40403476D01*
X72455523Y-40451095D01*
X72550761Y-40546333D01*
X72598380Y-40689190D01*
X72598380Y-40927285D01*
X72598380Y-39403476D02*
X72598380Y-39974904D01*
X72598380Y-39689190D02*
X71598380Y-39689190D01*
X71741238Y-39784428D01*
X71836476Y-39879666D01*
X71884095Y-39974904D01*
X71598380Y-39070142D02*
X71598380Y-38451095D01*
X71979333Y-38784428D01*
X71979333Y-38641571D01*
X72026952Y-38546333D01*
X72074571Y-38498714D01*
X72169809Y-38451095D01*
X72407904Y-38451095D01*
X72503142Y-38498714D01*
X72550761Y-38546333D01*
X72598380Y-38641571D01*
X72598380Y-38927285D01*
X72550761Y-39022523D01*
X72503142Y-39070142D01*
X119003714Y-125837380D02*
X119003714Y-124837380D01*
X119241809Y-124837380D01*
X119384666Y-124885000D01*
X119479904Y-124980238D01*
X119527523Y-125075476D01*
X119575142Y-125265952D01*
X119575142Y-125408809D01*
X119527523Y-125599285D01*
X119479904Y-125694523D01*
X119384666Y-125789761D01*
X119241809Y-125837380D01*
X119003714Y-125837380D01*
X119956095Y-124932619D02*
X120003714Y-124885000D01*
X120098952Y-124837380D01*
X120337047Y-124837380D01*
X120432285Y-124885000D01*
X120479904Y-124932619D01*
X120527523Y-125027857D01*
X120527523Y-125123095D01*
X120479904Y-125265952D01*
X119908476Y-125837380D01*
X120527523Y-125837380D01*
X121098952Y-125265952D02*
X121003714Y-125218333D01*
X120956095Y-125170714D01*
X120908476Y-125075476D01*
X120908476Y-125027857D01*
X120956095Y-124932619D01*
X121003714Y-124885000D01*
X121098952Y-124837380D01*
X121289428Y-124837380D01*
X121384666Y-124885000D01*
X121432285Y-124932619D01*
X121479904Y-125027857D01*
X121479904Y-125075476D01*
X121432285Y-125170714D01*
X121384666Y-125218333D01*
X121289428Y-125265952D01*
X121098952Y-125265952D01*
X121003714Y-125313571D01*
X120956095Y-125361190D01*
X120908476Y-125456428D01*
X120908476Y-125646904D01*
X120956095Y-125742142D01*
X121003714Y-125789761D01*
X121098952Y-125837380D01*
X121289428Y-125837380D01*
X121384666Y-125789761D01*
X121432285Y-125742142D01*
X121479904Y-125646904D01*
X121479904Y-125456428D01*
X121432285Y-125361190D01*
X121384666Y-125313571D01*
X121289428Y-125265952D01*
X124435714Y-123852380D02*
X123864285Y-123852380D01*
X124150000Y-123852380D02*
X124150000Y-122852380D01*
X124054761Y-122995238D01*
X123959523Y-123090476D01*
X123864285Y-123138095D01*
X133826142Y-52691380D02*
X133492809Y-52215190D01*
X133254714Y-52691380D02*
X133254714Y-51691380D01*
X133635666Y-51691380D01*
X133730904Y-51739000D01*
X133778523Y-51786619D01*
X133826142Y-51881857D01*
X133826142Y-52024714D01*
X133778523Y-52119952D01*
X133730904Y-52167571D01*
X133635666Y-52215190D01*
X133254714Y-52215190D01*
X134159476Y-51691380D02*
X134778523Y-51691380D01*
X134445190Y-52072333D01*
X134588047Y-52072333D01*
X134683285Y-52119952D01*
X134730904Y-52167571D01*
X134778523Y-52262809D01*
X134778523Y-52500904D01*
X134730904Y-52596142D01*
X134683285Y-52643761D01*
X134588047Y-52691380D01*
X134302333Y-52691380D01*
X134207095Y-52643761D01*
X134159476Y-52596142D01*
X135159476Y-51786619D02*
X135207095Y-51739000D01*
X135302333Y-51691380D01*
X135540428Y-51691380D01*
X135635666Y-51739000D01*
X135683285Y-51786619D01*
X135730904Y-51881857D01*
X135730904Y-51977095D01*
X135683285Y-52119952D01*
X135111857Y-52691380D01*
X135730904Y-52691380D01*
X100279761Y-50512619D02*
X100184523Y-50465000D01*
X100089285Y-50369761D01*
X99946428Y-50226904D01*
X99851190Y-50179285D01*
X99755952Y-50179285D01*
X99803571Y-50417380D02*
X99708333Y-50369761D01*
X99613095Y-50274523D01*
X99565476Y-50084047D01*
X99565476Y-49750714D01*
X99613095Y-49560238D01*
X99708333Y-49465000D01*
X99803571Y-49417380D01*
X99994047Y-49417380D01*
X100089285Y-49465000D01*
X100184523Y-49560238D01*
X100232142Y-49750714D01*
X100232142Y-50084047D01*
X100184523Y-50274523D01*
X100089285Y-50369761D01*
X99994047Y-50417380D01*
X99803571Y-50417380D01*
X101089285Y-49750714D02*
X101089285Y-50417380D01*
X100851190Y-49369761D02*
X100613095Y-50084047D01*
X101232142Y-50084047D01*
X130294142Y-49236992D02*
X130246523Y-49284611D01*
X130103666Y-49332230D01*
X130008428Y-49332230D01*
X129865571Y-49284611D01*
X129770333Y-49189373D01*
X129722714Y-49094135D01*
X129675095Y-48903659D01*
X129675095Y-48760802D01*
X129722714Y-48570326D01*
X129770333Y-48475088D01*
X129865571Y-48379850D01*
X130008428Y-48332230D01*
X130103666Y-48332230D01*
X130246523Y-48379850D01*
X130294142Y-48427469D01*
X131151285Y-48665564D02*
X131151285Y-49332230D01*
X130913190Y-48284611D02*
X130675095Y-48998897D01*
X131294142Y-48998897D01*
X132103666Y-48332230D02*
X131913190Y-48332230D01*
X131817952Y-48379850D01*
X131770333Y-48427469D01*
X131675095Y-48570326D01*
X131627476Y-48760802D01*
X131627476Y-49141754D01*
X131675095Y-49236992D01*
X131722714Y-49284611D01*
X131817952Y-49332230D01*
X132008428Y-49332230D01*
X132103666Y-49284611D01*
X132151285Y-49236992D01*
X132198904Y-49141754D01*
X132198904Y-48903659D01*
X132151285Y-48808421D01*
X132103666Y-48760802D01*
X132008428Y-48713183D01*
X131817952Y-48713183D01*
X131722714Y-48760802D01*
X131675095Y-48808421D01*
X131627476Y-48903659D01*
X85849380Y-36657857D02*
X85373190Y-36991190D01*
X85849380Y-37229285D02*
X84849380Y-37229285D01*
X84849380Y-36848333D01*
X84897000Y-36753095D01*
X84944619Y-36705476D01*
X85039857Y-36657857D01*
X85182714Y-36657857D01*
X85277952Y-36705476D01*
X85325571Y-36753095D01*
X85373190Y-36848333D01*
X85373190Y-37229285D01*
X85849380Y-35705476D02*
X85849380Y-36276904D01*
X85849380Y-35991190D02*
X84849380Y-35991190D01*
X84992238Y-36086428D01*
X85087476Y-36181666D01*
X85135095Y-36276904D01*
X84849380Y-35086428D02*
X84849380Y-34991190D01*
X84897000Y-34895952D01*
X84944619Y-34848333D01*
X85039857Y-34800714D01*
X85230333Y-34753095D01*
X85468428Y-34753095D01*
X85658904Y-34800714D01*
X85754142Y-34848333D01*
X85801761Y-34895952D01*
X85849380Y-34991190D01*
X85849380Y-35086428D01*
X85801761Y-35181666D01*
X85754142Y-35229285D01*
X85658904Y-35276904D01*
X85468428Y-35324523D01*
X85230333Y-35324523D01*
X85039857Y-35276904D01*
X84944619Y-35229285D01*
X84897000Y-35181666D01*
X84849380Y-35086428D01*
X45357142Y-68037142D02*
X45309523Y-68084761D01*
X45166666Y-68132380D01*
X45071428Y-68132380D01*
X44928571Y-68084761D01*
X44833333Y-67989523D01*
X44785714Y-67894285D01*
X44738095Y-67703809D01*
X44738095Y-67560952D01*
X44785714Y-67370476D01*
X44833333Y-67275238D01*
X44928571Y-67180000D01*
X45071428Y-67132380D01*
X45166666Y-67132380D01*
X45309523Y-67180000D01*
X45357142Y-67227619D01*
X45738095Y-67227619D02*
X45785714Y-67180000D01*
X45880952Y-67132380D01*
X46119047Y-67132380D01*
X46214285Y-67180000D01*
X46261904Y-67227619D01*
X46309523Y-67322857D01*
X46309523Y-67418095D01*
X46261904Y-67560952D01*
X45690476Y-68132380D01*
X46309523Y-68132380D01*
X47261904Y-68132380D02*
X46690476Y-68132380D01*
X46976190Y-68132380D02*
X46976190Y-67132380D01*
X46880952Y-67275238D01*
X46785714Y-67370476D01*
X46690476Y-67418095D01*
X98873714Y-85858380D02*
X98873714Y-84858380D01*
X99111809Y-84858380D01*
X99254666Y-84906000D01*
X99349904Y-85001238D01*
X99397523Y-85096476D01*
X99445142Y-85286952D01*
X99445142Y-85429809D01*
X99397523Y-85620285D01*
X99349904Y-85715523D01*
X99254666Y-85810761D01*
X99111809Y-85858380D01*
X98873714Y-85858380D01*
X99826095Y-84953619D02*
X99873714Y-84906000D01*
X99968952Y-84858380D01*
X100207047Y-84858380D01*
X100302285Y-84906000D01*
X100349904Y-84953619D01*
X100397523Y-85048857D01*
X100397523Y-85144095D01*
X100349904Y-85286952D01*
X99778476Y-85858380D01*
X100397523Y-85858380D01*
X100778476Y-84953619D02*
X100826095Y-84906000D01*
X100921333Y-84858380D01*
X101159428Y-84858380D01*
X101254666Y-84906000D01*
X101302285Y-84953619D01*
X101349904Y-85048857D01*
X101349904Y-85144095D01*
X101302285Y-85286952D01*
X100730857Y-85858380D01*
X101349904Y-85858380D01*
X104435714Y-83852380D02*
X103864285Y-83852380D01*
X104150000Y-83852380D02*
X104150000Y-82852380D01*
X104054761Y-82995238D01*
X103959523Y-83090476D01*
X103864285Y-83138095D01*
X58666666Y-67404761D02*
X58809523Y-67452380D01*
X59047619Y-67452380D01*
X59142857Y-67404761D01*
X59190476Y-67357142D01*
X59238095Y-67261904D01*
X59238095Y-67166666D01*
X59190476Y-67071428D01*
X59142857Y-67023809D01*
X59047619Y-66976190D01*
X58857142Y-66928571D01*
X58761904Y-66880952D01*
X58714285Y-66833333D01*
X58666666Y-66738095D01*
X58666666Y-66642857D01*
X58714285Y-66547619D01*
X58761904Y-66500000D01*
X58857142Y-66452380D01*
X59095238Y-66452380D01*
X59238095Y-66500000D01*
X59571428Y-66452380D02*
X59809523Y-67452380D01*
X60000000Y-66738095D01*
X60190476Y-67452380D01*
X60428571Y-66452380D01*
X61333333Y-67452380D02*
X60761904Y-67452380D01*
X61047619Y-67452380D02*
X61047619Y-66452380D01*
X60952380Y-66595238D01*
X60857142Y-66690476D01*
X60761904Y-66738095D01*
X118417714Y-105977380D02*
X118417714Y-104977380D01*
X118655809Y-104977380D01*
X118798666Y-105025000D01*
X118893904Y-105120238D01*
X118941523Y-105215476D01*
X118989142Y-105405952D01*
X118989142Y-105548809D01*
X118941523Y-105739285D01*
X118893904Y-105834523D01*
X118798666Y-105929761D01*
X118655809Y-105977380D01*
X118417714Y-105977380D01*
X119370095Y-105072619D02*
X119417714Y-105025000D01*
X119512952Y-104977380D01*
X119751047Y-104977380D01*
X119846285Y-105025000D01*
X119893904Y-105072619D01*
X119941523Y-105167857D01*
X119941523Y-105263095D01*
X119893904Y-105405952D01*
X119322476Y-105977380D01*
X119941523Y-105977380D01*
X120274857Y-104977380D02*
X120941523Y-104977380D01*
X120512952Y-105977380D01*
X116135714Y-100652380D02*
X115564285Y-100652380D01*
X115850000Y-100652380D02*
X115850000Y-99652380D01*
X115754761Y-99795238D01*
X115659523Y-99890476D01*
X115564285Y-99938095D01*
X48714476Y-85122761D02*
X48857333Y-85170380D01*
X49095428Y-85170380D01*
X49190666Y-85122761D01*
X49238285Y-85075142D01*
X49285904Y-84979904D01*
X49285904Y-84884666D01*
X49238285Y-84789428D01*
X49190666Y-84741809D01*
X49095428Y-84694190D01*
X48904952Y-84646571D01*
X48809714Y-84598952D01*
X48762095Y-84551333D01*
X48714476Y-84456095D01*
X48714476Y-84360857D01*
X48762095Y-84265619D01*
X48809714Y-84218000D01*
X48904952Y-84170380D01*
X49143047Y-84170380D01*
X49285904Y-84218000D01*
X49619238Y-84170380D02*
X49857333Y-85170380D01*
X50047809Y-84456095D01*
X50238285Y-85170380D01*
X50476380Y-84170380D01*
X51381142Y-85170380D02*
X50809714Y-85170380D01*
X51095428Y-85170380D02*
X51095428Y-84170380D01*
X51000190Y-84313238D01*
X50904952Y-84408476D01*
X50809714Y-84456095D01*
X52238285Y-84503714D02*
X52238285Y-85170380D01*
X52000190Y-84122761D02*
X51762095Y-84837047D01*
X52381142Y-84837047D01*
X98666666Y-87404761D02*
X98809523Y-87452380D01*
X99047619Y-87452380D01*
X99142857Y-87404761D01*
X99190476Y-87357142D01*
X99238095Y-87261904D01*
X99238095Y-87166666D01*
X99190476Y-87071428D01*
X99142857Y-87023809D01*
X99047619Y-86976190D01*
X98857142Y-86928571D01*
X98761904Y-86880952D01*
X98714285Y-86833333D01*
X98666666Y-86738095D01*
X98666666Y-86642857D01*
X98714285Y-86547619D01*
X98761904Y-86500000D01*
X98857142Y-86452380D01*
X99095238Y-86452380D01*
X99238095Y-86500000D01*
X99571428Y-86452380D02*
X99809523Y-87452380D01*
X100000000Y-86738095D01*
X100190476Y-87452380D01*
X100428571Y-86452380D01*
X100952380Y-86880952D02*
X100857142Y-86833333D01*
X100809523Y-86785714D01*
X100761904Y-86690476D01*
X100761904Y-86642857D01*
X100809523Y-86547619D01*
X100857142Y-86500000D01*
X100952380Y-86452380D01*
X101142857Y-86452380D01*
X101238095Y-86500000D01*
X101285714Y-86547619D01*
X101333333Y-86642857D01*
X101333333Y-86690476D01*
X101285714Y-86785714D01*
X101238095Y-86833333D01*
X101142857Y-86880952D01*
X100952380Y-86880952D01*
X100857142Y-86928571D01*
X100809523Y-86976190D01*
X100761904Y-87071428D01*
X100761904Y-87261904D01*
X100809523Y-87357142D01*
X100857142Y-87404761D01*
X100952380Y-87452380D01*
X101142857Y-87452380D01*
X101238095Y-87404761D01*
X101285714Y-87357142D01*
X101333333Y-87261904D01*
X101333333Y-87071428D01*
X101285714Y-86976190D01*
X101238095Y-86928571D01*
X101142857Y-86880952D01*
X100762142Y-44738857D02*
X100809761Y-44786476D01*
X100857380Y-44929333D01*
X100857380Y-45024571D01*
X100809761Y-45167428D01*
X100714523Y-45262666D01*
X100619285Y-45310285D01*
X100428809Y-45357904D01*
X100285952Y-45357904D01*
X100095476Y-45310285D01*
X100000238Y-45262666D01*
X99905000Y-45167428D01*
X99857380Y-45024571D01*
X99857380Y-44929333D01*
X99905000Y-44786476D01*
X99952619Y-44738857D01*
X99857380Y-44405523D02*
X99857380Y-43786476D01*
X100238333Y-44119809D01*
X100238333Y-43976952D01*
X100285952Y-43881714D01*
X100333571Y-43834095D01*
X100428809Y-43786476D01*
X100666904Y-43786476D01*
X100762142Y-43834095D01*
X100809761Y-43881714D01*
X100857380Y-43976952D01*
X100857380Y-44262666D01*
X100809761Y-44357904D01*
X100762142Y-44405523D01*
X100857380Y-43310285D02*
X100857380Y-43119809D01*
X100809761Y-43024571D01*
X100762142Y-42976952D01*
X100619285Y-42881714D01*
X100428809Y-42834095D01*
X100047857Y-42834095D01*
X99952619Y-42881714D01*
X99905000Y-42929333D01*
X99857380Y-43024571D01*
X99857380Y-43215047D01*
X99905000Y-43310285D01*
X99952619Y-43357904D01*
X100047857Y-43405523D01*
X100285952Y-43405523D01*
X100381190Y-43357904D01*
X100428809Y-43310285D01*
X100476428Y-43215047D01*
X100476428Y-43024571D01*
X100428809Y-42929333D01*
X100381190Y-42881714D01*
X100285952Y-42834095D01*
X69534142Y-56835857D02*
X69581761Y-56883476D01*
X69629380Y-57026333D01*
X69629380Y-57121571D01*
X69581761Y-57264428D01*
X69486523Y-57359666D01*
X69391285Y-57407285D01*
X69200809Y-57454904D01*
X69057952Y-57454904D01*
X68867476Y-57407285D01*
X68772238Y-57359666D01*
X68677000Y-57264428D01*
X68629380Y-57121571D01*
X68629380Y-57026333D01*
X68677000Y-56883476D01*
X68724619Y-56835857D01*
X68724619Y-56454904D02*
X68677000Y-56407285D01*
X68629380Y-56312047D01*
X68629380Y-56073952D01*
X68677000Y-55978714D01*
X68724619Y-55931095D01*
X68819857Y-55883476D01*
X68915095Y-55883476D01*
X69057952Y-55931095D01*
X69629380Y-56502523D01*
X69629380Y-55883476D01*
X68629380Y-55550142D02*
X68629380Y-54883476D01*
X69629380Y-55312047D01*
X78666666Y-107404761D02*
X78809523Y-107452380D01*
X79047619Y-107452380D01*
X79142857Y-107404761D01*
X79190476Y-107357142D01*
X79238095Y-107261904D01*
X79238095Y-107166666D01*
X79190476Y-107071428D01*
X79142857Y-107023809D01*
X79047619Y-106976190D01*
X78857142Y-106928571D01*
X78761904Y-106880952D01*
X78714285Y-106833333D01*
X78666666Y-106738095D01*
X78666666Y-106642857D01*
X78714285Y-106547619D01*
X78761904Y-106500000D01*
X78857142Y-106452380D01*
X79095238Y-106452380D01*
X79238095Y-106500000D01*
X79571428Y-106452380D02*
X79809523Y-107452380D01*
X80000000Y-106738095D01*
X80190476Y-107452380D01*
X80428571Y-106452380D01*
X81238095Y-106452380D02*
X81047619Y-106452380D01*
X80952380Y-106500000D01*
X80904761Y-106547619D01*
X80809523Y-106690476D01*
X80761904Y-106880952D01*
X80761904Y-107261904D01*
X80809523Y-107357142D01*
X80857142Y-107404761D01*
X80952380Y-107452380D01*
X81142857Y-107452380D01*
X81238095Y-107404761D01*
X81285714Y-107357142D01*
X81333333Y-107261904D01*
X81333333Y-107023809D01*
X81285714Y-106928571D01*
X81238095Y-106880952D01*
X81142857Y-106833333D01*
X80952380Y-106833333D01*
X80857142Y-106880952D01*
X80809523Y-106928571D01*
X80761904Y-107023809D01*
X71894142Y-56852857D02*
X71941761Y-56900476D01*
X71989380Y-57043333D01*
X71989380Y-57138571D01*
X71941761Y-57281428D01*
X71846523Y-57376666D01*
X71751285Y-57424285D01*
X71560809Y-57471904D01*
X71417952Y-57471904D01*
X71227476Y-57424285D01*
X71132238Y-57376666D01*
X71037000Y-57281428D01*
X70989380Y-57138571D01*
X70989380Y-57043333D01*
X71037000Y-56900476D01*
X71084619Y-56852857D01*
X71084619Y-56471904D02*
X71037000Y-56424285D01*
X70989380Y-56329047D01*
X70989380Y-56090952D01*
X71037000Y-55995714D01*
X71084619Y-55948095D01*
X71179857Y-55900476D01*
X71275095Y-55900476D01*
X71417952Y-55948095D01*
X71989380Y-56519523D01*
X71989380Y-55900476D01*
X71989380Y-55424285D02*
X71989380Y-55233809D01*
X71941761Y-55138571D01*
X71894142Y-55090952D01*
X71751285Y-54995714D01*
X71560809Y-54948095D01*
X71179857Y-54948095D01*
X71084619Y-54995714D01*
X71037000Y-55043333D01*
X70989380Y-55138571D01*
X70989380Y-55329047D01*
X71037000Y-55424285D01*
X71084619Y-55471904D01*
X71179857Y-55519523D01*
X71417952Y-55519523D01*
X71513190Y-55471904D01*
X71560809Y-55424285D01*
X71608428Y-55329047D01*
X71608428Y-55138571D01*
X71560809Y-55043333D01*
X71513190Y-54995714D01*
X71417952Y-54948095D01*
X32368571Y-52952857D02*
X32368571Y-52619523D01*
X32892380Y-52476666D02*
X32892380Y-52952857D01*
X31892380Y-52952857D01*
X31892380Y-52476666D01*
X32844761Y-52095714D02*
X32892380Y-51952857D01*
X32892380Y-51714761D01*
X32844761Y-51619523D01*
X32797142Y-51571904D01*
X32701904Y-51524285D01*
X32606666Y-51524285D01*
X32511428Y-51571904D01*
X32463809Y-51619523D01*
X32416190Y-51714761D01*
X32368571Y-51905238D01*
X32320952Y-52000476D01*
X32273333Y-52048095D01*
X32178095Y-52095714D01*
X32082857Y-52095714D01*
X31987619Y-52048095D01*
X31940000Y-52000476D01*
X31892380Y-51905238D01*
X31892380Y-51667142D01*
X31940000Y-51524285D01*
X32892380Y-51095714D02*
X31892380Y-51095714D01*
X31892380Y-50714761D01*
X31940000Y-50619523D01*
X31987619Y-50571904D01*
X32082857Y-50524285D01*
X32225714Y-50524285D01*
X32320952Y-50571904D01*
X32368571Y-50619523D01*
X32416190Y-50714761D01*
X32416190Y-51095714D01*
X31892380Y-50190952D02*
X31892380Y-49571904D01*
X32273333Y-49905238D01*
X32273333Y-49762380D01*
X32320952Y-49667142D01*
X32368571Y-49619523D01*
X32463809Y-49571904D01*
X32701904Y-49571904D01*
X32797142Y-49619523D01*
X32844761Y-49667142D01*
X32892380Y-49762380D01*
X32892380Y-50048095D01*
X32844761Y-50143333D01*
X32797142Y-50190952D01*
X31987619Y-49190952D02*
X31940000Y-49143333D01*
X31892380Y-49048095D01*
X31892380Y-48810000D01*
X31940000Y-48714761D01*
X31987619Y-48667142D01*
X32082857Y-48619523D01*
X32178095Y-48619523D01*
X32320952Y-48667142D01*
X32892380Y-49238571D01*
X32892380Y-48619523D01*
X118190476Y-107404761D02*
X118333333Y-107452380D01*
X118571428Y-107452380D01*
X118666666Y-107404761D01*
X118714285Y-107357142D01*
X118761904Y-107261904D01*
X118761904Y-107166666D01*
X118714285Y-107071428D01*
X118666666Y-107023809D01*
X118571428Y-106976190D01*
X118380952Y-106928571D01*
X118285714Y-106880952D01*
X118238095Y-106833333D01*
X118190476Y-106738095D01*
X118190476Y-106642857D01*
X118238095Y-106547619D01*
X118285714Y-106500000D01*
X118380952Y-106452380D01*
X118619047Y-106452380D01*
X118761904Y-106500000D01*
X119095238Y-106452380D02*
X119333333Y-107452380D01*
X119523809Y-106738095D01*
X119714285Y-107452380D01*
X119952380Y-106452380D01*
X120857142Y-107452380D02*
X120285714Y-107452380D01*
X120571428Y-107452380D02*
X120571428Y-106452380D01*
X120476190Y-106595238D01*
X120380952Y-106690476D01*
X120285714Y-106738095D01*
X121238095Y-106547619D02*
X121285714Y-106500000D01*
X121380952Y-106452380D01*
X121619047Y-106452380D01*
X121714285Y-106500000D01*
X121761904Y-106547619D01*
X121809523Y-106642857D01*
X121809523Y-106738095D01*
X121761904Y-106880952D01*
X121190476Y-107452380D01*
X121809523Y-107452380D01*
X68449333Y-47969380D02*
X68116000Y-47493190D01*
X67877904Y-47969380D02*
X67877904Y-46969380D01*
X68258857Y-46969380D01*
X68354095Y-47017000D01*
X68401714Y-47064619D01*
X68449333Y-47159857D01*
X68449333Y-47302714D01*
X68401714Y-47397952D01*
X68354095Y-47445571D01*
X68258857Y-47493190D01*
X67877904Y-47493190D01*
X69020761Y-47397952D02*
X68925523Y-47350333D01*
X68877904Y-47302714D01*
X68830285Y-47207476D01*
X68830285Y-47159857D01*
X68877904Y-47064619D01*
X68925523Y-47017000D01*
X69020761Y-46969380D01*
X69211238Y-46969380D01*
X69306476Y-47017000D01*
X69354095Y-47064619D01*
X69401714Y-47159857D01*
X69401714Y-47207476D01*
X69354095Y-47302714D01*
X69306476Y-47350333D01*
X69211238Y-47397952D01*
X69020761Y-47397952D01*
X68925523Y-47445571D01*
X68877904Y-47493190D01*
X68830285Y-47588428D01*
X68830285Y-47778904D01*
X68877904Y-47874142D01*
X68925523Y-47921761D01*
X69020761Y-47969380D01*
X69211238Y-47969380D01*
X69306476Y-47921761D01*
X69354095Y-47874142D01*
X69401714Y-47778904D01*
X69401714Y-47588428D01*
X69354095Y-47493190D01*
X69306476Y-47445571D01*
X69211238Y-47397952D01*
X92352571Y-33715714D02*
X92400190Y-33572857D01*
X92447809Y-33525238D01*
X92543047Y-33477619D01*
X92685904Y-33477619D01*
X92781142Y-33525238D01*
X92828761Y-33572857D01*
X92876380Y-33668095D01*
X92876380Y-34049047D01*
X91876380Y-34049047D01*
X91876380Y-33715714D01*
X91924000Y-33620476D01*
X91971619Y-33572857D01*
X92066857Y-33525238D01*
X92162095Y-33525238D01*
X92257333Y-33572857D01*
X92304952Y-33620476D01*
X92352571Y-33715714D01*
X92352571Y-34049047D01*
X91876380Y-33191904D02*
X91876380Y-32620476D01*
X92876380Y-32906190D02*
X91876380Y-32906190D01*
X92876380Y-31763333D02*
X92876380Y-32334761D01*
X92876380Y-32049047D02*
X91876380Y-32049047D01*
X92019238Y-32144285D01*
X92114476Y-32239523D01*
X92162095Y-32334761D01*
X78126285Y-60153380D02*
X78697714Y-60153380D01*
X78412000Y-61153380D02*
X78412000Y-60153380D01*
X79031047Y-61153380D02*
X79031047Y-60153380D01*
X79031047Y-60629571D02*
X79602476Y-60629571D01*
X79602476Y-61153380D02*
X79602476Y-60153380D01*
X80602476Y-61153380D02*
X80031047Y-61153380D01*
X80316761Y-61153380D02*
X80316761Y-60153380D01*
X80221523Y-60296238D01*
X80126285Y-60391476D01*
X80031047Y-60439095D01*
X122682142Y-59254142D02*
X122634523Y-59301761D01*
X122491666Y-59349380D01*
X122396428Y-59349380D01*
X122253571Y-59301761D01*
X122158333Y-59206523D01*
X122110714Y-59111285D01*
X122063095Y-58920809D01*
X122063095Y-58777952D01*
X122110714Y-58587476D01*
X122158333Y-58492238D01*
X122253571Y-58397000D01*
X122396428Y-58349380D01*
X122491666Y-58349380D01*
X122634523Y-58397000D01*
X122682142Y-58444619D01*
X123539285Y-58682714D02*
X123539285Y-59349380D01*
X123301190Y-58301761D02*
X123063095Y-59016047D01*
X123682142Y-59016047D01*
X124015476Y-58444619D02*
X124063095Y-58397000D01*
X124158333Y-58349380D01*
X124396428Y-58349380D01*
X124491666Y-58397000D01*
X124539285Y-58444619D01*
X124586904Y-58539857D01*
X124586904Y-58635095D01*
X124539285Y-58777952D01*
X123967857Y-59349380D01*
X124586904Y-59349380D01*
X133327142Y-48935142D02*
X133279523Y-48982761D01*
X133136666Y-49030380D01*
X133041428Y-49030380D01*
X132898571Y-48982761D01*
X132803333Y-48887523D01*
X132755714Y-48792285D01*
X132708095Y-48601809D01*
X132708095Y-48458952D01*
X132755714Y-48268476D01*
X132803333Y-48173238D01*
X132898571Y-48078000D01*
X133041428Y-48030380D01*
X133136666Y-48030380D01*
X133279523Y-48078000D01*
X133327142Y-48125619D01*
X134184285Y-48363714D02*
X134184285Y-49030380D01*
X133946190Y-47982761D02*
X133708095Y-48697047D01*
X134327142Y-48697047D01*
X135136666Y-48363714D02*
X135136666Y-49030380D01*
X134898571Y-47982761D02*
X134660476Y-48697047D01*
X135279523Y-48697047D01*
X129172761Y-38528619D02*
X129077523Y-38481000D01*
X128982285Y-38385761D01*
X128839428Y-38242904D01*
X128744190Y-38195285D01*
X128648952Y-38195285D01*
X128696571Y-38433380D02*
X128601333Y-38385761D01*
X128506095Y-38290523D01*
X128458476Y-38100047D01*
X128458476Y-37766714D01*
X128506095Y-37576238D01*
X128601333Y-37481000D01*
X128696571Y-37433380D01*
X128887047Y-37433380D01*
X128982285Y-37481000D01*
X129077523Y-37576238D01*
X129125142Y-37766714D01*
X129125142Y-38100047D01*
X129077523Y-38290523D01*
X128982285Y-38385761D01*
X128887047Y-38433380D01*
X128696571Y-38433380D01*
X129506095Y-37528619D02*
X129553714Y-37481000D01*
X129648952Y-37433380D01*
X129887047Y-37433380D01*
X129982285Y-37481000D01*
X130029904Y-37528619D01*
X130077523Y-37623857D01*
X130077523Y-37719095D01*
X130029904Y-37861952D01*
X129458476Y-38433380D01*
X130077523Y-38433380D01*
X98666666Y-67404761D02*
X98809523Y-67452380D01*
X99047619Y-67452380D01*
X99142857Y-67404761D01*
X99190476Y-67357142D01*
X99238095Y-67261904D01*
X99238095Y-67166666D01*
X99190476Y-67071428D01*
X99142857Y-67023809D01*
X99047619Y-66976190D01*
X98857142Y-66928571D01*
X98761904Y-66880952D01*
X98714285Y-66833333D01*
X98666666Y-66738095D01*
X98666666Y-66642857D01*
X98714285Y-66547619D01*
X98761904Y-66500000D01*
X98857142Y-66452380D01*
X99095238Y-66452380D01*
X99238095Y-66500000D01*
X99571428Y-66452380D02*
X99809523Y-67452380D01*
X100000000Y-66738095D01*
X100190476Y-67452380D01*
X100428571Y-66452380D01*
X100714285Y-66452380D02*
X101380952Y-66452380D01*
X100952380Y-67452380D01*
X65065333Y-32572380D02*
X64732000Y-32096190D01*
X64493904Y-32572380D02*
X64493904Y-31572380D01*
X64874857Y-31572380D01*
X64970095Y-31620000D01*
X65017714Y-31667619D01*
X65065333Y-31762857D01*
X65065333Y-31905714D01*
X65017714Y-32000952D01*
X64970095Y-32048571D01*
X64874857Y-32096190D01*
X64493904Y-32096190D01*
X65922476Y-31905714D02*
X65922476Y-32572380D01*
X65684380Y-31524761D02*
X65446285Y-32239047D01*
X66065333Y-32239047D01*
X134190476Y-121252380D02*
X134190476Y-120252380D01*
X134523809Y-120966666D01*
X134857142Y-120252380D01*
X134857142Y-121252380D01*
X135238095Y-120252380D02*
X135857142Y-120252380D01*
X135523809Y-120633333D01*
X135666666Y-120633333D01*
X135761904Y-120680952D01*
X135809523Y-120728571D01*
X135857142Y-120823809D01*
X135857142Y-121061904D01*
X135809523Y-121157142D01*
X135761904Y-121204761D01*
X135666666Y-121252380D01*
X135380952Y-121252380D01*
X135285714Y-121204761D01*
X135238095Y-121157142D01*
X65241142Y-56877857D02*
X65288761Y-56925476D01*
X65336380Y-57068333D01*
X65336380Y-57163571D01*
X65288761Y-57306428D01*
X65193523Y-57401666D01*
X65098285Y-57449285D01*
X64907809Y-57496904D01*
X64764952Y-57496904D01*
X64574476Y-57449285D01*
X64479238Y-57401666D01*
X64384000Y-57306428D01*
X64336380Y-57163571D01*
X64336380Y-57068333D01*
X64384000Y-56925476D01*
X64431619Y-56877857D01*
X64431619Y-56496904D02*
X64384000Y-56449285D01*
X64336380Y-56354047D01*
X64336380Y-56115952D01*
X64384000Y-56020714D01*
X64431619Y-55973095D01*
X64526857Y-55925476D01*
X64622095Y-55925476D01*
X64764952Y-55973095D01*
X65336380Y-56544523D01*
X65336380Y-55925476D01*
X64336380Y-55068333D02*
X64336380Y-55258809D01*
X64384000Y-55354047D01*
X64431619Y-55401666D01*
X64574476Y-55496904D01*
X64764952Y-55544523D01*
X65145904Y-55544523D01*
X65241142Y-55496904D01*
X65288761Y-55449285D01*
X65336380Y-55354047D01*
X65336380Y-55163571D01*
X65288761Y-55068333D01*
X65241142Y-55020714D01*
X65145904Y-54973095D01*
X64907809Y-54973095D01*
X64812571Y-55020714D01*
X64764952Y-55068333D01*
X64717333Y-55163571D01*
X64717333Y-55354047D01*
X64764952Y-55449285D01*
X64812571Y-55496904D01*
X64907809Y-55544523D01*
X78666666Y-87404761D02*
X78809523Y-87452380D01*
X79047619Y-87452380D01*
X79142857Y-87404761D01*
X79190476Y-87357142D01*
X79238095Y-87261904D01*
X79238095Y-87166666D01*
X79190476Y-87071428D01*
X79142857Y-87023809D01*
X79047619Y-86976190D01*
X78857142Y-86928571D01*
X78761904Y-86880952D01*
X78714285Y-86833333D01*
X78666666Y-86738095D01*
X78666666Y-86642857D01*
X78714285Y-86547619D01*
X78761904Y-86500000D01*
X78857142Y-86452380D01*
X79095238Y-86452380D01*
X79238095Y-86500000D01*
X79571428Y-86452380D02*
X79809523Y-87452380D01*
X80000000Y-86738095D01*
X80190476Y-87452380D01*
X80428571Y-86452380D01*
X81285714Y-86452380D02*
X80809523Y-86452380D01*
X80761904Y-86928571D01*
X80809523Y-86880952D01*
X80904761Y-86833333D01*
X81142857Y-86833333D01*
X81238095Y-86880952D01*
X81285714Y-86928571D01*
X81333333Y-87023809D01*
X81333333Y-87261904D01*
X81285714Y-87357142D01*
X81238095Y-87404761D01*
X81142857Y-87452380D01*
X80904761Y-87452380D01*
X80809523Y-87404761D01*
X80761904Y-87357142D01*
X119744142Y-57679380D02*
X119410809Y-57203190D01*
X119172714Y-57679380D02*
X119172714Y-56679380D01*
X119553666Y-56679380D01*
X119648904Y-56727000D01*
X119696523Y-56774619D01*
X119744142Y-56869857D01*
X119744142Y-57012714D01*
X119696523Y-57107952D01*
X119648904Y-57155571D01*
X119553666Y-57203190D01*
X119172714Y-57203190D01*
X120077476Y-56679380D02*
X120696523Y-56679380D01*
X120363190Y-57060333D01*
X120506047Y-57060333D01*
X120601285Y-57107952D01*
X120648904Y-57155571D01*
X120696523Y-57250809D01*
X120696523Y-57488904D01*
X120648904Y-57584142D01*
X120601285Y-57631761D01*
X120506047Y-57679380D01*
X120220333Y-57679380D01*
X120125095Y-57631761D01*
X120077476Y-57584142D01*
X121648904Y-57679380D02*
X121077476Y-57679380D01*
X121363190Y-57679380D02*
X121363190Y-56679380D01*
X121267952Y-56822238D01*
X121172714Y-56917476D01*
X121077476Y-56965095D01*
X118615714Y-85740380D02*
X118615714Y-84740380D01*
X118853809Y-84740380D01*
X118996666Y-84788000D01*
X119091904Y-84883238D01*
X119139523Y-84978476D01*
X119187142Y-85168952D01*
X119187142Y-85311809D01*
X119139523Y-85502285D01*
X119091904Y-85597523D01*
X118996666Y-85692761D01*
X118853809Y-85740380D01*
X118615714Y-85740380D01*
X119568095Y-84835619D02*
X119615714Y-84788000D01*
X119710952Y-84740380D01*
X119949047Y-84740380D01*
X120044285Y-84788000D01*
X120091904Y-84835619D01*
X120139523Y-84930857D01*
X120139523Y-85026095D01*
X120091904Y-85168952D01*
X119520476Y-85740380D01*
X120139523Y-85740380D01*
X120996666Y-84740380D02*
X120806190Y-84740380D01*
X120710952Y-84788000D01*
X120663333Y-84835619D01*
X120568095Y-84978476D01*
X120520476Y-85168952D01*
X120520476Y-85549904D01*
X120568095Y-85645142D01*
X120615714Y-85692761D01*
X120710952Y-85740380D01*
X120901428Y-85740380D01*
X120996666Y-85692761D01*
X121044285Y-85645142D01*
X121091904Y-85549904D01*
X121091904Y-85311809D01*
X121044285Y-85216571D01*
X120996666Y-85168952D01*
X120901428Y-85121333D01*
X120710952Y-85121333D01*
X120615714Y-85168952D01*
X120568095Y-85216571D01*
X120520476Y-85311809D01*
X124435714Y-83852380D02*
X123864285Y-83852380D01*
X124150000Y-83852380D02*
X124150000Y-82852380D01*
X124054761Y-82995238D01*
X123959523Y-83090476D01*
X123864285Y-83138095D01*
X98983714Y-105875380D02*
X98983714Y-104875380D01*
X99221809Y-104875380D01*
X99364666Y-104923000D01*
X99459904Y-105018238D01*
X99507523Y-105113476D01*
X99555142Y-105303952D01*
X99555142Y-105446809D01*
X99507523Y-105637285D01*
X99459904Y-105732523D01*
X99364666Y-105827761D01*
X99221809Y-105875380D01*
X98983714Y-105875380D01*
X99936095Y-104970619D02*
X99983714Y-104923000D01*
X100078952Y-104875380D01*
X100317047Y-104875380D01*
X100412285Y-104923000D01*
X100459904Y-104970619D01*
X100507523Y-105065857D01*
X100507523Y-105161095D01*
X100459904Y-105303952D01*
X99888476Y-105875380D01*
X100507523Y-105875380D01*
X100840857Y-104875380D02*
X101459904Y-104875380D01*
X101126571Y-105256333D01*
X101269428Y-105256333D01*
X101364666Y-105303952D01*
X101412285Y-105351571D01*
X101459904Y-105446809D01*
X101459904Y-105684904D01*
X101412285Y-105780142D01*
X101364666Y-105827761D01*
X101269428Y-105875380D01*
X100983714Y-105875380D01*
X100888476Y-105827761D01*
X100840857Y-105780142D01*
X96135714Y-100652380D02*
X95564285Y-100652380D01*
X95850000Y-100652380D02*
X95850000Y-99652380D01*
X95754761Y-99795238D01*
X95659523Y-99890476D01*
X95564285Y-99938095D01*
X125664142Y-64739380D02*
X125330809Y-64263190D01*
X125092714Y-64739380D02*
X125092714Y-63739380D01*
X125473666Y-63739380D01*
X125568904Y-63787000D01*
X125616523Y-63834619D01*
X125664142Y-63929857D01*
X125664142Y-64072714D01*
X125616523Y-64167952D01*
X125568904Y-64215571D01*
X125473666Y-64263190D01*
X125092714Y-64263190D01*
X125997476Y-63739380D02*
X126616523Y-63739380D01*
X126283190Y-64120333D01*
X126426047Y-64120333D01*
X126521285Y-64167952D01*
X126568904Y-64215571D01*
X126616523Y-64310809D01*
X126616523Y-64548904D01*
X126568904Y-64644142D01*
X126521285Y-64691761D01*
X126426047Y-64739380D01*
X126140333Y-64739380D01*
X126045095Y-64691761D01*
X125997476Y-64644142D01*
X127235571Y-63739380D02*
X127330809Y-63739380D01*
X127426047Y-63787000D01*
X127473666Y-63834619D01*
X127521285Y-63929857D01*
X127568904Y-64120333D01*
X127568904Y-64358428D01*
X127521285Y-64548904D01*
X127473666Y-64644142D01*
X127426047Y-64691761D01*
X127330809Y-64739380D01*
X127235571Y-64739380D01*
X127140333Y-64691761D01*
X127092714Y-64644142D01*
X127045095Y-64548904D01*
X126997476Y-64358428D01*
X126997476Y-64120333D01*
X127045095Y-63929857D01*
X127092714Y-63834619D01*
X127140333Y-63787000D01*
X127235571Y-63739380D01*
X86160380Y-33528285D02*
X85160380Y-33528285D01*
X85160380Y-33290190D01*
X85208000Y-33147333D01*
X85303238Y-33052095D01*
X85398476Y-33004476D01*
X85588952Y-32956857D01*
X85731809Y-32956857D01*
X85922285Y-33004476D01*
X86017523Y-33052095D01*
X86112761Y-33147333D01*
X86160380Y-33290190D01*
X86160380Y-33528285D01*
X85160380Y-32623523D02*
X85160380Y-32004476D01*
X85541333Y-32337809D01*
X85541333Y-32194952D01*
X85588952Y-32099714D01*
X85636571Y-32052095D01*
X85731809Y-32004476D01*
X85969904Y-32004476D01*
X86065142Y-32052095D01*
X86112761Y-32099714D01*
X86160380Y-32194952D01*
X86160380Y-32480666D01*
X86112761Y-32575904D01*
X86065142Y-32623523D01*
X85160380Y-31671142D02*
X85160380Y-31004476D01*
X86160380Y-31433047D01*
X78512714Y-85803380D02*
X78512714Y-84803380D01*
X78750809Y-84803380D01*
X78893666Y-84851000D01*
X78988904Y-84946238D01*
X79036523Y-85041476D01*
X79084142Y-85231952D01*
X79084142Y-85374809D01*
X79036523Y-85565285D01*
X78988904Y-85660523D01*
X78893666Y-85755761D01*
X78750809Y-85803380D01*
X78512714Y-85803380D01*
X80036523Y-85803380D02*
X79465095Y-85803380D01*
X79750809Y-85803380D02*
X79750809Y-84803380D01*
X79655571Y-84946238D01*
X79560333Y-85041476D01*
X79465095Y-85089095D01*
X80512714Y-85803380D02*
X80703190Y-85803380D01*
X80798428Y-85755761D01*
X80846047Y-85708142D01*
X80941285Y-85565285D01*
X80988904Y-85374809D01*
X80988904Y-84993857D01*
X80941285Y-84898619D01*
X80893666Y-84851000D01*
X80798428Y-84803380D01*
X80607952Y-84803380D01*
X80512714Y-84851000D01*
X80465095Y-84898619D01*
X80417476Y-84993857D01*
X80417476Y-85231952D01*
X80465095Y-85327190D01*
X80512714Y-85374809D01*
X80607952Y-85422428D01*
X80798428Y-85422428D01*
X80893666Y-85374809D01*
X80941285Y-85327190D01*
X80988904Y-85231952D01*
X84435714Y-83852380D02*
X83864285Y-83852380D01*
X84150000Y-83852380D02*
X84150000Y-82852380D01*
X84054761Y-82995238D01*
X83959523Y-83090476D01*
X83864285Y-83138095D01*
X82236380Y-32921285D02*
X81236380Y-32921285D01*
X81236380Y-32683190D01*
X81284000Y-32540333D01*
X81379238Y-32445095D01*
X81474476Y-32397476D01*
X81664952Y-32349857D01*
X81807809Y-32349857D01*
X81998285Y-32397476D01*
X82093523Y-32445095D01*
X82188761Y-32540333D01*
X82236380Y-32683190D01*
X82236380Y-32921285D01*
X81236380Y-32016523D02*
X81236380Y-31397476D01*
X81617333Y-31730809D01*
X81617333Y-31587952D01*
X81664952Y-31492714D01*
X81712571Y-31445095D01*
X81807809Y-31397476D01*
X82045904Y-31397476D01*
X82141142Y-31445095D01*
X82188761Y-31492714D01*
X82236380Y-31587952D01*
X82236380Y-31873666D01*
X82188761Y-31968904D01*
X82141142Y-32016523D01*
X81236380Y-30540333D02*
X81236380Y-30730809D01*
X81284000Y-30826047D01*
X81331619Y-30873666D01*
X81474476Y-30968904D01*
X81664952Y-31016523D01*
X82045904Y-31016523D01*
X82141142Y-30968904D01*
X82188761Y-30921285D01*
X82236380Y-30826047D01*
X82236380Y-30635571D01*
X82188761Y-30540333D01*
X82141142Y-30492714D01*
X82045904Y-30445095D01*
X81807809Y-30445095D01*
X81712571Y-30492714D01*
X81664952Y-30540333D01*
X81617333Y-30635571D01*
X81617333Y-30826047D01*
X81664952Y-30921285D01*
X81712571Y-30968904D01*
X81807809Y-31016523D01*
X118019380Y-55130285D02*
X117019380Y-55130285D01*
X117019380Y-54892190D01*
X117067000Y-54749333D01*
X117162238Y-54654095D01*
X117257476Y-54606476D01*
X117447952Y-54558857D01*
X117590809Y-54558857D01*
X117781285Y-54606476D01*
X117876523Y-54654095D01*
X117971761Y-54749333D01*
X118019380Y-54892190D01*
X118019380Y-55130285D01*
X117352714Y-53701714D02*
X118019380Y-53701714D01*
X116971761Y-53939809D02*
X117686047Y-54177904D01*
X117686047Y-53558857D01*
X117019380Y-52987428D02*
X117019380Y-52892190D01*
X117067000Y-52796952D01*
X117114619Y-52749333D01*
X117209857Y-52701714D01*
X117400333Y-52654095D01*
X117638428Y-52654095D01*
X117828904Y-52701714D01*
X117924142Y-52749333D01*
X117971761Y-52796952D01*
X118019380Y-52892190D01*
X118019380Y-52987428D01*
X117971761Y-53082666D01*
X117924142Y-53130285D01*
X117828904Y-53177904D01*
X117638428Y-53225523D01*
X117400333Y-53225523D01*
X117209857Y-53177904D01*
X117114619Y-53130285D01*
X117067000Y-53082666D01*
X117019380Y-52987428D01*
X113603380Y-61701904D02*
X112603380Y-61701904D01*
X113603380Y-61130476D02*
X113031952Y-61559047D01*
X112603380Y-61130476D02*
X113174809Y-61701904D01*
X98666666Y-107404761D02*
X98809523Y-107452380D01*
X99047619Y-107452380D01*
X99142857Y-107404761D01*
X99190476Y-107357142D01*
X99238095Y-107261904D01*
X99238095Y-107166666D01*
X99190476Y-107071428D01*
X99142857Y-107023809D01*
X99047619Y-106976190D01*
X98857142Y-106928571D01*
X98761904Y-106880952D01*
X98714285Y-106833333D01*
X98666666Y-106738095D01*
X98666666Y-106642857D01*
X98714285Y-106547619D01*
X98761904Y-106500000D01*
X98857142Y-106452380D01*
X99095238Y-106452380D01*
X99238095Y-106500000D01*
X99571428Y-106452380D02*
X99809523Y-107452380D01*
X100000000Y-106738095D01*
X100190476Y-107452380D01*
X100428571Y-106452380D01*
X100857142Y-107452380D02*
X101047619Y-107452380D01*
X101142857Y-107404761D01*
X101190476Y-107357142D01*
X101285714Y-107214285D01*
X101333333Y-107023809D01*
X101333333Y-106642857D01*
X101285714Y-106547619D01*
X101238095Y-106500000D01*
X101142857Y-106452380D01*
X100952380Y-106452380D01*
X100857142Y-106500000D01*
X100809523Y-106547619D01*
X100761904Y-106642857D01*
X100761904Y-106880952D01*
X100809523Y-106976190D01*
X100857142Y-107023809D01*
X100952380Y-107071428D01*
X101142857Y-107071428D01*
X101238095Y-107023809D01*
X101285714Y-106976190D01*
X101333333Y-106880952D01*
X116552380Y-45706135D02*
X115552380Y-45706135D01*
X115552380Y-45468040D01*
X115600000Y-45325183D01*
X115695238Y-45229945D01*
X115790476Y-45182326D01*
X115980952Y-45134707D01*
X116123809Y-45134707D01*
X116314285Y-45182326D01*
X116409523Y-45229945D01*
X116504761Y-45325183D01*
X116552380Y-45468040D01*
X116552380Y-45706135D01*
X115885714Y-44277564D02*
X116552380Y-44277564D01*
X115504761Y-44515659D02*
X116219047Y-44753754D01*
X116219047Y-44134707D01*
X115647619Y-43801373D02*
X115600000Y-43753754D01*
X115552380Y-43658516D01*
X115552380Y-43420421D01*
X115600000Y-43325183D01*
X115647619Y-43277564D01*
X115742857Y-43229945D01*
X115838095Y-43229945D01*
X115980952Y-43277564D01*
X116552380Y-43848992D01*
X116552380Y-43229945D01*
X116922380Y-49833754D02*
X115922380Y-49833754D01*
X116922380Y-49262326D02*
X116350952Y-49690897D01*
X115922380Y-49262326D02*
X116493809Y-49833754D01*
X59808095Y-37758380D02*
X60379523Y-37758380D01*
X60093809Y-38758380D02*
X60093809Y-37758380D01*
X60712857Y-38758380D02*
X60712857Y-37758380D01*
X61093809Y-37758380D01*
X61189047Y-37806000D01*
X61236666Y-37853619D01*
X61284285Y-37948857D01*
X61284285Y-38091714D01*
X61236666Y-38186952D01*
X61189047Y-38234571D01*
X61093809Y-38282190D01*
X60712857Y-38282190D01*
X62236666Y-38758380D02*
X61665238Y-38758380D01*
X61950952Y-38758380D02*
X61950952Y-37758380D01*
X61855714Y-37901238D01*
X61760476Y-37996476D01*
X61665238Y-38044095D01*
X126060761Y-56705619D02*
X125965523Y-56658000D01*
X125870285Y-56562761D01*
X125727428Y-56419904D01*
X125632190Y-56372285D01*
X125536952Y-56372285D01*
X125584571Y-56610380D02*
X125489333Y-56562761D01*
X125394095Y-56467523D01*
X125346476Y-56277047D01*
X125346476Y-55943714D01*
X125394095Y-55753238D01*
X125489333Y-55658000D01*
X125584571Y-55610380D01*
X125775047Y-55610380D01*
X125870285Y-55658000D01*
X125965523Y-55753238D01*
X126013142Y-55943714D01*
X126013142Y-56277047D01*
X125965523Y-56467523D01*
X125870285Y-56562761D01*
X125775047Y-56610380D01*
X125584571Y-56610380D01*
X126965523Y-56610380D02*
X126394095Y-56610380D01*
X126679809Y-56610380D02*
X126679809Y-55610380D01*
X126584571Y-55753238D01*
X126489333Y-55848476D01*
X126394095Y-55896095D01*
X58666666Y-87404761D02*
X58809523Y-87452380D01*
X59047619Y-87452380D01*
X59142857Y-87404761D01*
X59190476Y-87357142D01*
X59238095Y-87261904D01*
X59238095Y-87166666D01*
X59190476Y-87071428D01*
X59142857Y-87023809D01*
X59047619Y-86976190D01*
X58857142Y-86928571D01*
X58761904Y-86880952D01*
X58714285Y-86833333D01*
X58666666Y-86738095D01*
X58666666Y-86642857D01*
X58714285Y-86547619D01*
X58761904Y-86500000D01*
X58857142Y-86452380D01*
X59095238Y-86452380D01*
X59238095Y-86500000D01*
X59571428Y-86452380D02*
X59809523Y-87452380D01*
X60000000Y-86738095D01*
X60190476Y-87452380D01*
X60428571Y-86452380D01*
X60761904Y-86547619D02*
X60809523Y-86500000D01*
X60904761Y-86452380D01*
X61142857Y-86452380D01*
X61238095Y-86500000D01*
X61285714Y-86547619D01*
X61333333Y-86642857D01*
X61333333Y-86738095D01*
X61285714Y-86880952D01*
X60714285Y-87452380D01*
X61333333Y-87452380D01*
X78666666Y-67404761D02*
X78809523Y-67452380D01*
X79047619Y-67452380D01*
X79142857Y-67404761D01*
X79190476Y-67357142D01*
X79238095Y-67261904D01*
X79238095Y-67166666D01*
X79190476Y-67071428D01*
X79142857Y-67023809D01*
X79047619Y-66976190D01*
X78857142Y-66928571D01*
X78761904Y-66880952D01*
X78714285Y-66833333D01*
X78666666Y-66738095D01*
X78666666Y-66642857D01*
X78714285Y-66547619D01*
X78761904Y-66500000D01*
X78857142Y-66452380D01*
X79095238Y-66452380D01*
X79238095Y-66500000D01*
X79571428Y-66452380D02*
X79809523Y-67452380D01*
X80000000Y-66738095D01*
X80190476Y-67452380D01*
X80428571Y-66452380D01*
X81238095Y-66785714D02*
X81238095Y-67452380D01*
X81000000Y-66404761D02*
X80761904Y-67119047D01*
X81380952Y-67119047D01*
X58785714Y-106012380D02*
X58785714Y-105012380D01*
X59023809Y-105012380D01*
X59166666Y-105060000D01*
X59261904Y-105155238D01*
X59309523Y-105250476D01*
X59357142Y-105440952D01*
X59357142Y-105583809D01*
X59309523Y-105774285D01*
X59261904Y-105869523D01*
X59166666Y-105964761D01*
X59023809Y-106012380D01*
X58785714Y-106012380D01*
X60309523Y-106012380D02*
X59738095Y-106012380D01*
X60023809Y-106012380D02*
X60023809Y-105012380D01*
X59928571Y-105155238D01*
X59833333Y-105250476D01*
X59738095Y-105298095D01*
X60642857Y-105012380D02*
X61309523Y-105012380D01*
X60880952Y-106012380D01*
X56135714Y-100652380D02*
X55564285Y-100652380D01*
X55850000Y-100652380D02*
X55850000Y-99652380D01*
X55754761Y-99795238D01*
X55659523Y-99890476D01*
X55564285Y-99938095D01*
X89476380Y-34322285D02*
X88476380Y-34322285D01*
X88476380Y-34084190D01*
X88524000Y-33941333D01*
X88619238Y-33846095D01*
X88714476Y-33798476D01*
X88904952Y-33750857D01*
X89047809Y-33750857D01*
X89238285Y-33798476D01*
X89333523Y-33846095D01*
X89428761Y-33941333D01*
X89476380Y-34084190D01*
X89476380Y-34322285D01*
X88476380Y-33417523D02*
X88476380Y-32798476D01*
X88857333Y-33131809D01*
X88857333Y-32988952D01*
X88904952Y-32893714D01*
X88952571Y-32846095D01*
X89047809Y-32798476D01*
X89285904Y-32798476D01*
X89381142Y-32846095D01*
X89428761Y-32893714D01*
X89476380Y-32988952D01*
X89476380Y-33274666D01*
X89428761Y-33369904D01*
X89381142Y-33417523D01*
X88904952Y-32227047D02*
X88857333Y-32322285D01*
X88809714Y-32369904D01*
X88714476Y-32417523D01*
X88666857Y-32417523D01*
X88571619Y-32369904D01*
X88524000Y-32322285D01*
X88476380Y-32227047D01*
X88476380Y-32036571D01*
X88524000Y-31941333D01*
X88571619Y-31893714D01*
X88666857Y-31846095D01*
X88714476Y-31846095D01*
X88809714Y-31893714D01*
X88857333Y-31941333D01*
X88904952Y-32036571D01*
X88904952Y-32227047D01*
X88952571Y-32322285D01*
X89000190Y-32369904D01*
X89095428Y-32417523D01*
X89285904Y-32417523D01*
X89381142Y-32369904D01*
X89428761Y-32322285D01*
X89476380Y-32227047D01*
X89476380Y-32036571D01*
X89428761Y-31941333D01*
X89381142Y-31893714D01*
X89285904Y-31846095D01*
X89095428Y-31846095D01*
X89000190Y-31893714D01*
X88952571Y-31941333D01*
X88904952Y-32036571D01*
X128965095Y-62228380D02*
X128965095Y-63037904D01*
X129012714Y-63133142D01*
X129060333Y-63180761D01*
X129155571Y-63228380D01*
X129346047Y-63228380D01*
X129441285Y-63180761D01*
X129488904Y-63133142D01*
X129536523Y-63037904D01*
X129536523Y-62228380D01*
X129965095Y-62323619D02*
X130012714Y-62276000D01*
X130107952Y-62228380D01*
X130346047Y-62228380D01*
X130441285Y-62276000D01*
X130488904Y-62323619D01*
X130536523Y-62418857D01*
X130536523Y-62514095D01*
X130488904Y-62656952D01*
X129917476Y-63228380D01*
X130536523Y-63228380D01*
X128416000Y-55181380D02*
X128416000Y-55419476D01*
X128177904Y-55324238D02*
X128416000Y-55419476D01*
X128654095Y-55324238D01*
X128273142Y-55609952D02*
X128416000Y-55419476D01*
X128558857Y-55609952D01*
X128568000Y-55865380D02*
X128568000Y-56103476D01*
X128329904Y-56008238D02*
X128568000Y-56103476D01*
X128806095Y-56008238D01*
X128425142Y-56293952D02*
X128568000Y-56103476D01*
X128710857Y-56293952D01*
X62951142Y-57033857D02*
X62998761Y-57081476D01*
X63046380Y-57224333D01*
X63046380Y-57319571D01*
X62998761Y-57462428D01*
X62903523Y-57557666D01*
X62808285Y-57605285D01*
X62617809Y-57652904D01*
X62474952Y-57652904D01*
X62284476Y-57605285D01*
X62189238Y-57557666D01*
X62094000Y-57462428D01*
X62046380Y-57319571D01*
X62046380Y-57224333D01*
X62094000Y-57081476D01*
X62141619Y-57033857D01*
X62141619Y-56652904D02*
X62094000Y-56605285D01*
X62046380Y-56510047D01*
X62046380Y-56271952D01*
X62094000Y-56176714D01*
X62141619Y-56129095D01*
X62236857Y-56081476D01*
X62332095Y-56081476D01*
X62474952Y-56129095D01*
X63046380Y-56700523D01*
X63046380Y-56081476D01*
X62046380Y-55748142D02*
X62046380Y-55129095D01*
X62427333Y-55462428D01*
X62427333Y-55319571D01*
X62474952Y-55224333D01*
X62522571Y-55176714D01*
X62617809Y-55129095D01*
X62855904Y-55129095D01*
X62951142Y-55176714D01*
X62998761Y-55224333D01*
X63046380Y-55319571D01*
X63046380Y-55605285D01*
X62998761Y-55700523D01*
X62951142Y-55748142D01*
X86707142Y-44505380D02*
X86373809Y-44029190D01*
X86135714Y-44505380D02*
X86135714Y-43505380D01*
X86516666Y-43505380D01*
X86611904Y-43553000D01*
X86659523Y-43600619D01*
X86707142Y-43695857D01*
X86707142Y-43838714D01*
X86659523Y-43933952D01*
X86611904Y-43981571D01*
X86516666Y-44029190D01*
X86135714Y-44029190D01*
X87659523Y-44505380D02*
X87088095Y-44505380D01*
X87373809Y-44505380D02*
X87373809Y-43505380D01*
X87278571Y-43648238D01*
X87183333Y-43743476D01*
X87088095Y-43791095D01*
X88040476Y-43600619D02*
X88088095Y-43553000D01*
X88183333Y-43505380D01*
X88421428Y-43505380D01*
X88516666Y-43553000D01*
X88564285Y-43600619D01*
X88611904Y-43695857D01*
X88611904Y-43791095D01*
X88564285Y-43933952D01*
X87992857Y-44505380D01*
X88611904Y-44505380D01*
X129808761Y-56779619D02*
X129713523Y-56732000D01*
X129618285Y-56636761D01*
X129475428Y-56493904D01*
X129380190Y-56446285D01*
X129284952Y-56446285D01*
X129332571Y-56684380D02*
X129237333Y-56636761D01*
X129142095Y-56541523D01*
X129094476Y-56351047D01*
X129094476Y-56017714D01*
X129142095Y-55827238D01*
X129237333Y-55732000D01*
X129332571Y-55684380D01*
X129523047Y-55684380D01*
X129618285Y-55732000D01*
X129713523Y-55827238D01*
X129761142Y-56017714D01*
X129761142Y-56351047D01*
X129713523Y-56541523D01*
X129618285Y-56636761D01*
X129523047Y-56684380D01*
X129332571Y-56684380D01*
X130713523Y-56684380D02*
X130142095Y-56684380D01*
X130427809Y-56684380D02*
X130427809Y-55684380D01*
X130332571Y-55827238D01*
X130237333Y-55922476D01*
X130142095Y-55970095D01*
X78934095Y-52735380D02*
X78934095Y-53544904D01*
X78981714Y-53640142D01*
X79029333Y-53687761D01*
X79124571Y-53735380D01*
X79315047Y-53735380D01*
X79410285Y-53687761D01*
X79457904Y-53640142D01*
X79505523Y-53544904D01*
X79505523Y-52735380D01*
X80505523Y-53735380D02*
X79934095Y-53735380D01*
X80219809Y-53735380D02*
X80219809Y-52735380D01*
X80124571Y-52878238D01*
X80029333Y-52973476D01*
X79934095Y-53021095D01*
X75418000Y-42096380D02*
X75418000Y-42334476D01*
X75179904Y-42239238D02*
X75418000Y-42334476D01*
X75656095Y-42239238D01*
X75275142Y-42524952D02*
X75418000Y-42334476D01*
X75560857Y-42524952D01*
X74783000Y-41639380D02*
X74783000Y-41877476D01*
X74544904Y-41782238D02*
X74783000Y-41877476D01*
X75021095Y-41782238D01*
X74640142Y-42067952D02*
X74783000Y-41877476D01*
X74925857Y-42067952D01*
X74100142Y-56800857D02*
X74147761Y-56848476D01*
X74195380Y-56991333D01*
X74195380Y-57086571D01*
X74147761Y-57229428D01*
X74052523Y-57324666D01*
X73957285Y-57372285D01*
X73766809Y-57419904D01*
X73623952Y-57419904D01*
X73433476Y-57372285D01*
X73338238Y-57324666D01*
X73243000Y-57229428D01*
X73195380Y-57086571D01*
X73195380Y-56991333D01*
X73243000Y-56848476D01*
X73290619Y-56800857D01*
X73195380Y-56467523D02*
X73195380Y-55848476D01*
X73576333Y-56181809D01*
X73576333Y-56038952D01*
X73623952Y-55943714D01*
X73671571Y-55896095D01*
X73766809Y-55848476D01*
X74004904Y-55848476D01*
X74100142Y-55896095D01*
X74147761Y-55943714D01*
X74195380Y-56038952D01*
X74195380Y-56324666D01*
X74147761Y-56419904D01*
X74100142Y-56467523D01*
X73195380Y-55229428D02*
X73195380Y-55134190D01*
X73243000Y-55038952D01*
X73290619Y-54991333D01*
X73385857Y-54943714D01*
X73576333Y-54896095D01*
X73814428Y-54896095D01*
X74004904Y-54943714D01*
X74100142Y-54991333D01*
X74147761Y-55038952D01*
X74195380Y-55134190D01*
X74195380Y-55229428D01*
X74147761Y-55324666D01*
X74100142Y-55372285D01*
X74004904Y-55419904D01*
X73814428Y-55467523D01*
X73576333Y-55467523D01*
X73385857Y-55419904D01*
X73290619Y-55372285D01*
X73243000Y-55324666D01*
X73195380Y-55229428D01*
X131596142Y-38599380D02*
X131262809Y-38123190D01*
X131024714Y-38599380D02*
X131024714Y-37599380D01*
X131405666Y-37599380D01*
X131500904Y-37647000D01*
X131548523Y-37694619D01*
X131596142Y-37789857D01*
X131596142Y-37932714D01*
X131548523Y-38027952D01*
X131500904Y-38075571D01*
X131405666Y-38123190D01*
X131024714Y-38123190D01*
X131929476Y-37599380D02*
X132548523Y-37599380D01*
X132215190Y-37980333D01*
X132358047Y-37980333D01*
X132453285Y-38027952D01*
X132500904Y-38075571D01*
X132548523Y-38170809D01*
X132548523Y-38408904D01*
X132500904Y-38504142D01*
X132453285Y-38551761D01*
X132358047Y-38599380D01*
X132072333Y-38599380D01*
X131977095Y-38551761D01*
X131929476Y-38504142D01*
X133453285Y-37599380D02*
X132977095Y-37599380D01*
X132929476Y-38075571D01*
X132977095Y-38027952D01*
X133072333Y-37980333D01*
X133310428Y-37980333D01*
X133405666Y-38027952D01*
X133453285Y-38075571D01*
X133500904Y-38170809D01*
X133500904Y-38408904D01*
X133453285Y-38504142D01*
X133405666Y-38551761D01*
X133310428Y-38599380D01*
X133072333Y-38599380D01*
X132977095Y-38551761D01*
X132929476Y-38504142D01*
X71974142Y-47826142D02*
X71926523Y-47873761D01*
X71783666Y-47921380D01*
X71688428Y-47921380D01*
X71545571Y-47873761D01*
X71450333Y-47778523D01*
X71402714Y-47683285D01*
X71355095Y-47492809D01*
X71355095Y-47349952D01*
X71402714Y-47159476D01*
X71450333Y-47064238D01*
X71545571Y-46969000D01*
X71688428Y-46921380D01*
X71783666Y-46921380D01*
X71926523Y-46969000D01*
X71974142Y-47016619D01*
X72355095Y-47016619D02*
X72402714Y-46969000D01*
X72497952Y-46921380D01*
X72736047Y-46921380D01*
X72831285Y-46969000D01*
X72878904Y-47016619D01*
X72926523Y-47111857D01*
X72926523Y-47207095D01*
X72878904Y-47349952D01*
X72307476Y-47921380D01*
X72926523Y-47921380D01*
X73497952Y-47349952D02*
X73402714Y-47302333D01*
X73355095Y-47254714D01*
X73307476Y-47159476D01*
X73307476Y-47111857D01*
X73355095Y-47016619D01*
X73402714Y-46969000D01*
X73497952Y-46921380D01*
X73688428Y-46921380D01*
X73783666Y-46969000D01*
X73831285Y-47016619D01*
X73878904Y-47111857D01*
X73878904Y-47159476D01*
X73831285Y-47254714D01*
X73783666Y-47302333D01*
X73688428Y-47349952D01*
X73497952Y-47349952D01*
X73402714Y-47397571D01*
X73355095Y-47445190D01*
X73307476Y-47540428D01*
X73307476Y-47730904D01*
X73355095Y-47826142D01*
X73402714Y-47873761D01*
X73497952Y-47921380D01*
X73688428Y-47921380D01*
X73783666Y-47873761D01*
X73831285Y-47826142D01*
X73878904Y-47730904D01*
X73878904Y-47540428D01*
X73831285Y-47445190D01*
X73783666Y-47397571D01*
X73688428Y-47349952D01*
X109280333Y-51154380D02*
X108804142Y-51154380D01*
X108804142Y-50154380D01*
X110137476Y-51154380D02*
X109566047Y-51154380D01*
X109851761Y-51154380D02*
X109851761Y-50154380D01*
X109756523Y-50297238D01*
X109661285Y-50392476D01*
X109566047Y-50440095D01*
X103870142Y-57288380D02*
X103536809Y-56812190D01*
X103298714Y-57288380D02*
X103298714Y-56288380D01*
X103679666Y-56288380D01*
X103774904Y-56336000D01*
X103822523Y-56383619D01*
X103870142Y-56478857D01*
X103870142Y-56621714D01*
X103822523Y-56716952D01*
X103774904Y-56764571D01*
X103679666Y-56812190D01*
X103298714Y-56812190D01*
X104203476Y-56288380D02*
X104822523Y-56288380D01*
X104489190Y-56669333D01*
X104632047Y-56669333D01*
X104727285Y-56716952D01*
X104774904Y-56764571D01*
X104822523Y-56859809D01*
X104822523Y-57097904D01*
X104774904Y-57193142D01*
X104727285Y-57240761D01*
X104632047Y-57288380D01*
X104346333Y-57288380D01*
X104251095Y-57240761D01*
X104203476Y-57193142D01*
X105155857Y-56288380D02*
X105774904Y-56288380D01*
X105441571Y-56669333D01*
X105584428Y-56669333D01*
X105679666Y-56716952D01*
X105727285Y-56764571D01*
X105774904Y-56859809D01*
X105774904Y-57097904D01*
X105727285Y-57193142D01*
X105679666Y-57240761D01*
X105584428Y-57288380D01*
X105298714Y-57288380D01*
X105203476Y-57240761D01*
X105155857Y-57193142D01*
X77952380Y-39214285D02*
X76952380Y-39214285D01*
X76952380Y-38976190D01*
X77000000Y-38833333D01*
X77095238Y-38738095D01*
X77190476Y-38690476D01*
X77380952Y-38642857D01*
X77523809Y-38642857D01*
X77714285Y-38690476D01*
X77809523Y-38738095D01*
X77904761Y-38833333D01*
X77952380Y-38976190D01*
X77952380Y-39214285D01*
X76952380Y-38309523D02*
X76952380Y-37690476D01*
X77333333Y-38023809D01*
X77333333Y-37880952D01*
X77380952Y-37785714D01*
X77428571Y-37738095D01*
X77523809Y-37690476D01*
X77761904Y-37690476D01*
X77857142Y-37738095D01*
X77904761Y-37785714D01*
X77952380Y-37880952D01*
X77952380Y-38166666D01*
X77904761Y-38261904D01*
X77857142Y-38309523D01*
X76952380Y-36785714D02*
X76952380Y-37261904D01*
X77428571Y-37309523D01*
X77380952Y-37261904D01*
X77333333Y-37166666D01*
X77333333Y-36928571D01*
X77380952Y-36833333D01*
X77428571Y-36785714D01*
X77523809Y-36738095D01*
X77761904Y-36738095D01*
X77857142Y-36785714D01*
X77904761Y-36833333D01*
X77952380Y-36928571D01*
X77952380Y-37166666D01*
X77904761Y-37261904D01*
X77857142Y-37309523D01*
X92075380Y-50815285D02*
X91075380Y-50815285D01*
X91075380Y-50577190D01*
X91123000Y-50434333D01*
X91218238Y-50339095D01*
X91313476Y-50291476D01*
X91503952Y-50243857D01*
X91646809Y-50243857D01*
X91837285Y-50291476D01*
X91932523Y-50339095D01*
X92027761Y-50434333D01*
X92075380Y-50577190D01*
X92075380Y-50815285D01*
X91075380Y-49910523D02*
X91075380Y-49291476D01*
X91456333Y-49624809D01*
X91456333Y-49481952D01*
X91503952Y-49386714D01*
X91551571Y-49339095D01*
X91646809Y-49291476D01*
X91884904Y-49291476D01*
X91980142Y-49339095D01*
X92027761Y-49386714D01*
X92075380Y-49481952D01*
X92075380Y-49767666D01*
X92027761Y-49862904D01*
X91980142Y-49910523D01*
X92075380Y-48815285D02*
X92075380Y-48624809D01*
X92027761Y-48529571D01*
X91980142Y-48481952D01*
X91837285Y-48386714D01*
X91646809Y-48339095D01*
X91265857Y-48339095D01*
X91170619Y-48386714D01*
X91123000Y-48434333D01*
X91075380Y-48529571D01*
X91075380Y-48720047D01*
X91123000Y-48815285D01*
X91170619Y-48862904D01*
X91265857Y-48910523D01*
X91503952Y-48910523D01*
X91599190Y-48862904D01*
X91646809Y-48815285D01*
X91694428Y-48720047D01*
X91694428Y-48529571D01*
X91646809Y-48434333D01*
X91599190Y-48386714D01*
X91503952Y-48339095D01*
X121215761Y-43134469D02*
X121120523Y-43086850D01*
X121025285Y-42991611D01*
X120882428Y-42848754D01*
X120787190Y-42801135D01*
X120691952Y-42801135D01*
X120739571Y-43039230D02*
X120644333Y-42991611D01*
X120549095Y-42896373D01*
X120501476Y-42705897D01*
X120501476Y-42372564D01*
X120549095Y-42182088D01*
X120644333Y-42086850D01*
X120739571Y-42039230D01*
X120930047Y-42039230D01*
X121025285Y-42086850D01*
X121120523Y-42182088D01*
X121168142Y-42372564D01*
X121168142Y-42705897D01*
X121120523Y-42896373D01*
X121025285Y-42991611D01*
X120930047Y-43039230D01*
X120739571Y-43039230D01*
X121549095Y-42134469D02*
X121596714Y-42086850D01*
X121691952Y-42039230D01*
X121930047Y-42039230D01*
X122025285Y-42086850D01*
X122072904Y-42134469D01*
X122120523Y-42229707D01*
X122120523Y-42324945D01*
X122072904Y-42467802D01*
X121501476Y-43039230D01*
X122120523Y-43039230D01*
X137818333Y-40192380D02*
X137342142Y-40192380D01*
X137342142Y-39192380D01*
X138104047Y-39287619D02*
X138151666Y-39240000D01*
X138246904Y-39192380D01*
X138485000Y-39192380D01*
X138580238Y-39240000D01*
X138627857Y-39287619D01*
X138675476Y-39382857D01*
X138675476Y-39478095D01*
X138627857Y-39620952D01*
X138056428Y-40192380D01*
X138675476Y-40192380D01*
X41357142Y-65037142D02*
X41309523Y-65084761D01*
X41166666Y-65132380D01*
X41071428Y-65132380D01*
X40928571Y-65084761D01*
X40833333Y-64989523D01*
X40785714Y-64894285D01*
X40738095Y-64703809D01*
X40738095Y-64560952D01*
X40785714Y-64370476D01*
X40833333Y-64275238D01*
X40928571Y-64180000D01*
X41071428Y-64132380D01*
X41166666Y-64132380D01*
X41309523Y-64180000D01*
X41357142Y-64227619D01*
X41738095Y-64227619D02*
X41785714Y-64180000D01*
X41880952Y-64132380D01*
X42119047Y-64132380D01*
X42214285Y-64180000D01*
X42261904Y-64227619D01*
X42309523Y-64322857D01*
X42309523Y-64418095D01*
X42261904Y-64560952D01*
X41690476Y-65132380D01*
X42309523Y-65132380D01*
X42928571Y-64132380D02*
X43023809Y-64132380D01*
X43119047Y-64180000D01*
X43166666Y-64227619D01*
X43214285Y-64322857D01*
X43261904Y-64513333D01*
X43261904Y-64751428D01*
X43214285Y-64941904D01*
X43166666Y-65037142D01*
X43119047Y-65084761D01*
X43023809Y-65132380D01*
X42928571Y-65132380D01*
X42833333Y-65084761D01*
X42785714Y-65037142D01*
X42738095Y-64941904D01*
X42690476Y-64751428D01*
X42690476Y-64513333D01*
X42738095Y-64322857D01*
X42785714Y-64227619D01*
X42833333Y-64180000D01*
X42928571Y-64132380D01*
X126262095Y-48685230D02*
X126262095Y-49494754D01*
X126309714Y-49589992D01*
X126357333Y-49637611D01*
X126452571Y-49685230D01*
X126643047Y-49685230D01*
X126738285Y-49637611D01*
X126785904Y-49589992D01*
X126833523Y-49494754D01*
X126833523Y-48685230D01*
X127214476Y-48685230D02*
X127833523Y-48685230D01*
X127500190Y-49066183D01*
X127643047Y-49066183D01*
X127738285Y-49113802D01*
X127785904Y-49161421D01*
X127833523Y-49256659D01*
X127833523Y-49494754D01*
X127785904Y-49589992D01*
X127738285Y-49637611D01*
X127643047Y-49685230D01*
X127357333Y-49685230D01*
X127262095Y-49637611D01*
X127214476Y-49589992D01*
X122359000Y-43291380D02*
X122359000Y-43529476D01*
X122120904Y-43434238D02*
X122359000Y-43529476D01*
X122597095Y-43434238D01*
X122216142Y-43719952D02*
X122359000Y-43529476D01*
X122501857Y-43719952D01*
X121674000Y-43291380D02*
X121674000Y-43529476D01*
X121435904Y-43434238D02*
X121674000Y-43529476D01*
X121912095Y-43434238D01*
X121531142Y-43719952D02*
X121674000Y-43529476D01*
X121816857Y-43719952D01*
X89376380Y-35893666D02*
X88900190Y-36227000D01*
X89376380Y-36465095D02*
X88376380Y-36465095D01*
X88376380Y-36084142D01*
X88424000Y-35988904D01*
X88471619Y-35941285D01*
X88566857Y-35893666D01*
X88709714Y-35893666D01*
X88804952Y-35941285D01*
X88852571Y-35988904D01*
X88900190Y-36084142D01*
X88900190Y-36465095D01*
X89376380Y-35417476D02*
X89376380Y-35227000D01*
X89328761Y-35131761D01*
X89281142Y-35084142D01*
X89138285Y-34988904D01*
X88947809Y-34941285D01*
X88566857Y-34941285D01*
X88471619Y-34988904D01*
X88424000Y-35036523D01*
X88376380Y-35131761D01*
X88376380Y-35322238D01*
X88424000Y-35417476D01*
X88471619Y-35465095D01*
X88566857Y-35512714D01*
X88804952Y-35512714D01*
X88900190Y-35465095D01*
X88947809Y-35417476D01*
X88995428Y-35322238D01*
X88995428Y-35131761D01*
X88947809Y-35036523D01*
X88900190Y-34988904D01*
X88804952Y-34941285D01*
X60363476Y-42061761D02*
X60506333Y-42109380D01*
X60744428Y-42109380D01*
X60839666Y-42061761D01*
X60887285Y-42014142D01*
X60934904Y-41918904D01*
X60934904Y-41823666D01*
X60887285Y-41728428D01*
X60839666Y-41680809D01*
X60744428Y-41633190D01*
X60553952Y-41585571D01*
X60458714Y-41537952D01*
X60411095Y-41490333D01*
X60363476Y-41395095D01*
X60363476Y-41299857D01*
X60411095Y-41204619D01*
X60458714Y-41157000D01*
X60553952Y-41109380D01*
X60792047Y-41109380D01*
X60934904Y-41157000D01*
X61268238Y-41109380D02*
X61506333Y-42109380D01*
X61696809Y-41395095D01*
X61887285Y-42109380D01*
X62125380Y-41109380D01*
X63030142Y-42109380D02*
X62458714Y-42109380D01*
X62744428Y-42109380D02*
X62744428Y-41109380D01*
X62649190Y-41252238D01*
X62553952Y-41347476D01*
X62458714Y-41395095D01*
X63887285Y-41109380D02*
X63696809Y-41109380D01*
X63601571Y-41157000D01*
X63553952Y-41204619D01*
X63458714Y-41347476D01*
X63411095Y-41537952D01*
X63411095Y-41918904D01*
X63458714Y-42014142D01*
X63506333Y-42061761D01*
X63601571Y-42109380D01*
X63792047Y-42109380D01*
X63887285Y-42061761D01*
X63934904Y-42014142D01*
X63982523Y-41918904D01*
X63982523Y-41680809D01*
X63934904Y-41585571D01*
X63887285Y-41537952D01*
X63792047Y-41490333D01*
X63601571Y-41490333D01*
X63506333Y-41537952D01*
X63458714Y-41585571D01*
X63411095Y-41680809D01*
X114077380Y-38873857D02*
X113601190Y-39207190D01*
X114077380Y-39445285D02*
X113077380Y-39445285D01*
X113077380Y-39064333D01*
X113125000Y-38969095D01*
X113172619Y-38921476D01*
X113267857Y-38873857D01*
X113410714Y-38873857D01*
X113505952Y-38921476D01*
X113553571Y-38969095D01*
X113601190Y-39064333D01*
X113601190Y-39445285D01*
X114077380Y-37921476D02*
X114077380Y-38492904D01*
X114077380Y-38207190D02*
X113077380Y-38207190D01*
X113220238Y-38302428D01*
X113315476Y-38397666D01*
X113363095Y-38492904D01*
X113077380Y-37588142D02*
X113077380Y-36969095D01*
X113458333Y-37302428D01*
X113458333Y-37159571D01*
X113505952Y-37064333D01*
X113553571Y-37016714D01*
X113648809Y-36969095D01*
X113886904Y-36969095D01*
X113982142Y-37016714D01*
X114029761Y-37064333D01*
X114077380Y-37159571D01*
X114077380Y-37445285D01*
X114029761Y-37540523D01*
X113982142Y-37588142D01*
X78815714Y-105947380D02*
X78815714Y-104947380D01*
X79053809Y-104947380D01*
X79196666Y-104995000D01*
X79291904Y-105090238D01*
X79339523Y-105185476D01*
X79387142Y-105375952D01*
X79387142Y-105518809D01*
X79339523Y-105709285D01*
X79291904Y-105804523D01*
X79196666Y-105899761D01*
X79053809Y-105947380D01*
X78815714Y-105947380D01*
X79768095Y-105042619D02*
X79815714Y-104995000D01*
X79910952Y-104947380D01*
X80149047Y-104947380D01*
X80244285Y-104995000D01*
X80291904Y-105042619D01*
X80339523Y-105137857D01*
X80339523Y-105233095D01*
X80291904Y-105375952D01*
X79720476Y-105947380D01*
X80339523Y-105947380D01*
X80958571Y-104947380D02*
X81053809Y-104947380D01*
X81149047Y-104995000D01*
X81196666Y-105042619D01*
X81244285Y-105137857D01*
X81291904Y-105328333D01*
X81291904Y-105566428D01*
X81244285Y-105756904D01*
X81196666Y-105852142D01*
X81149047Y-105899761D01*
X81053809Y-105947380D01*
X80958571Y-105947380D01*
X80863333Y-105899761D01*
X80815714Y-105852142D01*
X80768095Y-105756904D01*
X80720476Y-105566428D01*
X80720476Y-105328333D01*
X80768095Y-105137857D01*
X80815714Y-105042619D01*
X80863333Y-104995000D01*
X80958571Y-104947380D01*
X76135714Y-100652380D02*
X75564285Y-100652380D01*
X75850000Y-100652380D02*
X75850000Y-99652380D01*
X75754761Y-99795238D01*
X75659523Y-99890476D01*
X75564285Y-99938095D01*
X44190476Y-121252380D02*
X44190476Y-120252380D01*
X44523809Y-120966666D01*
X44857142Y-120252380D01*
X44857142Y-121252380D01*
X45238095Y-120252380D02*
X45857142Y-120252380D01*
X45523809Y-120633333D01*
X45666666Y-120633333D01*
X45761904Y-120680952D01*
X45809523Y-120728571D01*
X45857142Y-120823809D01*
X45857142Y-121061904D01*
X45809523Y-121157142D01*
X45761904Y-121204761D01*
X45666666Y-121252380D01*
X45380952Y-121252380D01*
X45285714Y-121204761D01*
X45238095Y-121157142D01*
X45833333Y-61802380D02*
X45500000Y-61326190D01*
X45261904Y-61802380D02*
X45261904Y-60802380D01*
X45642857Y-60802380D01*
X45738095Y-60850000D01*
X45785714Y-60897619D01*
X45833333Y-60992857D01*
X45833333Y-61135714D01*
X45785714Y-61230952D01*
X45738095Y-61278571D01*
X45642857Y-61326190D01*
X45261904Y-61326190D01*
X46738095Y-60802380D02*
X46261904Y-60802380D01*
X46214285Y-61278571D01*
X46261904Y-61230952D01*
X46357142Y-61183333D01*
X46595238Y-61183333D01*
X46690476Y-61230952D01*
X46738095Y-61278571D01*
X46785714Y-61373809D01*
X46785714Y-61611904D01*
X46738095Y-61707142D01*
X46690476Y-61754761D01*
X46595238Y-61802380D01*
X46357142Y-61802380D01*
X46261904Y-61754761D01*
X46214285Y-61707142D01*
X60501142Y-62077857D02*
X60548761Y-62125476D01*
X60596380Y-62268333D01*
X60596380Y-62363571D01*
X60548761Y-62506428D01*
X60453523Y-62601666D01*
X60358285Y-62649285D01*
X60167809Y-62696904D01*
X60024952Y-62696904D01*
X59834476Y-62649285D01*
X59739238Y-62601666D01*
X59644000Y-62506428D01*
X59596380Y-62363571D01*
X59596380Y-62268333D01*
X59644000Y-62125476D01*
X59691619Y-62077857D01*
X59596380Y-61173095D02*
X59596380Y-61649285D01*
X60072571Y-61696904D01*
X60024952Y-61649285D01*
X59977333Y-61554047D01*
X59977333Y-61315952D01*
X60024952Y-61220714D01*
X60072571Y-61173095D01*
X60167809Y-61125476D01*
X60405904Y-61125476D01*
X60501142Y-61173095D01*
X60548761Y-61220714D01*
X60596380Y-61315952D01*
X60596380Y-61554047D01*
X60548761Y-61649285D01*
X60501142Y-61696904D01*
X59596380Y-60506428D02*
X59596380Y-60411190D01*
X59644000Y-60315952D01*
X59691619Y-60268333D01*
X59786857Y-60220714D01*
X59977333Y-60173095D01*
X60215428Y-60173095D01*
X60405904Y-60220714D01*
X60501142Y-60268333D01*
X60548761Y-60315952D01*
X60596380Y-60411190D01*
X60596380Y-60506428D01*
X60548761Y-60601666D01*
X60501142Y-60649285D01*
X60405904Y-60696904D01*
X60215428Y-60744523D01*
X59977333Y-60744523D01*
X59786857Y-60696904D01*
X59691619Y-60649285D01*
X59644000Y-60601666D01*
X59596380Y-60506428D01*
X41653142Y-67609857D02*
X41700761Y-67657476D01*
X41748380Y-67800333D01*
X41748380Y-67895571D01*
X41700761Y-68038428D01*
X41605523Y-68133666D01*
X41510285Y-68181285D01*
X41319809Y-68228904D01*
X41176952Y-68228904D01*
X40986476Y-68181285D01*
X40891238Y-68133666D01*
X40796000Y-68038428D01*
X40748380Y-67895571D01*
X40748380Y-67800333D01*
X40796000Y-67657476D01*
X40843619Y-67609857D01*
X41748380Y-66657476D02*
X41748380Y-67228904D01*
X41748380Y-66943190D02*
X40748380Y-66943190D01*
X40891238Y-67038428D01*
X40986476Y-67133666D01*
X41034095Y-67228904D01*
X41748380Y-66181285D02*
X41748380Y-65990809D01*
X41700761Y-65895571D01*
X41653142Y-65847952D01*
X41510285Y-65752714D01*
X41319809Y-65705095D01*
X40938857Y-65705095D01*
X40843619Y-65752714D01*
X40796000Y-65800333D01*
X40748380Y-65895571D01*
X40748380Y-66086047D01*
X40796000Y-66181285D01*
X40843619Y-66228904D01*
X40938857Y-66276523D01*
X41176952Y-66276523D01*
X41272190Y-66228904D01*
X41319809Y-66181285D01*
X41367428Y-66086047D01*
X41367428Y-65895571D01*
X41319809Y-65800333D01*
X41272190Y-65752714D01*
X41176952Y-65705095D01*
X58883714Y-85842380D02*
X58883714Y-84842380D01*
X59121809Y-84842380D01*
X59264666Y-84890000D01*
X59359904Y-84985238D01*
X59407523Y-85080476D01*
X59455142Y-85270952D01*
X59455142Y-85413809D01*
X59407523Y-85604285D01*
X59359904Y-85699523D01*
X59264666Y-85794761D01*
X59121809Y-85842380D01*
X58883714Y-85842380D01*
X60407523Y-85842380D02*
X59836095Y-85842380D01*
X60121809Y-85842380D02*
X60121809Y-84842380D01*
X60026571Y-84985238D01*
X59931333Y-85080476D01*
X59836095Y-85128095D01*
X61264666Y-84842380D02*
X61074190Y-84842380D01*
X60978952Y-84890000D01*
X60931333Y-84937619D01*
X60836095Y-85080476D01*
X60788476Y-85270952D01*
X60788476Y-85651904D01*
X60836095Y-85747142D01*
X60883714Y-85794761D01*
X60978952Y-85842380D01*
X61169428Y-85842380D01*
X61264666Y-85794761D01*
X61312285Y-85747142D01*
X61359904Y-85651904D01*
X61359904Y-85413809D01*
X61312285Y-85318571D01*
X61264666Y-85270952D01*
X61169428Y-85223333D01*
X60978952Y-85223333D01*
X60883714Y-85270952D01*
X60836095Y-85318571D01*
X60788476Y-85413809D01*
X64435714Y-83852380D02*
X63864285Y-83852380D01*
X64150000Y-83852380D02*
X64150000Y-82852380D01*
X64054761Y-82995238D01*
X63959523Y-83090476D01*
X63864285Y-83138095D01*
X68462142Y-38183142D02*
X68414523Y-38230761D01*
X68271666Y-38278380D01*
X68176428Y-38278380D01*
X68033571Y-38230761D01*
X67938333Y-38135523D01*
X67890714Y-38040285D01*
X67843095Y-37849809D01*
X67843095Y-37706952D01*
X67890714Y-37516476D01*
X67938333Y-37421238D01*
X68033571Y-37326000D01*
X68176428Y-37278380D01*
X68271666Y-37278380D01*
X68414523Y-37326000D01*
X68462142Y-37373619D01*
X68843095Y-37373619D02*
X68890714Y-37326000D01*
X68985952Y-37278380D01*
X69224047Y-37278380D01*
X69319285Y-37326000D01*
X69366904Y-37373619D01*
X69414523Y-37468857D01*
X69414523Y-37564095D01*
X69366904Y-37706952D01*
X68795476Y-38278380D01*
X69414523Y-38278380D01*
X70319285Y-37278380D02*
X69843095Y-37278380D01*
X69795476Y-37754571D01*
X69843095Y-37706952D01*
X69938333Y-37659333D01*
X70176428Y-37659333D01*
X70271666Y-37706952D01*
X70319285Y-37754571D01*
X70366904Y-37849809D01*
X70366904Y-38087904D01*
X70319285Y-38183142D01*
X70271666Y-38230761D01*
X70176428Y-38278380D01*
X69938333Y-38278380D01*
X69843095Y-38230761D01*
X69795476Y-38183142D01*
X105042333Y-38690380D02*
X104566142Y-38690380D01*
X104566142Y-37690380D01*
X105804238Y-38023714D02*
X105804238Y-38690380D01*
X105566142Y-37642761D02*
X105328047Y-38357047D01*
X105947095Y-38357047D01*
X79406142Y-34059380D02*
X79072809Y-33583190D01*
X78834714Y-34059380D02*
X78834714Y-33059380D01*
X79215666Y-33059380D01*
X79310904Y-33107000D01*
X79358523Y-33154619D01*
X79406142Y-33249857D01*
X79406142Y-33392714D01*
X79358523Y-33487952D01*
X79310904Y-33535571D01*
X79215666Y-33583190D01*
X78834714Y-33583190D01*
X80358523Y-34059380D02*
X79787095Y-34059380D01*
X80072809Y-34059380D02*
X80072809Y-33059380D01*
X79977571Y-33202238D01*
X79882333Y-33297476D01*
X79787095Y-33345095D01*
X81310904Y-34059380D02*
X80739476Y-34059380D01*
X81025190Y-34059380D02*
X81025190Y-33059380D01*
X80929952Y-33202238D01*
X80834714Y-33297476D01*
X80739476Y-33345095D01*
X129567476Y-33387380D02*
X129567476Y-32387380D01*
X129900809Y-33101666D01*
X130234142Y-32387380D01*
X130234142Y-33387380D01*
X130615095Y-32387380D02*
X131234142Y-32387380D01*
X130900809Y-32768333D01*
X131043666Y-32768333D01*
X131138904Y-32815952D01*
X131186523Y-32863571D01*
X131234142Y-32958809D01*
X131234142Y-33196904D01*
X131186523Y-33292142D01*
X131138904Y-33339761D01*
X131043666Y-33387380D01*
X130757952Y-33387380D01*
X130662714Y-33339761D01*
X130615095Y-33292142D01*
X115856142Y-36718857D02*
X115903761Y-36766476D01*
X115951380Y-36909333D01*
X115951380Y-37004571D01*
X115903761Y-37147428D01*
X115808523Y-37242666D01*
X115713285Y-37290285D01*
X115522809Y-37337904D01*
X115379952Y-37337904D01*
X115189476Y-37290285D01*
X115094238Y-37242666D01*
X114999000Y-37147428D01*
X114951380Y-37004571D01*
X114951380Y-36909333D01*
X114999000Y-36766476D01*
X115046619Y-36718857D01*
X114951380Y-36385523D02*
X114951380Y-35766476D01*
X115332333Y-36099809D01*
X115332333Y-35956952D01*
X115379952Y-35861714D01*
X115427571Y-35814095D01*
X115522809Y-35766476D01*
X115760904Y-35766476D01*
X115856142Y-35814095D01*
X115903761Y-35861714D01*
X115951380Y-35956952D01*
X115951380Y-36242666D01*
X115903761Y-36337904D01*
X115856142Y-36385523D01*
X115046619Y-35385523D02*
X114999000Y-35337904D01*
X114951380Y-35242666D01*
X114951380Y-35004571D01*
X114999000Y-34909333D01*
X115046619Y-34861714D01*
X115141857Y-34814095D01*
X115237095Y-34814095D01*
X115379952Y-34861714D01*
X115951380Y-35433142D01*
X115951380Y-34814095D01*
X118190476Y-67404761D02*
X118333333Y-67452380D01*
X118571428Y-67452380D01*
X118666666Y-67404761D01*
X118714285Y-67357142D01*
X118761904Y-67261904D01*
X118761904Y-67166666D01*
X118714285Y-67071428D01*
X118666666Y-67023809D01*
X118571428Y-66976190D01*
X118380952Y-66928571D01*
X118285714Y-66880952D01*
X118238095Y-66833333D01*
X118190476Y-66738095D01*
X118190476Y-66642857D01*
X118238095Y-66547619D01*
X118285714Y-66500000D01*
X118380952Y-66452380D01*
X118619047Y-66452380D01*
X118761904Y-66500000D01*
X119095238Y-66452380D02*
X119333333Y-67452380D01*
X119523809Y-66738095D01*
X119714285Y-67452380D01*
X119952380Y-66452380D01*
X120857142Y-67452380D02*
X120285714Y-67452380D01*
X120571428Y-67452380D02*
X120571428Y-66452380D01*
X120476190Y-66595238D01*
X120380952Y-66690476D01*
X120285714Y-66738095D01*
X121476190Y-66452380D02*
X121571428Y-66452380D01*
X121666666Y-66500000D01*
X121714285Y-66547619D01*
X121761904Y-66642857D01*
X121809523Y-66833333D01*
X121809523Y-67071428D01*
X121761904Y-67261904D01*
X121714285Y-67357142D01*
X121666666Y-67404761D01*
X121571428Y-67452380D01*
X121476190Y-67452380D01*
X121380952Y-67404761D01*
X121333333Y-67357142D01*
X121285714Y-67261904D01*
X121238095Y-67071428D01*
X121238095Y-66833333D01*
X121285714Y-66642857D01*
X121333333Y-66547619D01*
X121380952Y-66500000D01*
X121476190Y-66452380D01*
X126362142Y-34637857D02*
X126409761Y-34685476D01*
X126457380Y-34828333D01*
X126457380Y-34923571D01*
X126409761Y-35066428D01*
X126314523Y-35161666D01*
X126219285Y-35209285D01*
X126028809Y-35256904D01*
X125885952Y-35256904D01*
X125695476Y-35209285D01*
X125600238Y-35161666D01*
X125505000Y-35066428D01*
X125457380Y-34923571D01*
X125457380Y-34828333D01*
X125505000Y-34685476D01*
X125552619Y-34637857D01*
X125790714Y-33780714D02*
X126457380Y-33780714D01*
X125409761Y-34018809D02*
X126124047Y-34256904D01*
X126124047Y-33637857D01*
X125457380Y-33066428D02*
X125457380Y-32971190D01*
X125505000Y-32875952D01*
X125552619Y-32828333D01*
X125647857Y-32780714D01*
X125838333Y-32733095D01*
X126076428Y-32733095D01*
X126266904Y-32780714D01*
X126362142Y-32828333D01*
X126409761Y-32875952D01*
X126457380Y-32971190D01*
X126457380Y-33066428D01*
X126409761Y-33161666D01*
X126362142Y-33209285D01*
X126266904Y-33256904D01*
X126076428Y-33304523D01*
X125838333Y-33304523D01*
X125647857Y-33256904D01*
X125552619Y-33209285D01*
X125505000Y-33161666D01*
X125457380Y-33066428D01*
X92532761Y-45229619D02*
X92437523Y-45182000D01*
X92342285Y-45086761D01*
X92199428Y-44943904D01*
X92104190Y-44896285D01*
X92008952Y-44896285D01*
X92056571Y-45134380D02*
X91961333Y-45086761D01*
X91866095Y-44991523D01*
X91818476Y-44801047D01*
X91818476Y-44467714D01*
X91866095Y-44277238D01*
X91961333Y-44182000D01*
X92056571Y-44134380D01*
X92247047Y-44134380D01*
X92342285Y-44182000D01*
X92437523Y-44277238D01*
X92485142Y-44467714D01*
X92485142Y-44801047D01*
X92437523Y-44991523D01*
X92342285Y-45086761D01*
X92247047Y-45134380D01*
X92056571Y-45134380D01*
X92818476Y-44134380D02*
X93437523Y-44134380D01*
X93104190Y-44515333D01*
X93247047Y-44515333D01*
X93342285Y-44562952D01*
X93389904Y-44610571D01*
X93437523Y-44705809D01*
X93437523Y-44943904D01*
X93389904Y-45039142D01*
X93342285Y-45086761D01*
X93247047Y-45134380D01*
X92961333Y-45134380D01*
X92866095Y-45086761D01*
X92818476Y-45039142D01*
X67406142Y-56903857D02*
X67453761Y-56951476D01*
X67501380Y-57094333D01*
X67501380Y-57189571D01*
X67453761Y-57332428D01*
X67358523Y-57427666D01*
X67263285Y-57475285D01*
X67072809Y-57522904D01*
X66929952Y-57522904D01*
X66739476Y-57475285D01*
X66644238Y-57427666D01*
X66549000Y-57332428D01*
X66501380Y-57189571D01*
X66501380Y-57094333D01*
X66549000Y-56951476D01*
X66596619Y-56903857D01*
X66596619Y-56522904D02*
X66549000Y-56475285D01*
X66501380Y-56380047D01*
X66501380Y-56141952D01*
X66549000Y-56046714D01*
X66596619Y-55999095D01*
X66691857Y-55951476D01*
X66787095Y-55951476D01*
X66929952Y-55999095D01*
X67501380Y-56570523D01*
X67501380Y-55951476D01*
X66834714Y-55094333D02*
X67501380Y-55094333D01*
X66453761Y-55332428D02*
X67168047Y-55570523D01*
X67168047Y-54951476D01*
X67037136Y-34187457D02*
X66703272Y-34187457D01*
X66703272Y-34712100D02*
X66703272Y-33710509D01*
X67180220Y-33710509D01*
X68086422Y-34712100D02*
X67514084Y-34712100D01*
X67800253Y-34712100D02*
X67800253Y-33710509D01*
X67704863Y-33853594D01*
X67609474Y-33948983D01*
X67514084Y-33996678D01*
X72560714Y-62121380D02*
X72560714Y-61121380D01*
X72798809Y-61121380D01*
X72941666Y-61169000D01*
X73036904Y-61264238D01*
X73084523Y-61359476D01*
X73132142Y-61549952D01*
X73132142Y-61692809D01*
X73084523Y-61883285D01*
X73036904Y-61978523D01*
X72941666Y-62073761D01*
X72798809Y-62121380D01*
X72560714Y-62121380D01*
X73989285Y-61454714D02*
X73989285Y-62121380D01*
X73751190Y-61073761D02*
X73513095Y-61788047D01*
X74132142Y-61788047D01*
X74417857Y-61121380D02*
X75036904Y-61121380D01*
X74703571Y-61502333D01*
X74846428Y-61502333D01*
X74941666Y-61549952D01*
X74989285Y-61597571D01*
X75036904Y-61692809D01*
X75036904Y-61930904D01*
X74989285Y-62026142D01*
X74941666Y-62073761D01*
X74846428Y-62121380D01*
X74560714Y-62121380D01*
X74465476Y-62073761D01*
X74417857Y-62026142D01*
X63519095Y-61914380D02*
X63519095Y-60914380D01*
X64090523Y-61914380D02*
X63661952Y-61342952D01*
X64090523Y-60914380D02*
X63519095Y-61485809D01*
X118190476Y-87404761D02*
X118333333Y-87452380D01*
X118571428Y-87452380D01*
X118666666Y-87404761D01*
X118714285Y-87357142D01*
X118761904Y-87261904D01*
X118761904Y-87166666D01*
X118714285Y-87071428D01*
X118666666Y-87023809D01*
X118571428Y-86976190D01*
X118380952Y-86928571D01*
X118285714Y-86880952D01*
X118238095Y-86833333D01*
X118190476Y-86738095D01*
X118190476Y-86642857D01*
X118238095Y-86547619D01*
X118285714Y-86500000D01*
X118380952Y-86452380D01*
X118619047Y-86452380D01*
X118761904Y-86500000D01*
X119095238Y-86452380D02*
X119333333Y-87452380D01*
X119523809Y-86738095D01*
X119714285Y-87452380D01*
X119952380Y-86452380D01*
X120857142Y-87452380D02*
X120285714Y-87452380D01*
X120571428Y-87452380D02*
X120571428Y-86452380D01*
X120476190Y-86595238D01*
X120380952Y-86690476D01*
X120285714Y-86738095D01*
X121809523Y-87452380D02*
X121238095Y-87452380D01*
X121523809Y-87452380D02*
X121523809Y-86452380D01*
X121428571Y-86595238D01*
X121333333Y-86690476D01*
X121238095Y-86738095D01*
X99479142Y-56203642D02*
X99431523Y-56251261D01*
X99288666Y-56298880D01*
X99193428Y-56298880D01*
X99050571Y-56251261D01*
X98955333Y-56156023D01*
X98907714Y-56060785D01*
X98860095Y-55870309D01*
X98860095Y-55727452D01*
X98907714Y-55536976D01*
X98955333Y-55441738D01*
X99050571Y-55346500D01*
X99193428Y-55298880D01*
X99288666Y-55298880D01*
X99431523Y-55346500D01*
X99479142Y-55394119D01*
X99812476Y-55298880D02*
X100431523Y-55298880D01*
X100098190Y-55679833D01*
X100241047Y-55679833D01*
X100336285Y-55727452D01*
X100383904Y-55775071D01*
X100431523Y-55870309D01*
X100431523Y-56108404D01*
X100383904Y-56203642D01*
X100336285Y-56251261D01*
X100241047Y-56298880D01*
X99955333Y-56298880D01*
X99860095Y-56251261D01*
X99812476Y-56203642D01*
X101288666Y-55632214D02*
X101288666Y-56298880D01*
X101050571Y-55251261D02*
X100812476Y-55965547D01*
X101431523Y-55965547D01*
X93740142Y-53778142D02*
X93692523Y-53825761D01*
X93549666Y-53873380D01*
X93454428Y-53873380D01*
X93311571Y-53825761D01*
X93216333Y-53730523D01*
X93168714Y-53635285D01*
X93121095Y-53444809D01*
X93121095Y-53301952D01*
X93168714Y-53111476D01*
X93216333Y-53016238D01*
X93311571Y-52921000D01*
X93454428Y-52873380D01*
X93549666Y-52873380D01*
X93692523Y-52921000D01*
X93740142Y-52968619D01*
X94073476Y-52873380D02*
X94692523Y-52873380D01*
X94359190Y-53254333D01*
X94502047Y-53254333D01*
X94597285Y-53301952D01*
X94644904Y-53349571D01*
X94692523Y-53444809D01*
X94692523Y-53682904D01*
X94644904Y-53778142D01*
X94597285Y-53825761D01*
X94502047Y-53873380D01*
X94216333Y-53873380D01*
X94121095Y-53825761D01*
X94073476Y-53778142D01*
X95597285Y-52873380D02*
X95121095Y-52873380D01*
X95073476Y-53349571D01*
X95121095Y-53301952D01*
X95216333Y-53254333D01*
X95454428Y-53254333D01*
X95549666Y-53301952D01*
X95597285Y-53349571D01*
X95644904Y-53444809D01*
X95644904Y-53682904D01*
X95597285Y-53778142D01*
X95549666Y-53825761D01*
X95454428Y-53873380D01*
X95216333Y-53873380D01*
X95121095Y-53825761D01*
X95073476Y-53778142D01*
X69522142Y-64978142D02*
X69474523Y-65025761D01*
X69331666Y-65073380D01*
X69236428Y-65073380D01*
X69093571Y-65025761D01*
X68998333Y-64930523D01*
X68950714Y-64835285D01*
X68903095Y-64644809D01*
X68903095Y-64501952D01*
X68950714Y-64311476D01*
X68998333Y-64216238D01*
X69093571Y-64121000D01*
X69236428Y-64073380D01*
X69331666Y-64073380D01*
X69474523Y-64121000D01*
X69522142Y-64168619D01*
X70379285Y-64406714D02*
X70379285Y-65073380D01*
X70141190Y-64025761D02*
X69903095Y-64740047D01*
X70522142Y-64740047D01*
X71045952Y-64501952D02*
X70950714Y-64454333D01*
X70903095Y-64406714D01*
X70855476Y-64311476D01*
X70855476Y-64263857D01*
X70903095Y-64168619D01*
X70950714Y-64121000D01*
X71045952Y-64073380D01*
X71236428Y-64073380D01*
X71331666Y-64121000D01*
X71379285Y-64168619D01*
X71426904Y-64263857D01*
X71426904Y-64311476D01*
X71379285Y-64406714D01*
X71331666Y-64454333D01*
X71236428Y-64501952D01*
X71045952Y-64501952D01*
X70950714Y-64549571D01*
X70903095Y-64597190D01*
X70855476Y-64692428D01*
X70855476Y-64882904D01*
X70903095Y-64978142D01*
X70950714Y-65025761D01*
X71045952Y-65073380D01*
X71236428Y-65073380D01*
X71331666Y-65025761D01*
X71379285Y-64978142D01*
X71426904Y-64882904D01*
X71426904Y-64692428D01*
X71379285Y-64597190D01*
X71331666Y-64549571D01*
X71236428Y-64501952D01*
X69488142Y-63093380D02*
X69154809Y-62617190D01*
X68916714Y-63093380D02*
X68916714Y-62093380D01*
X69297666Y-62093380D01*
X69392904Y-62141000D01*
X69440523Y-62188619D01*
X69488142Y-62283857D01*
X69488142Y-62426714D01*
X69440523Y-62521952D01*
X69392904Y-62569571D01*
X69297666Y-62617190D01*
X68916714Y-62617190D01*
X69821476Y-62093380D02*
X70440523Y-62093380D01*
X70107190Y-62474333D01*
X70250047Y-62474333D01*
X70345285Y-62521952D01*
X70392904Y-62569571D01*
X70440523Y-62664809D01*
X70440523Y-62902904D01*
X70392904Y-62998142D01*
X70345285Y-63045761D01*
X70250047Y-63093380D01*
X69964333Y-63093380D01*
X69869095Y-63045761D01*
X69821476Y-62998142D01*
X71297666Y-62426714D02*
X71297666Y-63093380D01*
X71059571Y-62045761D02*
X70821476Y-62760047D01*
X71440523Y-62760047D01*
X92118142Y-39192142D02*
X92070523Y-39239761D01*
X91927666Y-39287380D01*
X91832428Y-39287380D01*
X91689571Y-39239761D01*
X91594333Y-39144523D01*
X91546714Y-39049285D01*
X91499095Y-38858809D01*
X91499095Y-38715952D01*
X91546714Y-38525476D01*
X91594333Y-38430238D01*
X91689571Y-38335000D01*
X91832428Y-38287380D01*
X91927666Y-38287380D01*
X92070523Y-38335000D01*
X92118142Y-38382619D01*
X92451476Y-38287380D02*
X93070523Y-38287380D01*
X92737190Y-38668333D01*
X92880047Y-38668333D01*
X92975285Y-38715952D01*
X93022904Y-38763571D01*
X93070523Y-38858809D01*
X93070523Y-39096904D01*
X93022904Y-39192142D01*
X92975285Y-39239761D01*
X92880047Y-39287380D01*
X92594333Y-39287380D01*
X92499095Y-39239761D01*
X92451476Y-39192142D01*
X94022904Y-39287380D02*
X93451476Y-39287380D01*
X93737190Y-39287380D02*
X93737190Y-38287380D01*
X93641952Y-38430238D01*
X93546714Y-38525476D01*
X93451476Y-38573095D01*
X94445142Y-64265142D02*
X94397523Y-64312761D01*
X94254666Y-64360380D01*
X94159428Y-64360380D01*
X94016571Y-64312761D01*
X93921333Y-64217523D01*
X93873714Y-64122285D01*
X93826095Y-63931809D01*
X93826095Y-63788952D01*
X93873714Y-63598476D01*
X93921333Y-63503238D01*
X94016571Y-63408000D01*
X94159428Y-63360380D01*
X94254666Y-63360380D01*
X94397523Y-63408000D01*
X94445142Y-63455619D01*
X95302285Y-63693714D02*
X95302285Y-64360380D01*
X95064190Y-63312761D02*
X94826095Y-64027047D01*
X95445142Y-64027047D01*
X95873714Y-64360380D02*
X96064190Y-64360380D01*
X96159428Y-64312761D01*
X96207047Y-64265142D01*
X96302285Y-64122285D01*
X96349904Y-63931809D01*
X96349904Y-63550857D01*
X96302285Y-63455619D01*
X96254666Y-63408000D01*
X96159428Y-63360380D01*
X95968952Y-63360380D01*
X95873714Y-63408000D01*
X95826095Y-63455619D01*
X95778476Y-63550857D01*
X95778476Y-63788952D01*
X95826095Y-63884190D01*
X95873714Y-63931809D01*
X95968952Y-63979428D01*
X96159428Y-63979428D01*
X96254666Y-63931809D01*
X96302285Y-63884190D01*
X96349904Y-63788952D01*
X121762142Y-48282992D02*
X121714523Y-48330611D01*
X121571666Y-48378230D01*
X121476428Y-48378230D01*
X121333571Y-48330611D01*
X121238333Y-48235373D01*
X121190714Y-48140135D01*
X121143095Y-47949659D01*
X121143095Y-47806802D01*
X121190714Y-47616326D01*
X121238333Y-47521088D01*
X121333571Y-47425850D01*
X121476428Y-47378230D01*
X121571666Y-47378230D01*
X121714523Y-47425850D01*
X121762142Y-47473469D01*
X122619285Y-47711564D02*
X122619285Y-48378230D01*
X122381190Y-47330611D02*
X122143095Y-48044897D01*
X122762142Y-48044897D01*
X123047857Y-47378230D02*
X123714523Y-47378230D01*
X123285952Y-48378230D01*
X71867333Y-42565380D02*
X71534000Y-42089190D01*
X71295904Y-42565380D02*
X71295904Y-41565380D01*
X71676857Y-41565380D01*
X71772095Y-41613000D01*
X71819714Y-41660619D01*
X71867333Y-41755857D01*
X71867333Y-41898714D01*
X71819714Y-41993952D01*
X71772095Y-42041571D01*
X71676857Y-42089190D01*
X71295904Y-42089190D01*
X72200666Y-41565380D02*
X72867333Y-41565380D01*
X72438761Y-42565380D01*
X58768714Y-125854380D02*
X58768714Y-124854380D01*
X59006809Y-124854380D01*
X59149666Y-124902000D01*
X59244904Y-124997238D01*
X59292523Y-125092476D01*
X59340142Y-125282952D01*
X59340142Y-125425809D01*
X59292523Y-125616285D01*
X59244904Y-125711523D01*
X59149666Y-125806761D01*
X59006809Y-125854380D01*
X58768714Y-125854380D01*
X60292523Y-125854380D02*
X59721095Y-125854380D01*
X60006809Y-125854380D02*
X60006809Y-124854380D01*
X59911571Y-124997238D01*
X59816333Y-125092476D01*
X59721095Y-125140095D01*
X60863952Y-125282952D02*
X60768714Y-125235333D01*
X60721095Y-125187714D01*
X60673476Y-125092476D01*
X60673476Y-125044857D01*
X60721095Y-124949619D01*
X60768714Y-124902000D01*
X60863952Y-124854380D01*
X61054428Y-124854380D01*
X61149666Y-124902000D01*
X61197285Y-124949619D01*
X61244904Y-125044857D01*
X61244904Y-125092476D01*
X61197285Y-125187714D01*
X61149666Y-125235333D01*
X61054428Y-125282952D01*
X60863952Y-125282952D01*
X60768714Y-125330571D01*
X60721095Y-125378190D01*
X60673476Y-125473428D01*
X60673476Y-125663904D01*
X60721095Y-125759142D01*
X60768714Y-125806761D01*
X60863952Y-125854380D01*
X61054428Y-125854380D01*
X61149666Y-125806761D01*
X61197285Y-125759142D01*
X61244904Y-125663904D01*
X61244904Y-125473428D01*
X61197285Y-125378190D01*
X61149666Y-125330571D01*
X61054428Y-125282952D01*
X64435714Y-123852380D02*
X63864285Y-123852380D01*
X64150000Y-123852380D02*
X64150000Y-122852380D01*
X64054761Y-122995238D01*
X63959523Y-123090476D01*
X63864285Y-123138095D01*
X84785333Y-58532380D02*
X84309142Y-58532380D01*
X84309142Y-57532380D01*
X85594857Y-57532380D02*
X85118666Y-57532380D01*
X85071047Y-58008571D01*
X85118666Y-57960952D01*
X85213904Y-57913333D01*
X85452000Y-57913333D01*
X85547238Y-57960952D01*
X85594857Y-58008571D01*
X85642476Y-58103809D01*
X85642476Y-58341904D01*
X85594857Y-58437142D01*
X85547238Y-58484761D01*
X85452000Y-58532380D01*
X85213904Y-58532380D01*
X85118666Y-58484761D01*
X85071047Y-58437142D01*
X41256476Y-39167380D02*
X41256476Y-38167380D01*
X41589809Y-38881666D01*
X41923142Y-38167380D01*
X41923142Y-39167380D01*
X42304095Y-38167380D02*
X42923142Y-38167380D01*
X42589809Y-38548333D01*
X42732666Y-38548333D01*
X42827904Y-38595952D01*
X42875523Y-38643571D01*
X42923142Y-38738809D01*
X42923142Y-38976904D01*
X42875523Y-39072142D01*
X42827904Y-39119761D01*
X42732666Y-39167380D01*
X42446952Y-39167380D01*
X42351714Y-39119761D01*
X42304095Y-39072142D01*
X118456142Y-64542142D02*
X118408523Y-64589761D01*
X118265666Y-64637380D01*
X118170428Y-64637380D01*
X118027571Y-64589761D01*
X117932333Y-64494523D01*
X117884714Y-64399285D01*
X117837095Y-64208809D01*
X117837095Y-64065952D01*
X117884714Y-63875476D01*
X117932333Y-63780238D01*
X118027571Y-63685000D01*
X118170428Y-63637380D01*
X118265666Y-63637380D01*
X118408523Y-63685000D01*
X118456142Y-63732619D01*
X119313285Y-63970714D02*
X119313285Y-64637380D01*
X119075190Y-63589761D02*
X118837095Y-64304047D01*
X119456142Y-64304047D01*
X120313285Y-63637380D02*
X119837095Y-63637380D01*
X119789476Y-64113571D01*
X119837095Y-64065952D01*
X119932333Y-64018333D01*
X120170428Y-64018333D01*
X120265666Y-64065952D01*
X120313285Y-64113571D01*
X120360904Y-64208809D01*
X120360904Y-64446904D01*
X120313285Y-64542142D01*
X120265666Y-64589761D01*
X120170428Y-64637380D01*
X119932333Y-64637380D01*
X119837095Y-64589761D01*
X119789476Y-64542142D01*
X68615142Y-36204142D02*
X68567523Y-36251761D01*
X68424666Y-36299380D01*
X68329428Y-36299380D01*
X68186571Y-36251761D01*
X68091333Y-36156523D01*
X68043714Y-36061285D01*
X67996095Y-35870809D01*
X67996095Y-35727952D01*
X68043714Y-35537476D01*
X68091333Y-35442238D01*
X68186571Y-35347000D01*
X68329428Y-35299380D01*
X68424666Y-35299380D01*
X68567523Y-35347000D01*
X68615142Y-35394619D01*
X68948476Y-35299380D02*
X69567523Y-35299380D01*
X69234190Y-35680333D01*
X69377047Y-35680333D01*
X69472285Y-35727952D01*
X69519904Y-35775571D01*
X69567523Y-35870809D01*
X69567523Y-36108904D01*
X69519904Y-36204142D01*
X69472285Y-36251761D01*
X69377047Y-36299380D01*
X69091333Y-36299380D01*
X68996095Y-36251761D01*
X68948476Y-36204142D01*
X70424666Y-35299380D02*
X70234190Y-35299380D01*
X70138952Y-35347000D01*
X70091333Y-35394619D01*
X69996095Y-35537476D01*
X69948476Y-35727952D01*
X69948476Y-36108904D01*
X69996095Y-36204142D01*
X70043714Y-36251761D01*
X70138952Y-36299380D01*
X70329428Y-36299380D01*
X70424666Y-36251761D01*
X70472285Y-36204142D01*
X70519904Y-36108904D01*
X70519904Y-35870809D01*
X70472285Y-35775571D01*
X70424666Y-35727952D01*
X70329428Y-35680333D01*
X70138952Y-35680333D01*
X70043714Y-35727952D01*
X69996095Y-35775571D01*
X69948476Y-35870809D01*
X104649714Y-61384380D02*
X104649714Y-60384380D01*
X104887809Y-60384380D01*
X105030666Y-60432000D01*
X105125904Y-60527238D01*
X105173523Y-60622476D01*
X105221142Y-60812952D01*
X105221142Y-60955809D01*
X105173523Y-61146285D01*
X105125904Y-61241523D01*
X105030666Y-61336761D01*
X104887809Y-61384380D01*
X104649714Y-61384380D01*
X106078285Y-60717714D02*
X106078285Y-61384380D01*
X105840190Y-60336761D02*
X105602095Y-61051047D01*
X106221142Y-61051047D01*
X107125904Y-61384380D02*
X106554476Y-61384380D01*
X106840190Y-61384380D02*
X106840190Y-60384380D01*
X106744952Y-60527238D01*
X106649714Y-60622476D01*
X106554476Y-60670095D01*
X100522095Y-61754380D02*
X100522095Y-60754380D01*
X101093523Y-61754380D02*
X100664952Y-61182952D01*
X101093523Y-60754380D02*
X100522095Y-61325809D01*
D11*
X96732000Y-40696252D02*
X96732000Y-40173748D01*
X98202000Y-40696252D02*
X98202000Y-40173748D01*
X103650000Y-124550000D02*
X96350000Y-124550000D01*
X96350000Y-119050000D02*
X96350000Y-120200000D01*
X103650000Y-119050000D02*
X96350000Y-119050000D01*
X49515000Y-77114000D02*
X46855000Y-77114000D01*
X46855000Y-77114000D02*
X46855000Y-74514000D01*
X49515000Y-74514000D02*
X46855000Y-74514000D01*
X49515000Y-78384000D02*
X49515000Y-79714000D01*
X49515000Y-77114000D02*
X49515000Y-74514000D01*
X49515000Y-79714000D02*
X48185000Y-79714000D01*
X52900000Y-122100000D02*
X67100000Y-122100000D01*
X67100000Y-122100000D02*
X67100000Y-107900000D01*
X52900000Y-107900000D02*
X52900000Y-122100000D01*
X67100000Y-107900000D02*
X52900000Y-107900000D01*
X94328000Y-40696252D02*
X94328000Y-40173748D01*
X95798000Y-40696252D02*
X95798000Y-40173748D01*
X68206064Y-49226000D02*
X67751936Y-49226000D01*
X68206064Y-50696000D02*
X67751936Y-50696000D01*
X68716000Y-40255748D02*
X68716000Y-40778252D01*
X67246000Y-40255748D02*
X67246000Y-40778252D01*
D10*
X96166000Y-30040000D02*
X110266000Y-30040000D01*
X110266000Y-37540000D02*
X96166000Y-37540000D01*
X96166000Y-37540000D02*
X96166000Y-30040000D01*
X101241000Y-27740000D02*
X101241000Y-30040000D01*
X99941000Y-30040000D02*
X99941000Y-27740000D01*
X99941000Y-27740000D02*
X101241000Y-27740000D01*
X101241000Y-30040000D02*
X99941000Y-30040000D01*
X110266000Y-30040000D02*
X110266000Y-37540000D01*
D11*
X135738000Y-60372252D02*
X135738000Y-59849748D01*
X137208000Y-60372252D02*
X137208000Y-59849748D01*
X64466000Y-45589000D02*
X64466000Y-48189000D01*
X67126000Y-45589000D02*
X67126000Y-48189000D01*
X64466000Y-45589000D02*
X67126000Y-45589000D01*
X64466000Y-44319000D02*
X64466000Y-42989000D01*
X64466000Y-42989000D02*
X65796000Y-42989000D01*
X64466000Y-48189000D02*
X67126000Y-48189000D01*
X93523748Y-48334000D02*
X94046252Y-48334000D01*
X93523748Y-46864000D02*
X94046252Y-46864000D01*
X120189252Y-51367000D02*
X119666748Y-51367000D01*
X120189252Y-52837000D02*
X119666748Y-52837000D01*
X60200000Y-34400000D02*
X60200000Y-32400000D01*
X60200000Y-28600000D02*
X50800000Y-28600000D01*
X50800000Y-34400000D02*
X50800000Y-32400000D01*
X50800000Y-30500000D02*
X50800000Y-28600000D01*
X60200000Y-30500000D02*
X60200000Y-28600000D01*
X139501000Y-64700000D02*
X132701000Y-64700000D01*
X132701000Y-64700000D02*
X132701000Y-71500000D01*
X132701000Y-71500000D02*
X139501000Y-71500000D01*
X139501000Y-71500000D02*
X139501000Y-64700000D01*
X83650000Y-119050000D02*
X76350000Y-119050000D01*
X76350000Y-119050000D02*
X76350000Y-120200000D01*
X83650000Y-124550000D02*
X76350000Y-124550000D01*
X72954000Y-41400000D02*
X76254000Y-41400000D01*
X72954000Y-41400000D02*
X72954000Y-36000000D01*
X76254000Y-41400000D02*
X76254000Y-36000000D01*
X116350000Y-119050000D02*
X116350000Y-120200000D01*
X123650000Y-119050000D02*
X116350000Y-119050000D01*
X123650000Y-124550000D02*
X116350000Y-124550000D01*
X134241936Y-53154000D02*
X134696064Y-53154000D01*
X134241936Y-54624000D02*
X134696064Y-54624000D01*
X99363000Y-48547000D02*
X99363000Y-49197000D01*
X96243000Y-48547000D02*
X96243000Y-50222000D01*
X99363000Y-48547000D02*
X99363000Y-47897000D01*
X96243000Y-48547000D02*
X96243000Y-47897000D01*
X130599000Y-46368102D02*
X130599000Y-45845598D01*
X132069000Y-46368102D02*
X132069000Y-45845598D01*
X86346000Y-36345064D02*
X86346000Y-35890936D01*
X87816000Y-36345064D02*
X87816000Y-35890936D01*
X46261252Y-65265000D02*
X45738748Y-65265000D01*
X46261252Y-66735000D02*
X45738748Y-66735000D01*
X96350000Y-79050000D02*
X96350000Y-80200000D01*
X103650000Y-79050000D02*
X96350000Y-79050000D01*
X103650000Y-84550000D02*
X96350000Y-84550000D01*
X52900000Y-67900000D02*
X52900000Y-82100000D01*
X67100000Y-67900000D02*
X52900000Y-67900000D01*
X67100000Y-82100000D02*
X67100000Y-67900000D01*
X52900000Y-82100000D02*
X67100000Y-82100000D01*
X116350000Y-99050000D02*
X123650000Y-99050000D01*
X123650000Y-104550000D02*
X123650000Y-103400000D01*
X116350000Y-104550000D02*
X123650000Y-104550000D01*
X48139000Y-83354000D02*
X46809000Y-83354000D01*
X52009000Y-83354000D02*
X52009000Y-80694000D01*
X49409000Y-83354000D02*
X49409000Y-80694000D01*
X49409000Y-80694000D02*
X52009000Y-80694000D01*
X49409000Y-83354000D02*
X52009000Y-83354000D01*
X46809000Y-83354000D02*
X46809000Y-82024000D01*
X92900000Y-87900000D02*
X92900000Y-102100000D01*
X107100000Y-87900000D02*
X92900000Y-87900000D01*
X107100000Y-102100000D02*
X107100000Y-87900000D01*
X92900000Y-102100000D02*
X107100000Y-102100000D01*
X98990000Y-40696252D02*
X98990000Y-40173748D01*
X100460000Y-40696252D02*
X100460000Y-40173748D01*
X68234000Y-52597748D02*
X68234000Y-53120252D01*
X69704000Y-52597748D02*
X69704000Y-53120252D01*
X87100000Y-122100000D02*
X87100000Y-107900000D01*
X72900000Y-107900000D02*
X72900000Y-122100000D01*
X72900000Y-122100000D02*
X87100000Y-122100000D01*
X87100000Y-107900000D02*
X72900000Y-107900000D01*
X72079000Y-52597748D02*
X72079000Y-53120252D01*
X70609000Y-52597748D02*
X70609000Y-53120252D01*
X41280179Y-61180000D02*
G75*
G03*
X41280179Y-61180000I-280179J0D01*
G01*
X36200000Y-52470000D02*
G75*
G03*
X36200000Y-52470000I0J0D01*
G01*
X112900000Y-107900000D02*
X112900000Y-122100000D01*
X127100000Y-122100000D02*
X127100000Y-107900000D01*
X112900000Y-122100000D02*
X127100000Y-122100000D01*
X127100000Y-107900000D02*
X112900000Y-107900000D01*
X69577186Y-44899000D02*
X70031314Y-44899000D01*
X69577186Y-46369000D02*
X70031314Y-46369000D01*
X93090000Y-32813000D02*
X93090000Y-35413000D01*
X95750000Y-30213000D02*
X95750000Y-31543000D01*
X93090000Y-35413000D02*
X95750000Y-35413000D01*
X95750000Y-32813000D02*
X95750000Y-35413000D01*
X93090000Y-32813000D02*
X95750000Y-32813000D01*
X94420000Y-30213000D02*
X95750000Y-30213000D01*
X76615000Y-58855000D02*
X81855000Y-58855000D01*
X81855000Y-58540000D02*
X81855000Y-58855000D01*
X81855000Y-56115000D02*
X81855000Y-56430000D01*
X76615000Y-58540000D02*
X76615000Y-58855000D01*
X76615000Y-56115000D02*
X81855000Y-56115000D01*
X76615000Y-56115000D02*
X76615000Y-56430000D01*
X124764000Y-61139748D02*
X124764000Y-61662252D01*
X123294000Y-61139748D02*
X123294000Y-61662252D01*
X139464000Y-50506401D02*
X138350000Y-50506401D01*
X137880000Y-51866401D02*
X137140000Y-51866401D01*
X139295000Y-50866401D02*
X138350000Y-50866401D01*
X138905000Y-47715600D02*
X138505000Y-47715600D01*
X136670000Y-50666401D02*
X135621000Y-50666401D01*
X136670000Y-51186401D02*
X135958000Y-51186401D01*
X138764000Y-51466401D02*
X136256000Y-51466401D01*
X136670000Y-50866401D02*
X135725000Y-50866401D01*
X136670000Y-50546401D02*
X135570000Y-50546401D01*
X139584000Y-49945401D02*
X138350000Y-49945401D01*
X136670000Y-49985401D02*
X135439000Y-49985401D01*
X138047000Y-51826401D02*
X136973000Y-51826401D01*
X136670000Y-51346401D02*
X136114000Y-51346401D01*
X139572000Y-50065401D02*
X138350000Y-50065401D01*
X136670000Y-51066401D02*
X135860000Y-51066401D01*
X138906000Y-51346401D02*
X138350000Y-51346401D01*
X136670000Y-49865401D02*
X135431000Y-49865401D01*
X136670000Y-50826401D02*
X135702000Y-50826401D01*
X139581000Y-49985401D02*
X138350000Y-49985401D01*
X139590000Y-49825401D02*
X138350000Y-49825401D01*
X136670000Y-51266401D02*
X136032000Y-51266401D01*
X138450000Y-51666401D02*
X136570000Y-51666401D01*
X136670000Y-51226401D02*
X135994000Y-51226401D01*
X136670000Y-50385401D02*
X135516000Y-50385401D01*
X136670000Y-50225401D02*
X135476000Y-50225401D01*
X139270000Y-50906401D02*
X138350000Y-50906401D01*
X139589000Y-49865401D02*
X138350000Y-49865401D01*
X136670000Y-50586401D02*
X135586000Y-50586401D01*
X136670000Y-50626401D02*
X135603000Y-50626401D01*
X138710000Y-51506401D02*
X136310000Y-51506401D01*
X136670000Y-50746401D02*
X135659000Y-50746401D01*
X136670000Y-50025401D02*
X135443000Y-50025401D01*
X139492000Y-50425401D02*
X138350000Y-50425401D01*
X136670000Y-50105401D02*
X135454000Y-50105401D01*
X136670000Y-51146401D02*
X135923000Y-51146401D01*
X139245000Y-50946401D02*
X138350000Y-50946401D01*
X139434000Y-50586401D02*
X138350000Y-50586401D01*
X139544000Y-50225401D02*
X138350000Y-50225401D01*
X136670000Y-49785401D02*
X135430000Y-49785401D01*
X136670000Y-50906401D02*
X135750000Y-50906401D01*
X139399000Y-50666401D02*
X138350000Y-50666401D01*
X139417000Y-50626401D02*
X138350000Y-50626401D01*
X139590000Y-49785401D02*
X138350000Y-49785401D01*
X136670000Y-50145401D02*
X135460000Y-50145401D01*
X136670000Y-49945401D02*
X135436000Y-49945401D01*
X139361000Y-50746401D02*
X138350000Y-50746401D01*
X139450000Y-50546401D02*
X138350000Y-50546401D01*
X139380000Y-50706401D02*
X138350000Y-50706401D01*
X136670000Y-50065401D02*
X135448000Y-50065401D01*
X139062000Y-51186401D02*
X138350000Y-51186401D01*
X139577000Y-50025401D02*
X138350000Y-50025401D01*
X138861000Y-51386401D02*
X136159000Y-51386401D01*
X138652000Y-51546401D02*
X136368000Y-51546401D01*
X138988000Y-51266401D02*
X138350000Y-51266401D01*
X136670000Y-50345401D02*
X135505000Y-50345401D01*
X139340000Y-50786401D02*
X138350000Y-50786401D01*
X136670000Y-50986401D02*
X135802000Y-50986401D01*
X139535000Y-50265401D02*
X138350000Y-50265401D01*
X139566000Y-50105401D02*
X138350000Y-50105401D01*
X139478000Y-50465401D02*
X138350000Y-50465401D01*
X139560000Y-50145401D02*
X138350000Y-50145401D01*
X136670000Y-50265401D02*
X135485000Y-50265401D01*
X136670000Y-50305401D02*
X135494000Y-50305401D01*
X139587000Y-49905401D02*
X138350000Y-49905401D01*
X138590000Y-51586401D02*
X136430000Y-51586401D01*
X139526000Y-50305401D02*
X138350000Y-50305401D01*
X139160000Y-51066401D02*
X138350000Y-51066401D01*
X136670000Y-49905401D02*
X135433000Y-49905401D01*
X138705000Y-47515600D02*
X138705000Y-47915600D01*
X136670000Y-50465401D02*
X135542000Y-50465401D01*
X138523000Y-51626401D02*
X136497000Y-51626401D01*
X139318000Y-50826401D02*
X138350000Y-50826401D01*
X139504000Y-50385401D02*
X138350000Y-50385401D01*
X136670000Y-50786401D02*
X135680000Y-50786401D01*
X138814000Y-51426401D02*
X136206000Y-51426401D01*
X138369000Y-51706401D02*
X136651000Y-51706401D01*
X138948000Y-51306401D02*
X138350000Y-51306401D01*
X136670000Y-50946401D02*
X135775000Y-50946401D01*
X138278000Y-51746401D02*
X136742000Y-51746401D01*
X136670000Y-50506401D02*
X135556000Y-50506401D01*
X136670000Y-50185401D02*
X135468000Y-50185401D01*
X139026000Y-51226401D02*
X138350000Y-51226401D01*
X136670000Y-51306401D02*
X136072000Y-51306401D01*
X139129000Y-51106401D02*
X138350000Y-51106401D01*
X138174000Y-51786401D02*
X136846000Y-51786401D01*
X136670000Y-50425401D02*
X135528000Y-50425401D01*
X139190000Y-51026401D02*
X138350000Y-51026401D01*
X136670000Y-51106401D02*
X135891000Y-51106401D01*
X136670000Y-49825401D02*
X135430000Y-49825401D01*
X139515000Y-50345401D02*
X138350000Y-50345401D01*
X139218000Y-50986401D02*
X138350000Y-50986401D01*
X136670000Y-51026401D02*
X135830000Y-51026401D01*
X139097000Y-51146401D02*
X138350000Y-51146401D01*
X136670000Y-50706401D02*
X135640000Y-50706401D01*
X139552000Y-50185401D02*
X138350000Y-50185401D01*
X139630000Y-49785401D02*
G75*
G03*
X139630000Y-49785401I-2120000J0D01*
G01*
X126137000Y-39651850D02*
X126137000Y-41326850D01*
X129257000Y-39651850D02*
X129257000Y-39001850D01*
X126137000Y-39651850D02*
X126137000Y-39001850D01*
X129257000Y-39651850D02*
X129257000Y-40301850D01*
X92900000Y-82100000D02*
X107100000Y-82100000D01*
X107100000Y-67900000D02*
X92900000Y-67900000D01*
X107100000Y-82100000D02*
X107100000Y-67900000D01*
X92900000Y-67900000D02*
X92900000Y-82100000D01*
X62533000Y-32394936D02*
X62533000Y-32849064D01*
X64003000Y-32394936D02*
X64003000Y-32849064D01*
X64063000Y-52597748D02*
X64063000Y-53120252D01*
X65533000Y-52597748D02*
X65533000Y-53120252D01*
X87100000Y-102100000D02*
X87100000Y-87900000D01*
X72900000Y-102100000D02*
X87100000Y-102100000D01*
X87100000Y-87900000D02*
X72900000Y-87900000D01*
X72900000Y-87900000D02*
X72900000Y-102100000D01*
X120155064Y-54689000D02*
X119700936Y-54689000D01*
X120155064Y-56159000D02*
X119700936Y-56159000D01*
X116350000Y-79050000D02*
X116350000Y-80200000D01*
X123650000Y-79050000D02*
X116350000Y-79050000D01*
X123650000Y-84550000D02*
X116350000Y-84550000D01*
X96350000Y-99050000D02*
X103650000Y-99050000D01*
X96350000Y-104550000D02*
X103650000Y-104550000D01*
X103650000Y-104550000D02*
X103650000Y-103400000D01*
X126966000Y-61203936D02*
X126966000Y-61658064D01*
X125496000Y-61203936D02*
X125496000Y-61658064D01*
X87816000Y-32827000D02*
X87816000Y-30367000D01*
X86346000Y-30367000D02*
X86346000Y-32827000D01*
X87816000Y-30367000D02*
X86346000Y-30367000D01*
X76350000Y-79050000D02*
X76350000Y-80200000D01*
X83650000Y-84550000D02*
X76350000Y-84550000D01*
X83650000Y-79050000D02*
X76350000Y-79050000D01*
X84316000Y-32827000D02*
X84316000Y-30367000D01*
X84316000Y-30367000D02*
X82846000Y-30367000D01*
X82846000Y-30367000D02*
X82846000Y-32827000D01*
X113781000Y-59080000D02*
X116721000Y-59080000D01*
X115251000Y-60100000D02*
X115251000Y-59080000D01*
X113781000Y-58180000D02*
X116721000Y-58180000D01*
X115251000Y-52620000D02*
X115251000Y-53640000D01*
X113781000Y-53640000D02*
X113781000Y-59080000D01*
X113781000Y-58060000D02*
X116721000Y-58060000D01*
X116721000Y-59080000D02*
X116721000Y-53640000D01*
X116721000Y-53640000D02*
X113781000Y-53640000D01*
X113781000Y-58300000D02*
X116721000Y-58300000D01*
X107100000Y-107900000D02*
X92900000Y-107900000D01*
X107100000Y-122100000D02*
X107100000Y-107900000D01*
X92900000Y-107900000D02*
X92900000Y-122100000D01*
X92900000Y-122100000D02*
X107100000Y-122100000D01*
X117100000Y-46191850D02*
X120040000Y-46191850D01*
X120040000Y-41771850D02*
X117100000Y-41771850D01*
X117100000Y-47211850D02*
X120040000Y-47211850D01*
X120040000Y-47211850D02*
X120040000Y-41771850D01*
X117100000Y-46311850D02*
X120040000Y-46311850D01*
X118570000Y-48231850D02*
X118570000Y-47211850D01*
X117100000Y-41771850D02*
X117100000Y-47211850D01*
X118570000Y-40751850D02*
X118570000Y-41771850D01*
X117100000Y-46431850D02*
X120040000Y-46431850D01*
D10*
X65591000Y-37276000D02*
G75*
G03*
X65591000Y-37276000I-1750000J0D01*
G01*
D11*
X124714000Y-53266000D02*
X124714000Y-54941000D01*
X127834000Y-53266000D02*
X127834000Y-53916000D01*
X124714000Y-53266000D02*
X124714000Y-52616000D01*
X127834000Y-53266000D02*
X127834000Y-52616000D01*
X67100000Y-102100000D02*
X67100000Y-87900000D01*
X52900000Y-102100000D02*
X67100000Y-102100000D01*
X52900000Y-87900000D02*
X52900000Y-102100000D01*
X67100000Y-87900000D02*
X52900000Y-87900000D01*
X72900000Y-67900000D02*
X72900000Y-82100000D01*
X87100000Y-82100000D02*
X87100000Y-67900000D01*
X72900000Y-82100000D02*
X87100000Y-82100000D01*
X87100000Y-67900000D02*
X72900000Y-67900000D01*
X56350000Y-99050000D02*
X63650000Y-99050000D01*
X56350000Y-104550000D02*
X63650000Y-104550000D01*
X63650000Y-104550000D02*
X63650000Y-103400000D01*
X91316000Y-32827000D02*
X91316000Y-30367000D01*
X91316000Y-30367000D02*
X89846000Y-30367000D01*
X89846000Y-30367000D02*
X89846000Y-32827000D01*
X133763900Y-56652100D02*
X129522100Y-56652100D01*
X129522100Y-61909900D02*
X133763900Y-61909900D01*
X63322000Y-52597748D02*
X63322000Y-53120252D01*
X61852000Y-52597748D02*
X61852000Y-53120252D01*
X85515936Y-39729000D02*
X89870064Y-39729000D01*
X85515936Y-43149000D02*
X89870064Y-43149000D01*
X128680000Y-53332000D02*
X128680000Y-52682000D01*
X128680000Y-53332000D02*
X128680000Y-55007000D01*
X131800000Y-53332000D02*
X131800000Y-52682000D01*
X131800000Y-53332000D02*
X131800000Y-53982000D01*
X76397911Y-42067711D02*
X76397911Y-42547771D01*
X76397911Y-52303911D02*
X80639711Y-52303911D01*
X76397911Y-51823851D02*
X76397911Y-52303911D01*
X80639711Y-42067711D02*
X76397911Y-42067711D01*
X80639711Y-42547771D02*
X80639711Y-42067711D01*
X80639711Y-52303911D02*
X80639711Y-51823851D01*
D12*
X82481211Y-47947811D02*
X82481211Y-48328811D01*
X82481211Y-48328811D02*
X82227211Y-48328811D01*
X82227211Y-48328811D02*
X82227211Y-47947811D01*
X82227211Y-47947811D02*
X82481211Y-47947811D01*
G36*
X82481211Y-48328811D02*
G01*
X82227211Y-48328811D01*
X82227211Y-47947811D01*
X82481211Y-47947811D01*
X82481211Y-48328811D01*
G37*
X82481211Y-48328811D02*
X82227211Y-48328811D01*
X82227211Y-47947811D01*
X82481211Y-47947811D01*
X82481211Y-48328811D01*
X74556411Y-48582811D02*
X74556411Y-48963811D01*
X74556411Y-48963811D02*
X74810411Y-48963811D01*
X74810411Y-48963811D02*
X74810411Y-48582811D01*
X74810411Y-48582811D02*
X74556411Y-48582811D01*
G36*
X74810411Y-48963811D02*
G01*
X74556411Y-48963811D01*
X74556411Y-48582811D01*
X74810411Y-48582811D01*
X74810411Y-48963811D01*
G37*
X74810411Y-48963811D02*
X74556411Y-48963811D01*
X74556411Y-48582811D01*
X74810411Y-48582811D01*
X74810411Y-48963811D01*
D11*
X74410000Y-52597748D02*
X74410000Y-53120252D01*
X72940000Y-52597748D02*
X72940000Y-53120252D01*
X131489000Y-40395786D02*
X131489000Y-40849914D01*
X130019000Y-40395786D02*
X130019000Y-40849914D01*
X73644250Y-44476748D02*
X73644250Y-44999252D01*
X72174250Y-44476748D02*
X72174250Y-44999252D01*
X101602000Y-46531000D02*
X108402000Y-46531000D01*
X108402000Y-46531000D02*
X108402000Y-53331000D01*
X108402000Y-53331000D02*
X101602000Y-53331000D01*
X101602000Y-53331000D02*
X101602000Y-46531000D01*
X104740064Y-54451000D02*
X104285936Y-54451000D01*
X104740064Y-55921000D02*
X104285936Y-55921000D01*
X78350000Y-41400000D02*
X78350000Y-36000000D01*
X81650000Y-41400000D02*
X81650000Y-36000000D01*
X78350000Y-41400000D02*
X81650000Y-41400000D01*
X87473000Y-46201000D02*
X87473000Y-51601000D01*
X90773000Y-46201000D02*
X87473000Y-46201000D01*
X90773000Y-46201000D02*
X90773000Y-51601000D01*
X124379000Y-39855850D02*
X124379000Y-40505850D01*
X121259000Y-39855850D02*
X121259000Y-41530850D01*
X121259000Y-39855850D02*
X121259000Y-39205850D01*
X124379000Y-39855850D02*
X124379000Y-39205850D01*
X132930000Y-40607000D02*
X139730000Y-40607000D01*
X139730000Y-40607000D02*
X139730000Y-47407000D01*
X139730000Y-47407000D02*
X132930000Y-47407000D01*
X132930000Y-47407000D02*
X132930000Y-40607000D01*
X42261252Y-63735000D02*
X41738748Y-63735000D01*
X42261252Y-62265000D02*
X41738748Y-62265000D01*
X124281100Y-47851750D02*
X128522900Y-47851750D01*
X128522900Y-42593950D02*
X124281100Y-42593950D01*
X91316000Y-36345064D02*
X91316000Y-35890936D01*
X89846000Y-36345064D02*
X89846000Y-35890936D01*
X60780000Y-48158000D02*
X63440000Y-48158000D01*
X63440000Y-45558000D02*
X63440000Y-48158000D01*
X60780000Y-42958000D02*
X62110000Y-42958000D01*
X60780000Y-45558000D02*
X63440000Y-45558000D01*
X60780000Y-45558000D02*
X60780000Y-48158000D01*
X60780000Y-44288000D02*
X60780000Y-42958000D01*
X114280000Y-39785000D02*
X110840000Y-39785000D01*
X110840000Y-49025000D02*
X114280000Y-49025000D01*
X112560000Y-56065000D02*
X112560000Y-49025000D01*
X110840000Y-39785000D02*
X110840000Y-49025000D01*
X114280000Y-49025000D02*
X114280000Y-39785000D01*
X112560000Y-32745000D02*
X112560000Y-39785000D01*
X76350000Y-104550000D02*
X83650000Y-104550000D01*
X76350000Y-99050000D02*
X83650000Y-99050000D01*
X83650000Y-104550000D02*
X83650000Y-103400000D01*
X45772936Y-62265000D02*
X46227064Y-62265000D01*
X45772936Y-63735000D02*
X46227064Y-63735000D01*
X62657000Y-61451252D02*
X62657000Y-60928748D01*
X61187000Y-61451252D02*
X61187000Y-60928748D01*
X42265000Y-66738748D02*
X42265000Y-67261252D01*
X43735000Y-66738748D02*
X43735000Y-67261252D01*
X56350000Y-79050000D02*
X56350000Y-80200000D01*
X63650000Y-79050000D02*
X56350000Y-79050000D01*
X63650000Y-84550000D02*
X56350000Y-84550000D01*
X69373000Y-40255748D02*
X69373000Y-40778252D01*
X70843000Y-40255748D02*
X70843000Y-40778252D01*
X103549000Y-39508000D02*
X110349000Y-39508000D01*
X110349000Y-39508000D02*
X110349000Y-46308000D01*
X110349000Y-46308000D02*
X103549000Y-46308000D01*
X103549000Y-46308000D02*
X103549000Y-39508000D01*
X84316000Y-36345064D02*
X84316000Y-35890936D01*
X82846000Y-36345064D02*
X82846000Y-35890936D01*
X116098000Y-32501748D02*
X116098000Y-33024252D01*
X114628000Y-32501748D02*
X114628000Y-33024252D01*
X112900000Y-82100000D02*
X127100000Y-82100000D01*
X127100000Y-67900000D02*
X112900000Y-67900000D01*
X112900000Y-67900000D02*
X112900000Y-82100000D01*
X127100000Y-82100000D02*
X127100000Y-67900000D01*
X120565000Y-34876000D02*
X118495000Y-34876000D01*
X123649000Y-36516000D02*
X119561000Y-36516000D01*
X120565000Y-35556000D02*
X118771000Y-35556000D01*
X123985000Y-36196000D02*
X122645000Y-36196000D01*
X124823000Y-34275000D02*
X122645000Y-34275000D01*
X120565000Y-36116000D02*
X119155000Y-36116000D01*
X124557000Y-35316000D02*
X122645000Y-35316000D01*
X124241000Y-35876000D02*
X122645000Y-35876000D01*
X124295000Y-35796000D02*
X122645000Y-35796000D01*
X120565000Y-35996000D02*
X119057000Y-35996000D01*
X124371000Y-35676000D02*
X122645000Y-35676000D01*
X120565000Y-35716000D02*
X118863000Y-35716000D01*
X124321000Y-35756000D02*
X122645000Y-35756000D01*
X120565000Y-35916000D02*
X118998000Y-35916000D01*
X123255000Y-36796000D02*
X119955000Y-36796000D01*
X124833000Y-34115000D02*
X118377000Y-34115000D01*
X123381000Y-36716000D02*
X119829000Y-36716000D01*
X120565000Y-34515000D02*
X118416000Y-34515000D01*
X124820000Y-34315000D02*
X122645000Y-34315000D01*
X120565000Y-36036000D02*
X119089000Y-36036000D01*
X120565000Y-34916000D02*
X118507000Y-34916000D01*
X120565000Y-35276000D02*
X118635000Y-35276000D01*
X124806000Y-34435000D02*
X122645000Y-34435000D01*
X124575000Y-35276000D02*
X122645000Y-35276000D01*
X124439000Y-35556000D02*
X122645000Y-35556000D01*
X123870000Y-36316000D02*
X119340000Y-36316000D01*
X120565000Y-35396000D02*
X118689000Y-35396000D01*
X124780000Y-34595000D02*
X122645000Y-34595000D01*
X124638000Y-35116000D02*
X122645000Y-35116000D01*
X123037000Y-36916000D02*
X120173000Y-36916000D01*
X120565000Y-35756000D02*
X118889000Y-35756000D01*
X120565000Y-35636000D02*
X118815000Y-35636000D01*
X124835000Y-34035000D02*
X118375000Y-34035000D01*
X124746000Y-34756000D02*
X122645000Y-34756000D01*
X124417000Y-35596000D02*
X122645000Y-35596000D01*
X122407000Y-37156000D02*
X120803000Y-37156000D01*
X120565000Y-35956000D02*
X119027000Y-35956000D01*
X124089000Y-36076000D02*
X122645000Y-36076000D01*
X120565000Y-35036000D02*
X118544000Y-35036000D01*
X120565000Y-34315000D02*
X118390000Y-34315000D01*
X124652000Y-35076000D02*
X122645000Y-35076000D01*
X120565000Y-36076000D02*
X119121000Y-36076000D01*
X120565000Y-35836000D02*
X118941000Y-35836000D01*
X120565000Y-36236000D02*
X119262000Y-36236000D01*
X120565000Y-35476000D02*
X118729000Y-35476000D01*
X120565000Y-34675000D02*
X118446000Y-34675000D01*
X120565000Y-34235000D02*
X118383000Y-34235000D01*
X120565000Y-34716000D02*
X118455000Y-34716000D01*
X123759000Y-30809759D02*
X123129000Y-30809759D01*
X124481000Y-35476000D02*
X122645000Y-35476000D01*
X123948000Y-36236000D02*
X122645000Y-36236000D01*
X123697000Y-36476000D02*
X119513000Y-36476000D01*
X124461000Y-35516000D02*
X122645000Y-35516000D01*
X124703000Y-34916000D02*
X122645000Y-34916000D01*
X124679000Y-34996000D02*
X122645000Y-34996000D01*
X120565000Y-35676000D02*
X118839000Y-35676000D01*
X124800000Y-34475000D02*
X122645000Y-34475000D01*
X120565000Y-34996000D02*
X118531000Y-34996000D01*
X124623000Y-35156000D02*
X122645000Y-35156000D01*
X124726000Y-34836000D02*
X122645000Y-34836000D01*
X120565000Y-35436000D02*
X118709000Y-35436000D01*
X120565000Y-35316000D02*
X118653000Y-35316000D01*
X122867000Y-36996000D02*
X120343000Y-36996000D01*
X120565000Y-34555000D02*
X118423000Y-34555000D01*
X120565000Y-35076000D02*
X118558000Y-35076000D01*
X124539000Y-35356000D02*
X122645000Y-35356000D01*
X124666000Y-35036000D02*
X122645000Y-35036000D01*
X124021000Y-36156000D02*
X122645000Y-36156000D01*
X120565000Y-34756000D02*
X118464000Y-34756000D01*
X123742000Y-36436000D02*
X119468000Y-36436000D01*
X123495000Y-36636000D02*
X119715000Y-36636000D01*
X123829000Y-36356000D02*
X119381000Y-36356000D01*
X124269000Y-35836000D02*
X122645000Y-35836000D01*
X123114000Y-36876000D02*
X120096000Y-36876000D01*
X122955000Y-36956000D02*
X120255000Y-36956000D01*
X123787000Y-36396000D02*
X119423000Y-36396000D01*
X124055000Y-36116000D02*
X122645000Y-36116000D01*
X120565000Y-34796000D02*
X118474000Y-34796000D01*
X123186000Y-36836000D02*
X120024000Y-36836000D01*
X122545000Y-37116000D02*
X120665000Y-37116000D01*
X124591000Y-35236000D02*
X122645000Y-35236000D01*
X124183000Y-35956000D02*
X122645000Y-35956000D01*
X124153000Y-35996000D02*
X122645000Y-35996000D01*
X122664000Y-37076000D02*
X120546000Y-37076000D01*
X124347000Y-35716000D02*
X122645000Y-35716000D01*
X124755000Y-34716000D02*
X122645000Y-34716000D01*
X124794000Y-34515000D02*
X122645000Y-34515000D01*
X120565000Y-35876000D02*
X118969000Y-35876000D01*
X122238000Y-37196000D02*
X120972000Y-37196000D01*
X120565000Y-34435000D02*
X118404000Y-34435000D01*
X124829000Y-34195000D02*
X118381000Y-34195000D01*
X120565000Y-36196000D02*
X119225000Y-36196000D01*
X124787000Y-34555000D02*
X122645000Y-34555000D01*
X120565000Y-35356000D02*
X118671000Y-35356000D01*
X124736000Y-34796000D02*
X122645000Y-34796000D01*
X120565000Y-34395000D02*
X118399000Y-34395000D01*
X124212000Y-35916000D02*
X122645000Y-35916000D01*
X124832000Y-34155000D02*
X118378000Y-34155000D01*
X120565000Y-34595000D02*
X118430000Y-34595000D01*
X124521000Y-35396000D02*
X122645000Y-35396000D01*
X120565000Y-34475000D02*
X118410000Y-34475000D01*
X120565000Y-35516000D02*
X118749000Y-35516000D01*
X123549000Y-36596000D02*
X119661000Y-36596000D01*
X120565000Y-34836000D02*
X118484000Y-34836000D01*
X124772000Y-34635000D02*
X122645000Y-34635000D01*
X120565000Y-36276000D02*
X119300000Y-36276000D01*
X124607000Y-35196000D02*
X122645000Y-35196000D01*
X123600000Y-36556000D02*
X119610000Y-36556000D01*
X120565000Y-36156000D02*
X119189000Y-36156000D01*
X123910000Y-36276000D02*
X122645000Y-36276000D01*
X120565000Y-35116000D02*
X118572000Y-35116000D01*
X124811000Y-34395000D02*
X122645000Y-34395000D01*
X120565000Y-35796000D02*
X118915000Y-35796000D01*
X122770000Y-37036000D02*
X120440000Y-37036000D01*
X120565000Y-34275000D02*
X118387000Y-34275000D01*
X122007000Y-37236000D02*
X121203000Y-37236000D01*
X120565000Y-34635000D02*
X118438000Y-34635000D01*
X124835000Y-34075000D02*
X118375000Y-34075000D01*
X124121000Y-36036000D02*
X122645000Y-36036000D01*
X124501000Y-35436000D02*
X122645000Y-35436000D01*
X124395000Y-35636000D02*
X122645000Y-35636000D01*
X124827000Y-34235000D02*
X122645000Y-34235000D01*
X120565000Y-35596000D02*
X118793000Y-35596000D01*
X123444000Y-30494759D02*
X123444000Y-31124759D01*
X124691000Y-34956000D02*
X122645000Y-34956000D01*
X124816000Y-34355000D02*
X122645000Y-34355000D01*
X123319000Y-36756000D02*
X119891000Y-36756000D01*
X124764000Y-34675000D02*
X122645000Y-34675000D01*
X120565000Y-35156000D02*
X118587000Y-35156000D01*
X124835000Y-33995000D02*
X118375000Y-33995000D01*
X120565000Y-35236000D02*
X118619000Y-35236000D01*
X123439000Y-36676000D02*
X119771000Y-36676000D01*
X124715000Y-34876000D02*
X122645000Y-34876000D01*
X120565000Y-35196000D02*
X118603000Y-35196000D01*
X120565000Y-34956000D02*
X118519000Y-34956000D01*
X120565000Y-34355000D02*
X118394000Y-34355000D01*
X124875000Y-33995000D02*
G75*
G03*
X124875000Y-33995000I-3270000J0D01*
G01*
X95760000Y-43084000D02*
X94085000Y-43084000D01*
X95760000Y-46204000D02*
X96410000Y-46204000D01*
X95760000Y-43084000D02*
X96410000Y-43084000D01*
X95760000Y-46204000D02*
X95110000Y-46204000D01*
X66237000Y-52597748D02*
X66237000Y-53120252D01*
X67707000Y-52597748D02*
X67707000Y-53120252D01*
D13*
X70900000Y-30900000D02*
X73100000Y-30900000D01*
X73100000Y-34100000D02*
X70900000Y-34100000D01*
X68463500Y-30600000D02*
G75*
G03*
X68463500Y-30600000I-63500J0D01*
G01*
D11*
X72760000Y-60823000D02*
X72760000Y-57883000D01*
X72760000Y-57883000D02*
X67320000Y-57883000D01*
X68100000Y-57883000D02*
X68100000Y-60823000D01*
X68220000Y-57883000D02*
X68220000Y-60823000D01*
X68340000Y-57883000D02*
X68340000Y-60823000D01*
X67320000Y-60823000D02*
X72760000Y-60823000D01*
X66300000Y-59353000D02*
X67320000Y-59353000D01*
X73780000Y-59353000D02*
X72760000Y-59353000D01*
X67320000Y-57883000D02*
X67320000Y-60823000D01*
X127100000Y-102100000D02*
X127100000Y-87900000D01*
X112900000Y-102100000D02*
X127100000Y-102100000D01*
X112900000Y-87900000D02*
X112900000Y-102100000D01*
X127100000Y-87900000D02*
X112900000Y-87900000D01*
X99234000Y-52667748D02*
X99234000Y-53190252D01*
X100704000Y-52667748D02*
X100704000Y-53190252D01*
X94075748Y-52315000D02*
X94598252Y-52315000D01*
X94075748Y-50845000D02*
X94598252Y-50845000D01*
X66889252Y-64979000D02*
X66366748Y-64979000D01*
X66889252Y-63509000D02*
X66366748Y-63509000D01*
X66911064Y-62945000D02*
X66456936Y-62945000D01*
X66911064Y-61475000D02*
X66456936Y-61475000D01*
X93832748Y-36388000D02*
X94355252Y-36388000D01*
X93832748Y-37858000D02*
X94355252Y-37858000D01*
X94774000Y-62755000D02*
X94774000Y-61641000D01*
X93974000Y-62239000D02*
X93974000Y-61641000D01*
X93894000Y-62152000D02*
X93894000Y-59450000D01*
X95255000Y-59961000D02*
X95255000Y-58734000D01*
X93654000Y-61814000D02*
X93654000Y-59788000D01*
X94254000Y-62481000D02*
X94254000Y-61641000D01*
X94414000Y-62586000D02*
X94414000Y-61641000D01*
X94454000Y-59961000D02*
X94454000Y-58993000D01*
X93494000Y-61465000D02*
X93494000Y-60137000D01*
X95455000Y-59961000D02*
X95455000Y-58721000D01*
X94374000Y-59961000D02*
X94374000Y-59041000D01*
X95335000Y-59961000D02*
X95335000Y-58727000D01*
X95295000Y-59961000D02*
X95295000Y-58730000D01*
X94454000Y-62609000D02*
X94454000Y-61641000D01*
X94094000Y-59961000D02*
X94094000Y-59249000D01*
X95175000Y-62857000D02*
X95175000Y-61641000D01*
X93454000Y-61338000D02*
X93454000Y-60264000D01*
X95415000Y-59961000D02*
X95415000Y-58722000D01*
X95175000Y-59961000D02*
X95175000Y-58745000D01*
X94414000Y-59961000D02*
X94414000Y-59016000D01*
X94214000Y-59961000D02*
X94214000Y-59151000D01*
X94014000Y-62279000D02*
X94014000Y-61641000D01*
X95015000Y-59961000D02*
X95015000Y-58776000D01*
X94534000Y-59961000D02*
X94534000Y-58950000D01*
X94134000Y-62388000D02*
X94134000Y-61641000D01*
X94054000Y-62317000D02*
X94054000Y-61641000D01*
X95295000Y-62872000D02*
X95295000Y-61641000D01*
X94574000Y-59961000D02*
X94574000Y-58931000D01*
X95215000Y-62863000D02*
X95215000Y-61641000D01*
X95215000Y-59961000D02*
X95215000Y-58739000D01*
X97764801Y-61996000D02*
X97364801Y-61996000D01*
X94054000Y-59961000D02*
X94054000Y-59285000D01*
X95015000Y-62826000D02*
X95015000Y-61641000D01*
X94694000Y-62725000D02*
X94694000Y-61641000D01*
X95055000Y-62835000D02*
X95055000Y-61641000D01*
X94014000Y-59961000D02*
X94014000Y-59323000D01*
X93934000Y-62197000D02*
X93934000Y-61641000D01*
X95135000Y-59961000D02*
X95135000Y-58751000D01*
X93534000Y-61569000D02*
X93534000Y-60033000D01*
X94494000Y-62631000D02*
X94494000Y-61641000D01*
X93414000Y-61171000D02*
X93414000Y-60431000D01*
X93734000Y-61943000D02*
X93734000Y-59659000D01*
X94334000Y-62536000D02*
X94334000Y-61641000D01*
X94774000Y-59961000D02*
X94774000Y-58847000D01*
X93854000Y-62105000D02*
X93854000Y-59497000D01*
X95375000Y-59961000D02*
X95375000Y-58724000D01*
X94654000Y-59961000D02*
X94654000Y-58894000D01*
X94334000Y-59961000D02*
X94334000Y-59066000D01*
X94614000Y-59961000D02*
X94614000Y-58912000D01*
X94734000Y-62741000D02*
X94734000Y-61641000D01*
X94855000Y-59961000D02*
X94855000Y-58819000D01*
X94534000Y-62652000D02*
X94534000Y-61641000D01*
X94174000Y-59961000D02*
X94174000Y-59182000D01*
X94214000Y-62451000D02*
X94214000Y-61641000D01*
X95335000Y-62875000D02*
X95335000Y-61641000D01*
X94815000Y-59961000D02*
X94815000Y-58833000D01*
X94374000Y-62561000D02*
X94374000Y-61641000D01*
X94654000Y-62708000D02*
X94654000Y-61641000D01*
X94895000Y-59961000D02*
X94895000Y-58807000D01*
X95095000Y-59961000D02*
X95095000Y-58759000D01*
X95495000Y-62881000D02*
X95495000Y-61641000D01*
X94935000Y-62806000D02*
X94935000Y-61641000D01*
X95375000Y-62878000D02*
X95375000Y-61641000D01*
X94574000Y-62671000D02*
X94574000Y-61641000D01*
X94494000Y-59961000D02*
X94494000Y-58971000D01*
X97564801Y-62196000D02*
X97564801Y-61796000D01*
X93614000Y-61741000D02*
X93614000Y-59861000D01*
X95135000Y-62851000D02*
X95135000Y-61641000D01*
X93974000Y-59961000D02*
X93974000Y-59363000D01*
X94975000Y-59961000D02*
X94975000Y-58785000D01*
X94174000Y-62420000D02*
X94174000Y-61641000D01*
X93934000Y-59961000D02*
X93934000Y-59405000D01*
X94294000Y-62509000D02*
X94294000Y-61641000D01*
X94815000Y-62769000D02*
X94815000Y-61641000D01*
X94935000Y-59961000D02*
X94935000Y-58796000D01*
X94294000Y-59961000D02*
X94294000Y-59093000D01*
X94614000Y-62690000D02*
X94614000Y-61641000D01*
X94855000Y-62783000D02*
X94855000Y-61641000D01*
X95455000Y-62881000D02*
X95455000Y-61641000D01*
X94134000Y-59961000D02*
X94134000Y-59214000D01*
X93814000Y-62055000D02*
X93814000Y-59547000D01*
X95415000Y-62880000D02*
X95415000Y-61641000D01*
X95095000Y-62843000D02*
X95095000Y-61641000D01*
X95055000Y-59961000D02*
X95055000Y-58767000D01*
X94734000Y-59961000D02*
X94734000Y-58861000D01*
X94975000Y-62817000D02*
X94975000Y-61641000D01*
X94694000Y-59961000D02*
X94694000Y-58877000D01*
X93774000Y-62001000D02*
X93774000Y-59601000D01*
X94094000Y-62353000D02*
X94094000Y-61641000D01*
X95495000Y-59961000D02*
X95495000Y-58721000D01*
X95255000Y-62868000D02*
X95255000Y-61641000D01*
X93694000Y-61881000D02*
X93694000Y-59721000D01*
X93574000Y-61660000D02*
X93574000Y-59942000D01*
X94254000Y-59961000D02*
X94254000Y-59121000D01*
X94895000Y-62795000D02*
X94895000Y-61641000D01*
X97615000Y-60801000D02*
G75*
G03*
X97615000Y-60801000I-2120000J0D01*
G01*
X122143748Y-50340850D02*
X122666252Y-50340850D01*
X122143748Y-48870850D02*
X122666252Y-48870850D01*
X70031314Y-44433000D02*
X69577186Y-44433000D01*
X70031314Y-42963000D02*
X69577186Y-42963000D01*
X63650000Y-124550000D02*
X56350000Y-124550000D01*
X56350000Y-119050000D02*
X56350000Y-120200000D01*
X63650000Y-119050000D02*
X56350000Y-119050000D01*
X92788000Y-62286000D02*
X85988000Y-62286000D01*
X85988000Y-62286000D02*
X85988000Y-55486000D01*
X85988000Y-55486000D02*
X92788000Y-55486000D01*
X92788000Y-55486000D02*
X92788000Y-62286000D01*
X118881748Y-61702000D02*
X119404252Y-61702000D01*
X118881748Y-63172000D02*
X119404252Y-63172000D01*
X71048000Y-36644252D02*
X71048000Y-36121748D01*
X72518000Y-36644252D02*
X72518000Y-36121748D01*
X102124000Y-63402000D02*
X103144000Y-63402000D01*
X103144000Y-64872000D02*
X108584000Y-64872000D01*
X108584000Y-64872000D02*
X108584000Y-61932000D01*
X104044000Y-61932000D02*
X104044000Y-64872000D01*
X103924000Y-61932000D02*
X103924000Y-64872000D01*
X108584000Y-61932000D02*
X103144000Y-61932000D01*
X103144000Y-61932000D02*
X103144000Y-64872000D01*
X109604000Y-63402000D02*
X108584000Y-63402000D01*
X104164000Y-61932000D02*
X104164000Y-64872000D01*
%LPC*%
D14*
X97467000Y-41472500D03*
X97467000Y-39397500D03*
D15*
X102450000Y-123400000D03*
X102450000Y-120200000D03*
X97550000Y-120200000D03*
X97550000Y-123400000D03*
D16*
X48185000Y-78384000D03*
D17*
X48185000Y-75844000D03*
D18*
X60000000Y-115000000D03*
D19*
X54920000Y-115000000D03*
X65080000Y-115000000D03*
D14*
X95063000Y-41472500D03*
X95063000Y-39397500D03*
D20*
X68979000Y-49961000D03*
X66979000Y-49961000D03*
D21*
X67981000Y-39479500D03*
X67981000Y-41554500D03*
D14*
X136473000Y-61148500D03*
X136473000Y-59073500D03*
D16*
X65796000Y-44319000D03*
D17*
X65796000Y-46859000D03*
D22*
X92747500Y-47599000D03*
X94822500Y-47599000D03*
D23*
X120965500Y-52102000D03*
X118890500Y-52102000D03*
D24*
X58390000Y-35100000D03*
X52610000Y-35100000D03*
D25*
X58750000Y-36545000D03*
X57950000Y-36545000D03*
D26*
X56750000Y-36545000D03*
X55750000Y-36545000D03*
X55250000Y-36545000D03*
X54250000Y-36545000D03*
D25*
X53050000Y-36545000D03*
X52250000Y-36545000D03*
X52250000Y-36545000D03*
X53050000Y-36545000D03*
D26*
X53750000Y-36545000D03*
X54750000Y-36545000D03*
X56250000Y-36545000D03*
X57250000Y-36545000D03*
D25*
X57950000Y-36545000D03*
X58750000Y-36545000D03*
D27*
X51180000Y-35630000D03*
D28*
X51180000Y-31450000D03*
X59820000Y-31450000D03*
D27*
X59820000Y-35630000D03*
D29*
X138026000Y-68100000D03*
X134176000Y-68100000D03*
D15*
X82450000Y-123400000D03*
X82450000Y-120200000D03*
X77550000Y-120200000D03*
X77550000Y-123400000D03*
D30*
X74604000Y-40000000D03*
X74604000Y-36000000D03*
D15*
X122450000Y-123400000D03*
X122450000Y-120200000D03*
X117550000Y-120200000D03*
X117550000Y-123400000D03*
D31*
X133469000Y-53889000D03*
X135469000Y-53889000D03*
D32*
X96853000Y-49484500D03*
X98753000Y-49484500D03*
X97803000Y-47609500D03*
D14*
X131334000Y-47144350D03*
X131334000Y-45069350D03*
D33*
X87081000Y-37118000D03*
X87081000Y-35118000D03*
D23*
X47037500Y-66000000D03*
X44962500Y-66000000D03*
D15*
X102450000Y-83400000D03*
X102450000Y-80200000D03*
X97550000Y-80200000D03*
X97550000Y-83400000D03*
D18*
X60000000Y-75000000D03*
D19*
X54920000Y-75000000D03*
X65080000Y-75000000D03*
D15*
X117550000Y-100200000D03*
X117550000Y-103400000D03*
X122450000Y-103400000D03*
X122450000Y-100200000D03*
D16*
X48139000Y-82024000D03*
D17*
X50679000Y-82024000D03*
D18*
X100000000Y-95000000D03*
D19*
X94920000Y-95000000D03*
X105080000Y-95000000D03*
D14*
X99725000Y-41472500D03*
X99725000Y-39397500D03*
D21*
X68969000Y-51821500D03*
X68969000Y-53896500D03*
D19*
X85080000Y-115000000D03*
X74920000Y-115000000D03*
D18*
X80000000Y-115000000D03*
D21*
X71344000Y-51821500D03*
X71344000Y-53896500D03*
D34*
X41240000Y-59750000D03*
X42510000Y-59750000D03*
X43780000Y-59750000D03*
X45050000Y-59750000D03*
X46320000Y-59750000D03*
X47590000Y-59750000D03*
X48860000Y-59750000D03*
X50130000Y-59750000D03*
X51400000Y-59750000D03*
X52670000Y-59750000D03*
X53940000Y-59750000D03*
X55210000Y-59750000D03*
X56480000Y-59750000D03*
X57750000Y-59750000D03*
D35*
X59000000Y-57985000D03*
X59000000Y-56715000D03*
X59000000Y-55450000D03*
X59000000Y-54175000D03*
X59000000Y-52905000D03*
X59000000Y-51635000D03*
X59000000Y-50365000D03*
X59000000Y-49095000D03*
X59000000Y-47825000D03*
X59000000Y-46555000D03*
X59000000Y-45285000D03*
X59000000Y-44015000D03*
D34*
X57750000Y-42250000D03*
X56480000Y-42250000D03*
X55210000Y-42250000D03*
X53940000Y-42250000D03*
X52670000Y-42250000D03*
X51400000Y-42250000D03*
X50130000Y-42250000D03*
X48860000Y-42250000D03*
X47590000Y-42250000D03*
X46320000Y-42250000D03*
X45050000Y-42250000D03*
X43780000Y-42250000D03*
X42510000Y-42250000D03*
X41240000Y-42250000D03*
D36*
X47560000Y-52500000D03*
D37*
X48960000Y-51100000D03*
X48960000Y-53900000D03*
D36*
X47560000Y-51100000D03*
D37*
X50365000Y-53900000D03*
D36*
X48960000Y-51100000D03*
X50360000Y-52500000D03*
X50360000Y-53900000D03*
D37*
X48960000Y-52500000D03*
X47560000Y-53900000D03*
X50360000Y-52500000D03*
D36*
X50360000Y-51100000D03*
D37*
X47560000Y-51100000D03*
X50360000Y-51100000D03*
D36*
X48960000Y-52500000D03*
D37*
X47560000Y-52500000D03*
D36*
X47560000Y-53900000D03*
X48960000Y-53900000D03*
D19*
X125080000Y-115000000D03*
D18*
X120000000Y-115000000D03*
D19*
X114920000Y-115000000D03*
D31*
X68804250Y-45634000D03*
X70804250Y-45634000D03*
D16*
X94420000Y-31543000D03*
D17*
X94420000Y-34083000D03*
D38*
X76735000Y-57485000D03*
X81735000Y-57485000D03*
D21*
X124029000Y-60363500D03*
X124029000Y-62438500D03*
D39*
X137510000Y-49035401D03*
D40*
X137510000Y-50535401D03*
D32*
X126747000Y-40589350D03*
X128647000Y-40589350D03*
X127697000Y-38714350D03*
D18*
X100000000Y-75000000D03*
D19*
X94920000Y-75000000D03*
X105080000Y-75000000D03*
D41*
X63268000Y-31622000D03*
X63268000Y-33622000D03*
D42*
X135000000Y-125000000D03*
D21*
X64798000Y-51821500D03*
X64798000Y-53896500D03*
D19*
X85080000Y-95000000D03*
X74920000Y-95000000D03*
D18*
X80000000Y-95000000D03*
D20*
X120928000Y-55424000D03*
X118928000Y-55424000D03*
D15*
X122450000Y-83400000D03*
X122450000Y-80200000D03*
X117550000Y-80200000D03*
X117550000Y-83400000D03*
X97550000Y-100200000D03*
X97550000Y-103400000D03*
X102450000Y-103400000D03*
X102450000Y-100200000D03*
D41*
X126231000Y-60431000D03*
X126231000Y-62431000D03*
D43*
X87081000Y-31152000D03*
X87081000Y-32902000D03*
D15*
X82450000Y-83400000D03*
X82450000Y-80200000D03*
X77550000Y-80200000D03*
X77550000Y-83400000D03*
D43*
X83581000Y-31152000D03*
X83581000Y-32902000D03*
D44*
X115251000Y-61440000D03*
D45*
X115251000Y-51280000D03*
D18*
X100000000Y-115000000D03*
D19*
X94920000Y-115000000D03*
X105080000Y-115000000D03*
D44*
X118570000Y-49571850D03*
D45*
X118570000Y-39411850D03*
D46*
X63841000Y-37276000D03*
D32*
X125324000Y-54203500D03*
X127224000Y-54203500D03*
X126274000Y-52328500D03*
D19*
X54920000Y-95000000D03*
D18*
X60000000Y-95000000D03*
D19*
X65080000Y-95000000D03*
X85080000Y-75000000D03*
D18*
X80000000Y-75000000D03*
D19*
X74920000Y-75000000D03*
D15*
X57550000Y-100200000D03*
X57550000Y-103400000D03*
X62450000Y-103400000D03*
X62450000Y-100200000D03*
D43*
X90581000Y-31152000D03*
X90581000Y-32902000D03*
D47*
X128918850Y-57376000D03*
X128918850Y-58646000D03*
X128918850Y-59916000D03*
X128918850Y-61186000D03*
X134367150Y-61186000D03*
X134367150Y-59916000D03*
X134367150Y-58646000D03*
X134367150Y-57376000D03*
D21*
X62587000Y-51821500D03*
X62587000Y-53896500D03*
D48*
X84643000Y-41439000D03*
X90743000Y-41439000D03*
D32*
X129290000Y-54269500D03*
X131190000Y-54269500D03*
X130240000Y-52394500D03*
D49*
X75794661Y-43058311D03*
X75794661Y-43693311D03*
X75794661Y-44328311D03*
X75794661Y-44963311D03*
X75794661Y-45598311D03*
X75794661Y-46233311D03*
X75794661Y-46868311D03*
X75794661Y-47503311D03*
X75794661Y-48138311D03*
X75794661Y-48773311D03*
X75794661Y-49408311D03*
X75794661Y-50043311D03*
X75794661Y-50678311D03*
X75794661Y-51313311D03*
X81242961Y-51313311D03*
X81242961Y-50678311D03*
X81242961Y-50043311D03*
X81242961Y-49408311D03*
X81242961Y-48773311D03*
X81242961Y-48138311D03*
X81242961Y-47503311D03*
X81242961Y-46868311D03*
X81242961Y-46233311D03*
X81242961Y-45598311D03*
X81242961Y-44963311D03*
X81242961Y-44328311D03*
X81242961Y-43693311D03*
X81242961Y-43058311D03*
D21*
X73675000Y-51821500D03*
X73675000Y-53896500D03*
D41*
X130754000Y-39622850D03*
X130754000Y-41622850D03*
D21*
X72909250Y-43700500D03*
X72909250Y-45775500D03*
D50*
X105002000Y-48006000D03*
X105002000Y-51856000D03*
D20*
X105513000Y-55186000D03*
X103513000Y-55186000D03*
D30*
X80000000Y-40000000D03*
X80000000Y-36000000D03*
X89123000Y-47601000D03*
X89123000Y-51601000D03*
D32*
X121869000Y-40793350D03*
X123769000Y-40793350D03*
X122819000Y-38918350D03*
D50*
X136330000Y-42082000D03*
X136330000Y-45932000D03*
D23*
X43037500Y-63000000D03*
X40962500Y-63000000D03*
D47*
X123677850Y-43317850D03*
X123677850Y-44587850D03*
X123677850Y-45857850D03*
X123677850Y-47127850D03*
X129126150Y-47127850D03*
X129126150Y-45857850D03*
X129126150Y-44587850D03*
X129126150Y-43317850D03*
D33*
X90581000Y-37118000D03*
X90581000Y-35118000D03*
D16*
X62110000Y-44288000D03*
D17*
X62110000Y-46828000D03*
D38*
X112560000Y-57105000D03*
D51*
X112560000Y-31705000D03*
D15*
X77550000Y-100200000D03*
X77550000Y-103400000D03*
X82450000Y-103400000D03*
X82450000Y-100200000D03*
D42*
X45000000Y-125000000D03*
D31*
X45000000Y-63000000D03*
X47000000Y-63000000D03*
D14*
X61922000Y-62227500D03*
X61922000Y-60152500D03*
D21*
X43000000Y-65962500D03*
X43000000Y-68037500D03*
D15*
X62450000Y-83400000D03*
X62450000Y-80200000D03*
X57550000Y-80200000D03*
X57550000Y-83400000D03*
D21*
X70108000Y-39479500D03*
X70108000Y-41554500D03*
D50*
X106949000Y-40983000D03*
X106949000Y-44833000D03*
D33*
X83581000Y-37118000D03*
X83581000Y-35118000D03*
D42*
X135000000Y-35000000D03*
D21*
X115363000Y-31725500D03*
X115363000Y-33800500D03*
D19*
X114920000Y-75000000D03*
X125080000Y-75000000D03*
D18*
X120000000Y-75000000D03*
D52*
X121605000Y-32745000D03*
D38*
X121605000Y-35245000D03*
D53*
X94822500Y-43694000D03*
X94822500Y-45594000D03*
X96697500Y-44644000D03*
D21*
X66972000Y-51821500D03*
X66972000Y-53896500D03*
D54*
X69385000Y-32500000D03*
X74615000Y-32500000D03*
D44*
X64960000Y-59353000D03*
D45*
X75120000Y-59353000D03*
D19*
X125080000Y-95000000D03*
X114920000Y-95000000D03*
D18*
X120000000Y-95000000D03*
D21*
X99969000Y-51891500D03*
X99969000Y-53966500D03*
D22*
X93299500Y-51580000D03*
X95374500Y-51580000D03*
D23*
X67665500Y-64244000D03*
X65590500Y-64244000D03*
D20*
X67684000Y-62210000D03*
X65684000Y-62210000D03*
D22*
X93056500Y-37123000D03*
X95131500Y-37123000D03*
D39*
X96245000Y-60801000D03*
D40*
X94745000Y-60801000D03*
D22*
X121367500Y-49605850D03*
X123442500Y-49605850D03*
D20*
X70804250Y-43698000D03*
X68804250Y-43698000D03*
D15*
X62450000Y-123400000D03*
X62450000Y-120200000D03*
X57550000Y-120200000D03*
X57550000Y-123400000D03*
D50*
X89388000Y-60811000D03*
X89388000Y-56961000D03*
D42*
X45000000Y-35000000D03*
D22*
X118105500Y-62437000D03*
X120180500Y-62437000D03*
D14*
X71783000Y-37420500D03*
X71783000Y-35345500D03*
D44*
X100784000Y-63402000D03*
D45*
X110944000Y-63402000D03*
M02*
