M48
; DRILL file {KiCad (6.0.0)} date Thu Aug  4 01:32:54 2022
; FORMAT={-:-/ absolute / metric / decimal}
; #@! TF.CreationDate,2022-08-04T01:32:54+02:00
; #@! TF.GenerationSoftware,Kicad,Pcbnew,(6.0.0)
; #@! TF.FileFunction,Plated,1,2,PTH
FMAT,2
METRIC
; #@! TA.AperFunction,Plated,PTH,ViaDrill
T1C0.300
; #@! TA.AperFunction,Plated,PTH,ViaDrill
T2C0.400
; #@! TA.AperFunction,Plated,PTH,ComponentDrill
T3C0.400
; #@! TA.AperFunction,Plated,PTH,ViaDrill
T4C0.600
; #@! TA.AperFunction,Plated,PTH,ComponentDrill
T5C0.600
; #@! TA.AperFunction,Plated,PTH,ComponentDrill
T6C1.000
; #@! TA.AperFunction,Plated,PTH,ComponentDrill
T7C1.500
; #@! TA.AperFunction,Plated,PTH,ComponentDrill
T8C1.600
%
G90
G05
T1
X95.3Y-37.5
X95.3Y-38.2
X95.3Y-38.9
X95.3Y-39.5
X95.3Y-40.1
X96.0Y-37.5
X96.0Y-38.2
X96.0Y-38.9
X96.0Y-39.5
X96.0Y-40.1
X96.6Y-37.5
X96.6Y-38.2
X96.6Y-38.9
X96.6Y-39.5
X96.6Y-40.1
X97.2Y-37.5
X97.2Y-38.2
X97.2Y-38.9
X97.2Y-39.5
X97.2Y-40.1
X120.566Y-36.916
X124.384Y-35.824
T2
X40.819Y-64.527
X40.918Y-61.929
X40.926Y-60.065
X40.935Y-69.384
X40.959Y-67.075
X40.963Y-31.73
X40.964Y-55.485
X40.975Y-106.985
X40.975Y-109.989
X40.975Y-112.986
X40.975Y-115.99
X40.975Y-118.994
X40.978Y-70.985
X40.978Y-73.976
X40.99Y-82.996
X40.99Y-86.0
X40.99Y-88.979
X40.99Y-91.983
X40.99Y-94.996
X40.99Y-98.0
X40.99Y-100.979
X41.0Y-38.432
X41.0Y-77.0
X41.0Y-80.0
X41.0Y-104.0
X41.001Y-48.82
X41.001Y-53.065
X41.001Y-57.98
X41.038Y-40.703
X41.038Y-43.086
X41.038Y-46.884
X41.038Y-51.017
X41.075Y-45.171
X44.0Y-60.4
X44.759Y-94.982
X44.759Y-99.506
X45.178Y-102.103
X45.22Y-90.751
X45.513Y-110.229
X46.057Y-71.985
X46.141Y-75.587
X46.225Y-86.227
X46.267Y-104.7
X46.392Y-68.802
X46.5Y-61.3
X46.56Y-78.603
X46.56Y-82.373
X46.644Y-65.618
X47.105Y-111.653
X48.484Y-30.948
X48.7Y-58.8
X49.145Y-116.796
X49.424Y-112.887
X49.48Y-123.554
X49.591Y-92.836
X49.759Y-77.701
X49.759Y-96.02
X49.759Y-105.459
X50.706Y-65.787
X50.764Y-115.177
X50.932Y-100.432
X51.0Y-129.0
X51.099Y-75.3
X51.714Y-83.733
X51.77Y-123.498
X51.77Y-125.118
X51.971Y-30.969
X52.7Y-57.6
X53.166Y-126.012
X53.555Y-63.441
X53.613Y-100.879
X53.974Y-88.699
X54.0Y-129.0
X54.057Y-69.557
X54.115Y-97.975
X54.674Y-108.754
X54.841Y-119.03
X54.953Y-70.776
X54.953Y-111.658
X55.0Y-30.969
X55.5Y-55.2
X55.623Y-74.071
X55.623Y-91.831
X55.735Y-113.11
X56.068Y-66.96
X56.2Y-33.4
X56.573Y-100.488
X56.684Y-93.116
X56.906Y-71.651
X57.0Y-36.1
X57.0Y-129.0
X57.466Y-103.504
X57.466Y-125.844
X57.5Y-61.5
X57.69Y-73.066
X57.746Y-123.61
X57.802Y-84.459
X57.991Y-30.969
X58.414Y-64.195
X58.639Y-114.73
X59.672Y-100.451
X60.0Y-129.0
X60.231Y-95.126
X60.424Y-67.295
X60.7Y-33.9
X60.817Y-76.584
X60.9Y-39.9
X60.983Y-30.969
X61.264Y-74.462
X61.6Y-61.7
X61.849Y-88.532
X61.934Y-114.897
X62.0Y-54.5
X62.3Y-58.1
X62.428Y-100.525
X62.519Y-65.954
X62.6Y-41.7
X62.94Y-74.686
X62.986Y-94.456
X63.0Y-129.0
X63.021Y-69.054
X63.163Y-83.398
X63.163Y-123.163
X63.209Y-105.403
X63.608Y-63.357
X63.974Y-30.969
X65.1Y-44.8
X65.341Y-124.113
X66.0Y-129.0
X66.988Y-30.988
X67.4Y-54.1
X68.0Y-35.2
X68.413Y-115.791
X68.8Y-63.0
X68.9Y-37.5
X68.9Y-40.1
X68.972Y-117.578
X69.0Y-129.0
X69.139Y-123.331
X69.474Y-75.467
X69.474Y-114.395
X69.5Y-58.8
X69.642Y-83.454
X70.0Y-30.988
X71.0Y-43.3
X71.094Y-75.076
X71.1Y-49.6
X71.252Y-105.515
X72.0Y-129.0
X72.267Y-83.342
X72.4Y-54.1
X72.89Y-100.488
X73.263Y-109.35
X73.7Y-52.4
X73.747Y-99.185
X73.784Y-111.025
X74.166Y-88.76
X74.389Y-91.05
X74.5Y-39.9
X75.0Y-59.4
X75.0Y-129.0
X75.7Y-67.2
X76.3Y-48.9
X76.679Y-87.475
X77.182Y-74.518
X77.209Y-104.249
X77.21Y-114.096
X77.461Y-83.286
X77.544Y-102.685
X78.0Y-129.0
X78.8Y-49.8
X79.0Y-41.6
X79.4Y-66.9
X79.6Y-61.8
X79.741Y-100.004
X80.0Y-51.7
X80.3Y-33.4
X80.365Y-75.132
X80.365Y-88.927
X80.598Y-119.421
X80.7Y-69.0
X80.756Y-77.143
X80.97Y-95.387
X81.0Y-129.0
X81.343Y-115.66
X81.7Y-31.3
X81.8Y-38.3
X81.9Y-52.5
X82.2Y-62.1
X82.981Y-109.089
X83.046Y-88.872
X83.129Y-100.302
X83.437Y-79.265
X83.502Y-114.692
X83.539Y-94.456
X83.6Y-40.8
X83.8Y-66.6
X83.911Y-105.477
X84.0Y-129.0
X84.051Y-74.965
X85.028Y-108.94
X85.289Y-104.993
X85.5Y-69.6
X85.615Y-75.747
X85.615Y-89.765
X85.727Y-79.209
X85.885Y-116.107
X86.145Y-98.701
X86.229Y-83.957
X86.257Y-95.387
X86.3Y-50.0
X87.0Y-129.0
X89.348Y-118.527
X89.385Y-114.878
X89.58Y-77.757
X89.832Y-97.174
X90.0Y-129.0
X90.2Y-49.9
X90.278Y-104.919
X91.5Y-61.5
X91.535Y-83.622
X91.693Y-100.302
X91.879Y-105.663
X92.1Y-47.4
X92.267Y-35.876
X93.0Y-129.0
X93.7Y-67.3
X93.741Y-99.706
X94.272Y-88.76
X94.523Y-111.137
X95.7Y-47.5
X96.0Y-129.0
X96.115Y-74.462
X96.4Y-53.9
X96.674Y-83.342
X97.0Y-63.4
X97.204Y-101.233
X97.241Y-103.541
X97.4Y-85.8
X97.5Y-52.9
X97.502Y-114.022
X97.623Y-65.933
X98.8Y-45.8
X99.0Y-129.0
X99.382Y-100.45
X100.2Y-31.5
X100.4Y-47.3
X100.5Y-52.3
X100.536Y-94.977
X100.806Y-88.536
X100.9Y-61.3
X100.918Y-75.523
X101.141Y-66.435
X101.393Y-100.301
X102.0Y-129.0
X102.2Y-62.8
X102.268Y-114.99
X102.621Y-94.679
X102.65Y-74.35
X103.152Y-88.816
X103.376Y-83.286
X103.822Y-79.265
X103.831Y-109.275
X104.1Y-52.5
X104.232Y-66.576
X104.902Y-69.555
X105.0Y-129.0
X105.554Y-77.925
X105.805Y-116.814
X105.833Y-83.789
X105.833Y-89.709
X105.889Y-75.803
X105.898Y-95.274
X106.01Y-100.45
X106.3Y-31.7
X106.549Y-110.616
X108.0Y-129.0
X108.5Y-40.4
X108.5Y-42.7
X108.514Y-77.366
X108.728Y-98.29
X108.9Y-33.2
X108.961Y-83.398
X108.97Y-114.878
X109.529Y-116.703
X109.8Y-66.6
X110.5Y-61.6
X110.6Y-63.4
X110.8Y-53.6
X111.0Y-129.0
X111.6Y-42.0
X112.116Y-83.937
X112.488Y-100.264
X113.2Y-43.6
X114.0Y-129.0
X114.164Y-100.785
X115.8Y-43.4
X116.1Y-54.3
X116.2Y-61.0
X116.342Y-114.245
X116.5Y-50.9
X116.956Y-94.195
X117.0Y-129.0
X117.441Y-86.432
X117.5Y-74.1
X117.534Y-123.032
X117.552Y-104.471
X117.627Y-83.453
X118.3Y-49.2
X118.6Y-67.0
X119.1Y-63.7
X120.0Y-129.0
X120.084Y-79.376
X120.3Y-31.8
X120.419Y-100.748
X120.494Y-75.709
X120.513Y-120.128
X121.034Y-115.772
X121.834Y-88.927
X122.02Y-74.852
X122.206Y-80.139
X122.7Y-31.9
X123.0Y-129.0
X123.007Y-114.394
X123.2Y-101.3
X123.249Y-86.097
X126.0Y-129.0
X126.06Y-123.814
X126.3Y-100.3
X126.4Y-118.2
X126.5Y-104.9
X126.5Y-109.6
X128.3Y-37.7
X128.5Y-115.5
X128.7Y-128.9
X128.8Y-107.0
X130.6Y-128.9
X131.0Y-57.0
X131.6Y-36.5
X132.1Y-128.9
X132.6Y-79.6
X133.0Y-80.9
X133.0Y-114.3
X134.3Y-61.4
X135.3Y-114.0
X135.8Y-68.6
X136.5Y-60.9
X136.9Y-116.6
X138.3Y-128.9
X138.7Y-37.7
X138.8Y-43.0
X138.9Y-122.7
X139.0Y-69.1
X139.0Y-75.2
X139.0Y-86.9
X139.0Y-89.8
X139.0Y-106.0
X139.0Y-109.0
X139.0Y-112.0
X139.0Y-115.0
X139.0Y-118.0
X139.0Y-120.2
X139.1Y-72.0
X139.1Y-81.0
X139.1Y-83.8
X139.1Y-92.5
X139.1Y-94.9
X139.1Y-98.2
X139.1Y-100.8
X139.2Y-78.2
T3
X129.576Y-51.851
X129.576Y-53.251
X129.576Y-54.651
X130.976Y-51.851
X130.976Y-53.251
X130.976Y-54.651
X132.376Y-51.851
X132.376Y-53.251
X132.376Y-54.651
T4
X53.071Y-121.42
X55.249Y-81.326
X57.928Y-107.213
X65.401Y-121.129
X65.428Y-107.019
X65.462Y-70.325
X65.473Y-81.404
X72.857Y-121.485
X74.926Y-81.434
X77.958Y-107.219
X86.3Y-60.7
X89.8Y-61.9
X90.412Y-36.828
X91.251Y-42.556
X93.108Y-121.6
X93.7Y-54.3
X94.983Y-81.338
X98.001Y-107.035
X114.727Y-121.041
X115.155Y-81.264
X117.7Y-53.3
X119.9Y-107.505
X120.6Y-44.0
X121.976Y-36.108
X122.8Y-59.3
X122.9Y-61.4
X123.104Y-122.457
X123.272Y-82.19
X123.485Y-39.955
X123.807Y-105.565
X124.1Y-54.3
X124.591Y-33.809
X125.0Y-90.3
X125.8Y-59.325
X126.7Y-60.5
X126.9Y-44.0
X126.9Y-90.2
X127.8Y-47.625
X129.9Y-61.2
X130.2Y-48.4
X131.3Y-49.8
X131.6Y-60.9
X132.1Y-82.8
X132.1Y-93.0
X132.2Y-42.3
X132.3Y-103.3
X132.7Y-71.3
X135.4Y-51.6
X136.1Y-47.9
X136.7Y-50.1
X138.8Y-58.1
T6
X60.775Y-36.622
X63.315Y-36.622
X65.855Y-36.622
X71.769Y-36.682
X74.309Y-36.682
X76.849Y-36.682
X135.5Y-84.1
X135.5Y-86.64
X135.5Y-89.18
X135.525Y-72.675
X135.525Y-75.215
X135.525Y-77.755
X135.625Y-95.1
X135.625Y-97.64
X135.625Y-100.18
X135.625Y-106.475
X135.625Y-109.015
X135.625Y-111.555
T7
X53.69Y-74.96
X53.69Y-94.96
X53.69Y-114.96
X60.04Y-72.42
X60.04Y-92.42
X60.04Y-112.42
X73.69Y-74.96
X73.69Y-94.96
X73.69Y-114.96
X80.04Y-72.42
X80.04Y-92.42
X80.04Y-112.42
X93.69Y-74.96
X93.69Y-94.96
X93.69Y-114.96
X100.04Y-72.42
X100.04Y-92.42
X100.04Y-112.42
X113.69Y-74.96
X113.69Y-94.96
X113.69Y-114.96
X120.04Y-72.42
X120.04Y-92.42
X120.04Y-112.42
T8
X113.689Y-32.411
T5
X117.62Y-33.449G85X117.62Y-32.849
G05
X117.62Y-37.879G85X117.62Y-36.779
G05
X126.26Y-33.449G85X126.26Y-32.849
G05
X126.26Y-37.879G85X126.26Y-36.779
G05
T0
M30
