M48
; DRILL file {KiCad (6.0.0)} date Tue Aug  9 12:24:52 2022
; FORMAT={-:-/ absolute / metric / decimal}
; #@! TF.CreationDate,2022-08-09T12:24:52+02:00
; #@! TF.GenerationSoftware,Kicad,Pcbnew,(6.0.0)
; #@! TF.FileFunction,NonPlated,1,2,NPTH
FMAT,2
METRIC
; #@! TA.AperFunction,NonPlated,NPTH,ComponentDrill
T1C0.650
; #@! TA.AperFunction,NonPlated,NPTH,ComponentDrill
T2C1.750
; #@! TA.AperFunction,NonPlated,NPTH,ComponentDrill
T3C3.200
; #@! TA.AperFunction,NonPlated,NPTH,ComponentDrill
T4C4.000
%
G90
G05
T1
X119.05Y-36.799
X124.83Y-36.799
T2
X52.42Y-77.5
X52.42Y-97.5
X52.42Y-117.5
X62.58Y-77.5
X62.58Y-97.5
X62.58Y-117.5
X72.42Y-77.5
X72.42Y-97.5
X72.42Y-117.5
X82.58Y-77.5
X82.58Y-97.5
X82.58Y-117.5
X92.42Y-77.5
X92.42Y-97.5
X92.42Y-117.5
X102.58Y-77.5
X102.58Y-97.5
X102.58Y-117.5
X112.42Y-77.5
X112.42Y-97.5
X112.42Y-117.5
X122.58Y-77.5
X122.58Y-97.5
X122.58Y-117.5
T3
X44.281Y-125.396
X44.569Y-34.585
X135.372Y-125.535
X135.7Y-34.1
T4
X57.5Y-77.5
X57.5Y-97.5
X57.5Y-117.5
X77.5Y-77.5
X77.5Y-97.5
X77.5Y-117.5
X97.5Y-77.5
X97.5Y-97.5
X97.5Y-117.5
X117.5Y-77.5
X117.5Y-97.5
X117.5Y-117.5
T0
M30
