G04 #@! TF.GenerationSoftware,KiCad,Pcbnew,(6.0.0)*
G04 #@! TF.CreationDate,2022-08-09T12:25:01+02:00*
G04 #@! TF.ProjectId,keyboard_v1.0,6b657962-6f61-4726-945f-76312e302e6b,rev?*
G04 #@! TF.SameCoordinates,Original*
G04 #@! TF.FileFunction,Legend,Bot*
G04 #@! TF.FilePolarity,Positive*
%FSLAX46Y46*%
G04 Gerber Fmt 4.6, Leading zero omitted, Abs format (unit mm)*
G04 Created by KiCad (PCBNEW (6.0.0)) date 2022-08-09 12:25:01*
%MOMM*%
%LPD*%
G01*
G04 APERTURE LIST*
G04 Aperture macros list*
%AMRoundRect*
0 Rectangle with rounded corners*
0 $1 Rounding radius*
0 $2 $3 $4 $5 $6 $7 $8 $9 X,Y pos of 4 corners*
0 Add a 4 corners polygon primitive as box body*
4,1,4,$2,$3,$4,$5,$6,$7,$8,$9,$2,$3,0*
0 Add four circle primitives for the rounded corners*
1,1,$1+$1,$2,$3*
1,1,$1+$1,$4,$5*
1,1,$1+$1,$6,$7*
1,1,$1+$1,$8,$9*
0 Add four rect primitives between the rounded corners*
20,1,$1+$1,$2,$3,$4,$5,0*
20,1,$1+$1,$4,$5,$6,$7,0*
20,1,$1+$1,$6,$7,$8,$9,0*
20,1,$1+$1,$8,$9,$2,$3,0*%
G04 Aperture macros list end*
%ADD10C,0.150000*%
%ADD11C,0.120000*%
%ADD12C,1.750000*%
%ADD13C,4.000000*%
%ADD14C,2.500000*%
%ADD15R,1.700000X1.700000*%
%ADD16O,1.700000X1.700000*%
%ADD17C,2.800000*%
%ADD18C,3.200000*%
%ADD19C,0.600000*%
%ADD20C,0.650000*%
%ADD21O,1.000000X2.100000*%
%ADD22O,1.000000X1.600000*%
%ADD23RoundRect,0.250000X0.337500X0.475000X-0.337500X0.475000X-0.337500X-0.475000X0.337500X-0.475000X0*%
%ADD24RoundRect,0.250000X-0.337500X-0.475000X0.337500X-0.475000X0.337500X0.475000X-0.337500X0.475000X0*%
%ADD25R,1.300000X1.700000*%
G04 APERTURE END LIST*
D10*
X52018857Y-81799142D02*
X52066476Y-81846761D01*
X52209333Y-81894380D01*
X52304571Y-81894380D01*
X52447428Y-81846761D01*
X52542666Y-81751523D01*
X52590285Y-81656285D01*
X52637904Y-81465809D01*
X52637904Y-81322952D01*
X52590285Y-81132476D01*
X52542666Y-81037238D01*
X52447428Y-80942000D01*
X52304571Y-80894380D01*
X52209333Y-80894380D01*
X52066476Y-80942000D01*
X52018857Y-80989619D01*
X51066476Y-81894380D02*
X51637904Y-81894380D01*
X51352190Y-81894380D02*
X51352190Y-80894380D01*
X51447428Y-81037238D01*
X51542666Y-81132476D01*
X51637904Y-81180095D01*
X50114095Y-81894380D02*
X50685523Y-81894380D01*
X50399809Y-81894380D02*
X50399809Y-80894380D01*
X50495047Y-81037238D01*
X50590285Y-81132476D01*
X50685523Y-81180095D01*
X99156666Y-110781142D02*
X99204285Y-110828761D01*
X99347142Y-110876380D01*
X99442380Y-110876380D01*
X99585238Y-110828761D01*
X99680476Y-110733523D01*
X99728095Y-110638285D01*
X99775714Y-110447809D01*
X99775714Y-110304952D01*
X99728095Y-110114476D01*
X99680476Y-110019238D01*
X99585238Y-109924000D01*
X99442380Y-109876380D01*
X99347142Y-109876380D01*
X99204285Y-109924000D01*
X99156666Y-109971619D01*
X98299523Y-109876380D02*
X98490000Y-109876380D01*
X98585238Y-109924000D01*
X98632857Y-109971619D01*
X98728095Y-110114476D01*
X98775714Y-110304952D01*
X98775714Y-110685904D01*
X98728095Y-110781142D01*
X98680476Y-110828761D01*
X98585238Y-110876380D01*
X98394761Y-110876380D01*
X98299523Y-110828761D01*
X98251904Y-110781142D01*
X98204285Y-110685904D01*
X98204285Y-110447809D01*
X98251904Y-110352571D01*
X98299523Y-110304952D01*
X98394761Y-110257333D01*
X98585238Y-110257333D01*
X98680476Y-110304952D01*
X98728095Y-110352571D01*
X98775714Y-110447809D01*
X110741666Y-120358142D02*
X110789285Y-120405761D01*
X110932142Y-120453380D01*
X111027380Y-120453380D01*
X111170238Y-120405761D01*
X111265476Y-120310523D01*
X111313095Y-120215285D01*
X111360714Y-120024809D01*
X111360714Y-119881952D01*
X111313095Y-119691476D01*
X111265476Y-119596238D01*
X111170238Y-119501000D01*
X111027380Y-119453380D01*
X110932142Y-119453380D01*
X110789285Y-119501000D01*
X110741666Y-119548619D01*
X110360714Y-119548619D02*
X110313095Y-119501000D01*
X110217857Y-119453380D01*
X109979761Y-119453380D01*
X109884523Y-119501000D01*
X109836904Y-119548619D01*
X109789285Y-119643857D01*
X109789285Y-119739095D01*
X109836904Y-119881952D01*
X110408333Y-120453380D01*
X109789285Y-120453380D01*
X70656095Y-71618380D02*
X70656095Y-70618380D01*
X70418000Y-70618380D01*
X70275142Y-70666000D01*
X70179904Y-70761238D01*
X70132285Y-70856476D01*
X70084666Y-71046952D01*
X70084666Y-71189809D01*
X70132285Y-71380285D01*
X70179904Y-71475523D01*
X70275142Y-71570761D01*
X70418000Y-71618380D01*
X70656095Y-71618380D01*
X69227523Y-70951714D02*
X69227523Y-71618380D01*
X69465619Y-70570761D02*
X69703714Y-71285047D01*
X69084666Y-71285047D01*
X114248666Y-77980142D02*
X114296285Y-78027761D01*
X114439142Y-78075380D01*
X114534380Y-78075380D01*
X114677238Y-78027761D01*
X114772476Y-77932523D01*
X114820095Y-77837285D01*
X114867714Y-77646809D01*
X114867714Y-77503952D01*
X114820095Y-77313476D01*
X114772476Y-77218238D01*
X114677238Y-77123000D01*
X114534380Y-77075380D01*
X114439142Y-77075380D01*
X114296285Y-77123000D01*
X114248666Y-77170619D01*
X113296285Y-78075380D02*
X113867714Y-78075380D01*
X113582000Y-78075380D02*
X113582000Y-77075380D01*
X113677238Y-77218238D01*
X113772476Y-77313476D01*
X113867714Y-77361095D01*
X90692095Y-91644380D02*
X90692095Y-90644380D01*
X90454000Y-90644380D01*
X90311142Y-90692000D01*
X90215904Y-90787238D01*
X90168285Y-90882476D01*
X90120666Y-91072952D01*
X90120666Y-91215809D01*
X90168285Y-91406285D01*
X90215904Y-91501523D01*
X90311142Y-91596761D01*
X90454000Y-91644380D01*
X90692095Y-91644380D01*
X89549238Y-91072952D02*
X89644476Y-91025333D01*
X89692095Y-90977714D01*
X89739714Y-90882476D01*
X89739714Y-90834857D01*
X89692095Y-90739619D01*
X89644476Y-90692000D01*
X89549238Y-90644380D01*
X89358761Y-90644380D01*
X89263523Y-90692000D01*
X89215904Y-90739619D01*
X89168285Y-90834857D01*
X89168285Y-90882476D01*
X89215904Y-90977714D01*
X89263523Y-91025333D01*
X89358761Y-91072952D01*
X89549238Y-91072952D01*
X89644476Y-91120571D01*
X89692095Y-91168190D01*
X89739714Y-91263428D01*
X89739714Y-91453904D01*
X89692095Y-91549142D01*
X89644476Y-91596761D01*
X89549238Y-91644380D01*
X89358761Y-91644380D01*
X89263523Y-91596761D01*
X89215904Y-91549142D01*
X89168285Y-91453904D01*
X89168285Y-91263428D01*
X89215904Y-91168190D01*
X89263523Y-91120571D01*
X89358761Y-91072952D01*
X70102666Y-122355142D02*
X70150285Y-122402761D01*
X70293142Y-122450380D01*
X70388380Y-122450380D01*
X70531238Y-122402761D01*
X70626476Y-122307523D01*
X70674095Y-122212285D01*
X70721714Y-122021809D01*
X70721714Y-121878952D01*
X70674095Y-121688476D01*
X70626476Y-121593238D01*
X70531238Y-121498000D01*
X70388380Y-121450380D01*
X70293142Y-121450380D01*
X70150285Y-121498000D01*
X70102666Y-121545619D01*
X69531238Y-121878952D02*
X69626476Y-121831333D01*
X69674095Y-121783714D01*
X69721714Y-121688476D01*
X69721714Y-121640857D01*
X69674095Y-121545619D01*
X69626476Y-121498000D01*
X69531238Y-121450380D01*
X69340761Y-121450380D01*
X69245523Y-121498000D01*
X69197904Y-121545619D01*
X69150285Y-121640857D01*
X69150285Y-121688476D01*
X69197904Y-121783714D01*
X69245523Y-121831333D01*
X69340761Y-121878952D01*
X69531238Y-121878952D01*
X69626476Y-121926571D01*
X69674095Y-121974190D01*
X69721714Y-122069428D01*
X69721714Y-122259904D01*
X69674095Y-122355142D01*
X69626476Y-122402761D01*
X69531238Y-122450380D01*
X69340761Y-122450380D01*
X69245523Y-122402761D01*
X69197904Y-122355142D01*
X69150285Y-122259904D01*
X69150285Y-122069428D01*
X69197904Y-121974190D01*
X69245523Y-121926571D01*
X69340761Y-121878952D01*
X91174666Y-81934142D02*
X91222285Y-81981761D01*
X91365142Y-82029380D01*
X91460380Y-82029380D01*
X91603238Y-81981761D01*
X91698476Y-81886523D01*
X91746095Y-81791285D01*
X91793714Y-81600809D01*
X91793714Y-81457952D01*
X91746095Y-81267476D01*
X91698476Y-81172238D01*
X91603238Y-81077000D01*
X91460380Y-81029380D01*
X91365142Y-81029380D01*
X91222285Y-81077000D01*
X91174666Y-81124619D01*
X90317523Y-81362714D02*
X90317523Y-82029380D01*
X90555619Y-80981761D02*
X90793714Y-81696047D01*
X90174666Y-81696047D01*
X122711666Y-111321142D02*
X122759285Y-111368761D01*
X122902142Y-111416380D01*
X122997380Y-111416380D01*
X123140238Y-111368761D01*
X123235476Y-111273523D01*
X123283095Y-111178285D01*
X123330714Y-110987809D01*
X123330714Y-110844952D01*
X123283095Y-110654476D01*
X123235476Y-110559238D01*
X123140238Y-110464000D01*
X122997380Y-110416380D01*
X122902142Y-110416380D01*
X122759285Y-110464000D01*
X122711666Y-110511619D01*
X122378333Y-110416380D02*
X121759285Y-110416380D01*
X122092619Y-110797333D01*
X121949761Y-110797333D01*
X121854523Y-110844952D01*
X121806904Y-110892571D01*
X121759285Y-110987809D01*
X121759285Y-111225904D01*
X121806904Y-111321142D01*
X121854523Y-111368761D01*
X121949761Y-111416380D01*
X122235476Y-111416380D01*
X122330714Y-111368761D01*
X122378333Y-111321142D01*
X70677095Y-91560380D02*
X70677095Y-90560380D01*
X70439000Y-90560380D01*
X70296142Y-90608000D01*
X70200904Y-90703238D01*
X70153285Y-90798476D01*
X70105666Y-90988952D01*
X70105666Y-91131809D01*
X70153285Y-91322285D01*
X70200904Y-91417523D01*
X70296142Y-91512761D01*
X70439000Y-91560380D01*
X70677095Y-91560380D01*
X69200904Y-90560380D02*
X69677095Y-90560380D01*
X69724714Y-91036571D01*
X69677095Y-90988952D01*
X69581857Y-90941333D01*
X69343761Y-90941333D01*
X69248523Y-90988952D01*
X69200904Y-91036571D01*
X69153285Y-91131809D01*
X69153285Y-91369904D01*
X69200904Y-91465142D01*
X69248523Y-91512761D01*
X69343761Y-91560380D01*
X69581857Y-91560380D01*
X69677095Y-91512761D01*
X69724714Y-91465142D01*
X90679095Y-111602380D02*
X90679095Y-110602380D01*
X90441000Y-110602380D01*
X90298142Y-110650000D01*
X90202904Y-110745238D01*
X90155285Y-110840476D01*
X90107666Y-111030952D01*
X90107666Y-111173809D01*
X90155285Y-111364285D01*
X90202904Y-111459523D01*
X90298142Y-111554761D01*
X90441000Y-111602380D01*
X90679095Y-111602380D01*
X89631476Y-111602380D02*
X89441000Y-111602380D01*
X89345761Y-111554761D01*
X89298142Y-111507142D01*
X89202904Y-111364285D01*
X89155285Y-111173809D01*
X89155285Y-110792857D01*
X89202904Y-110697619D01*
X89250523Y-110650000D01*
X89345761Y-110602380D01*
X89536238Y-110602380D01*
X89631476Y-110650000D01*
X89679095Y-110697619D01*
X89726714Y-110792857D01*
X89726714Y-111030952D01*
X89679095Y-111126190D01*
X89631476Y-111173809D01*
X89536238Y-111221428D01*
X89345761Y-111221428D01*
X89250523Y-111173809D01*
X89202904Y-111126190D01*
X89155285Y-111030952D01*
X70896666Y-81312142D02*
X70944285Y-81359761D01*
X71087142Y-81407380D01*
X71182380Y-81407380D01*
X71325238Y-81359761D01*
X71420476Y-81264523D01*
X71468095Y-81169285D01*
X71515714Y-80978809D01*
X71515714Y-80835952D01*
X71468095Y-80645476D01*
X71420476Y-80550238D01*
X71325238Y-80455000D01*
X71182380Y-80407380D01*
X71087142Y-80407380D01*
X70944285Y-80455000D01*
X70896666Y-80502619D01*
X70563333Y-80407380D02*
X69896666Y-80407380D01*
X70325238Y-81407380D01*
X113155285Y-71521380D02*
X113155285Y-70521380D01*
X112917190Y-70521380D01*
X112774333Y-70569000D01*
X112679095Y-70664238D01*
X112631476Y-70759476D01*
X112583857Y-70949952D01*
X112583857Y-71092809D01*
X112631476Y-71283285D01*
X112679095Y-71378523D01*
X112774333Y-71473761D01*
X112917190Y-71521380D01*
X113155285Y-71521380D01*
X111631476Y-71521380D02*
X112202904Y-71521380D01*
X111917190Y-71521380D02*
X111917190Y-70521380D01*
X112012428Y-70664238D01*
X112107666Y-70759476D01*
X112202904Y-70807095D01*
X111012428Y-70521380D02*
X110917190Y-70521380D01*
X110821952Y-70569000D01*
X110774333Y-70616619D01*
X110726714Y-70711857D01*
X110679095Y-70902333D01*
X110679095Y-71140428D01*
X110726714Y-71330904D01*
X110774333Y-71426142D01*
X110821952Y-71473761D01*
X110917190Y-71521380D01*
X111012428Y-71521380D01*
X111107666Y-71473761D01*
X111155285Y-71426142D01*
X111202904Y-71330904D01*
X111250523Y-71140428D01*
X111250523Y-70902333D01*
X111202904Y-70711857D01*
X111155285Y-70616619D01*
X111107666Y-70569000D01*
X111012428Y-70521380D01*
X89412666Y-121789142D02*
X89460285Y-121836761D01*
X89603142Y-121884380D01*
X89698380Y-121884380D01*
X89841238Y-121836761D01*
X89936476Y-121741523D01*
X89984095Y-121646285D01*
X90031714Y-121455809D01*
X90031714Y-121312952D01*
X89984095Y-121122476D01*
X89936476Y-121027238D01*
X89841238Y-120932000D01*
X89698380Y-120884380D01*
X89603142Y-120884380D01*
X89460285Y-120932000D01*
X89412666Y-120979619D01*
X88507904Y-120884380D02*
X88984095Y-120884380D01*
X89031714Y-121360571D01*
X88984095Y-121312952D01*
X88888857Y-121265333D01*
X88650761Y-121265333D01*
X88555523Y-121312952D01*
X88507904Y-121360571D01*
X88460285Y-121455809D01*
X88460285Y-121693904D01*
X88507904Y-121789142D01*
X88555523Y-121836761D01*
X88650761Y-121884380D01*
X88888857Y-121884380D01*
X88984095Y-121836761D01*
X89031714Y-121789142D01*
X50667095Y-91657380D02*
X50667095Y-90657380D01*
X50429000Y-90657380D01*
X50286142Y-90705000D01*
X50190904Y-90800238D01*
X50143285Y-90895476D01*
X50095666Y-91085952D01*
X50095666Y-91228809D01*
X50143285Y-91419285D01*
X50190904Y-91514523D01*
X50286142Y-91609761D01*
X50429000Y-91657380D01*
X50667095Y-91657380D01*
X49714714Y-90752619D02*
X49667095Y-90705000D01*
X49571857Y-90657380D01*
X49333761Y-90657380D01*
X49238523Y-90705000D01*
X49190904Y-90752619D01*
X49143285Y-90847857D01*
X49143285Y-90943095D01*
X49190904Y-91085952D01*
X49762333Y-91657380D01*
X49143285Y-91657380D01*
X59656857Y-110765142D02*
X59704476Y-110812761D01*
X59847333Y-110860380D01*
X59942571Y-110860380D01*
X60085428Y-110812761D01*
X60180666Y-110717523D01*
X60228285Y-110622285D01*
X60275904Y-110431809D01*
X60275904Y-110288952D01*
X60228285Y-110098476D01*
X60180666Y-110003238D01*
X60085428Y-109908000D01*
X59942571Y-109860380D01*
X59847333Y-109860380D01*
X59704476Y-109908000D01*
X59656857Y-109955619D01*
X58704476Y-110860380D02*
X59275904Y-110860380D01*
X58990190Y-110860380D02*
X58990190Y-109860380D01*
X59085428Y-110003238D01*
X59180666Y-110098476D01*
X59275904Y-110146095D01*
X57847333Y-110193714D02*
X57847333Y-110860380D01*
X58085428Y-109812761D02*
X58323523Y-110527047D01*
X57704476Y-110527047D01*
X113175285Y-111650380D02*
X113175285Y-110650380D01*
X112937190Y-110650380D01*
X112794333Y-110698000D01*
X112699095Y-110793238D01*
X112651476Y-110888476D01*
X112603857Y-111078952D01*
X112603857Y-111221809D01*
X112651476Y-111412285D01*
X112699095Y-111507523D01*
X112794333Y-111602761D01*
X112937190Y-111650380D01*
X113175285Y-111650380D01*
X111651476Y-111650380D02*
X112222904Y-111650380D01*
X111937190Y-111650380D02*
X111937190Y-110650380D01*
X112032428Y-110793238D01*
X112127666Y-110888476D01*
X112222904Y-110936095D01*
X111270523Y-110745619D02*
X111222904Y-110698000D01*
X111127666Y-110650380D01*
X110889571Y-110650380D01*
X110794333Y-110698000D01*
X110746714Y-110745619D01*
X110699095Y-110840857D01*
X110699095Y-110936095D01*
X110746714Y-111078952D01*
X111318142Y-111650380D01*
X110699095Y-111650380D01*
X90697095Y-71581380D02*
X90697095Y-70581380D01*
X90459000Y-70581380D01*
X90316142Y-70629000D01*
X90220904Y-70724238D01*
X90173285Y-70819476D01*
X90125666Y-71009952D01*
X90125666Y-71152809D01*
X90173285Y-71343285D01*
X90220904Y-71438523D01*
X90316142Y-71533761D01*
X90459000Y-71581380D01*
X90697095Y-71581380D01*
X89792333Y-70581380D02*
X89125666Y-70581380D01*
X89554238Y-71581380D01*
X113144285Y-91525380D02*
X113144285Y-90525380D01*
X112906190Y-90525380D01*
X112763333Y-90573000D01*
X112668095Y-90668238D01*
X112620476Y-90763476D01*
X112572857Y-90953952D01*
X112572857Y-91096809D01*
X112620476Y-91287285D01*
X112668095Y-91382523D01*
X112763333Y-91477761D01*
X112906190Y-91525380D01*
X113144285Y-91525380D01*
X111620476Y-91525380D02*
X112191904Y-91525380D01*
X111906190Y-91525380D02*
X111906190Y-90525380D01*
X112001428Y-90668238D01*
X112096666Y-90763476D01*
X112191904Y-90811095D01*
X110668095Y-91525380D02*
X111239523Y-91525380D01*
X110953809Y-91525380D02*
X110953809Y-90525380D01*
X111049047Y-90668238D01*
X111144285Y-90763476D01*
X111239523Y-90811095D01*
X70679095Y-111476380D02*
X70679095Y-110476380D01*
X70441000Y-110476380D01*
X70298142Y-110524000D01*
X70202904Y-110619238D01*
X70155285Y-110714476D01*
X70107666Y-110904952D01*
X70107666Y-111047809D01*
X70155285Y-111238285D01*
X70202904Y-111333523D01*
X70298142Y-111428761D01*
X70441000Y-111476380D01*
X70679095Y-111476380D01*
X69250523Y-110476380D02*
X69441000Y-110476380D01*
X69536238Y-110524000D01*
X69583857Y-110571619D01*
X69679095Y-110714476D01*
X69726714Y-110904952D01*
X69726714Y-111285904D01*
X69679095Y-111381142D01*
X69631476Y-111428761D01*
X69536238Y-111476380D01*
X69345761Y-111476380D01*
X69250523Y-111428761D01*
X69202904Y-111381142D01*
X69155285Y-111285904D01*
X69155285Y-111047809D01*
X69202904Y-110952571D01*
X69250523Y-110904952D01*
X69345761Y-110857333D01*
X69536238Y-110857333D01*
X69631476Y-110904952D01*
X69679095Y-110952571D01*
X69726714Y-111047809D01*
X50667095Y-111421380D02*
X50667095Y-110421380D01*
X50429000Y-110421380D01*
X50286142Y-110469000D01*
X50190904Y-110564238D01*
X50143285Y-110659476D01*
X50095666Y-110849952D01*
X50095666Y-110992809D01*
X50143285Y-111183285D01*
X50190904Y-111278523D01*
X50286142Y-111373761D01*
X50429000Y-111421380D01*
X50667095Y-111421380D01*
X49762333Y-110421380D02*
X49143285Y-110421380D01*
X49476619Y-110802333D01*
X49333761Y-110802333D01*
X49238523Y-110849952D01*
X49190904Y-110897571D01*
X49143285Y-110992809D01*
X49143285Y-111230904D01*
X49190904Y-111326142D01*
X49238523Y-111373761D01*
X49333761Y-111421380D01*
X49619476Y-111421380D01*
X49714714Y-111373761D01*
X49762333Y-111326142D01*
X50694095Y-71452380D02*
X50694095Y-70452380D01*
X50456000Y-70452380D01*
X50313142Y-70500000D01*
X50217904Y-70595238D01*
X50170285Y-70690476D01*
X50122666Y-70880952D01*
X50122666Y-71023809D01*
X50170285Y-71214285D01*
X50217904Y-71309523D01*
X50313142Y-71404761D01*
X50456000Y-71452380D01*
X50694095Y-71452380D01*
X49170285Y-71452380D02*
X49741714Y-71452380D01*
X49456000Y-71452380D02*
X49456000Y-70452380D01*
X49551238Y-70595238D01*
X49646476Y-70690476D01*
X49741714Y-70738095D01*
X50933857Y-122198142D02*
X50981476Y-122245761D01*
X51124333Y-122293380D01*
X51219571Y-122293380D01*
X51362428Y-122245761D01*
X51457666Y-122150523D01*
X51505285Y-122055285D01*
X51552904Y-121864809D01*
X51552904Y-121721952D01*
X51505285Y-121531476D01*
X51457666Y-121436238D01*
X51362428Y-121341000D01*
X51219571Y-121293380D01*
X51124333Y-121293380D01*
X50981476Y-121341000D01*
X50933857Y-121388619D01*
X49981476Y-122293380D02*
X50552904Y-122293380D01*
X50267190Y-122293380D02*
X50267190Y-121293380D01*
X50362428Y-121436238D01*
X50457666Y-121531476D01*
X50552904Y-121579095D01*
X49600523Y-121388619D02*
X49552904Y-121341000D01*
X49457666Y-121293380D01*
X49219571Y-121293380D01*
X49124333Y-121341000D01*
X49076714Y-121388619D01*
X49029095Y-121483857D01*
X49029095Y-121579095D01*
X49076714Y-121721952D01*
X49648142Y-122293380D01*
X49029095Y-122293380D01*
X79616857Y-110745142D02*
X79664476Y-110792761D01*
X79807333Y-110840380D01*
X79902571Y-110840380D01*
X80045428Y-110792761D01*
X80140666Y-110697523D01*
X80188285Y-110602285D01*
X80235904Y-110411809D01*
X80235904Y-110268952D01*
X80188285Y-110078476D01*
X80140666Y-109983238D01*
X80045428Y-109888000D01*
X79902571Y-109840380D01*
X79807333Y-109840380D01*
X79664476Y-109888000D01*
X79616857Y-109935619D01*
X78664476Y-110840380D02*
X79235904Y-110840380D01*
X78950190Y-110840380D02*
X78950190Y-109840380D01*
X79045428Y-109983238D01*
X79140666Y-110078476D01*
X79235904Y-110126095D01*
X78045428Y-109840380D02*
X77950190Y-109840380D01*
X77854952Y-109888000D01*
X77807333Y-109935619D01*
X77759714Y-110030857D01*
X77712095Y-110221333D01*
X77712095Y-110459428D01*
X77759714Y-110649904D01*
X77807333Y-110745142D01*
X77854952Y-110792761D01*
X77950190Y-110840380D01*
X78045428Y-110840380D01*
X78140666Y-110792761D01*
X78188285Y-110745142D01*
X78235904Y-110649904D01*
X78283523Y-110459428D01*
X78283523Y-110221333D01*
X78235904Y-110030857D01*
X78188285Y-109935619D01*
X78140666Y-109888000D01*
X78045428Y-109840380D01*
D11*
X54120252Y-78920000D02*
X53597748Y-78920000D01*
X54120252Y-80390000D02*
X53597748Y-80390000D01*
X98728748Y-108009000D02*
X99251252Y-108009000D01*
X98728748Y-109479000D02*
X99251252Y-109479000D01*
X113976252Y-118638000D02*
X113453748Y-118638000D01*
X113976252Y-120108000D02*
X113453748Y-120108000D01*
X67368000Y-68166000D02*
X71668000Y-68166000D01*
X67368000Y-70166000D02*
X67368000Y-68166000D01*
X71668000Y-70166000D02*
X67368000Y-70166000D01*
X113993252Y-78709000D02*
X113470748Y-78709000D01*
X113993252Y-80179000D02*
X113470748Y-80179000D01*
X87404000Y-90192000D02*
X87404000Y-88192000D01*
X87404000Y-88192000D02*
X91704000Y-88192000D01*
X91704000Y-90192000D02*
X87404000Y-90192000D01*
X72304252Y-119181000D02*
X71781748Y-119181000D01*
X72304252Y-120651000D02*
X71781748Y-120651000D01*
X93107252Y-80495000D02*
X92584748Y-80495000D01*
X93107252Y-79025000D02*
X92584748Y-79025000D01*
X120465748Y-109718000D02*
X120988252Y-109718000D01*
X120465748Y-108248000D02*
X120988252Y-108248000D01*
X67389000Y-90108000D02*
X67389000Y-88108000D01*
X67389000Y-88108000D02*
X71689000Y-88108000D01*
X71689000Y-90108000D02*
X67389000Y-90108000D01*
X87391000Y-110150000D02*
X87391000Y-108150000D01*
X87391000Y-108150000D02*
X91691000Y-108150000D01*
X91691000Y-110150000D02*
X87391000Y-110150000D01*
X73871252Y-80208000D02*
X73348748Y-80208000D01*
X73871252Y-78738000D02*
X73348748Y-78738000D01*
X113691000Y-70069000D02*
X109391000Y-70069000D01*
X109391000Y-68069000D02*
X113691000Y-68069000D01*
X109391000Y-70069000D02*
X109391000Y-68069000D01*
X92311252Y-119296000D02*
X91788748Y-119296000D01*
X92311252Y-120766000D02*
X91788748Y-120766000D01*
X51679000Y-90205000D02*
X47379000Y-90205000D01*
X47379000Y-88205000D02*
X51679000Y-88205000D01*
X47379000Y-90205000D02*
X47379000Y-88205000D01*
X58752748Y-107993000D02*
X59275252Y-107993000D01*
X58752748Y-109463000D02*
X59275252Y-109463000D01*
X109411000Y-110198000D02*
X109411000Y-108198000D01*
X113711000Y-110198000D02*
X109411000Y-110198000D01*
X109411000Y-108198000D02*
X113711000Y-108198000D01*
X87409000Y-70129000D02*
X87409000Y-68129000D01*
X87409000Y-68129000D02*
X91709000Y-68129000D01*
X91709000Y-70129000D02*
X87409000Y-70129000D01*
X109380000Y-88073000D02*
X113680000Y-88073000D01*
X109380000Y-90073000D02*
X109380000Y-88073000D01*
X113680000Y-90073000D02*
X109380000Y-90073000D01*
X71691000Y-110024000D02*
X67391000Y-110024000D01*
X67391000Y-110024000D02*
X67391000Y-108024000D01*
X67391000Y-108024000D02*
X71691000Y-108024000D01*
X47379000Y-109969000D02*
X47379000Y-107969000D01*
X47379000Y-107969000D02*
X51679000Y-107969000D01*
X51679000Y-109969000D02*
X47379000Y-109969000D01*
X47351000Y-70007000D02*
X47351000Y-68007000D01*
X47351000Y-68007000D02*
X51651000Y-68007000D01*
X51651000Y-70007000D02*
X47351000Y-70007000D01*
X52301252Y-120614000D02*
X51778748Y-120614000D01*
X52301252Y-119144000D02*
X51778748Y-119144000D01*
X78712748Y-107973000D02*
X79235252Y-107973000D01*
X78712748Y-109443000D02*
X79235252Y-109443000D01*
%LPC*%
D10*
X127996000Y-50800000D02*
X134300000Y-50800000D01*
X134300000Y-50800000D02*
X134300000Y-56099000D01*
X134300000Y-56099000D02*
X127996000Y-56099000D01*
X127996000Y-56099000D02*
X127996000Y-50800000D01*
G36*
X127996000Y-50800000D02*
G01*
X134300000Y-50800000D01*
X134300000Y-56099000D01*
X127996000Y-56099000D01*
X127996000Y-50800000D01*
G37*
X95018000Y-37153000D02*
X97522000Y-37153000D01*
X97522000Y-37153000D02*
X97522000Y-40551000D01*
X97522000Y-40551000D02*
X95018000Y-40551000D01*
X95018000Y-40551000D02*
X95018000Y-37153000D01*
G36*
X95018000Y-37153000D02*
G01*
X97522000Y-37153000D01*
X97522000Y-40551000D01*
X95018000Y-40551000D01*
X95018000Y-37153000D01*
G37*
D12*
X102580000Y-117500000D03*
D13*
X97500000Y-117500000D03*
D12*
X92420000Y-117500000D03*
D14*
X93690000Y-114960000D03*
X100040000Y-112420000D03*
D15*
X135625000Y-106475000D03*
D16*
X135625000Y-109015000D03*
X135625000Y-111555000D03*
D13*
X57500000Y-77500000D03*
D12*
X62580000Y-77500000D03*
X52420000Y-77500000D03*
D14*
X53690000Y-74960000D03*
X60040000Y-72420000D03*
D15*
X135525000Y-72675000D03*
D16*
X135525000Y-75215000D03*
X135525000Y-77755000D03*
D17*
X113689000Y-32411000D03*
D18*
X135372000Y-125535000D03*
D15*
X76849000Y-36682000D03*
D16*
X74309000Y-36682000D03*
X71769000Y-36682000D03*
D12*
X92420000Y-77500000D03*
X102580000Y-77500000D03*
D13*
X97500000Y-77500000D03*
D14*
X93690000Y-74960000D03*
X100040000Y-72420000D03*
D15*
X60775000Y-36622000D03*
D16*
X63315000Y-36622000D03*
X65855000Y-36622000D03*
D13*
X117500000Y-77500000D03*
D12*
X112420000Y-77500000D03*
X122580000Y-77500000D03*
D14*
X113690000Y-74960000D03*
X120040000Y-72420000D03*
D12*
X112420000Y-97500000D03*
X122580000Y-97500000D03*
D13*
X117500000Y-97500000D03*
D14*
X113690000Y-94960000D03*
X120040000Y-92420000D03*
D13*
X77500000Y-97500000D03*
D12*
X82580000Y-97500000D03*
X72420000Y-97500000D03*
D14*
X73690000Y-94960000D03*
X80040000Y-92420000D03*
D19*
X132376000Y-54651000D03*
X130976000Y-54651000D03*
X129576000Y-53251000D03*
X129576000Y-51851000D03*
X130976000Y-53251000D03*
X132376000Y-51851000D03*
X129576000Y-54651000D03*
X132376000Y-53251000D03*
X130976000Y-51851000D03*
D12*
X112420000Y-117500000D03*
D13*
X117500000Y-117500000D03*
D12*
X122580000Y-117500000D03*
D14*
X113690000Y-114960000D03*
X120040000Y-112420000D03*
D12*
X72420000Y-117500000D03*
X82580000Y-117500000D03*
D13*
X77500000Y-117500000D03*
D14*
X73690000Y-114960000D03*
X80040000Y-112420000D03*
D15*
X135625000Y-95100000D03*
D16*
X135625000Y-97640000D03*
X135625000Y-100180000D03*
D20*
X119050000Y-36799000D03*
X124830000Y-36799000D03*
D21*
X117620000Y-37329000D03*
X126260000Y-37329000D03*
D22*
X126260000Y-33149000D03*
X117620000Y-33149000D03*
D13*
X97500000Y-97500000D03*
D12*
X102580000Y-97500000D03*
X92420000Y-97500000D03*
D14*
X93690000Y-94960000D03*
X100040000Y-92420000D03*
D18*
X135700000Y-34100000D03*
D12*
X52420000Y-117500000D03*
X62580000Y-117500000D03*
D13*
X57500000Y-117500000D03*
D14*
X53690000Y-114960000D03*
X60040000Y-112420000D03*
D18*
X44281000Y-125396000D03*
X44569000Y-34585000D03*
D12*
X72420000Y-77500000D03*
X82580000Y-77500000D03*
D13*
X77500000Y-77500000D03*
D14*
X73690000Y-74960000D03*
X80040000Y-72420000D03*
D13*
X57500000Y-97500000D03*
D12*
X52420000Y-97500000D03*
X62580000Y-97500000D03*
D14*
X53690000Y-94960000D03*
X60040000Y-92420000D03*
D15*
X135500000Y-84100000D03*
D16*
X135500000Y-86640000D03*
X135500000Y-89180000D03*
D23*
X54896500Y-79655000D03*
X52821500Y-79655000D03*
D24*
X97952500Y-108744000D03*
X100027500Y-108744000D03*
D23*
X114752500Y-119373000D03*
X112677500Y-119373000D03*
D25*
X68168000Y-69166000D03*
X71668000Y-69166000D03*
D23*
X114769500Y-79444000D03*
X112694500Y-79444000D03*
D25*
X88204000Y-89192000D03*
X91704000Y-89192000D03*
D23*
X73080500Y-119916000D03*
X71005500Y-119916000D03*
X93883500Y-79760000D03*
X91808500Y-79760000D03*
D24*
X119689500Y-108983000D03*
X121764500Y-108983000D03*
D25*
X68189000Y-89108000D03*
X71689000Y-89108000D03*
X88191000Y-109150000D03*
X91691000Y-109150000D03*
D23*
X74647500Y-79473000D03*
X72572500Y-79473000D03*
D25*
X110191000Y-69069000D03*
X113691000Y-69069000D03*
D23*
X93087500Y-120031000D03*
X91012500Y-120031000D03*
D25*
X48179000Y-89205000D03*
X51679000Y-89205000D03*
D24*
X57976500Y-108728000D03*
X60051500Y-108728000D03*
D25*
X110211000Y-109198000D03*
X113711000Y-109198000D03*
X88209000Y-69129000D03*
X91709000Y-69129000D03*
X110180000Y-89073000D03*
X113680000Y-89073000D03*
X68191000Y-109024000D03*
X71691000Y-109024000D03*
X48179000Y-108969000D03*
X51679000Y-108969000D03*
X48151000Y-69007000D03*
X51651000Y-69007000D03*
D23*
X53077500Y-119879000D03*
X51002500Y-119879000D03*
D24*
X77936500Y-108708000D03*
X80011500Y-108708000D03*
M02*
