M48
; DRILL file {KiCad (6.0.0)} date Tue Apr 12 23:45:12 2022
; FORMAT={-:-/ absolute / inch / decimal}
; #@! TF.CreationDate,2022-04-12T23:45:12+02:00
; #@! TF.GenerationSoftware,Kicad,Pcbnew,(6.0.0)
; #@! TF.FileFunction,Plated,1,2,PTH
FMAT,2
INCH
; #@! TA.AperFunction,Plated,PTH,ViaDrill
T1C0.0118
; #@! TA.AperFunction,Plated,PTH,ViaDrill
T2C0.0157
; #@! TA.AperFunction,Plated,PTH,ComponentDrill
T3C0.0157
; #@! TA.AperFunction,Plated,PTH,ViaDrill
T4C0.0197
; #@! TA.AperFunction,Plated,PTH,ViaDrill
T5C0.0236
; #@! TA.AperFunction,Plated,PTH,ComponentDrill
T6C0.0236
; #@! TA.AperFunction,Plated,PTH,ComponentDrill
T7C0.0315
; #@! TA.AperFunction,Plated,PTH,ComponentDrill
T8C0.0394
; #@! TA.AperFunction,Plated,PTH,ComponentDrill
T9C0.0433
; #@! TA.AperFunction,Plated,PTH,ComponentDrill
T10C0.0591
; #@! TA.AperFunction,Plated,PTH,ComponentDrill
T11C0.0630
%
G90
G05
T1
X2.8486Y-1.9311
X2.9251Y-1.9438
X2.9286Y-1.765
X3.04Y-1.8461
X3.0774Y-1.8816
X3.1393Y-1.8816
X3.1422Y-1.9222
X3.2647Y-1.9938
X3.3068Y-1.9688
X3.3496Y-2.0223
X3.3942Y-1.8438
T2
X2.196Y-1.3826
X2.3139Y-1.4979
X2.4245Y-1.2696
X4.8799Y-2.18
X5.0312Y-2.1977
X5.1466Y-2.3372
X5.1671Y-2.1985
T3
X1.8724Y-2.0118
X1.8724Y-2.0669
X1.8724Y-2.122
X1.9276Y-2.0118
X1.9276Y-2.0669
X1.9276Y-2.122
X1.9827Y-2.0118
X1.9827Y-2.0669
X1.9827Y-2.122
T4
X2.1748Y-1.4981
X2.2215Y-2.4403
X2.2294Y-1.5055
X2.2723Y-2.4431
X2.3014Y-1.3226
X3.2183Y-1.6607
X3.3532Y-1.2257
X3.5728Y-1.5262
X3.6303Y-1.2262
X3.8498Y-2.0412
X4.9251Y-1.5793
X5.2042Y-1.5617
T5
X1.6757Y-1.7314
X1.7239Y-1.5891
X1.7753Y-2.2569
X1.7755Y-2.9656
X1.8964Y-2.4367
X1.9372Y-2.4832
X1.9372Y-2.5787
X1.9792Y-2.4385
X2.0115Y-2.5767
X2.0252Y-4.4346
X2.0807Y-2.0787
X2.0811Y-2.6734
X2.1641Y-2.6322
X2.1667Y-2.2243
X2.3189Y-1.5463
X2.3504Y-4.0769
X2.3883Y-3.9478
X2.4641Y-1.9895
X2.4657Y-1.7519
X2.5522Y-1.9881
X2.64Y-1.2795
X2.7217Y-4.0702
X2.757Y-3.9403
X2.9217Y-4.7311
X3.0463Y-4.5963
X3.101Y-4.0678
X3.1668Y-2.6422
X3.1746Y-4.7913
X3.181Y-3.9374
X3.2727Y-4.1309
X3.3528Y-2.8619
X3.3881Y-4.3272
X3.3942Y-2.0556
X3.4984Y-1.2269
X3.9876Y-4.1414
X4.0358Y-3.2913
X4.0509Y-4.5886
X4.105Y-4.0278
X4.1066Y-4.8167
X4.241Y-2.1729
X4.4591Y-1.6607
X4.4761Y-4.7141
X4.4913Y-2.5183
X4.5347Y-4.6221
X4.7333Y-2.3748
X4.8486Y-2.0586
X4.9622Y-1.7364
X4.9935Y-1.4271
X5.2137Y-1.6722
X5.2209Y-1.7359
X5.2842Y-1.9931
T6
X3.7301Y-2.3937
X3.7892Y-2.3937
X5.4138Y-1.9305
X5.4138Y-1.9896
T7
X3.0211Y-2.2632
X3.2179Y-2.2632
X4.4315Y-1.2482
X4.4315Y-2.2482
X4.7876Y-1.2892
X4.7876Y-1.3876
T8
X3.7173Y-1.2419
X3.7173Y-1.3419
T9
X2.5575Y-2.3367
X2.9575Y-2.3367
X3.9636Y-1.3303
X3.9677Y-2.488
X4.0636Y-1.3303
X4.1636Y-1.3303
X4.3677Y-2.488
X4.5374Y-2.0189
X4.5374Y-2.4189
X4.6681Y-1.5516
X4.6681Y-1.9516
T10
X2.2122Y-2.8528
X2.2122Y-3.6402
X2.2122Y-4.4276
X2.4622Y-2.7528
X2.4622Y-3.5402
X2.4622Y-4.3276
X2.9996Y-2.8528
X2.9996Y-3.6402
X2.9996Y-4.4276
X3.2496Y-2.7528
X3.2496Y-3.5402
X3.2496Y-4.3276
X3.787Y-2.8528
X3.787Y-3.6402
X3.787Y-4.4276
X4.037Y-2.7528
X4.037Y-3.5402
X4.037Y-4.3276
X4.5744Y-2.8528
X4.5744Y-3.6402
X4.5744Y-4.4276
X4.8244Y-2.7528
X4.8244Y-3.5402
X4.8244Y-4.3276
T11
X2.5134Y-1.4676
T6
G00X2.015Y-1.25
M15
G01X2.015Y-1.2264
M16
G05
G00X2.015Y-1.4244
M15
G01X2.015Y-1.3811
M16
G05
G00X2.3551Y-1.25
M15
G01X2.3551Y-1.2264
M16
G05
G00X2.3551Y-1.4244
M15
G01X2.3551Y-1.3811
M16
G05
T0
M30
