%TF.GenerationSoftware,KiCad,Pcbnew,(6.0.0)*%
%TF.CreationDate,2022-04-14T21:00:37+02:00*%
%TF.ProjectId,keyboard_v1.0,6b657962-6f61-4726-945f-76312e302e6b,rev?*%
%TF.SameCoordinates,Original*%
%TF.FileFunction,Soldermask,Top*%
%TF.FilePolarity,Negative*%
%FSLAX46Y46*%
G04 Gerber Fmt 4.6, Leading zero omitted, Abs format (unit mm)*
G04 Created by KiCad (PCBNEW (6.0.0)) date 2022-04-14 21:00:37*
%MOMM*%
%LPD*%
G01*
G04 APERTURE LIST*
G04 Aperture macros list*
%AMRoundRect*
0 Rectangle with rounded corners*
0 $1 Rounding radius*
0 $2 $3 $4 $5 $6 $7 $8 $9 X,Y pos of 4 corners*
0 Add a 4 corners polygon primitive as box body*
4,1,4,$2,$3,$4,$5,$6,$7,$8,$9,$2,$3,0*
0 Add four circle primitives for the rounded corners*
1,1,$1+$1,$2,$3*
1,1,$1+$1,$4,$5*
1,1,$1+$1,$6,$7*
1,1,$1+$1,$8,$9*
0 Add four rect primitives between the rounded corners*
20,1,$1+$1,$2,$3,$4,$5,0*
20,1,$1+$1,$4,$5,$6,$7,0*
20,1,$1+$1,$6,$7,$8,$9,0*
20,1,$1+$1,$8,$9,$2,$3,0*%
G04 Aperture macros list end*
%ADD10RoundRect,0.250000X0.475000X-0.337500X0.475000X0.337500X-0.475000X0.337500X-0.475000X-0.337500X0*%
%ADD11R,1.500000X1.000000*%
%ADD12C,4.000000*%
%ADD13C,1.750000*%
%ADD14RoundRect,0.250000X-0.337500X-0.475000X0.337500X-0.475000X0.337500X0.475000X-0.337500X0.475000X0*%
%ADD15RoundRect,0.250000X0.350000X0.450000X-0.350000X0.450000X-0.350000X-0.450000X0.350000X-0.450000X0*%
%ADD16RoundRect,0.250000X-0.475000X0.337500X-0.475000X-0.337500X0.475000X-0.337500X0.475000X0.337500X0*%
%ADD17R,1.300000X1.700000*%
%ADD18RoundRect,0.250000X0.337500X0.475000X-0.337500X0.475000X-0.337500X-0.475000X0.337500X-0.475000X0*%
%ADD19C,0.650000*%
%ADD20R,0.600000X1.450000*%
%ADD21R,0.300000X1.450000*%
%ADD22O,1.000000X2.100000*%
%ADD23O,1.000000X1.600000*%
%ADD24R,2.150000X5.500000*%
%ADD25R,1.800000X2.500000*%
%ADD26RoundRect,0.250000X-0.350000X-0.450000X0.350000X-0.450000X0.350000X0.450000X-0.350000X0.450000X0*%
%ADD27RoundRect,0.150000X0.150000X-0.587500X0.150000X0.587500X-0.150000X0.587500X-0.150000X-0.587500X0*%
%ADD28RoundRect,0.250000X0.450000X-0.350000X0.450000X0.350000X-0.450000X0.350000X-0.450000X-0.350000X0*%
%ADD29R,0.900000X1.500000*%
%ADD30R,1.500000X0.900000*%
%ADD31C,0.600000*%
%ADD32R,0.900000X0.900000*%
%ADD33R,1.700000X1.700000*%
%ADD34O,1.700000X1.700000*%
%ADD35C,1.600000*%
%ADD36R,1.200000X1.200000*%
%ADD37C,1.200000*%
%ADD38RoundRect,0.250000X-0.450000X0.350000X-0.450000X-0.350000X0.450000X-0.350000X0.450000X0.350000X0*%
%ADD39C,3.200000*%
%ADD40RoundRect,0.237500X-0.237500X0.287500X-0.237500X-0.287500X0.237500X-0.287500X0.237500X0.287500X0*%
%ADD41R,2.200000X2.200000*%
%ADD42O,2.200000X2.200000*%
%ADD43C,2.800000*%
%ADD44R,1.460500X0.533400*%
%ADD45RoundRect,0.249999X-0.450001X-1.425001X0.450001X-1.425001X0.450001X1.425001X-0.450001X1.425001X0*%
%ADD46R,1.460500X0.355600*%
%ADD47R,5.500000X2.150000*%
%ADD48O,1.600000X1.600000*%
%ADD49R,1.600000X1.600000*%
%ADD50RoundRect,0.150000X-0.587500X-0.150000X0.587500X-0.150000X0.587500X0.150000X-0.587500X0.150000X0*%
%ADD51R,1.780000X3.150000*%
G04 APERTURE END LIST*
D10*
%TO.C,C38*%
X97467000Y-41472500D03*
X97467000Y-39397500D03*
%TD*%
D11*
%TO.C,D24*%
X102450000Y-123400000D03*
X102450000Y-120200000D03*
X97550000Y-120200000D03*
X97550000Y-123400000D03*
%TD*%
D12*
%TO.C,SW3*%
X60000000Y-115000000D03*
D13*
X54920000Y-115000000D03*
X65080000Y-115000000D03*
%TD*%
D14*
%TO.C,C1*%
X64962500Y-83500000D03*
X67037500Y-83500000D03*
%TD*%
D10*
%TO.C,C37*%
X95063000Y-41472500D03*
X95063000Y-39397500D03*
%TD*%
D14*
%TO.C,C11*%
X125462500Y-83500000D03*
X127537500Y-83500000D03*
%TD*%
D15*
%TO.C,R6*%
X68979000Y-49961000D03*
X66979000Y-49961000D03*
%TD*%
D16*
%TO.C,C22*%
X67981000Y-39479500D03*
X67981000Y-41554500D03*
%TD*%
D17*
%TO.C,D11*%
X108250000Y-92500000D03*
X111750000Y-92500000D03*
%TD*%
D14*
%TO.C,C7*%
X105462500Y-83500000D03*
X107537500Y-83500000D03*
%TD*%
D10*
%TO.C,C41*%
X136473000Y-61148500D03*
X136473000Y-59073500D03*
%TD*%
D18*
%TO.C,C3*%
X67037500Y-103500000D03*
X64962500Y-103500000D03*
%TD*%
D17*
%TO.C,D2*%
X45084000Y-92431000D03*
X48584000Y-92431000D03*
%TD*%
D14*
%TO.C,C33*%
X92747500Y-47599000D03*
X94822500Y-47599000D03*
%TD*%
D18*
%TO.C,C43*%
X120965500Y-52102000D03*
X118890500Y-52102000D03*
%TD*%
D19*
%TO.C,P1*%
X58390000Y-35100000D03*
X52610000Y-35100000D03*
D20*
X58750000Y-36545000D03*
X57950000Y-36545000D03*
D21*
X56750000Y-36545000D03*
X55750000Y-36545000D03*
X55250000Y-36545000D03*
X54250000Y-36545000D03*
D20*
X53050000Y-36545000D03*
X52250000Y-36545000D03*
X52250000Y-36545000D03*
X53050000Y-36545000D03*
D21*
X53750000Y-36545000D03*
X54750000Y-36545000D03*
X56250000Y-36545000D03*
X57250000Y-36545000D03*
D20*
X57950000Y-36545000D03*
X58750000Y-36545000D03*
D22*
X51180000Y-35630000D03*
D23*
X51180000Y-31450000D03*
X59820000Y-31450000D03*
D22*
X59820000Y-35630000D03*
%TD*%
D24*
%TO.C,L3*%
X138026000Y-68100000D03*
X134176000Y-68100000D03*
%TD*%
D11*
%TO.C,D21*%
X82450000Y-123400000D03*
X82450000Y-120200000D03*
X77550000Y-120200000D03*
X77550000Y-123400000D03*
%TD*%
D17*
%TO.C,D8*%
X88250000Y-92500000D03*
X91750000Y-92500000D03*
%TD*%
D25*
%TO.C,D13*%
X74604000Y-40000000D03*
X74604000Y-36000000D03*
%TD*%
D11*
%TO.C,D28*%
X122450000Y-123400000D03*
X122450000Y-120200000D03*
X117550000Y-120200000D03*
X117550000Y-123400000D03*
%TD*%
D26*
%TO.C,R32*%
X133469000Y-53889000D03*
X135469000Y-53889000D03*
%TD*%
D27*
%TO.C,Q4*%
X96853000Y-49484500D03*
X98753000Y-49484500D03*
X97803000Y-47609500D03*
%TD*%
D10*
%TO.C,C46*%
X131334000Y-47144350D03*
X131334000Y-45069350D03*
%TD*%
D28*
%TO.C,R10*%
X87081000Y-37118000D03*
X87081000Y-35118000D03*
%TD*%
D18*
%TO.C,C21*%
X47037500Y-66000000D03*
X44962500Y-66000000D03*
%TD*%
D11*
%TO.C,D22*%
X102450000Y-83400000D03*
X102450000Y-80200000D03*
X97550000Y-80200000D03*
X97550000Y-83400000D03*
%TD*%
D12*
%TO.C,SW1*%
X60000000Y-75000000D03*
D13*
X54920000Y-75000000D03*
X65080000Y-75000000D03*
%TD*%
D11*
%TO.C,D27*%
X117550000Y-100200000D03*
X117550000Y-103400000D03*
X122450000Y-103400000D03*
X122450000Y-100200000D03*
%TD*%
D17*
%TO.C,D7*%
X88250000Y-72500000D03*
X91750000Y-72500000D03*
%TD*%
D12*
%TO.C,SW8*%
X100000000Y-95000000D03*
D13*
X94920000Y-95000000D03*
X105080000Y-95000000D03*
%TD*%
D10*
%TO.C,C39*%
X99725000Y-41472500D03*
X99725000Y-39397500D03*
%TD*%
D16*
%TO.C,C27*%
X68969000Y-51821500D03*
X68969000Y-53896500D03*
%TD*%
D13*
%TO.C,SW6*%
X85080000Y-115000000D03*
X74920000Y-115000000D03*
D12*
X80000000Y-115000000D03*
%TD*%
D16*
%TO.C,C29*%
X71344000Y-51821500D03*
X71344000Y-53896500D03*
%TD*%
D18*
%TO.C,C10*%
X107537500Y-103500000D03*
X105462500Y-103500000D03*
%TD*%
D29*
%TO.C,ESP32*%
X41240000Y-59750000D03*
X42510000Y-59750000D03*
X43780000Y-59750000D03*
X45050000Y-59750000D03*
X46320000Y-59750000D03*
X47590000Y-59750000D03*
X48860000Y-59750000D03*
X50130000Y-59750000D03*
X51400000Y-59750000D03*
X52670000Y-59750000D03*
X53940000Y-59750000D03*
X55210000Y-59750000D03*
X56480000Y-59750000D03*
X57750000Y-59750000D03*
D30*
X59000000Y-57985000D03*
X59000000Y-56715000D03*
X59000000Y-55450000D03*
X59000000Y-54175000D03*
X59000000Y-52905000D03*
X59000000Y-51635000D03*
X59000000Y-50365000D03*
X59000000Y-49095000D03*
X59000000Y-47825000D03*
X59000000Y-46555000D03*
X59000000Y-45285000D03*
X59000000Y-44015000D03*
D29*
X57750000Y-42250000D03*
X56480000Y-42250000D03*
X55210000Y-42250000D03*
X53940000Y-42250000D03*
X52670000Y-42250000D03*
X51400000Y-42250000D03*
X50130000Y-42250000D03*
X48860000Y-42250000D03*
X47590000Y-42250000D03*
X46320000Y-42250000D03*
X45050000Y-42250000D03*
X43780000Y-42250000D03*
X42510000Y-42250000D03*
X41240000Y-42250000D03*
D31*
X47560000Y-52500000D03*
D32*
X48960000Y-51100000D03*
X48960000Y-53900000D03*
D31*
X47560000Y-51100000D03*
D32*
X50365000Y-53900000D03*
D31*
X48960000Y-51100000D03*
X50360000Y-52500000D03*
X50360000Y-53900000D03*
D32*
X48960000Y-52500000D03*
X47560000Y-53900000D03*
X50360000Y-52500000D03*
D31*
X50360000Y-51100000D03*
D32*
X47560000Y-51100000D03*
X50360000Y-51100000D03*
D31*
X48960000Y-52500000D03*
D32*
X47560000Y-52500000D03*
D31*
X47560000Y-53900000D03*
X48960000Y-53900000D03*
%TD*%
D13*
%TO.C,SW12*%
X125080000Y-115000000D03*
D12*
X120000000Y-115000000D03*
D13*
X114920000Y-115000000D03*
%TD*%
D26*
%TO.C,R8*%
X68804250Y-45634000D03*
X70804250Y-45634000D03*
%TD*%
D33*
%TO.C,BT1*%
X94420000Y-31543000D03*
D34*
X94420000Y-34083000D03*
%TD*%
D35*
%TO.C,TH1*%
X76735000Y-57485000D03*
X81735000Y-57485000D03*
%TD*%
D16*
%TO.C,C42*%
X124029000Y-60363500D03*
X124029000Y-62438500D03*
%TD*%
D36*
%TO.C,C44*%
X137510000Y-49035401D03*
D37*
X137510000Y-50535401D03*
%TD*%
D27*
%TO.C,Q2*%
X126747000Y-40589350D03*
X128647000Y-40589350D03*
X127697000Y-38714350D03*
%TD*%
D12*
%TO.C,SW7*%
X100000000Y-75000000D03*
D13*
X94920000Y-75000000D03*
X105080000Y-75000000D03*
%TD*%
D38*
%TO.C,R4*%
X63268000Y-31622000D03*
X63268000Y-33622000D03*
%TD*%
D39*
%TO.C,M3*%
X135000000Y-125000000D03*
%TD*%
D16*
%TO.C,C26*%
X64798000Y-51821500D03*
X64798000Y-53896500D03*
%TD*%
D13*
%TO.C,SW5*%
X85080000Y-95000000D03*
X74920000Y-95000000D03*
D12*
X80000000Y-95000000D03*
%TD*%
D15*
%TO.C,R31*%
X120928000Y-55424000D03*
X118928000Y-55424000D03*
%TD*%
D11*
%TO.C,D26*%
X122450000Y-83400000D03*
X122450000Y-80200000D03*
X117550000Y-80200000D03*
X117550000Y-83400000D03*
%TD*%
%TO.C,D23*%
X97550000Y-100200000D03*
X97550000Y-103400000D03*
X102450000Y-103400000D03*
X102450000Y-100200000D03*
%TD*%
D38*
%TO.C,R30*%
X126231000Y-60431000D03*
X126231000Y-62431000D03*
%TD*%
D40*
%TO.C,D37*%
X87081000Y-31152000D03*
X87081000Y-32902000D03*
%TD*%
D11*
%TO.C,D19*%
X82450000Y-83400000D03*
X82450000Y-80200000D03*
X77550000Y-80200000D03*
X77550000Y-83400000D03*
%TD*%
D40*
%TO.C,D36*%
X83581000Y-31152000D03*
X83581000Y-32902000D03*
%TD*%
D41*
%TO.C,D40*%
X115251000Y-61440000D03*
D42*
X115251000Y-51280000D03*
%TD*%
D12*
%TO.C,SW9*%
X100000000Y-115000000D03*
D13*
X94920000Y-115000000D03*
X105080000Y-115000000D03*
%TD*%
D41*
%TO.C,D42*%
X118570000Y-49571850D03*
D42*
X118570000Y-39411850D03*
%TD*%
D43*
%TO.C,TP1*%
X63841000Y-37276000D03*
%TD*%
D27*
%TO.C,Q1*%
X125324000Y-54203500D03*
X127224000Y-54203500D03*
X126274000Y-52328500D03*
%TD*%
D13*
%TO.C,SW2*%
X54920000Y-95000000D03*
D12*
X60000000Y-95000000D03*
D13*
X65080000Y-95000000D03*
%TD*%
D17*
%TO.C,D4*%
X68250000Y-72500000D03*
X71750000Y-72500000D03*
%TD*%
D13*
%TO.C,SW4*%
X85080000Y-75000000D03*
D12*
X80000000Y-75000000D03*
D13*
X74920000Y-75000000D03*
%TD*%
D17*
%TO.C,D5*%
X68250000Y-92500000D03*
X71750000Y-92500000D03*
%TD*%
D11*
%TO.C,D17*%
X57550000Y-100200000D03*
X57550000Y-103400000D03*
X62450000Y-103400000D03*
X62450000Y-100200000D03*
%TD*%
D17*
%TO.C,D6*%
X68250000Y-112500000D03*
X71750000Y-112500000D03*
%TD*%
D40*
%TO.C,D38*%
X90581000Y-31152000D03*
X90581000Y-32902000D03*
%TD*%
D26*
%TO.C,R1*%
X60581000Y-42228000D03*
X62581000Y-42228000D03*
%TD*%
D44*
%TO.C,U2*%
X128918850Y-57376000D03*
X128918850Y-58646000D03*
X128918850Y-59916000D03*
X128918850Y-61186000D03*
X134367150Y-61186000D03*
X134367150Y-59916000D03*
X134367150Y-58646000D03*
X134367150Y-57376000D03*
%TD*%
D16*
%TO.C,C23*%
X62587000Y-51821500D03*
X62587000Y-53896500D03*
%TD*%
D45*
%TO.C,R12*%
X84643000Y-41439000D03*
X90743000Y-41439000D03*
%TD*%
D27*
%TO.C,Q1*%
X129290000Y-54269500D03*
X131190000Y-54269500D03*
X130240000Y-52394500D03*
%TD*%
D14*
%TO.C,C2*%
X64962500Y-123500000D03*
X67037500Y-123500000D03*
%TD*%
D46*
%TO.C,U1*%
X75794661Y-43058311D03*
X75794661Y-43693311D03*
X75794661Y-44328311D03*
X75794661Y-44963311D03*
X75794661Y-45598311D03*
X75794661Y-46233311D03*
X75794661Y-46868311D03*
X75794661Y-47503311D03*
X75794661Y-48138311D03*
X75794661Y-48773311D03*
X75794661Y-49408311D03*
X75794661Y-50043311D03*
X75794661Y-50678311D03*
X75794661Y-51313311D03*
X81242961Y-51313311D03*
X81242961Y-50678311D03*
X81242961Y-50043311D03*
X81242961Y-49408311D03*
X81242961Y-48773311D03*
X81242961Y-48138311D03*
X81242961Y-47503311D03*
X81242961Y-46868311D03*
X81242961Y-46233311D03*
X81242961Y-45598311D03*
X81242961Y-44963311D03*
X81242961Y-44328311D03*
X81242961Y-43693311D03*
X81242961Y-43058311D03*
%TD*%
D16*
%TO.C,C30*%
X73675000Y-51821500D03*
X73675000Y-53896500D03*
%TD*%
D38*
%TO.C,R35*%
X130754000Y-39622850D03*
X130754000Y-41622850D03*
%TD*%
D16*
%TO.C,C28*%
X72909250Y-43700500D03*
X72909250Y-45775500D03*
%TD*%
D47*
%TO.C,L1*%
X105002000Y-48006000D03*
X105002000Y-51856000D03*
%TD*%
D14*
%TO.C,C5*%
X85462500Y-123500000D03*
X87537500Y-123500000D03*
%TD*%
D15*
%TO.C,R33*%
X105513000Y-55186000D03*
X103513000Y-55186000D03*
%TD*%
D25*
%TO.C,D35*%
X80000000Y-40000000D03*
X80000000Y-36000000D03*
%TD*%
%TO.C,D39*%
X89123000Y-47601000D03*
X89123000Y-51601000D03*
%TD*%
D27*
%TO.C,Q2*%
X121869000Y-40793350D03*
X123769000Y-40793350D03*
X122819000Y-38918350D03*
%TD*%
D47*
%TO.C,L2*%
X136330000Y-42082000D03*
X136330000Y-45932000D03*
%TD*%
D18*
%TO.C,C20*%
X43037500Y-63000000D03*
X40962500Y-63000000D03*
%TD*%
D17*
%TO.C,D12*%
X108250000Y-112500000D03*
X111750000Y-112500000D03*
%TD*%
D44*
%TO.C,U3*%
X123677850Y-43317850D03*
X123677850Y-44587850D03*
X123677850Y-45857850D03*
X123677850Y-47127850D03*
X129126150Y-47127850D03*
X129126150Y-45857850D03*
X129126150Y-44587850D03*
X129126150Y-43317850D03*
%TD*%
D28*
%TO.C,R9*%
X90581000Y-37118000D03*
X90581000Y-35118000D03*
%TD*%
D35*
%TO.C,R13*%
X112560000Y-57105000D03*
D48*
X112560000Y-31705000D03*
%TD*%
D11*
%TO.C,D20*%
X77550000Y-100200000D03*
X77550000Y-103400000D03*
X82450000Y-103400000D03*
X82450000Y-100200000D03*
%TD*%
D39*
%TO.C,M3*%
X45000000Y-125000000D03*
%TD*%
D26*
%TO.C,R5*%
X45000000Y-63000000D03*
X47000000Y-63000000D03*
%TD*%
D18*
%TO.C,C14*%
X127537500Y-103500000D03*
X125462500Y-103500000D03*
%TD*%
D10*
%TO.C,C50*%
X61922000Y-62227500D03*
X61922000Y-60152500D03*
%TD*%
D16*
%TO.C,C19*%
X43000000Y-65962500D03*
X43000000Y-68037500D03*
%TD*%
D17*
%TO.C,D9*%
X88250000Y-112500000D03*
X91750000Y-112500000D03*
%TD*%
D11*
%TO.C,D16*%
X62450000Y-83400000D03*
X62450000Y-80200000D03*
X57550000Y-80200000D03*
X57550000Y-83400000D03*
%TD*%
D16*
%TO.C,C25*%
X70108000Y-39479500D03*
X70108000Y-41554500D03*
%TD*%
D47*
%TO.C,L4*%
X106949000Y-40983000D03*
X106949000Y-44833000D03*
%TD*%
D28*
%TO.C,R11*%
X83581000Y-37118000D03*
X83581000Y-35118000D03*
%TD*%
D39*
%TO.C,M3*%
X135000000Y-35000000D03*
%TD*%
D16*
%TO.C,C32*%
X115363000Y-31725500D03*
X115363000Y-33800500D03*
%TD*%
D13*
%TO.C,SW10*%
X114920000Y-75000000D03*
X125080000Y-75000000D03*
D12*
X120000000Y-75000000D03*
%TD*%
D49*
%TO.C,C40*%
X121605000Y-32745000D03*
D35*
X121605000Y-35245000D03*
%TD*%
D14*
%TO.C,C8*%
X105462500Y-123500000D03*
X107537500Y-123500000D03*
%TD*%
D50*
%TO.C,Q3*%
X94822500Y-43694000D03*
X94822500Y-45594000D03*
X96697500Y-44644000D03*
%TD*%
D16*
%TO.C,C24*%
X66972000Y-51821500D03*
X66972000Y-53896500D03*
%TD*%
D14*
%TO.C,C12*%
X125462500Y-123500000D03*
X127537500Y-123500000D03*
%TD*%
D51*
%TO.C,F1*%
X69385000Y-32500000D03*
X74615000Y-32500000D03*
%TD*%
D41*
%TO.C,D43*%
X64960000Y-59353000D03*
D42*
X75120000Y-59353000D03*
%TD*%
D13*
%TO.C,SW11*%
X125080000Y-95000000D03*
X114920000Y-95000000D03*
D12*
X120000000Y-95000000D03*
%TD*%
D16*
%TO.C,C34*%
X99969000Y-51891500D03*
X99969000Y-53966500D03*
%TD*%
D14*
%TO.C,C35*%
X93299500Y-51580000D03*
X95374500Y-51580000D03*
%TD*%
D17*
%TO.C,D3*%
X45165000Y-112640000D03*
X48665000Y-112640000D03*
%TD*%
D14*
%TO.C,C4*%
X85462500Y-83500000D03*
X87537500Y-83500000D03*
%TD*%
D18*
%TO.C,C6*%
X87537500Y-103500000D03*
X85462500Y-103500000D03*
%TD*%
%TO.C,C48*%
X67665500Y-64244000D03*
X65590500Y-64244000D03*
%TD*%
D15*
%TO.C,R34*%
X67684000Y-62210000D03*
X65684000Y-62210000D03*
%TD*%
D14*
%TO.C,C31*%
X93056500Y-37123000D03*
X95131500Y-37123000D03*
%TD*%
D36*
%TO.C,C49*%
X96245000Y-60801000D03*
D37*
X94745000Y-60801000D03*
%TD*%
D14*
%TO.C,C47*%
X121367500Y-49605850D03*
X123442500Y-49605850D03*
%TD*%
D15*
%TO.C,R7*%
X70804250Y-43698000D03*
X68804250Y-43698000D03*
%TD*%
D11*
%TO.C,D18*%
X62450000Y-123400000D03*
X62450000Y-120200000D03*
X57550000Y-120200000D03*
X57550000Y-123400000D03*
%TD*%
D17*
%TO.C,D10*%
X108250000Y-72500000D03*
X111750000Y-72500000D03*
%TD*%
D47*
%TO.C,L5*%
X89388000Y-60811000D03*
X89388000Y-56961000D03*
%TD*%
D39*
%TO.C,M3*%
X45000000Y-35000000D03*
%TD*%
D14*
%TO.C,C45*%
X118105500Y-62437000D03*
X120180500Y-62437000D03*
%TD*%
D10*
%TO.C,C36*%
X71783000Y-37420500D03*
X71783000Y-35345500D03*
%TD*%
D41*
%TO.C,D41*%
X100784000Y-63402000D03*
D42*
X110944000Y-63402000D03*
%TD*%
M02*
