%TF.GenerationSoftware,KiCad,Pcbnew,(6.0.0)*%
%TF.CreationDate,2022-04-14T21:00:37+02:00*%
%TF.ProjectId,keyboard_v1.0,6b657962-6f61-4726-945f-76312e302e6b,rev?*%
%TF.SameCoordinates,Original*%
%TF.FileFunction,Legend,Bot*%
%TF.FilePolarity,Positive*%
%FSLAX46Y46*%
G04 Gerber Fmt 4.6, Leading zero omitted, Abs format (unit mm)*
G04 Created by KiCad (PCBNEW (6.0.0)) date 2022-04-14 21:00:37*
%MOMM*%
%LPD*%
G01*
G04 APERTURE LIST*
%ADD10C,0.150000*%
%ADD11C,0.120000*%
G04 APERTURE END LIST*
D10*
%TO.C,D1*%
X47596095Y-74906380D02*
X47596095Y-73906380D01*
X47358000Y-73906380D01*
X47215142Y-73954000D01*
X47119904Y-74049238D01*
X47072285Y-74144476D01*
X47024666Y-74334952D01*
X47024666Y-74477809D01*
X47072285Y-74668285D01*
X47119904Y-74763523D01*
X47215142Y-74858761D01*
X47358000Y-74906380D01*
X47596095Y-74906380D01*
X46072285Y-74906380D02*
X46643714Y-74906380D01*
X46358000Y-74906380D02*
X46358000Y-73906380D01*
X46453238Y-74049238D01*
X46548476Y-74144476D01*
X46643714Y-74192095D01*
%TO.C,R3*%
X42337666Y-112017380D02*
X42671000Y-111541190D01*
X42909095Y-112017380D02*
X42909095Y-111017380D01*
X42528142Y-111017380D01*
X42432904Y-111065000D01*
X42385285Y-111112619D01*
X42337666Y-111207857D01*
X42337666Y-111350714D01*
X42385285Y-111445952D01*
X42432904Y-111493571D01*
X42528142Y-111541190D01*
X42909095Y-111541190D01*
X42004333Y-111017380D02*
X41385285Y-111017380D01*
X41718619Y-111398333D01*
X41575761Y-111398333D01*
X41480523Y-111445952D01*
X41432904Y-111493571D01*
X41385285Y-111588809D01*
X41385285Y-111826904D01*
X41432904Y-111922142D01*
X41480523Y-111969761D01*
X41575761Y-112017380D01*
X41861476Y-112017380D01*
X41956714Y-111969761D01*
X42004333Y-111922142D01*
%TO.C,R2*%
X44846666Y-92022380D02*
X45180000Y-91546190D01*
X45418095Y-92022380D02*
X45418095Y-91022380D01*
X45037142Y-91022380D01*
X44941904Y-91070000D01*
X44894285Y-91117619D01*
X44846666Y-91212857D01*
X44846666Y-91355714D01*
X44894285Y-91450952D01*
X44941904Y-91498571D01*
X45037142Y-91546190D01*
X45418095Y-91546190D01*
X44465714Y-91117619D02*
X44418095Y-91070000D01*
X44322857Y-91022380D01*
X44084761Y-91022380D01*
X43989523Y-91070000D01*
X43941904Y-91117619D01*
X43894285Y-91212857D01*
X43894285Y-91308095D01*
X43941904Y-91450952D01*
X44513333Y-92022380D01*
X43894285Y-92022380D01*
D11*
%TO.C,D1*%
X44308000Y-73454000D02*
X44308000Y-71454000D01*
X44308000Y-71454000D02*
X48608000Y-71454000D01*
X48608000Y-73454000D02*
X44308000Y-73454000D01*
%TO.C,R3*%
X41943936Y-109180000D02*
X42398064Y-109180000D01*
X41943936Y-110650000D02*
X42398064Y-110650000D01*
%TO.C,R2*%
X44452936Y-89185000D02*
X44907064Y-89185000D01*
X44452936Y-90655000D02*
X44907064Y-90655000D01*
%TD*%
M02*
