M48
; DRILL file {KiCad (6.0.0)} date Thu Apr 14 21:00:40 2022
; FORMAT={-:-/ absolute / inch / decimal}
; #@! TF.CreationDate,2022-04-14T21:00:40+02:00
; #@! TF.GenerationSoftware,Kicad,Pcbnew,(6.0.0)
; #@! TF.FileFunction,NonPlated,1,2,NPTH
FMAT,2
INCH
; #@! TA.AperFunction,NonPlated,NPTH,ComponentDrill
T1C0.0256
; #@! TA.AperFunction,NonPlated,NPTH,ComponentDrill
T2C0.0689
; #@! TA.AperFunction,NonPlated,NPTH,ComponentDrill
T3C0.1260
; #@! TA.AperFunction,NonPlated,NPTH,ComponentDrill
T4C0.1575
%
G90
G05
T1
X2.0713Y-1.3819
X2.2988Y-1.3819
T2
X2.1622Y-2.9528
X2.1622Y-3.7402
X2.1622Y-4.5276
X2.5622Y-2.9528
X2.5622Y-3.7402
X2.5622Y-4.5276
X2.9496Y-2.9528
X2.9496Y-3.7402
X2.9496Y-4.5276
X3.3496Y-2.9528
X3.3496Y-3.7402
X3.3496Y-4.5276
X3.737Y-2.9528
X3.737Y-3.7402
X3.737Y-4.5276
X4.137Y-2.9528
X4.137Y-3.7402
X4.137Y-4.5276
X4.5244Y-2.9528
X4.5244Y-3.7402
X4.5244Y-4.5276
X4.9244Y-2.9528
X4.9244Y-3.7402
X4.9244Y-4.5276
T3
X1.7717Y-1.378
X1.7717Y-4.9213
X5.315Y-1.378
X5.315Y-4.9213
T4
X2.3622Y-2.9528
X2.3622Y-3.7402
X2.3622Y-4.5276
X3.1496Y-2.9528
X3.1496Y-3.7402
X3.1496Y-4.5276
X3.937Y-2.9528
X3.937Y-3.7402
X3.937Y-4.5276
X4.7244Y-2.9528
X4.7244Y-3.7402
X4.7244Y-4.5276
T0
M30
