%TF.GenerationSoftware,KiCad,Pcbnew,(6.0.0)*%
%TF.CreationDate,2022-04-21T22:47:23+02:00*%
%TF.ProjectId,keyboard_v1.0,6b657962-6f61-4726-945f-76312e302e6b,rev?*%
%TF.SameCoordinates,Original*%
%TF.FileFunction,Soldermask,Bot*%
%TF.FilePolarity,Negative*%
%FSLAX46Y46*%
G04 Gerber Fmt 4.6, Leading zero omitted, Abs format (unit mm)*
G04 Created by KiCad (PCBNEW (6.0.0)) date 2022-04-21 22:47:23*
%MOMM*%
%LPD*%
G01*
G04 APERTURE LIST*
G04 Aperture macros list*
%AMRoundRect*
0 Rectangle with rounded corners*
0 $1 Rounding radius*
0 $2 $3 $4 $5 $6 $7 $8 $9 X,Y pos of 4 corners*
0 Add a 4 corners polygon primitive as box body*
4,1,4,$2,$3,$4,$5,$6,$7,$8,$9,$2,$3,0*
0 Add four circle primitives for the rounded corners*
1,1,$1+$1,$2,$3*
1,1,$1+$1,$4,$5*
1,1,$1+$1,$6,$7*
1,1,$1+$1,$8,$9*
0 Add four rect primitives between the rounded corners*
20,1,$1+$1,$2,$3,$4,$5,0*
20,1,$1+$1,$4,$5,$6,$7,0*
20,1,$1+$1,$6,$7,$8,$9,0*
20,1,$1+$1,$8,$9,$2,$3,0*%
G04 Aperture macros list end*
%ADD10R,1.700000X1.700000*%
%ADD11O,1.700000X1.700000*%
%ADD12C,4.000000*%
%ADD13C,1.750000*%
%ADD14C,2.500000*%
%ADD15RoundRect,0.250000X-0.337500X-0.475000X0.337500X-0.475000X0.337500X0.475000X-0.337500X0.475000X0*%
%ADD16R,1.300000X1.700000*%
%ADD17RoundRect,0.250000X0.337500X0.475000X-0.337500X0.475000X-0.337500X-0.475000X0.337500X-0.475000X0*%
%ADD18C,0.650000*%
%ADD19O,1.000000X2.100000*%
%ADD20O,1.000000X1.600000*%
%ADD21RoundRect,0.250000X0.475000X-0.337500X0.475000X0.337500X-0.475000X0.337500X-0.475000X-0.337500X0*%
%ADD22C,0.600000*%
%ADD23C,1.600000*%
%ADD24R,1.200000X1.200000*%
%ADD25C,1.200000*%
%ADD26C,3.200000*%
%ADD27O,2.200000X2.200000*%
%ADD28R,2.200000X2.200000*%
%ADD29C,2.800000*%
%ADD30RoundRect,0.250000X-0.350000X-0.450000X0.350000X-0.450000X0.350000X0.450000X-0.350000X0.450000X0*%
%ADD31O,1.600000X1.600000*%
%ADD32R,1.600000X1.600000*%
%ADD33RoundRect,0.250000X-0.475000X0.337500X-0.475000X-0.337500X0.475000X-0.337500X0.475000X0.337500X0*%
G04 APERTURE END LIST*
D10*
%TO.C,SW17*%
X65796000Y-44319000D03*
D11*
X65796000Y-46859000D03*
%TD*%
D10*
%TO.C,SW16*%
X62110000Y-44288000D03*
D11*
X62110000Y-46828000D03*
%TD*%
D10*
%TO.C,SW15*%
X48185000Y-78384000D03*
D11*
X48185000Y-75844000D03*
%TD*%
D10*
%TO.C,SW14*%
X48139000Y-82024000D03*
D11*
X50679000Y-82024000D03*
%TD*%
D12*
%TO.C,SW3*%
X60000000Y-115000000D03*
D13*
X54920000Y-115000000D03*
X65080000Y-115000000D03*
D14*
X56190000Y-112460000D03*
X62540000Y-109920000D03*
%TD*%
D15*
%TO.C,C1*%
X64962500Y-83500000D03*
X67037500Y-83500000D03*
%TD*%
%TO.C,C11*%
X125462500Y-83500000D03*
X127537500Y-83500000D03*
%TD*%
D16*
%TO.C,D11*%
X108250000Y-92500000D03*
X111750000Y-92500000D03*
%TD*%
D15*
%TO.C,C7*%
X104827500Y-85598000D03*
X106902500Y-85598000D03*
%TD*%
D17*
%TO.C,C3*%
X67037500Y-103500000D03*
X64962500Y-103500000D03*
%TD*%
D16*
%TO.C,D2*%
X45239000Y-94886000D03*
X48739000Y-94886000D03*
%TD*%
D18*
%TO.C,P1*%
X58390000Y-35100000D03*
X52610000Y-35100000D03*
D19*
X51180000Y-35630000D03*
D20*
X51180000Y-31450000D03*
X59820000Y-31450000D03*
D19*
X59820000Y-35630000D03*
%TD*%
D16*
%TO.C,D8*%
X88250000Y-92500000D03*
X91750000Y-92500000D03*
%TD*%
D12*
%TO.C,SW1*%
X60000000Y-75000000D03*
D13*
X54920000Y-75000000D03*
X65080000Y-75000000D03*
D14*
X56190000Y-72460000D03*
X62540000Y-69920000D03*
%TD*%
D16*
%TO.C,D7*%
X88250000Y-72500000D03*
X91750000Y-72500000D03*
%TD*%
D12*
%TO.C,SW8*%
X100000000Y-95000000D03*
D13*
X94920000Y-95000000D03*
X105080000Y-95000000D03*
D14*
X96190000Y-92460000D03*
X102540000Y-89920000D03*
%TD*%
D13*
%TO.C,SW6*%
X85080000Y-115000000D03*
X74920000Y-115000000D03*
D12*
X80000000Y-115000000D03*
D14*
X76190000Y-112460000D03*
X82540000Y-109920000D03*
%TD*%
D21*
%TO.C,C10*%
X106212000Y-105730500D03*
X106212000Y-103655500D03*
%TD*%
D22*
%TO.C,ESP32*%
X47560000Y-52500000D03*
X47560000Y-51100000D03*
X48960000Y-51100000D03*
X50360000Y-52500000D03*
X50360000Y-53900000D03*
X50360000Y-51100000D03*
X48960000Y-52500000D03*
X47560000Y-53900000D03*
X48960000Y-53900000D03*
%TD*%
D13*
%TO.C,SW12*%
X125080000Y-115000000D03*
D12*
X120000000Y-115000000D03*
D13*
X114920000Y-115000000D03*
D14*
X116190000Y-112460000D03*
X122540000Y-109920000D03*
%TD*%
D10*
%TO.C,BT1*%
X94420000Y-31543000D03*
D11*
X94420000Y-34083000D03*
%TD*%
D23*
%TO.C,TH1*%
X76735000Y-57485000D03*
X81735000Y-57485000D03*
%TD*%
D24*
%TO.C,C44*%
X137510000Y-49035401D03*
D25*
X137510000Y-50535401D03*
%TD*%
D12*
%TO.C,SW7*%
X100000000Y-75000000D03*
D13*
X94920000Y-75000000D03*
X105080000Y-75000000D03*
D14*
X96190000Y-72460000D03*
X102540000Y-69920000D03*
%TD*%
D26*
%TO.C,M3*%
X135000000Y-125000000D03*
%TD*%
D13*
%TO.C,SW5*%
X85080000Y-95000000D03*
X74920000Y-95000000D03*
D12*
X80000000Y-95000000D03*
D14*
X76190000Y-92460000D03*
X82540000Y-89920000D03*
%TD*%
D27*
%TO.C,D40*%
X115251000Y-51280000D03*
D28*
X115251000Y-61440000D03*
%TD*%
D12*
%TO.C,SW9*%
X100000000Y-115000000D03*
D13*
X94920000Y-115000000D03*
X105080000Y-115000000D03*
D14*
X96190000Y-112460000D03*
X102540000Y-109920000D03*
%TD*%
D28*
%TO.C,D42*%
X118570000Y-49571850D03*
D27*
X118570000Y-39411850D03*
%TD*%
D29*
%TO.C,TP1*%
X63841000Y-37276000D03*
%TD*%
D13*
%TO.C,SW2*%
X54920000Y-95000000D03*
D12*
X60000000Y-95000000D03*
D13*
X65080000Y-95000000D03*
D14*
X56190000Y-92460000D03*
X62540000Y-89920000D03*
%TD*%
D16*
%TO.C,D4*%
X68250000Y-72500000D03*
X71750000Y-72500000D03*
%TD*%
D13*
%TO.C,SW4*%
X85080000Y-75000000D03*
D12*
X80000000Y-75000000D03*
D13*
X74920000Y-75000000D03*
D14*
X76190000Y-72460000D03*
X82540000Y-69920000D03*
%TD*%
D16*
%TO.C,D5*%
X68250000Y-92500000D03*
X71750000Y-92500000D03*
%TD*%
%TO.C,D6*%
X68250000Y-112500000D03*
X71750000Y-112500000D03*
%TD*%
D30*
%TO.C,R1*%
X58721000Y-64261000D03*
X60721000Y-64261000D03*
%TD*%
D15*
%TO.C,C2*%
X64962500Y-123500000D03*
X67037500Y-123500000D03*
%TD*%
%TO.C,C5*%
X85462500Y-123500000D03*
X87537500Y-123500000D03*
%TD*%
D16*
%TO.C,D12*%
X108250000Y-112500000D03*
X111750000Y-112500000D03*
%TD*%
D23*
%TO.C,R13*%
X112560000Y-57105000D03*
D31*
X112560000Y-31705000D03*
%TD*%
D26*
%TO.C,M3*%
X45000000Y-125000000D03*
%TD*%
D17*
%TO.C,C14*%
X127537500Y-103500000D03*
X125462500Y-103500000D03*
%TD*%
D16*
%TO.C,D9*%
X88250000Y-112500000D03*
X91750000Y-112500000D03*
%TD*%
D26*
%TO.C,M3*%
X135000000Y-35000000D03*
%TD*%
D13*
%TO.C,SW10*%
X114920000Y-75000000D03*
X125080000Y-75000000D03*
D12*
X120000000Y-75000000D03*
D14*
X116190000Y-72460000D03*
X122540000Y-69920000D03*
%TD*%
D32*
%TO.C,C40*%
X121605000Y-32745000D03*
D23*
X121605000Y-35245000D03*
%TD*%
D15*
%TO.C,C8*%
X105462500Y-123500000D03*
X107537500Y-123500000D03*
%TD*%
%TO.C,C12*%
X125462500Y-123500000D03*
X127537500Y-123500000D03*
%TD*%
D28*
%TO.C,D43*%
X64960000Y-59353000D03*
D27*
X75120000Y-59353000D03*
%TD*%
D13*
%TO.C,SW11*%
X125080000Y-95000000D03*
X114920000Y-95000000D03*
D12*
X120000000Y-95000000D03*
D14*
X116190000Y-92460000D03*
X122540000Y-89920000D03*
%TD*%
D16*
%TO.C,D3*%
X45300000Y-114279000D03*
X48800000Y-114279000D03*
%TD*%
D33*
%TO.C,C4*%
X86076000Y-83617500D03*
X86076000Y-85692500D03*
%TD*%
D21*
%TO.C,C6*%
X86282000Y-103414500D03*
X86282000Y-105489500D03*
%TD*%
D24*
%TO.C,C49*%
X96245000Y-60801000D03*
D25*
X94745000Y-60801000D03*
%TD*%
D16*
%TO.C,D10*%
X108250000Y-72500000D03*
X111750000Y-72500000D03*
%TD*%
D26*
%TO.C,M3*%
X45000000Y-35000000D03*
%TD*%
D28*
%TO.C,D41*%
X100784000Y-63402000D03*
D27*
X110944000Y-63402000D03*
%TD*%
D16*
%TO.C,D1*%
X45108000Y-72454000D03*
X48608000Y-72454000D03*
%TD*%
D30*
%TO.C,R3*%
X41171000Y-109915000D03*
X43171000Y-109915000D03*
%TD*%
%TO.C,R2*%
X43680000Y-89920000D03*
X45680000Y-89920000D03*
%TD*%
M02*
