M48
; DRILL file {KiCad (6.0.0)} date Thu Apr 21 22:47:26 2022
; FORMAT={-:-/ absolute / inch / decimal}
; #@! TF.CreationDate,2022-04-21T22:47:26+02:00
; #@! TF.GenerationSoftware,Kicad,Pcbnew,(6.0.0)
; #@! TF.FileFunction,Plated,1,2,PTH
FMAT,2
INCH
; #@! TA.AperFunction,Plated,PTH,ViaDrill
T1C0.0118
; #@! TA.AperFunction,Plated,PTH,ViaDrill
T2C0.0157
; #@! TA.AperFunction,Plated,PTH,ComponentDrill
T3C0.0157
; #@! TA.AperFunction,Plated,PTH,ViaDrill
T4C0.0197
; #@! TA.AperFunction,Plated,PTH,ViaDrill
T5C0.0236
; #@! TA.AperFunction,Plated,PTH,ComponentDrill
T6C0.0236
; #@! TA.AperFunction,Plated,PTH,ComponentDrill
T7C0.0315
; #@! TA.AperFunction,Plated,PTH,ComponentDrill
T8C0.0394
; #@! TA.AperFunction,Plated,PTH,ComponentDrill
T9C0.0433
; #@! TA.AperFunction,Plated,PTH,ComponentDrill
T10C0.0591
; #@! TA.AperFunction,Plated,PTH,ComponentDrill
T11C0.0630
%
G90
G05
T1
X2.0303Y-2.685
X2.0303Y-2.9641
X2.1218Y-2.2796
X2.8486Y-1.9311
X2.9251Y-1.9438
X2.9286Y-1.765
X3.04Y-1.8461
X3.0774Y-1.8816
X3.1393Y-1.8816
X3.1422Y-1.9222
X3.2647Y-1.9938
X3.3068Y-1.9688
X3.3496Y-2.0223
X3.3942Y-1.8438
T2
X1.6142Y-1.2598
X1.6142Y-1.4173
X1.6142Y-4.4488
X1.6142Y-4.5669
X1.6142Y-4.685
X1.6142Y-4.8425
X1.6142Y-4.9606
X1.6535Y-5.0787
X1.6929Y-3.6614
X1.6929Y-3.8976
X1.6929Y-4.1339
X1.7323Y-1.2205
X1.7528Y-4.6103
X1.7717Y-2.0079
X1.7717Y-5.0787
X1.811Y-1.5748
X1.811Y-1.7717
X1.811Y-2.126
X1.8504Y-1.2205
X1.8504Y-1.8504
X1.8504Y-2.2047
X1.8504Y-2.7559
X1.8517Y-2.7011
X1.8898Y-1.4961
X1.8898Y-3.3465
X1.8898Y-3.4646
X1.8898Y-3.8583
X1.8898Y-4.1339
X1.8898Y-4.685
X1.8898Y-5.0787
X1.9291Y-1.2205
X1.9291Y-1.2992
X1.9291Y-1.7717
X1.9291Y-1.9291
X1.9291Y-4.9213
X1.9685Y-1.5748
X1.9685Y-1.8504
X1.9685Y-4.252
X1.9756Y-3.6361
X2.0079Y-1.5748
X2.0079Y-1.7717
X2.0079Y-2.1654
X2.0079Y-3.937
X2.0079Y-4.1732
X2.0079Y-4.6063
X2.0079Y-5.0787
X2.0472Y-1.2992
X2.0472Y-1.8504
X2.0472Y-3.3858
X2.0472Y-3.4646
X2.0472Y-4.8425
X2.0866Y-1.7717
X2.0866Y-1.9685
X2.126Y-1.2598
X2.126Y-1.811
X2.126Y-1.8898
X2.126Y-3.2677
X2.126Y-5.0
X2.126Y-5.0787
X2.1422Y-3.0302
X2.1654Y-1.2598
X2.1654Y-2.1654
X2.1654Y-3.4646
X2.1654Y-3.8583
X2.1654Y-4.252
X2.196Y-1.3826
X2.2047Y-4.1732
X2.2441Y-3.4252
X2.2441Y-4.6457
X2.2441Y-5.0787
X2.2835Y-3.0709
X2.2835Y-4.252
X2.3139Y-1.4979
X2.3228Y-4.4094
X2.3228Y-5.0
X2.3622Y-3.1102
X2.3622Y-4.6457
X2.3622Y-4.8031
X2.3622Y-5.0787
X2.4245Y-1.2696
X2.448Y-4.9535
X2.4803Y-3.0315
X2.4803Y-5.0787
X2.5591Y-1.2205
X2.5591Y-2.6378
X2.5591Y-4.2126
X2.5984Y-3.0709
X2.5984Y-4.7638
X2.5984Y-5.0787
X2.6209Y-4.2023
X2.6378Y-1.2205
X2.6378Y-4.5669
X2.7165Y-2.3228
X2.7165Y-5.0787
X2.7559Y-4.252
X2.7559Y-4.5669
X2.7559Y-4.7244
X2.7734Y-3.0129
X2.7898Y-3.7865
X2.7953Y-2.3228
X2.7953Y-2.6772
X2.8211Y-3.4452
X2.8346Y-1.2598
X2.8346Y-2.4409
X2.8346Y-2.9528
X2.8346Y-3.0709
X2.8346Y-4.5669
X2.8346Y-5.0787
X2.9134Y-4.1732
X2.9209Y-4.8566
X2.9528Y-3.0709
X2.9528Y-5.0787
X2.9921Y-4.252
X2.9924Y-3.4885
X3.0315Y-1.2205
X3.0315Y-3.8583
X3.0709Y-1.2205
X3.0709Y-1.3386
X3.0709Y-3.0709
X3.0709Y-5.0787
X3.1102Y-2.4409
X3.1309Y-3.5924
X3.1496Y-1.2205
X3.189Y-5.0
X3.189Y-5.0787
X3.2283Y-2.0866
X3.2283Y-3.0709
X3.3071Y-2.4409
X3.3071Y-3.8189
X3.3071Y-5.0787
X3.3409Y-3.6289
X3.3858Y-3.0709
X3.3858Y-4.4488
X3.3858Y-5.0
X3.3946Y-4.2217
X3.4252Y-5.0787
X3.4646Y-1.5748
X3.4646Y-2.6378
X3.4646Y-4.5276
X3.4646Y-4.7638
X3.533Y-2.9864
X3.5433Y-3.1102
X3.5433Y-3.2677
X3.5433Y-5.0787
X3.5462Y-3.9228
X3.578Y-4.824
X3.5827Y-2.6772
X3.5827Y-3.8189
X3.5827Y-4.5669
X3.5925Y-3.3983
X3.622Y-3.7402
X3.622Y-4.252
X3.622Y-5.0
X3.6614Y-2.9528
X3.6614Y-3.3071
X3.6614Y-4.8425
X3.6614Y-5.0787
X3.7008Y-2.2835
X3.7008Y-3.1102
X3.7009Y-3.5712
X3.7402Y-2.2047
X3.7402Y-3.8583
X3.7795Y-5.0787
X3.8189Y-2.2441
X3.8189Y-2.6378
X3.8189Y-3.0315
X3.8189Y-4.252
X3.8189Y-5.0
X3.8583Y-1.378
X3.8976Y-2.8346
X3.8976Y-3.5827
X3.8976Y-5.0787
X3.937Y-1.2205
X3.937Y-1.811
X3.937Y-3.1102
X3.9393Y-4.6789
X4.0157Y-5.0787
X4.0551Y-1.2205
X4.0551Y-1.6929
X4.0945Y-1.4173
X4.0945Y-4.9606
X4.1339Y-2.8346
X4.1339Y-3.0709
X4.1339Y-5.0787
X4.1732Y-2.2441
X4.1732Y-2.4803
X4.1732Y-4.4094
X4.1931Y-4.2303
X4.2126Y-2.5984
X4.252Y-1.4567
X4.252Y-2.2441
X4.252Y-4.6063
X4.252Y-5.0787
X4.2913Y-2.4016
X4.3126Y-3.034
X4.3231Y-2.9663
X4.3252Y-3.8622
X4.3307Y-1.4173
X4.3494Y-3.2593
X4.3585Y-3.413
X4.3701Y-2.6378
X4.3701Y-5.0787
X4.4094Y-1.4173
X4.4094Y-3.4646
X4.4094Y-3.7402
X4.4094Y-4.2126
X4.4094Y-4.6063
X4.4488Y-2.0866
X4.4488Y-3.0709
X4.4488Y-3.2677
X4.4882Y-1.811
X4.4882Y-5.0787
X4.5276Y-3.4646
X4.5276Y-4.6457
X4.5669Y-1.4961
X4.5669Y-2.2047
X4.5669Y-3.8583
X4.5669Y-4.252
X4.6063Y-3.0709
X4.6063Y-5.0787
X4.6457Y-2.6772
X4.6457Y-4.6457
X4.7244Y-1.6929
X4.7244Y-3.5827
X4.7244Y-4.4094
X4.7244Y-4.7638
X4.7244Y-5.0787
X4.7499Y-2.2991
X4.8425Y-5.0787
X4.8799Y-2.18
X4.8819Y-4.2126
X4.8832Y-2.5346
X4.9213Y-4.7638
X4.9606Y-1.2205
X4.9606Y-2.7165
X4.9606Y-3.0709
X4.9606Y-4.6063
X4.9606Y-5.0787
X5.0312Y-2.1977
X5.0394Y-1.3386
X5.0394Y-3.4646
X5.0787Y-2.9528
X5.0787Y-3.8976
X5.0787Y-4.4882
X5.0787Y-5.0787
X5.094Y-2.5548
X5.1181Y-1.378
X5.1181Y-3.1102
X5.1466Y-2.3372
X5.1575Y-1.2205
X5.1575Y-2.5984
X5.1575Y-4.6457
X5.1671Y-2.1985
X5.1969Y-5.0787
X5.2362Y-4.252
X5.2362Y-4.4882
X5.2756Y-3.0709
X5.2756Y-3.3071
X5.2756Y-4.0157
X5.315Y-1.2205
X5.315Y-3.5039
X5.315Y-3.7795
X5.315Y-4.4094
X5.315Y-5.0787
X5.3543Y-2.9921
X5.3937Y-2.0866
X5.4331Y-5.0787
X5.4724Y-1.2598
X5.4724Y-1.4961
X5.4724Y-2.9921
X5.4724Y-3.1102
X5.4724Y-3.2283
X5.4724Y-3.3465
X5.4724Y-3.4646
X5.4724Y-3.5827
X5.4724Y-3.7008
X5.4724Y-3.8189
X5.4724Y-3.937
X5.4724Y-4.0551
X5.4724Y-4.1732
X5.4724Y-4.2913
X5.4724Y-4.4094
X5.4724Y-4.5276
X5.4724Y-4.6457
X5.4724Y-4.7638
X5.4724Y-4.8819
X5.4724Y-5.0
T3
X1.8724Y-2.0118
X1.8724Y-2.0669
X1.8724Y-2.122
X1.9276Y-2.0118
X1.9276Y-2.0669
X1.9276Y-2.122
X1.9827Y-2.0118
X1.9827Y-2.0669
X1.9827Y-2.122
T4
X1.775Y-3.639
X1.775Y-4.4019
X1.7753Y-3.835
X2.1687Y-3.0832
X2.1693Y-1.5139
X2.2215Y-2.4403
X2.228Y-1.5107
X2.2281Y-2.4875
X2.258Y-2.7333
X2.2723Y-2.4431
X2.3014Y-1.3226
X2.3256Y-2.6384
X2.355Y-2.3449
X2.461Y-2.6384
X2.5107Y-3.3855
X2.6151Y-2.8544
X2.6189Y-3.5385
X2.6194Y-3.2017
X2.6292Y-4.1402
X3.0079Y-4.3218
X3.1014Y-4.1899
X3.2183Y-1.6607
X3.3214Y-4.1759
X3.3224Y-4.0712
X3.3234Y-3.2893
X3.3532Y-1.2257
X3.4059Y-3.6106
X3.4219Y-3.4201
X3.5245Y-4.9403
X3.5728Y-1.5262
X3.6303Y-1.2262
X3.8498Y-2.0412
X4.1133Y-4.0804
X4.1149Y-4.1309
X4.1646Y-4.9268
X4.1928Y-4.3257
X4.2045Y-3.2866
X4.2081Y-2.8033
X4.2146Y-3.5409
X4.4191Y-2.6761
X4.4492Y-4.7313
X4.8024Y-2.5332
X4.885Y-3.288
X4.8857Y-4.8607
X4.8901Y-4.0712
X4.9251Y-1.5793
X4.9395Y-3.5915
X4.9611Y-4.0113
X4.9633Y-3.2187
X5.0212Y-4.7671
X5.2042Y-1.5617
T5
X1.6757Y-1.7314
X1.7239Y-1.5891
X1.7753Y-2.2569
X1.7755Y-2.9656
X1.8964Y-2.4367
X1.9372Y-2.4832
X1.9372Y-2.5787
X1.9792Y-2.4385
X2.0345Y-2.5798
X2.0807Y-2.0787
X2.0811Y-2.6734
X2.1641Y-2.6322
X2.1667Y-2.2243
X2.3189Y-1.5463
X2.3481Y-4.1536
X2.35Y-3.9679
X2.4641Y-1.9895
X2.5522Y-1.9881
X2.64Y-1.2795
X2.8226Y-4.0728
X2.8572Y-3.9368
X3.0463Y-4.5963
X3.1389Y-3.9256
X3.1668Y-2.6422
X3.1746Y-4.7913
X3.3942Y-2.0556
X3.4984Y-1.2269
X4.0392Y-3.4031
X4.0509Y-4.5886
X4.0963Y-4.8585
X4.241Y-2.1729
X4.4591Y-1.6607
X4.4913Y-2.5183
X4.7333Y-2.3748
X4.8486Y-2.0586
X4.9622Y-1.7364
X4.9935Y-1.4271
X5.2137Y-1.6722
X5.2209Y-1.7359
X5.2842Y-1.9931
T6
X3.7301Y-2.3937
X3.7892Y-2.3937
X5.4138Y-1.9305
X5.4138Y-1.9896
T7
X3.0211Y-2.2632
X3.2179Y-2.2632
X4.4315Y-1.2482
X4.4315Y-2.2482
X4.7876Y-1.2892
X4.7876Y-1.3876
T8
X1.8952Y-3.2293
X1.897Y-2.986
X1.897Y-3.086
X1.9952Y-3.2293
X2.4453Y-1.7436
X2.4453Y-1.8436
X2.5904Y-1.7448
X2.5904Y-1.8448
X3.7173Y-1.2419
X3.7173Y-1.3419
T9
X2.5575Y-2.3367
X2.9575Y-2.3367
X3.9636Y-1.3303
X3.9679Y-2.4961
X4.0636Y-1.3303
X4.1636Y-1.3303
X4.3679Y-2.4961
X4.5374Y-2.0189
X4.5374Y-2.4189
X4.6681Y-1.5516
X4.6681Y-1.9516
T10
X2.2122Y-2.8528
X2.2122Y-3.6402
X2.2122Y-4.4276
X2.4622Y-2.7528
X2.4622Y-3.5402
X2.4622Y-4.3276
X2.9996Y-2.8528
X2.9996Y-3.6402
X2.9996Y-4.4276
X3.2496Y-2.7528
X3.2496Y-3.5402
X3.2496Y-4.3276
X3.787Y-2.8528
X3.787Y-3.6402
X3.787Y-4.4276
X4.037Y-2.7528
X4.037Y-3.5402
X4.037Y-4.3276
X4.5744Y-2.8528
X4.5744Y-3.6402
X4.5744Y-4.4276
X4.8244Y-2.7528
X4.8244Y-3.5402
X4.8244Y-4.3276
T11
X2.5134Y-1.4676
T6
G00X2.015Y-1.25
M15
G01X2.015Y-1.2264
M16
G05
G00X2.015Y-1.4244
M15
G01X2.015Y-1.3811
M16
G05
G00X2.3551Y-1.25
M15
G01X2.3551Y-1.2264
M16
G05
G00X2.3551Y-1.4244
M15
G01X2.3551Y-1.3811
M16
G05
T0
M30
