%TF.GenerationSoftware,KiCad,Pcbnew,(6.0.0)*%
%TF.CreationDate,2022-04-21T22:47:23+02:00*%
%TF.ProjectId,keyboard_v1.0,6b657962-6f61-4726-945f-76312e302e6b,rev?*%
%TF.SameCoordinates,Original*%
%TF.FileFunction,Legend,Bot*%
%TF.FilePolarity,Positive*%
%FSLAX46Y46*%
G04 Gerber Fmt 4.6, Leading zero omitted, Abs format (unit mm)*
G04 Created by KiCad (PCBNEW (6.0.0)) date 2022-04-21 22:47:23*
%MOMM*%
%LPD*%
G01*
G04 APERTURE LIST*
%ADD10C,0.150000*%
%ADD11C,0.120000*%
G04 APERTURE END LIST*
D10*
%TO.C,C1*%
X66101666Y-82120142D02*
X66149285Y-82167761D01*
X66292142Y-82215380D01*
X66387380Y-82215380D01*
X66530238Y-82167761D01*
X66625476Y-82072523D01*
X66673095Y-81977285D01*
X66720714Y-81786809D01*
X66720714Y-81643952D01*
X66673095Y-81453476D01*
X66625476Y-81358238D01*
X66530238Y-81263000D01*
X66387380Y-81215380D01*
X66292142Y-81215380D01*
X66149285Y-81263000D01*
X66101666Y-81310619D01*
X65149285Y-82215380D02*
X65720714Y-82215380D01*
X65435000Y-82215380D02*
X65435000Y-81215380D01*
X65530238Y-81358238D01*
X65625476Y-81453476D01*
X65720714Y-81501095D01*
%TO.C,C11*%
X127031357Y-82284142D02*
X127078976Y-82331761D01*
X127221833Y-82379380D01*
X127317071Y-82379380D01*
X127459928Y-82331761D01*
X127555166Y-82236523D01*
X127602785Y-82141285D01*
X127650404Y-81950809D01*
X127650404Y-81807952D01*
X127602785Y-81617476D01*
X127555166Y-81522238D01*
X127459928Y-81427000D01*
X127317071Y-81379380D01*
X127221833Y-81379380D01*
X127078976Y-81427000D01*
X127031357Y-81474619D01*
X126078976Y-82379380D02*
X126650404Y-82379380D01*
X126364690Y-82379380D02*
X126364690Y-81379380D01*
X126459928Y-81522238D01*
X126555166Y-81617476D01*
X126650404Y-81665095D01*
X125126595Y-82379380D02*
X125698023Y-82379380D01*
X125412309Y-82379380D02*
X125412309Y-81379380D01*
X125507547Y-81522238D01*
X125602785Y-81617476D01*
X125698023Y-81665095D01*
%TO.C,D11*%
X111214285Y-94952380D02*
X111214285Y-93952380D01*
X110976190Y-93952380D01*
X110833333Y-94000000D01*
X110738095Y-94095238D01*
X110690476Y-94190476D01*
X110642857Y-94380952D01*
X110642857Y-94523809D01*
X110690476Y-94714285D01*
X110738095Y-94809523D01*
X110833333Y-94904761D01*
X110976190Y-94952380D01*
X111214285Y-94952380D01*
X109690476Y-94952380D02*
X110261904Y-94952380D01*
X109976190Y-94952380D02*
X109976190Y-93952380D01*
X110071428Y-94095238D01*
X110166666Y-94190476D01*
X110261904Y-94238095D01*
X108738095Y-94952380D02*
X109309523Y-94952380D01*
X109023809Y-94952380D02*
X109023809Y-93952380D01*
X109119047Y-94095238D01*
X109214285Y-94190476D01*
X109309523Y-94238095D01*
%TO.C,C7*%
X105900666Y-84228142D02*
X105948285Y-84275761D01*
X106091142Y-84323380D01*
X106186380Y-84323380D01*
X106329238Y-84275761D01*
X106424476Y-84180523D01*
X106472095Y-84085285D01*
X106519714Y-83894809D01*
X106519714Y-83751952D01*
X106472095Y-83561476D01*
X106424476Y-83466238D01*
X106329238Y-83371000D01*
X106186380Y-83323380D01*
X106091142Y-83323380D01*
X105948285Y-83371000D01*
X105900666Y-83418619D01*
X105567333Y-83323380D02*
X104900666Y-83323380D01*
X105329238Y-84323380D01*
%TO.C,C3*%
X66166666Y-102177142D02*
X66214285Y-102224761D01*
X66357142Y-102272380D01*
X66452380Y-102272380D01*
X66595238Y-102224761D01*
X66690476Y-102129523D01*
X66738095Y-102034285D01*
X66785714Y-101843809D01*
X66785714Y-101700952D01*
X66738095Y-101510476D01*
X66690476Y-101415238D01*
X66595238Y-101320000D01*
X66452380Y-101272380D01*
X66357142Y-101272380D01*
X66214285Y-101320000D01*
X66166666Y-101367619D01*
X65833333Y-101272380D02*
X65214285Y-101272380D01*
X65547619Y-101653333D01*
X65404761Y-101653333D01*
X65309523Y-101700952D01*
X65261904Y-101748571D01*
X65214285Y-101843809D01*
X65214285Y-102081904D01*
X65261904Y-102177142D01*
X65309523Y-102224761D01*
X65404761Y-102272380D01*
X65690476Y-102272380D01*
X65785714Y-102224761D01*
X65833333Y-102177142D01*
%TO.C,D2*%
X47537095Y-93489380D02*
X47537095Y-92489380D01*
X47299000Y-92489380D01*
X47156142Y-92537000D01*
X47060904Y-92632238D01*
X47013285Y-92727476D01*
X46965666Y-92917952D01*
X46965666Y-93060809D01*
X47013285Y-93251285D01*
X47060904Y-93346523D01*
X47156142Y-93441761D01*
X47299000Y-93489380D01*
X47537095Y-93489380D01*
X46584714Y-92584619D02*
X46537095Y-92537000D01*
X46441857Y-92489380D01*
X46203761Y-92489380D01*
X46108523Y-92537000D01*
X46060904Y-92584619D01*
X46013285Y-92679857D01*
X46013285Y-92775095D01*
X46060904Y-92917952D01*
X46632333Y-93489380D01*
X46013285Y-93489380D01*
%TO.C,D8*%
X90738095Y-94952380D02*
X90738095Y-93952380D01*
X90500000Y-93952380D01*
X90357142Y-94000000D01*
X90261904Y-94095238D01*
X90214285Y-94190476D01*
X90166666Y-94380952D01*
X90166666Y-94523809D01*
X90214285Y-94714285D01*
X90261904Y-94809523D01*
X90357142Y-94904761D01*
X90500000Y-94952380D01*
X90738095Y-94952380D01*
X89595238Y-94380952D02*
X89690476Y-94333333D01*
X89738095Y-94285714D01*
X89785714Y-94190476D01*
X89785714Y-94142857D01*
X89738095Y-94047619D01*
X89690476Y-94000000D01*
X89595238Y-93952380D01*
X89404761Y-93952380D01*
X89309523Y-94000000D01*
X89261904Y-94047619D01*
X89214285Y-94142857D01*
X89214285Y-94190476D01*
X89261904Y-94285714D01*
X89309523Y-94333333D01*
X89404761Y-94380952D01*
X89595238Y-94380952D01*
X89690476Y-94428571D01*
X89738095Y-94476190D01*
X89785714Y-94571428D01*
X89785714Y-94761904D01*
X89738095Y-94857142D01*
X89690476Y-94904761D01*
X89595238Y-94952380D01*
X89404761Y-94952380D01*
X89309523Y-94904761D01*
X89261904Y-94857142D01*
X89214285Y-94761904D01*
X89214285Y-94571428D01*
X89261904Y-94476190D01*
X89309523Y-94428571D01*
X89404761Y-94380952D01*
%TO.C,D7*%
X90738095Y-74952380D02*
X90738095Y-73952380D01*
X90500000Y-73952380D01*
X90357142Y-74000000D01*
X90261904Y-74095238D01*
X90214285Y-74190476D01*
X90166666Y-74380952D01*
X90166666Y-74523809D01*
X90214285Y-74714285D01*
X90261904Y-74809523D01*
X90357142Y-74904761D01*
X90500000Y-74952380D01*
X90738095Y-74952380D01*
X89833333Y-73952380D02*
X89166666Y-73952380D01*
X89595238Y-74952380D01*
%TO.C,C10*%
X108249142Y-104050142D02*
X108296761Y-104002523D01*
X108344380Y-103859666D01*
X108344380Y-103764428D01*
X108296761Y-103621571D01*
X108201523Y-103526333D01*
X108106285Y-103478714D01*
X107915809Y-103431095D01*
X107772952Y-103431095D01*
X107582476Y-103478714D01*
X107487238Y-103526333D01*
X107392000Y-103621571D01*
X107344380Y-103764428D01*
X107344380Y-103859666D01*
X107392000Y-104002523D01*
X107439619Y-104050142D01*
X108344380Y-105002523D02*
X108344380Y-104431095D01*
X108344380Y-104716809D02*
X107344380Y-104716809D01*
X107487238Y-104621571D01*
X107582476Y-104526333D01*
X107630095Y-104431095D01*
X107344380Y-105621571D02*
X107344380Y-105716809D01*
X107392000Y-105812047D01*
X107439619Y-105859666D01*
X107534857Y-105907285D01*
X107725333Y-105954904D01*
X107963428Y-105954904D01*
X108153904Y-105907285D01*
X108249142Y-105859666D01*
X108296761Y-105812047D01*
X108344380Y-105716809D01*
X108344380Y-105621571D01*
X108296761Y-105526333D01*
X108249142Y-105478714D01*
X108153904Y-105431095D01*
X107963428Y-105383476D01*
X107725333Y-105383476D01*
X107534857Y-105431095D01*
X107439619Y-105478714D01*
X107392000Y-105526333D01*
X107344380Y-105621571D01*
%TO.C,D4*%
X70738095Y-74952380D02*
X70738095Y-73952380D01*
X70500000Y-73952380D01*
X70357142Y-74000000D01*
X70261904Y-74095238D01*
X70214285Y-74190476D01*
X70166666Y-74380952D01*
X70166666Y-74523809D01*
X70214285Y-74714285D01*
X70261904Y-74809523D01*
X70357142Y-74904761D01*
X70500000Y-74952380D01*
X70738095Y-74952380D01*
X69309523Y-74285714D02*
X69309523Y-74952380D01*
X69547619Y-73904761D02*
X69785714Y-74619047D01*
X69166666Y-74619047D01*
%TO.C,D5*%
X70738095Y-94952380D02*
X70738095Y-93952380D01*
X70500000Y-93952380D01*
X70357142Y-94000000D01*
X70261904Y-94095238D01*
X70214285Y-94190476D01*
X70166666Y-94380952D01*
X70166666Y-94523809D01*
X70214285Y-94714285D01*
X70261904Y-94809523D01*
X70357142Y-94904761D01*
X70500000Y-94952380D01*
X70738095Y-94952380D01*
X69261904Y-93952380D02*
X69738095Y-93952380D01*
X69785714Y-94428571D01*
X69738095Y-94380952D01*
X69642857Y-94333333D01*
X69404761Y-94333333D01*
X69309523Y-94380952D01*
X69261904Y-94428571D01*
X69214285Y-94523809D01*
X69214285Y-94761904D01*
X69261904Y-94857142D01*
X69309523Y-94904761D01*
X69404761Y-94952380D01*
X69642857Y-94952380D01*
X69738095Y-94904761D01*
X69785714Y-94857142D01*
%TO.C,D6*%
X70738095Y-114952380D02*
X70738095Y-113952380D01*
X70500000Y-113952380D01*
X70357142Y-114000000D01*
X70261904Y-114095238D01*
X70214285Y-114190476D01*
X70166666Y-114380952D01*
X70166666Y-114523809D01*
X70214285Y-114714285D01*
X70261904Y-114809523D01*
X70357142Y-114904761D01*
X70500000Y-114952380D01*
X70738095Y-114952380D01*
X69309523Y-113952380D02*
X69500000Y-113952380D01*
X69595238Y-114000000D01*
X69642857Y-114047619D01*
X69738095Y-114190476D01*
X69785714Y-114380952D01*
X69785714Y-114761904D01*
X69738095Y-114857142D01*
X69690476Y-114904761D01*
X69595238Y-114952380D01*
X69404761Y-114952380D01*
X69309523Y-114904761D01*
X69261904Y-114857142D01*
X69214285Y-114761904D01*
X69214285Y-114523809D01*
X69261904Y-114428571D01*
X69309523Y-114380952D01*
X69404761Y-114333333D01*
X69595238Y-114333333D01*
X69690476Y-114380952D01*
X69738095Y-114428571D01*
X69785714Y-114523809D01*
%TO.C,R1*%
X59829666Y-62847380D02*
X60163000Y-62371190D01*
X60401095Y-62847380D02*
X60401095Y-61847380D01*
X60020142Y-61847380D01*
X59924904Y-61895000D01*
X59877285Y-61942619D01*
X59829666Y-62037857D01*
X59829666Y-62180714D01*
X59877285Y-62275952D01*
X59924904Y-62323571D01*
X60020142Y-62371190D01*
X60401095Y-62371190D01*
X58877285Y-62847380D02*
X59448714Y-62847380D01*
X59163000Y-62847380D02*
X59163000Y-61847380D01*
X59258238Y-61990238D01*
X59353476Y-62085476D01*
X59448714Y-62133095D01*
%TO.C,C2*%
X66166666Y-122087142D02*
X66214285Y-122134761D01*
X66357142Y-122182380D01*
X66452380Y-122182380D01*
X66595238Y-122134761D01*
X66690476Y-122039523D01*
X66738095Y-121944285D01*
X66785714Y-121753809D01*
X66785714Y-121610952D01*
X66738095Y-121420476D01*
X66690476Y-121325238D01*
X66595238Y-121230000D01*
X66452380Y-121182380D01*
X66357142Y-121182380D01*
X66214285Y-121230000D01*
X66166666Y-121277619D01*
X65785714Y-121277619D02*
X65738095Y-121230000D01*
X65642857Y-121182380D01*
X65404761Y-121182380D01*
X65309523Y-121230000D01*
X65261904Y-121277619D01*
X65214285Y-121372857D01*
X65214285Y-121468095D01*
X65261904Y-121610952D01*
X65833333Y-122182380D01*
X65214285Y-122182380D01*
%TO.C,C5*%
X86535666Y-122152142D02*
X86583285Y-122199761D01*
X86726142Y-122247380D01*
X86821380Y-122247380D01*
X86964238Y-122199761D01*
X87059476Y-122104523D01*
X87107095Y-122009285D01*
X87154714Y-121818809D01*
X87154714Y-121675952D01*
X87107095Y-121485476D01*
X87059476Y-121390238D01*
X86964238Y-121295000D01*
X86821380Y-121247380D01*
X86726142Y-121247380D01*
X86583285Y-121295000D01*
X86535666Y-121342619D01*
X85630904Y-121247380D02*
X86107095Y-121247380D01*
X86154714Y-121723571D01*
X86107095Y-121675952D01*
X86011857Y-121628333D01*
X85773761Y-121628333D01*
X85678523Y-121675952D01*
X85630904Y-121723571D01*
X85583285Y-121818809D01*
X85583285Y-122056904D01*
X85630904Y-122152142D01*
X85678523Y-122199761D01*
X85773761Y-122247380D01*
X86011857Y-122247380D01*
X86107095Y-122199761D01*
X86154714Y-122152142D01*
%TO.C,D12*%
X111214285Y-114952380D02*
X111214285Y-113952380D01*
X110976190Y-113952380D01*
X110833333Y-114000000D01*
X110738095Y-114095238D01*
X110690476Y-114190476D01*
X110642857Y-114380952D01*
X110642857Y-114523809D01*
X110690476Y-114714285D01*
X110738095Y-114809523D01*
X110833333Y-114904761D01*
X110976190Y-114952380D01*
X111214285Y-114952380D01*
X109690476Y-114952380D02*
X110261904Y-114952380D01*
X109976190Y-114952380D02*
X109976190Y-113952380D01*
X110071428Y-114095238D01*
X110166666Y-114190476D01*
X110261904Y-114238095D01*
X109309523Y-114047619D02*
X109261904Y-114000000D01*
X109166666Y-113952380D01*
X108928571Y-113952380D01*
X108833333Y-114000000D01*
X108785714Y-114047619D01*
X108738095Y-114142857D01*
X108738095Y-114238095D01*
X108785714Y-114380952D01*
X109357142Y-114952380D01*
X108738095Y-114952380D01*
%TO.C,C14*%
X127368857Y-105460142D02*
X127416476Y-105507761D01*
X127559333Y-105555380D01*
X127654571Y-105555380D01*
X127797428Y-105507761D01*
X127892666Y-105412523D01*
X127940285Y-105317285D01*
X127987904Y-105126809D01*
X127987904Y-104983952D01*
X127940285Y-104793476D01*
X127892666Y-104698238D01*
X127797428Y-104603000D01*
X127654571Y-104555380D01*
X127559333Y-104555380D01*
X127416476Y-104603000D01*
X127368857Y-104650619D01*
X126416476Y-105555380D02*
X126987904Y-105555380D01*
X126702190Y-105555380D02*
X126702190Y-104555380D01*
X126797428Y-104698238D01*
X126892666Y-104793476D01*
X126987904Y-104841095D01*
X125559333Y-104888714D02*
X125559333Y-105555380D01*
X125797428Y-104507761D02*
X126035523Y-105222047D01*
X125416476Y-105222047D01*
%TO.C,D9*%
X90738095Y-114952380D02*
X90738095Y-113952380D01*
X90500000Y-113952380D01*
X90357142Y-114000000D01*
X90261904Y-114095238D01*
X90214285Y-114190476D01*
X90166666Y-114380952D01*
X90166666Y-114523809D01*
X90214285Y-114714285D01*
X90261904Y-114809523D01*
X90357142Y-114904761D01*
X90500000Y-114952380D01*
X90738095Y-114952380D01*
X89690476Y-114952380D02*
X89500000Y-114952380D01*
X89404761Y-114904761D01*
X89357142Y-114857142D01*
X89261904Y-114714285D01*
X89214285Y-114523809D01*
X89214285Y-114142857D01*
X89261904Y-114047619D01*
X89309523Y-114000000D01*
X89404761Y-113952380D01*
X89595238Y-113952380D01*
X89690476Y-114000000D01*
X89738095Y-114047619D01*
X89785714Y-114142857D01*
X89785714Y-114380952D01*
X89738095Y-114476190D01*
X89690476Y-114523809D01*
X89595238Y-114571428D01*
X89404761Y-114571428D01*
X89309523Y-114523809D01*
X89261904Y-114476190D01*
X89214285Y-114380952D01*
%TO.C,C8*%
X106502666Y-122152142D02*
X106550285Y-122199761D01*
X106693142Y-122247380D01*
X106788380Y-122247380D01*
X106931238Y-122199761D01*
X107026476Y-122104523D01*
X107074095Y-122009285D01*
X107121714Y-121818809D01*
X107121714Y-121675952D01*
X107074095Y-121485476D01*
X107026476Y-121390238D01*
X106931238Y-121295000D01*
X106788380Y-121247380D01*
X106693142Y-121247380D01*
X106550285Y-121295000D01*
X106502666Y-121342619D01*
X105931238Y-121675952D02*
X106026476Y-121628333D01*
X106074095Y-121580714D01*
X106121714Y-121485476D01*
X106121714Y-121437857D01*
X106074095Y-121342619D01*
X106026476Y-121295000D01*
X105931238Y-121247380D01*
X105740761Y-121247380D01*
X105645523Y-121295000D01*
X105597904Y-121342619D01*
X105550285Y-121437857D01*
X105550285Y-121485476D01*
X105597904Y-121580714D01*
X105645523Y-121628333D01*
X105740761Y-121675952D01*
X105931238Y-121675952D01*
X106026476Y-121723571D01*
X106074095Y-121771190D01*
X106121714Y-121866428D01*
X106121714Y-122056904D01*
X106074095Y-122152142D01*
X106026476Y-122199761D01*
X105931238Y-122247380D01*
X105740761Y-122247380D01*
X105645523Y-122199761D01*
X105597904Y-122152142D01*
X105550285Y-122056904D01*
X105550285Y-121866428D01*
X105597904Y-121771190D01*
X105645523Y-121723571D01*
X105740761Y-121675952D01*
%TO.C,C12*%
X127076857Y-122119142D02*
X127124476Y-122166761D01*
X127267333Y-122214380D01*
X127362571Y-122214380D01*
X127505428Y-122166761D01*
X127600666Y-122071523D01*
X127648285Y-121976285D01*
X127695904Y-121785809D01*
X127695904Y-121642952D01*
X127648285Y-121452476D01*
X127600666Y-121357238D01*
X127505428Y-121262000D01*
X127362571Y-121214380D01*
X127267333Y-121214380D01*
X127124476Y-121262000D01*
X127076857Y-121309619D01*
X126124476Y-122214380D02*
X126695904Y-122214380D01*
X126410190Y-122214380D02*
X126410190Y-121214380D01*
X126505428Y-121357238D01*
X126600666Y-121452476D01*
X126695904Y-121500095D01*
X125743523Y-121309619D02*
X125695904Y-121262000D01*
X125600666Y-121214380D01*
X125362571Y-121214380D01*
X125267333Y-121262000D01*
X125219714Y-121309619D01*
X125172095Y-121404857D01*
X125172095Y-121500095D01*
X125219714Y-121642952D01*
X125791142Y-122214380D01*
X125172095Y-122214380D01*
%TO.C,D3*%
X47788095Y-116731380D02*
X47788095Y-115731380D01*
X47550000Y-115731380D01*
X47407142Y-115779000D01*
X47311904Y-115874238D01*
X47264285Y-115969476D01*
X47216666Y-116159952D01*
X47216666Y-116302809D01*
X47264285Y-116493285D01*
X47311904Y-116588523D01*
X47407142Y-116683761D01*
X47550000Y-116731380D01*
X47788095Y-116731380D01*
X46883333Y-115731380D02*
X46264285Y-115731380D01*
X46597619Y-116112333D01*
X46454761Y-116112333D01*
X46359523Y-116159952D01*
X46311904Y-116207571D01*
X46264285Y-116302809D01*
X46264285Y-116540904D01*
X46311904Y-116636142D01*
X46359523Y-116683761D01*
X46454761Y-116731380D01*
X46740476Y-116731380D01*
X46835714Y-116683761D01*
X46883333Y-116636142D01*
%TO.C,C4*%
X87973142Y-84541333D02*
X88020761Y-84493714D01*
X88068380Y-84350857D01*
X88068380Y-84255619D01*
X88020761Y-84112761D01*
X87925523Y-84017523D01*
X87830285Y-83969904D01*
X87639809Y-83922285D01*
X87496952Y-83922285D01*
X87306476Y-83969904D01*
X87211238Y-84017523D01*
X87116000Y-84112761D01*
X87068380Y-84255619D01*
X87068380Y-84350857D01*
X87116000Y-84493714D01*
X87163619Y-84541333D01*
X87401714Y-85398476D02*
X88068380Y-85398476D01*
X87020761Y-85160380D02*
X87735047Y-84922285D01*
X87735047Y-85541333D01*
%TO.C,C6*%
X88319142Y-104285333D02*
X88366761Y-104237714D01*
X88414380Y-104094857D01*
X88414380Y-103999619D01*
X88366761Y-103856761D01*
X88271523Y-103761523D01*
X88176285Y-103713904D01*
X87985809Y-103666285D01*
X87842952Y-103666285D01*
X87652476Y-103713904D01*
X87557238Y-103761523D01*
X87462000Y-103856761D01*
X87414380Y-103999619D01*
X87414380Y-104094857D01*
X87462000Y-104237714D01*
X87509619Y-104285333D01*
X87414380Y-105142476D02*
X87414380Y-104952000D01*
X87462000Y-104856761D01*
X87509619Y-104809142D01*
X87652476Y-104713904D01*
X87842952Y-104666285D01*
X88223904Y-104666285D01*
X88319142Y-104713904D01*
X88366761Y-104761523D01*
X88414380Y-104856761D01*
X88414380Y-105047238D01*
X88366761Y-105142476D01*
X88319142Y-105190095D01*
X88223904Y-105237714D01*
X87985809Y-105237714D01*
X87890571Y-105190095D01*
X87842952Y-105142476D01*
X87795333Y-105047238D01*
X87795333Y-104856761D01*
X87842952Y-104761523D01*
X87890571Y-104713904D01*
X87985809Y-104666285D01*
%TO.C,D10*%
X111214285Y-74952380D02*
X111214285Y-73952380D01*
X110976190Y-73952380D01*
X110833333Y-74000000D01*
X110738095Y-74095238D01*
X110690476Y-74190476D01*
X110642857Y-74380952D01*
X110642857Y-74523809D01*
X110690476Y-74714285D01*
X110738095Y-74809523D01*
X110833333Y-74904761D01*
X110976190Y-74952380D01*
X111214285Y-74952380D01*
X109690476Y-74952380D02*
X110261904Y-74952380D01*
X109976190Y-74952380D02*
X109976190Y-73952380D01*
X110071428Y-74095238D01*
X110166666Y-74190476D01*
X110261904Y-74238095D01*
X109071428Y-73952380D02*
X108976190Y-73952380D01*
X108880952Y-74000000D01*
X108833333Y-74047619D01*
X108785714Y-74142857D01*
X108738095Y-74333333D01*
X108738095Y-74571428D01*
X108785714Y-74761904D01*
X108833333Y-74857142D01*
X108880952Y-74904761D01*
X108976190Y-74952380D01*
X109071428Y-74952380D01*
X109166666Y-74904761D01*
X109214285Y-74857142D01*
X109261904Y-74761904D01*
X109309523Y-74571428D01*
X109309523Y-74333333D01*
X109261904Y-74142857D01*
X109214285Y-74047619D01*
X109166666Y-74000000D01*
X109071428Y-73952380D01*
%TO.C,D1*%
X47596095Y-74906380D02*
X47596095Y-73906380D01*
X47358000Y-73906380D01*
X47215142Y-73954000D01*
X47119904Y-74049238D01*
X47072285Y-74144476D01*
X47024666Y-74334952D01*
X47024666Y-74477809D01*
X47072285Y-74668285D01*
X47119904Y-74763523D01*
X47215142Y-74858761D01*
X47358000Y-74906380D01*
X47596095Y-74906380D01*
X46072285Y-74906380D02*
X46643714Y-74906380D01*
X46358000Y-74906380D02*
X46358000Y-73906380D01*
X46453238Y-74049238D01*
X46548476Y-74144476D01*
X46643714Y-74192095D01*
%TO.C,R3*%
X42337666Y-112017380D02*
X42671000Y-111541190D01*
X42909095Y-112017380D02*
X42909095Y-111017380D01*
X42528142Y-111017380D01*
X42432904Y-111065000D01*
X42385285Y-111112619D01*
X42337666Y-111207857D01*
X42337666Y-111350714D01*
X42385285Y-111445952D01*
X42432904Y-111493571D01*
X42528142Y-111541190D01*
X42909095Y-111541190D01*
X42004333Y-111017380D02*
X41385285Y-111017380D01*
X41718619Y-111398333D01*
X41575761Y-111398333D01*
X41480523Y-111445952D01*
X41432904Y-111493571D01*
X41385285Y-111588809D01*
X41385285Y-111826904D01*
X41432904Y-111922142D01*
X41480523Y-111969761D01*
X41575761Y-112017380D01*
X41861476Y-112017380D01*
X41956714Y-111969761D01*
X42004333Y-111922142D01*
%TO.C,R2*%
X44846666Y-92022380D02*
X45180000Y-91546190D01*
X45418095Y-92022380D02*
X45418095Y-91022380D01*
X45037142Y-91022380D01*
X44941904Y-91070000D01*
X44894285Y-91117619D01*
X44846666Y-91212857D01*
X44846666Y-91355714D01*
X44894285Y-91450952D01*
X44941904Y-91498571D01*
X45037142Y-91546190D01*
X45418095Y-91546190D01*
X44465714Y-91117619D02*
X44418095Y-91070000D01*
X44322857Y-91022380D01*
X44084761Y-91022380D01*
X43989523Y-91070000D01*
X43941904Y-91117619D01*
X43894285Y-91212857D01*
X43894285Y-91308095D01*
X43941904Y-91450952D01*
X44513333Y-92022380D01*
X43894285Y-92022380D01*
D11*
%TO.C,C1*%
X65738748Y-84235000D02*
X66261252Y-84235000D01*
X65738748Y-82765000D02*
X66261252Y-82765000D01*
%TO.C,C11*%
X126238748Y-84235000D02*
X126761252Y-84235000D01*
X126238748Y-82765000D02*
X126761252Y-82765000D01*
%TO.C,D11*%
X111750000Y-93500000D02*
X107450000Y-93500000D01*
X107450000Y-93500000D02*
X107450000Y-91500000D01*
X107450000Y-91500000D02*
X111750000Y-91500000D01*
%TO.C,C7*%
X105603748Y-86333000D02*
X106126252Y-86333000D01*
X105603748Y-84863000D02*
X106126252Y-84863000D01*
%TO.C,C3*%
X66261252Y-104235000D02*
X65738748Y-104235000D01*
X66261252Y-102765000D02*
X65738748Y-102765000D01*
%TO.C,D2*%
X44439000Y-93886000D02*
X48739000Y-93886000D01*
X48739000Y-95886000D02*
X44439000Y-95886000D01*
X44439000Y-95886000D02*
X44439000Y-93886000D01*
%TO.C,D8*%
X87450000Y-93500000D02*
X87450000Y-91500000D01*
X87450000Y-91500000D02*
X91750000Y-91500000D01*
X91750000Y-93500000D02*
X87450000Y-93500000D01*
%TO.C,D7*%
X91750000Y-73500000D02*
X87450000Y-73500000D01*
X87450000Y-71500000D02*
X91750000Y-71500000D01*
X87450000Y-73500000D02*
X87450000Y-71500000D01*
%TO.C,C10*%
X105477000Y-104954252D02*
X105477000Y-104431748D01*
X106947000Y-104954252D02*
X106947000Y-104431748D01*
%TO.C,D4*%
X67450000Y-71500000D02*
X71750000Y-71500000D01*
X67450000Y-73500000D02*
X67450000Y-71500000D01*
X71750000Y-73500000D02*
X67450000Y-73500000D01*
%TO.C,D5*%
X67450000Y-91500000D02*
X71750000Y-91500000D01*
X67450000Y-93500000D02*
X67450000Y-91500000D01*
X71750000Y-93500000D02*
X67450000Y-93500000D01*
%TO.C,D6*%
X67450000Y-113500000D02*
X67450000Y-111500000D01*
X67450000Y-111500000D02*
X71750000Y-111500000D01*
X71750000Y-113500000D02*
X67450000Y-113500000D01*
%TO.C,R1*%
X59493936Y-63526000D02*
X59948064Y-63526000D01*
X59493936Y-64996000D02*
X59948064Y-64996000D01*
%TO.C,C2*%
X65738748Y-124235000D02*
X66261252Y-124235000D01*
X65738748Y-122765000D02*
X66261252Y-122765000D01*
%TO.C,C5*%
X86238748Y-122765000D02*
X86761252Y-122765000D01*
X86238748Y-124235000D02*
X86761252Y-124235000D01*
%TO.C,D12*%
X111750000Y-113500000D02*
X107450000Y-113500000D01*
X107450000Y-111500000D02*
X111750000Y-111500000D01*
X107450000Y-113500000D02*
X107450000Y-111500000D01*
%TO.C,C14*%
X126761252Y-104235000D02*
X126238748Y-104235000D01*
X126761252Y-102765000D02*
X126238748Y-102765000D01*
%TO.C,D9*%
X87450000Y-111500000D02*
X91750000Y-111500000D01*
X87450000Y-113500000D02*
X87450000Y-111500000D01*
X91750000Y-113500000D02*
X87450000Y-113500000D01*
%TO.C,C8*%
X106238748Y-124235000D02*
X106761252Y-124235000D01*
X106238748Y-122765000D02*
X106761252Y-122765000D01*
%TO.C,C12*%
X126238748Y-124235000D02*
X126761252Y-124235000D01*
X126238748Y-122765000D02*
X126761252Y-122765000D01*
%TO.C,D3*%
X44500000Y-113279000D02*
X48800000Y-113279000D01*
X48800000Y-115279000D02*
X44500000Y-115279000D01*
X44500000Y-115279000D02*
X44500000Y-113279000D01*
%TO.C,C4*%
X85341000Y-84393748D02*
X85341000Y-84916252D01*
X86811000Y-84393748D02*
X86811000Y-84916252D01*
%TO.C,C6*%
X87017000Y-104713252D02*
X87017000Y-104190748D01*
X85547000Y-104713252D02*
X85547000Y-104190748D01*
%TO.C,D10*%
X107450000Y-71500000D02*
X111750000Y-71500000D01*
X107450000Y-73500000D02*
X107450000Y-71500000D01*
X111750000Y-73500000D02*
X107450000Y-73500000D01*
%TO.C,D1*%
X44308000Y-73454000D02*
X44308000Y-71454000D01*
X44308000Y-71454000D02*
X48608000Y-71454000D01*
X48608000Y-73454000D02*
X44308000Y-73454000D01*
%TO.C,R3*%
X41943936Y-109180000D02*
X42398064Y-109180000D01*
X41943936Y-110650000D02*
X42398064Y-110650000D01*
%TO.C,R2*%
X44452936Y-89185000D02*
X44907064Y-89185000D01*
X44452936Y-90655000D02*
X44907064Y-90655000D01*
%TD*%
M02*
